<?xml version="1.0" encoding="UTF-8" standalone="no"?>
<svg
   xmlns:dc="http://purl.org/dc/elements/1.1/"
   xmlns:cc="http://creativecommons.org/ns#"
   xmlns:rdf="http://www.w3.org/1999/02/22-rdf-syntax-ns#"
   xmlns:svg="http://www.w3.org/2000/svg"
   xmlns="http://www.w3.org/2000/svg"
   xmlns:sodipodi="http://sodipodi.sourceforge.net/DTD/sodipodi-0.dtd"
   xmlns:inkscape="http://www.inkscape.org/namespaces/inkscape"
   viewBox="0 0 64.69841 100"
   version="1.1"
   id="svg11"
   sodipodi:docname="demo_icon_5_white.svg"
   width="64.69841"
   height="100"
   inkscape:version="0.92.3 (2405546, 2018-03-11)">
  <metadata
     id="metadata17">
    <rdf:RDF>
      <cc:Work
         rdf:about="">
        <dc:format>image/svg+xml</dc:format>
        <dc:type
           rdf:resource="http://purl.org/dc/dcmitype/StillImage" />
        <dc:title></dc:title>
      </cc:Work>
    </rdf:RDF>
  </metadata>
  <defs
     id="defs15" />
  <sodipodi:namedview
     pagecolor="#ffffff"
     bordercolor="#666666"
     borderopacity="1"
     objecttolerance="10"
     gridtolerance="10"
     guidetolerance="10"
     inkscape:pageopacity="0"
     inkscape:pageshadow="2"
     inkscape:window-width="1098"
     inkscape:window-height="819"
     id="namedview13"
     showgrid="false"
     fit-margin-top="0"
     fit-margin-left="0"
     fit-margin-right="0"
     fit-margin-bottom="0"
     inkscape:zoom="3.9333333"
     inkscape:cx="1.4095531"
     inkscape:cy="30.000006"
     inkscape:window-x="0"
     inkscape:window-y="0"
     inkscape:window-maximized="0"
     inkscape:current-layer="svg11" />
  <g
     data-name="Layer 1"
     id="Layer_1"
     transform="matrix(1.6666667,0,0,1.6666667,-17.650745,8.4188102e-8)"
     style="fill:#ffffff">
    <path
       d="M 48.93359,48.48291 37,22.7793 V 12.87354 A 4.00031,4.00031 0 0 0 36,5 H 35.89758 L 36.96191,1.2749 A 1.00009,1.00009 0 0 0 36,0 H 24 A 1.00009,1.00009 0 0 0 23.03809,1.2749 L 24.10242,5 H 24 a 4.00031,4.00031 0 0 0 -1,7.87354 V 22.7793 L 11.06641,48.48145 a 4.93916,4.93916 0 0 0 0.63574,5.2373 C 15.34082,58.063 20.98438,60 30,60 c 9.01562,0 14.65918,-1.937 18.29785,-6.28125 a 4.937,4.937 0 0 0 0.63574,-5.23584 z M 34.67383,2 33.24609,7 H 26.75391 L 25.32617,2 Z m -9.7666,21.4209 A 1.00923,1.00923 0 0 0 25,23 V 12 a 0.99974,0.99974 0 0 0 -1,-1 2,2 0 0 1 0,-4 h 0.67383 l 0.36426,1.2749 A 1.00094,1.00094 0 0 0 26,9 h 8 A 1.00094,1.00094 0 0 0 34.96191,8.2749 L 35.32617,7 H 36 a 2,2 0 0 1 0,4 0.99974,0.99974 0 0 0 -1,1 v 11 a 0.99431,0.99431 0 0 0 0.09277,0.4209 l 3.48035,7.49658 c -5.43958,-0.21387 -7.334,0.96729 -9.163,2.11523 -1.79993,1.12982 -3.66614,2.29224 -9.915,2.045 z M 46.76465,52.43457 C 43.54,56.28369 38.37012,58 30,58 21.62988,58 16.46,56.28369 13.23535,52.43457 A 2.93155,2.93155 0 0 1 12.88086,49.32373 L 18.588,37.03143 c 0.892,0.049 1.731,0.07892 2.48425,0.07892 5.60254,0 7.60449,-1.25635 9.40137,-2.38379 1.82672,-1.14709 3.42737,-2.13782 9.053,-1.75519 l 7.59252,16.35383 a 2.92927,2.92927 0 0 1 -0.35449,3.10937 z"
       id="path4"
       inkscape:connector-curvature="0"
       style="fill:#ffffff" />
    <path
       d="m 17.7392,46.08594 a 1.0032,1.0032 0 0 0 -1.32031,0.50781 l -1.333,3 a 1.0002769,1.0002769 0 1 0 1.82813,0.8125 l 1.333,-3 A 1.0009,1.0009 0 0 0 17.7392,46.08594 Z"
       id="path6"
       inkscape:connector-curvature="0"
       style="fill:#ffffff" />
    <path
       d="m 20.40619,40.08594 a 1.00164,1.00164 0 0 0 -1.32031,0.50781 l -0.88867,2 a 1.0002769,1.0002769 0 1 0 1.82813,0.8125 l 0.88867,-2 a 1.0009,1.0009 0 0 0 -0.50782,-1.32031 z"
       id="path8"
       inkscape:connector-curvature="0"
       style="fill:#ffffff" />
  </g>
</svg>
