<?xml version="1.0" encoding="UTF-8" standalone="no"?>
<!-- Created with Inkscape (http://www.inkscape.org/) -->

<svg
   xmlns:dc="http://purl.org/dc/elements/1.1/"
   xmlns:cc="http://creativecommons.org/ns#"
   xmlns:rdf="http://www.w3.org/1999/02/22-rdf-syntax-ns#"
   xmlns:svg="http://www.w3.org/2000/svg"
   xmlns="http://www.w3.org/2000/svg"
   xmlns:sodipodi="http://sodipodi.sourceforge.net/DTD/sodipodi-0.dtd"
   xmlns:inkscape="http://www.inkscape.org/namespaces/inkscape"
   width="150"
   height="150"
   id="svg2424"
   sodipodi:version="0.32"
   inkscape:version="0.92.3 (2405546, 2018-03-11)"
   sodipodi:docname="demo_medal.svg"
   inkscape:output_extension="org.inkscape.output.svg.inkscape"
   version="1.1">
  <defs
     id="defs2426">
    <inkscape:perspective
       sodipodi:type="inkscape:persp3d"
       inkscape:vp_x="0 : 526.18109 : 1"
       inkscape:vp_y="0 : 1000 : 0"
       inkscape:vp_z="744.09448 : 526.18109 : 1"
       inkscape:persp3d-origin="372.04724 : 350.78739 : 1"
       id="perspective2432" />
  </defs>
  <sodipodi:namedview
     id="base"
     pagecolor="#ffffff"
     bordercolor="#666666"
     borderopacity="1.0"
     gridtolerance="10000"
     guidetolerance="10"
     objecttolerance="10"
     inkscape:pageopacity="0.0"
     inkscape:pageshadow="2"
     inkscape:zoom="1.979899"
     inkscape:cx="-13.673227"
     inkscape:cy="17.521248"
     inkscape:document-units="px"
     inkscape:current-layer="g821"
     showgrid="false"
     showguides="false"
     inkscape:window-width="1680"
     inkscape:window-height="965"
     inkscape:window-x="0"
     inkscape:window-y="0"
     fit-margin-top="0"
     fit-margin-left="0"
     fit-margin-right="0"
     fit-margin-bottom="0"
     inkscape:window-maximized="1">
    <inkscape:grid
       type="xygrid"
       id="grid2434"
       originx="-218.16805"
       originy="-484.6368" />
  </sodipodi:namedview>
  <metadata
     id="metadata2429">
    <rdf:RDF>
      <cc:Work
         rdf:about="">
        <dc:format>image/svg+xml</dc:format>
        <dc:type
           rdf:resource="http://purl.org/dc/dcmitype/StillImage" />
        <cc:license
           rdf:resource="http://creativecommons.org/publicdomain/zero/1.0/" />
        <dc:title>Certificate medal outline</dc:title>
        <dc:creator>
          <cc:Agent>
            <dc:title>Mohamed Ibrahim</dc:title>
          </cc:Agent>
        </dc:creator>
        <dc:publisher>
          <cc:Agent>
            <dc:title>clker.com</dc:title>
          </cc:Agent>
        </dc:publisher>
        <dc:subject>
          <rdf:Bag>
            <rdf:li>certificate medal congrtulations</rdf:li>
          </rdf:Bag>
        </dc:subject>
      </cc:Work>
      <cc:License
         rdf:about="http://creativecommons.org/publicdomain/zero/1.0/">
        <cc:permits
           rdf:resource="http://creativecommons.org/ns#Reproduction" />
        <cc:permits
           rdf:resource="http://creativecommons.org/ns#Distribution" />
        <cc:permits
           rdf:resource="http://creativecommons.org/ns#DerivativeWorks" />
      </cc:License>
    </rdf:RDF>
  </metadata>
  <g
     inkscape:label="Layer 1"
     inkscape:groupmode="layer"
     id="layer1"
     transform="translate(-218.16805,-417.72538)">
    <g
       id="g821"
       transform="matrix(0.6163524,0,0,0.6128816,76.68613,221.55175)"
       style="stroke:#ec6d06;stroke-width:3.25407195;stroke-miterlimit:4;stroke-dasharray:none;stroke-opacity:1">
      <path
         style="fill:none;fill-opacity:1;fill-rule:evenodd;stroke:#ec6d06;stroke-width:2;stroke-linecap:round;stroke-linejoin:round;stroke-miterlimit:4;stroke-dasharray:none;stroke-dashoffset:0;stroke-opacity:1"
         d="M 95.816406 15.808594 C 95.049264 15.557678 74.444143 30.967278 73.636719 30.980469 C 72.86266 30.993115 53.033242 16.233462 52.314453 16.519531 C 51.564681 16.817931 45.735 41.801646 45.125 42.328125 C 44.540207 42.832848 19.815025 44.205935 19.449219 44.884766 C 19.067644 45.592857 30.742385 68.458532 30.615234 69.251953 C 30.493338 70.012588 12.439316 86.878853 12.597656 87.632812 C 12.762822 88.419271 36.481291 98.46909 36.896484 99.158203 C 37.094335 99.486584 36.467684 105.70574 35.863281 111.92773 L 1.0019531 106.17188 L 7.1699219 124.47266 L 1.0019531 142.90234 L 37.951172 149.00195 L 74.933594 142.87109 L 111.94922 149.00195 L 148.99805 142.90234 L 142.76758 124.47266 L 148.99805 106.17188 L 115.88672 111.625 C 115.1905 104.61572 114.39704 97.106749 114.60938 96.726562 C 114.9854 96.05328 137.74898 86.348309 137.85938 85.585938 C 137.97452 84.790704 119.14155 67.277121 118.98828 66.488281 C 118.84135 65.732038 130.00954 43.738593 129.60156 43.083984 C 129.176 42.401159 103.43369 41.029707 102.80664 40.523438 C 102.20551 40.038089 96.551848 16.049141 95.816406 15.808594 z "
         transform="matrix(1.6224485,0,0,1.6316365,229.54712,320.08406)"
         id="rect2444" />
      <path
         transform="matrix(1.352456,0,0,1.3532276,189.01251,-141.613)"
         d="m 170,490 c -0.69231,0.61904 -29.13263,-7.96974 -30,-7.63782 -0.90475,0.34623 -17.77839,26.26205 -18.74665,26.29251 -0.92825,0.0292 -17.19404,-24.83127 -18.07184,-25.13453 -0.91563,-0.31634 -30.499956,8.69016 -31.261269,8.09111 -0.729854,-0.57429 2.789835,-30.07397 2.312338,-30.87052 -0.49808,-0.83089 -28.950253,-12.94794 -29.148392,-13.89621 -0.18995,-0.90907 21.468313,-21.24472 21.614544,-22.16185 0.152535,-0.95665 -13.854404,-28.52756 -13.396655,-29.38133 0.438833,-0.81849 30.101527,-2.47484 30.803064,-3.0834 0.731775,-0.6348 7.724074,-30.75882 8.623524,-31.11861 0.862282,-0.34493 24.649906,17.45305 25.578486,17.4378 0.96861,-0.0159 25.68838,-18.59768 26.60866,-18.29514 0.88226,0.29003 7.66432,29.21446 8.38546,29.79966 0.75222,0.61043 31.63279,2.26552 32.14331,3.08883 0.48941,0.78928 -12.90749,27.3061 -12.73123,28.21793 0.18386,0.95114 22.77588,22.06866 22.63775,23.0275 -0.13243,0.91922 -27.43974,12.62092 -27.89083,13.43272 C 166.98974,458.65544 170.72215,489.35428 170,490 Z"
         inkscape:randomized="0"
         inkscape:rounded="0.03"
         inkscape:flatsided="false"
         sodipodi:arg2="1.1902899"
         sodipodi:arg1="0.85623792"
         sodipodi:r2="53.851646"
         sodipodi:r1="76.302803"
         sodipodi:cy="432.36218"
         sodipodi:cx="120"
         sodipodi:sides="9"
         id="path2438"
         style="opacity:1;fill:none;fill-opacity:1;fill-rule:evenodd;stroke:#ec6d06;stroke-width:2.40536046;stroke-linecap:round;stroke-linejoin:round;stroke-miterlimit:4;stroke-dasharray:none;stroke-dashoffset:0;stroke-opacity:1"
         sodipodi:type="star" />
    </g>
  </g>
</svg>
