<?xml version="1.0" encoding="UTF-8" standalone="no"?>
<svg
   xmlns:dc="http://purl.org/dc/elements/1.1/"
   xmlns:cc="http://creativecommons.org/ns#"
   xmlns:rdf="http://www.w3.org/1999/02/22-rdf-syntax-ns#"
   xmlns:svg="http://www.w3.org/2000/svg"
   xmlns="http://www.w3.org/2000/svg"
   xmlns:sodipodi="http://sodipodi.sourceforge.net/DTD/sodipodi-0.dtd"
   xmlns:inkscape="http://www.inkscape.org/namespaces/inkscape"
   viewBox="0 0 86.666656 99.999997"
   version="1.1"
   id="svg24"
   sodipodi:docname="demo_icon_1_black.svg"
   width="86.666656"
   height="100"
   inkscape:version="0.92.3 (2405546, 2018-03-11)">
  <metadata
     id="metadata30">
    <rdf:RDF>
      <cc:Work
         rdf:about="">
        <dc:format>image/svg+xml</dc:format>
        <dc:type
           rdf:resource="http://purl.org/dc/dcmitype/StillImage" />
        <dc:title></dc:title>
      </cc:Work>
    </rdf:RDF>
  </metadata>
  <defs
     id="defs28" />
  <sodipodi:namedview
     pagecolor="#ffffff"
     bordercolor="#666666"
     borderopacity="1"
     objecttolerance="10"
     gridtolerance="10"
     guidetolerance="10"
     inkscape:pageopacity="0"
     inkscape:pageshadow="2"
     inkscape:window-width="1920"
     inkscape:window-height="995"
     id="namedview26"
     showgrid="false"
     fit-margin-top="0"
     fit-margin-left="0"
     fit-margin-right="0"
     fit-margin-bottom="0"
     inkscape:zoom="1"
     inkscape:cx="19"
     inkscape:cy="30.000001"
     inkscape:window-x="0"
     inkscape:window-y="0"
     inkscape:window-maximized="1"
     inkscape:current-layer="svg24" />
  <g
     id="text"
     transform="matrix(1.9230769,0,0,1.9230769,-14.692308,-15.384633)">
    <text
       font-size="9"
       transform="translate(2.4043,67.39014)"
       id="text18"
       style="font-size:9px;font-family:MyriadPro-Regular, 'Myriad Pro'">
      <tspan
         letter-spacing="-0.02599em"
         id="tspan4"
         style="letter-spacing:-0.02599em" />
      <tspan
         letter-spacing="-0.00401em"
         x="4.5542002"
         y="0"
         id="tspan6"
         style="letter-spacing:-0.00401em" />
      <tspan
         x="8.8559599"
         y="0"
         id="tspan8" />
      <tspan
         letter-spacing="-0.00998em"
         x="11.83496"
         y="0"
         id="tspan10"
         style="letter-spacing:-0.00998em" />
      <tspan
         x="14.68799"
         y="0"
         id="tspan12" />
      <tspan
         letter-spacing="-0.00298em"
         x="34.43359"
         y="0"
         id="tspan14"
         style="letter-spacing:-0.00298em" />
      <tspan
         x="38.84375"
         y="0"
         id="tspan16" />
    </text>
  </g>
  <g
     data-name="Layer 1"
     id="Layer_1"
     transform="matrix(1.6666664,0,0,1.6666664,-6.6666656,0)">
    <path
       d="M 51,29 H 42.3103 C 52.32666,21.657 56,9.986 56,1 A 1,1 0 0 0 54,1 34.41553,34.41553 0 0 1 53.273,7.89282 11.40928,11.40928 0 0 0 50.457,3.293 a 0.99989,0.99989 0 0 0 -1.414,1.414 10.35162,10.35162 0 0 1 2.92578,7.82422 c 0,0.0095 0.0052,0.0174 0.0054,0.02686 A 33.85354,33.85354 0 0 1 50.52267,16.05185 10.39416,10.39416 0 0 0 47.457,10.293 0.99989,0.99989 0 0 0 46.043,11.707 c 1.623,1.623 2.73669,3.65424 2.7644,7.407 a 29.90475,29.90475 0 0 1 -8.32874,8.7569 13.13361,13.13361 0 0 0 -0.52991,-7.18732 1.0001004,1.0001004 0 1 0 -1.89746,0.63281 c 0.871,2.61285 0.9176,4.3855 0.15521,7.68359 h -16.413 c -0.76239,-3.2981 -0.71576,-5.07074 0.15521,-7.68359 a 1.0001004,1.0001004 0 0 0 -1.89746,-0.63281 13.13361,13.13361 0 0 0 -0.52991,7.18732 29.93606,29.93606 0 0 1 -8.51465,-9.06006 c 0.03571,-3.68231 1.05841,-5.46191 2.70032,-7.10382 A 0.99989,0.99989 0 0 0 12.293,10.293 10.29142,10.29142 0 0 0 9.31772,15.6987 34.01378,34.01378 0 0 1 7.99527,12.4767 c 1.8e-4,-0.0083 0.00476,-0.0152 0.00476,-0.02356 0,-3.48486 0.835,-5.874 2.707,-7.74609 A 0.99989,0.99989 0 0 0 9.293,3.293 10.498,10.498 0 0 0 6.6774,7.63376 34.37234,34.37234 0 0 1 6,1 1,1 0 0 0 4,1 C 4,9.986 7.67334,21.657 17.6897,29 H 9 a 0.99959,0.99959 0 0 0 -0.98633,1.16455 c 0.50342,3.022 1.74854,5.12549 3.70068,6.252 2.20605,1.27344 5.20313,1.28906 9.13135,0.04248 -0.81348,8.76807 0.54053,10.43359 2.09521,12.34717 1.09326,1.34521 2.22363,2.73633 2.81592,7.54395 A 4.17888,4.17888 0 0 0 29.91113,60 h 0.17773 a 4.17888,4.17888 0 0 0 4.1543,-3.6499 c 0.59229,-4.80762 1.72266,-6.19873 2.81592,-7.54395 1.55469,-1.91357 2.90869,-3.5791 2.09521,-12.34717 3.92871,1.24707 6.92676,1.23193 9.13135,-0.04248 1.95215,-1.12646 3.19727,-3.23 3.70068,-6.252 A 0.99959,0.99959 0 0 0 51,29 Z m -3.71387,5.68457 c -1.90088,1.09814 -4.9082,0.88965 -8.93506,-0.62109 a 1,1 0 0 0 -1.34473,1.04688 c 1.03467,9.31543 -0.0835,10.69189 -1.49951,12.43457 -1.15234,1.418 -2.58594,3.18262 -3.249,8.561 A 2.1761,2.1761 0 0 1 30.08887,58 h -0.17773 a 2.17611,2.17611 0 0 1 -2.16895,-1.89453 c -0.66309,-5.37793 -2.09668,-7.14258 -3.249,-8.56055 -1.416,-1.74268 -2.53418,-3.11914 -1.49951,-12.43457 a 1.00018,1.00018 0 0 0 -1.34473,-1.04687 c -4.02637,1.50977 -7.03271,1.71875 -8.93506,0.62109 A 5.63748,5.63748 0 0 1 10.23438,31 h 39.53125 a 5.63748,5.63748 0 0 1 -2.4795,3.68457 z"
       id="path21"
       inkscape:connector-curvature="0" />
  </g>
</svg>
