<?xml version="1.0" encoding="UTF-8" standalone="no"?>
<svg
   xmlns:dc="http://purl.org/dc/elements/1.1/"
   xmlns:cc="http://creativecommons.org/ns#"
   xmlns:rdf="http://www.w3.org/1999/02/22-rdf-syntax-ns#"
   xmlns:svg="http://www.w3.org/2000/svg"
   xmlns="http://www.w3.org/2000/svg"
   xmlns:sodipodi="http://sodipodi.sourceforge.net/DTD/sodipodi-0.dtd"
   xmlns:inkscape="http://www.inkscape.org/namespaces/inkscape"
   width="99.999931"
   height="91.938988"
   version="1.1"
   id="svg14"
   sodipodi:docname="crossiant-pastry.svg"
   inkscape:version="0.92.3 (2405546, 2018-03-11)">
  <defs
     id="defs18" />
  <sodipodi:namedview
     pagecolor="#ffffff"
     bordercolor="#666666"
     borderopacity="1"
     objecttolerance="10"
     gridtolerance="10"
     guidetolerance="10"
     inkscape:pageopacity="0"
     inkscape:pageshadow="2"
     inkscape:window-width="1209"
     inkscape:window-height="995"
     id="namedview16"
     showgrid="false"
     fit-margin-top="0"
     fit-margin-left="0"
     fit-margin-right="0"
     fit-margin-bottom="0"
     inkscape:zoom="1.9666667"
     inkscape:cx="74.347747"
     inkscape:cy="-43.916646"
     inkscape:window-x="0"
     inkscape:window-y="0"
     inkscape:window-maximized="0"
     inkscape:current-layer="g12" />
  <metadata
     id="metadata7">image/svg+xml<rdf:RDF>
  <cc:Work
     rdf:about="">
    <dc:format>image/svg+xml</dc:format>
    <dc:type
       rdf:resource="http://purl.org/dc/dcmitype/StillImage" />
    <dc:title></dc:title>
  </cc:Work>
</rdf:RDF>
</metadata>
  <g
     id="g12"
     style="stroke:#000000"
     transform="translate(-164.80257,-271.79264)">
    <title
       id="title3">Layer 1</title>
    <path
       stroke-miterlimit="4"
       d="m 211.18398,280.25437 c -25.88202,0 -41.06488,14.73645 -41.06488,39.75593 0,25.01948 9.89207,33.79231 25.59158,41.2359 7.8392,3.71677 8.99304,0.0217 7.16512,-6.17668 -2.1221,-7.19579 -2.66078,-6.61711 -2.66078,-19.11867 0,-15.59047 13.10184,-28.23465 29.22977,-28.23465 12.93599,0 23.31449,3.53108 27.2505,6.61807 4.77673,3.74636 9.2177,0.46414 5.98085,-8.57409 -5.86663,-16.38139 -25.61014,-25.50581 -51.49216,-25.50581 z"
       id="path3185"
       style="fill:#ffffff;fill-rule:evenodd;stroke:#ff6600;stroke-width:2;stroke-linecap:round;stroke-linejoin:round;stroke-miterlimit:4;stroke-dasharray:none;stroke-dashoffset:0;marker-start:none;marker-mid:none;marker-end:none"
       inkscape:connector-curvature="0" />
    <path
       stroke-miterlimit="4"
       d="m 225.7833,276.24343 c 5.64498,7.83746 9.00363,17.54 9.00363,28.03262 0,1.80223 -0.0939,3.58493 -0.28633,5.33955 3.96726,0.28368 7.701,1.35571 11.07162,3.01939 4.13469,-4.88282 8.30542,-14.64115 8.86352,-21.3896 -6.32436,-9.0712 -17.15216,-15.09855 -28.65244,-15.00196 z"
       id="path3189"
       style="fill:#ffffff;fill-rule:evenodd;stroke:#ff6600;stroke-width:2;stroke-linecap:round;stroke-linejoin:round;stroke-miterlimit:4;stroke-dasharray:none;stroke-dashoffset:0;marker-start:none;marker-mid:none;marker-end:none"
       inkscape:connector-curvature="0" />
    <path
       stroke-miterlimit="4"
       d="m 188.89438,322.30139 c -7.07446,0 -14.25283,2.4148 -20.24064,5.36491 0.47379,9.62368 2.95297,15.75789 7.47031,21.31985 5.30046,-3.99063 14.05775,-9.0134 21.2013,-9.0134 2.51631,0 4.97008,0.30331 7.31745,0.85814 -0.28273,-1.57695 -0.44541,-3.20868 -0.44541,-4.8628 0,-3.59954 0.70165,-7.03721 1.97252,-10.20235 -5.33426,-2.23136 -11.1641,-3.46436 -17.27553,-3.46436 z"
       id="path3175"
       style="fill:#ffffff;fill-opacity:1;fill-rule:evenodd;stroke:#ff6600;stroke-width:2;stroke-linecap:round;stroke-linejoin:round;stroke-miterlimit:4;stroke-dasharray:none;stroke-dashoffset:0;marker-start:none;marker-mid:none;marker-end:none"
       inkscape:connector-curvature="0" />
    <path
       stroke-miterlimit="4"
       d="m 218.46166,272.79264 c -29.08045,0 -52.65909,23.02602 -52.65909,51.41698 0,2.19368 0.14694,4.34897 0.42014,6.47085 6.84925,-4.17937 14.85097,-6.61077 23.38848,-6.61077 7.34538,0 14.28931,1.77399 20.44744,4.93183 5.08946,-9.18644 14.66693,-15.66514 25.83936,-16.68428 0.43578,-2.60953 0.66525,-5.30808 0.66525,-8.0448 0,-11.87686 -4.28896,-22.72849 -11.34412,-31.0251 -2.21385,-0.27705 -4.46691,-0.45471 -6.75745,-0.45471 z"
       id="path3168"
       style="fill:#ffffff;fill-rule:evenodd;stroke:#ff6600;stroke-width:2;stroke-linecap:round;stroke-linejoin:round;stroke-miterlimit:4;stroke-dasharray:none;stroke-dashoffset:0;marker-start:none;marker-mid:none;marker-end:none"
       inkscape:connector-curvature="0" />
  </g>
</svg>
