<?xml version="1.0" encoding="UTF-8" standalone="no"?>
<svg
   xmlns:dc="http://purl.org/dc/elements/1.1/"
   xmlns:cc="http://creativecommons.org/ns#"
   xmlns:rdf="http://www.w3.org/1999/02/22-rdf-syntax-ns#"
   xmlns:svg="http://www.w3.org/2000/svg"
   xmlns="http://www.w3.org/2000/svg"
   xmlns:sodipodi="http://sodipodi.sourceforge.net/DTD/sodipodi-0.dtd"
   xmlns:inkscape="http://www.inkscape.org/namespaces/inkscape"
   viewBox="0 0 53.333351 100"
   version="1.1"
   id="svg32"
   sodipodi:docname="demo_icon_4_white.svg"
   width="53.333351"
   height="100"
   inkscape:version="0.92.3 (2405546, 2018-03-11)">
  <metadata
     id="metadata38">
    <rdf:RDF>
      <cc:Work
         rdf:about="">
        <dc:format>image/svg+xml</dc:format>
        <dc:type
           rdf:resource="http://purl.org/dc/dcmitype/StillImage" />
        <dc:title></dc:title>
      </cc:Work>
    </rdf:RDF>
  </metadata>
  <defs
     id="defs36" />
  <sodipodi:namedview
     pagecolor="#ffffff"
     bordercolor="#666666"
     borderopacity="1"
     objecttolerance="10"
     gridtolerance="10"
     guidetolerance="10"
     inkscape:pageopacity="0"
     inkscape:pageshadow="2"
     inkscape:window-width="1920"
     inkscape:window-height="995"
     id="namedview34"
     showgrid="false"
     fit-margin-top="0"
     fit-margin-left="0"
     fit-margin-right="0"
     fit-margin-bottom="0"
     inkscape:zoom="3.9333333"
     inkscape:cx="-7.9999985"
     inkscape:cy="29.999996"
     inkscape:window-x="0"
     inkscape:window-y="0"
     inkscape:window-maximized="1"
     inkscape:current-layer="svg32" />
  <g
     id="text"
     transform="matrix(1.6666672,0,0,1.6666672,-47.333341,-3.459581e-5)">
    <text
       font-size="9"
       transform="translate(2.50439,-49.60986)"
       id="text24"
       style="font-size:9px;font-family:MyriadPro-Regular, 'Myriad Pro'">
      <tspan
         letter-spacing="-0.03299em"
         id="tspan4"
         style="letter-spacing:-0.03299em" />
      <tspan
         x="7.3168898"
         y="0"
         id="tspan6" />
      <tspan
         letter-spacing="-0.00602em"
         x="26.36035"
         y="0"
         id="tspan8"
         style="letter-spacing:-0.00602em" />
      <tspan
         x="30.54492"
         y="0"
         id="tspan10" />
      <tspan
         letter-spacing="-0.03098em"
         x="36.016602"
         y="0"
         id="tspan12"
         style="letter-spacing:-0.03098em" />
      <tspan
         x="40.120609"
         y="0"
         id="tspan14" />
      <tspan
         letter-spacing="-0.00998em"
         x="45.06152"
         y="0"
         id="tspan16"
         style="letter-spacing:-0.00998em" />
      <tspan
         x="47.914551"
         y="0"
         id="tspan18" />
      <tspan
         letter-spacing="-0.00298em"
         x="14.45801"
         y="10.7998"
         id="tspan20"
         style="letter-spacing:-0.00298em" />
      <tspan
         x="19.938959"
         y="10.7998"
         id="tspan22" />
    </text>
  </g>
  <g
     data-name="Layer 1"
     id="Layer_1"
     transform="matrix(1.6666672,0,0,1.6666672,-23.333341,-3.459581e-5)"
     style="fill:#ffffff">
    <path
       d="m 45,54 h -0.5481 c 0.71265,-2.71387 -1.19922,-3.75043 -2.531,-4.4668 -1.51953,-0.81738 -2.6377,-1.41895 -2.0625,-3.8623 a 6.86782,6.86782 0 0 0 1.6426,-1.36133 3.8281,3.8281 0 0 0 0.76245,-1.3338 3.64426,3.64426 0 0 0 2.41626,-1.76288 3.69326,3.69326 0 0 0 0.21484,-3.66016 1.11983,1.11983 0 0 0 -0.06641,-0.11426 c -3.30176,-4.86816 -2.10645,-9.5498 -0.8418,-14.50684 1.33887,-5.24609 2.72266,-10.6709 -1.16211,-16.498 A 13.02252,13.02252 0 0 0 37.0719,1.34973 L 36.98633,0.83594 A 0.99994,0.99994 0 0 0 35.14258,0.48535 L 33.60571,3.04688 C 28.04907,3.76514 25.34448,7.03943 22.96,9.93945 c -1.56934,1.9082 -3.05176,3.71 -5.19629,4.62012 a 3.57429,3.57429 0 0 0 -2.00781,2.9082 6.92458,6.92458 0 0 0 0.11035,2.84766 6.15853,6.15853 0 0 1 0.13867,0.78027 A 0.9992,0.9992 0 0 0 17,22 a 7.49183,7.49183 0 0 0 1.31372,-0.13055 4.07562,4.07562 0 0 0 2.03882,2.09442 3.62,3.62 0 0 0 1.37891,0.26074 10.57714,10.57714 0 0 0 4.00879,-1.19141 c 0.51147,-0.22577 1.02808,-0.44855 1.52783,-0.63354 a 32.44612,32.44612 0 0 1 -5.356,6.42651 c -3.2959,3.34082 -6.4082,6.49512 -6.13086,10.22363 0.16895,2.2666 1.58887,4.4082 4.34082,6.53809 0.62012,2.5127 -0.50684,3.11914 -2.043,3.94531 -1.33179,0.71637 -3.24365,1.75293 -2.531,4.4668 H 15 a 0.99942,0.99942 0 0 0 -1,1 v 4 a 0.99942,0.99942 0 0 0 1,1 h 30 a 0.99942,0.99942 0 0 0 1,-1 V 55 A 0.99942,0.99942 0 0 0 45,54 Z M 41.168,7.55469 c 3.38281,5.07422 2.167,9.83887 0.87988,14.88184 -1.31348,5.14941 -2.67187,10.47168 1.083,16.0625 a 1.70291,1.70291 0 0 1 -0.11816,1.60547 2.216,2.216 0 0 1 -0.65747,0.71863 4.13325,4.13325 0 0 0 -0.98022,-1.86121 C 36.21976,33.33892 37.56253,28.1836 38.98538,22.72559 40.31055,17.63574 41.68164,12.374 37.95117,6.627 L 37.47656,3.77849 A 12.25323,12.25323 0 0 1 41.168,7.55469 Z M 24.93262,21.20313 c -1.42871,0.62988 -2.9043,1.28516 -3.8252,0.9082 a 1.87252,1.87252 0 0 1 -0.848,-0.82068 8.03,8.03 0 0 0 2.44758,-1.58365 0.99989,0.99989 0 0 0 -1.414,-1.414 6.64511,6.64511 0 0 1 -3.46289,1.64258 l -0.01172,-0.05664 a 5.02387,5.02387 0 0 1 -0.082,-2.1377 1.668,1.668 0 0 1 0.80859,-1.33984 c 2.59668,-1.10254 4.30664,-3.18164 5.96,-5.19141 C 26.573,8.69427 28.54675,6.30273 32.229,5.34125 l -0.08643,0.1441 a 1.0000168,1.0000168 0 1 0 1.71484,1.0293 L 35.46,3.84375 36.01371,7.16406 a 1.01174,1.01174 0 0 0 0.1543,0.39063 12.509,12.509 0 0 1 2.15942,8.06152 C 35.65894,19.998 31.99011,20.00775 29.11035,20 H 29 a 10.66492,10.66492 0 0 0 -4.06738,1.20313 z m -7.15723,17.69824 c -0.21,-2.82227 2.59277,-5.66309 5.55957,-8.66992 2.51819,-2.55182 5.0979,-5.19061 6.34229,-8.23865 2.34985,-0.03479 5.39355,-0.21149 8.06592,-2.55988 -0.208,0.92255 -0.44922,1.85022 -0.69336,2.78778 -1.49414,5.73633 -3.04,11.668 2.85156,18.09277 A 1.99338,1.99338 0 0 1 40.00293,42.98339 4.806,4.806 0 0 1 38.72046,44 h -17.373 c -2.2708,-1.75983 -3.4478,-3.42969 -3.57207,-5.09863 z m 1.252,12.39258 c 1.48376,-0.79773 3.63794,-1.968 3.199,-5.29395 h 15.54729 c -0.439,3.32593 1.71521,4.49622 3.199,5.29395 1.42871,0.76892 2.03833,1.116 1.38074,2.70605 H 17.64661 C 16.989,52.40991 17.59863,52.06287 19.02734,51.29395 Z M 44,58 H 16 v -2 h 28 z"
       id="path27"
       inkscape:connector-curvature="0"
       style="fill:#ffffff" />
    <path
       d="M 30,11.45929 V 12 a 1,1 0 0 0 2,0 v -0.36823 l 0.01074,0.003 A 7.1389,7.1389 0 0 0 34,12 1,1 0 0 0 34,10 5.59559,5.59559 0 0 1 32.56055,9.71191 c -1.416,-0.40527 -3.55859,-1.01758 -5.39258,1.7334 A 1,1 0 1 0 28.832,12.55469 2.65619,2.65619 0 0 1 30,11.45929 Z"
       id="path29"
       inkscape:connector-curvature="0"
       style="fill:#ffffff" />
  </g>
</svg>
