<?xml version="1.0" encoding="UTF-8" standalone="no"?>
<!-- Created with Inkscape (http://www.inkscape.org/) -->

<svg
   xmlns:dc="http://purl.org/dc/elements/1.1/"
   xmlns:cc="http://creativecommons.org/ns#"
   xmlns:rdf="http://www.w3.org/1999/02/22-rdf-syntax-ns#"
   xmlns:svg="http://www.w3.org/2000/svg"
   xmlns="http://www.w3.org/2000/svg"
   xmlns:sodipodi="http://sodipodi.sourceforge.net/DTD/sodipodi-0.dtd"
   xmlns:inkscape="http://www.inkscape.org/namespaces/inkscape"
   width="150"
   height="150"
   id="svg2"
   sodipodi:version="0.32"
   inkscape:version="0.92.3 (2405546, 2018-03-11)"
   sodipodi:docname="demo_script.svg"
   inkscape:output_extension="org.inkscape.output.svg.inkscape"
   version="1.0"
   sodipodi:modified="true">
  <defs
     id="defs4" />
  <sodipodi:namedview
     id="base"
     pagecolor="#ffffff"
     bordercolor="#666666"
     borderopacity="1.0"
     gridtolerance="10000"
     guidetolerance="10"
     objecttolerance="10"
     inkscape:pageopacity="0.0"
     inkscape:pageshadow="2"
     inkscape:zoom="1.6081119"
     inkscape:cx="-235.91534"
     inkscape:cy="69.603832"
     inkscape:document-units="px"
     inkscape:current-layer="layer1"
     inkscape:window-width="1920"
     inkscape:window-height="995"
     inkscape:window-x="0"
     inkscape:window-y="0"
     showborder="true"
     showgrid="false"
     fit-margin-top="0"
     fit-margin-left="0"
     fit-margin-right="0"
     fit-margin-bottom="0"
     inkscape:window-maximized="1" />
  <metadata
     id="metadata7">
    <rdf:RDF>
      <cc:Work
         rdf:about="">
        <dc:format>image/svg+xml</dc:format>
        <dc:type
           rdf:resource="http://purl.org/dc/dcmitype/StillImage" />
        <dc:title></dc:title>
      </cc:Work>
    </rdf:RDF>
  </metadata>
  <g
     inkscape:label="Layer 1"
     inkscape:groupmode="layer"
     id="layer1"
     transform="translate(646.42498,-877.51834)">
    <g
       id="g3196"
       transform="matrix(0.69121519,0,0,0.55031875,-199.24377,461.65466)"
       style="stroke:#0080d0;stroke-width:3.24277043;stroke-miterlimit:4;stroke-dasharray:none;stroke-opacity:1">
      <path
         id="path4550"
         style="fill:none;fill-rule:evenodd;stroke:#0080d0;stroke-width:3.24277043;stroke-linecap:round;stroke-linejoin:miter;stroke-miterlimit:4;stroke-dasharray:none;stroke-opacity:1"
         d="m -589.61681,919.24976 c -0.95806,-7.9106 -2.47637,-15.54075 -4.53666,-22.53058 -8.09869,-27.47597 -7.82302,-64.84593 1.93746,-90.25232 6.1828,-16.09372 15.65784,-24.83945 24.88153,-23.75871 l 112.10036,15.90222 c -9.43069,-1.62728 -19.23504,7.14945 -25.57626,23.65554 -9.76048,25.40639 -10.03615,62.77635 -1.93746,90.25232 8.09868,27.47597 7.82301,64.84593 -1.93747,90.25237 -6.16105,16.037 -15.59122,24.7778 -24.72543,23.7786"
         sodipodi:nodetypes="cssccsssc"
         inkscape:connector-curvature="0" />
      <path
         style="fill:none;fill-rule:evenodd;stroke:#0080d0;stroke-width:3.24277043;stroke-linecap:round;stroke-linejoin:miter;stroke-miterlimit:4;stroke-dasharray:none;stroke-opacity:1"
         d="m -458.15625,798.4375 c -8.48165,0.43831 -16.9677,9.03656 -22.65625,23.84375 -7.27837,18.94548 -9.24703,44.53158 -6.4375,67.71875 l 36.40625,5.15625 c 4.82724,0.59968 9.94917,-3.71312 13.4375,-11.40625 9.02852,-19.91143 6.83213,-52.77744 -2.25,-70.65625 -5.29595,-10.42547 -11.90316,-14.99716 -18.5,-14.65625 z"
         id="path4554"
         sodipodi:nodetypes="csccssc"
         inkscape:connector-curvature="0" />
      <path
         sodipodi:nodetypes="cssc"
         d="m -450.0926,895.22268 c -3.97205,-0.0769 -7.84299,-3.37328 -10.6047,-10.72731 -3.33842,-8.88974 -4.01245,-25.84827 1.58431,-31.48293 2.06527,-2.07926 7.53276,0.52799 5.42434,7.68664"
         style="fill:none;fill-rule:evenodd;stroke:#0080d0;stroke-width:3.24277043;stroke-linecap:round;stroke-linejoin:miter;stroke-miterlimit:4;stroke-dasharray:none;stroke-opacity:1"
         id="path4556"
         inkscape:connector-curvature="0" />
      <path
         id="path4558"
         d="m -456.8275,852.36032 -30.26316,-4.29372"
         style="fill:none;fill-rule:evenodd;stroke:#0080d0;stroke-width:3.24277043;stroke-linecap:round;stroke-linejoin:miter;stroke-miterlimit:4;stroke-dasharray:none;stroke-opacity:1"
         sodipodi:nodetypes="cc"
         inkscape:connector-curvature="0" />
      <path
         style="fill:none;fill-rule:evenodd;stroke:#0080d0;stroke-width:3.24277043;stroke-linecap:round;stroke-linejoin:miter;stroke-miterlimit:4;stroke-dasharray:none;stroke-opacity:1"
         d="m -453.6887,860.69781 -8.60644,-1.22108"
         id="path4560"
         sodipodi:nodetypes="cc"
         inkscape:connector-curvature="0" />
      <path
         id="path4564"
         style="fill:none;fill-rule:evenodd;stroke:#0080d0;stroke-width:3.24277043;stroke-linecap:round;stroke-linejoin:miter;stroke-miterlimit:4;stroke-dasharray:none;stroke-opacity:1"
         d="m -509.37792,1026.5527 -112.09289,-15.8965 c -5.66602,-0.8943 -11.19672,-5.5438 -15.75916,-14.52525 -9.08213,-17.87885 -11.28427,-50.74108 -2.25574,-70.65252 3.41448,-7.53027 8.3709,-11.82689 13.1355,-11.44494 l 112.08452,15.89435 c -4.97021,-0.87727 -10.23808,3.46247 -13.81439,11.34964 -9.02853,19.91144 -6.82639,52.77367 2.25574,70.65252 4.74799,9.3467 10.54402,14.0051 16.44642,14.6227 z"
         sodipodi:nodetypes="ccssccssc"
         inkscape:connector-curvature="0" />
      <path
         sodipodi:nodetypes="csss"
         d="m -511.80704,964.33738 c -2.10842,7.15865 3.35907,9.7659 5.42434,7.68664 5.59676,-5.63466 4.92273,-22.59319 1.58431,-31.48293 -2.67222,-7.11571 -6.38293,-10.4325 -10.21889,-10.70966"
         style="fill:none;fill-rule:evenodd;stroke:#0080d0;stroke-width:3.24277043;stroke-linecap:round;stroke-linejoin:miter;stroke-miterlimit:4;stroke-dasharray:none;stroke-opacity:1"
         id="path4566"
         inkscape:connector-curvature="0" />
      <path
         id="path4568"
         d="m -508.5155,972.69117 -25.26512,-3.5846"
         style="fill:none;fill-rule:evenodd;stroke:#0080d0;stroke-width:3.24277043;stroke-linecap:round;stroke-linejoin:miter;stroke-miterlimit:4;stroke-dasharray:none;stroke-opacity:1"
         sodipodi:nodetypes="cc"
         inkscape:connector-curvature="0" />
      <path
         style="fill:none;fill-rule:evenodd;stroke:#0080d0;stroke-width:3.24277043;stroke-linecap:round;stroke-linejoin:miter;stroke-miterlimit:4;stroke-dasharray:none;stroke-opacity:1"
         d="m -511.81905,964.34341 -21.40881,-3.03747"
         id="path4570"
         sodipodi:nodetypes="cc"
         inkscape:connector-curvature="0" />
    </g>
  </g>
</svg>
