<?xml version="1.0" encoding="UTF-8" standalone="no"?>
<!-- Generator: Adobe Illustrator 12.0.0, SVG Export Plug-In . SVG Version: 6.00 Build 51448)  --><svg height="93.538" id="Layer_1" inkscape:version="0.42" sodipodi:docbase="F:\openclip\svg da inviare" sodipodi:docname="lettera.svg" sodipodi:version="0.32" space="preserve" style="overflow:visible;enable-background:new 0 0 118.549 93.538;" version="1.1" viewBox="0 0 118.549 93.538" width="118.549" xmlns="http://www.w3.org/2000/svg" xmlns:cc="http://web.resource.org/cc/" xmlns:dc="http://purl.org/dc/elements/1.1/" xmlns:inkscape="http://www.inkscape.org/namespaces/inkscape" xmlns:rdf="http://www.w3.org/1999/02/22-rdf-syntax-ns#" xmlns:sodipodi="http://inkscape.sourceforge.net/DTD/sodipodi-0.dtd" xmlns:svg="http://www.w3.org/2000/svg">
  <metadata>
    <rdf:RDF xmlns:cc="http://web.resource.org/cc/" xmlns:dc="http://purl.org/dc/elements/1.1/" xmlns:rdf="http://www.w3.org/1999/02/22-rdf-syntax-ns#">
      <cc:Work rdf:about="">
        <dc:title>lettera</dc:title>
        <dc:description></dc:description>
        <dc:subject>
          <rdf:Bag>
            <rdf:li>unsorted</rdf:li>
          </rdf:Bag>
        </dc:subject>
        <dc:publisher>
          <cc:Agent rdf:about="http://www.openclipart.org/">
            <dc:title>Open Clip Art Library</dc:title>
          </cc:Agent>
        </dc:publisher>
        <dc:creator>
          <cc:Agent>
            <dc:title>Architetto Francesco Rollandin</dc:title>
          </cc:Agent>
        </dc:creator>
        <dc:rights>
          <cc:Agent>
            <dc:title>Architetto Francesco Rollandin</dc:title>
          </cc:Agent>
        </dc:rights>
        <dc:date></dc:date>
        <dc:format>image/svg+xml</dc:format>
        <dc:type rdf:resource="http://purl.org/dc/dcmitype/StillImage"/>
        <cc:license rdf:resource="http://web.resource.org/cc/PublicDomain"/>
        <dc:language>en</dc:language>
      </cc:Work>
      <cc:License rdf:about="http://web.resource.org/cc/PublicDomain">
        <cc:permits rdf:resource="http://web.resource.org/cc/Reproduction"/>
        <cc:permits rdf:resource="http://web.resource.org/cc/Distribution"/>
        <cc:permits rdf:resource="http://web.resource.org/cc/DerivativeWorks"/>
      </cc:License>
    </rdf:RDF>
  </metadata>
  <defs id="defs81">
    <linearGradient gradientTransform="matrix(170.1395,387.8148,387.8148,-170.1395,-127457.6,169941.0)" gradientUnits="userSpaceOnUse" id="XMLID_4_" x1="-246.7578" x2="-245.4084" y1="436.9082" y2="436.9082">
      <stop id="stop8" offset="0" style="stop-color:#FFFFFF"/>
      <stop id="stop10" offset="1" style="stop-color:#000000"/>
    </linearGradient>
  </defs>
  <sodipodi:namedview bordercolor="#666666" borderopacity="1.0" id="base" inkscape:current-layer="Layer_1" inkscape:cx="59.274502" inkscape:cy="46.769001" inkscape:pageopacity="0.0" inkscape:pageshadow="2" inkscape:window-height="510" inkscape:window-width="787" inkscape:window-x="22" inkscape:window-y="29" inkscape:zoom="1.0312345" pagecolor="#ffffff"/>
  <path d="M 110.87400,34.015000 C 112.57400,41.590000 114.27400,49.165000 115.97600,56.740000 C 116.57900,59.420000 119.50000,66.264000 116.48800,68.419000 C 114.80200,69.625000 111.77500,69.725000 109.85800,70.144000 C 103.64100,71.502000 97.427000,72.878000 91.216000,74.260000 C 66.985000,79.658000 42.936000,85.764000 19.004000,92.356000 C 16.623000,93.012000 13.952000,92.876000 13.435000,89.787000 C 12.474000,84.045000 11.418000,78.314000 10.295000,72.602000 C 7.4750000,58.270000 4.0620000,44.049000 0.85900000,29.799000 C -0.85700000,22.172000 13.825000,21.932000 18.822000,20.810000 C 35.618000,17.037000 52.463000,13.438000 69.157000,9.2380000 C 79.908000,6.5320000 90.624000,3.6750000 101.27100,0.59200000 C 105.85900,-0.73800000 105.79500,6.1230000 106.19800,8.7240000 C 107.50400,17.195000 108.99500,25.651000 110.87400,34.015000" id="path5" style="fill:#fffff7"/>
  <path d="M 115.41700,68.243000 C 103.52500,72.444000 90.089000,73.777000 77.771000,76.609000 C 64.167000,79.736000 50.640000,83.208000 37.146000,86.780000 C 32.441000,88.022000 27.743000,89.283000 23.048000,90.561000 C 21.202000,91.064000 18.335000,92.499000 16.338000,92.135000 C 13.169000,91.554000 13.291000,85.012000 12.881000,82.739000 C 11.529000,75.233000 10.070000,67.746000 8.3990000,60.304000 C 6.8750000,53.525000 5.3500000,46.745000 3.8260000,39.967000 C 3.1770000,37.084000 -1.2980000,26.010000 3.5500000,24.921000 C 9.7750000,23.522000 16.000000,22.125000 22.221000,20.726000 C 48.762000,14.764000 75.289000,8.8300000 101.42400,1.2350000 C 106.22000,-0.15700000 106.43900,14.437000 106.82700,16.706000 C 108.03700,23.779000 109.47000,30.804000 111.04500,37.804000 C 112.41400,43.889000 113.78100,49.974000 115.14900,56.058000 C 115.68600,58.448000 119.13200,66.931000 115.41700,68.243000 M 2.4980000,23.834000 C -3.1570000,25.832000 2.4430000,39.822000 3.2700000,43.503000 C 4.8560000,50.559000 6.4980000,57.607000 8.0070000,64.681000 C 9.4940000,71.647000 10.822000,78.644000 12.056000,85.660000 C 12.616000,88.849000 12.927000,94.702000 17.913000,93.334000 C 26.167000,91.068000 34.435000,88.846000 42.717000,86.682000 C 62.625000,81.471000 82.639000,76.863000 102.72700,72.420000 C 106.31900,71.627000 119.84700,70.937000 118.45000,64.725000 C 116.89000,57.786000 115.33000,50.847000 113.76800,43.908000 C 110.75600,30.512000 107.98300,17.092000 106.09000,3.4800000 C 105.21500,-2.8190000 96.855000,1.1680000 93.373000,2.1320000 C 83.257000,4.9400000 73.104000,7.6120000 62.906000,10.100000 C 51.849000,12.798000 40.722000,15.210000 29.618000,17.708000 C 20.781000,19.695000 11.054000,20.812000 2.4980000,23.834000" id="path12" style="fill:url(#XMLID_4_)"/>
  <path d="M 106.87000,38.645000 C 108.42600,45.568000 109.98200,52.488000 111.54100,59.409000 C 112.19800,62.334000 112.66300,65.077000 108.98600,65.879000 C 96.965000,68.499000 84.955000,71.167000 72.949000,73.861000 C 59.007000,76.992000 45.189000,80.626000 31.435000,84.490000 C 28.118000,85.424000 24.806000,86.365000 21.499000,87.334000 C 17.534000,88.493000 17.276000,84.267000 16.833000,81.609000 C 14.336000,66.680000 10.890000,51.959000 7.5680000,37.199000 C 7.0110000,34.720000 4.4080000,28.554000 8.5070000,27.631000 C 11.327000,26.082000 16.089000,25.929000 19.190000,25.233000 C 45.537000,19.313000 71.842000,13.370000 97.796000,5.8760000 C 102.20100,4.6050000 102.05800,12.259000 102.42900,14.629000 C 103.68800,22.671000 105.08600,30.701000 106.87000,38.645000" id="path14" style="fill:#e6e6e6"/>
  <path d="M 99.686000,10.270000 C 100.10200,12.182000 96.865000,16.785000 96.078000,18.382000 C 93.205000,24.197000 90.135000,29.919000 86.892000,35.537000 C 83.298000,41.760000 79.501000,47.905000 75.179000,53.652000 C 72.121000,57.717000 68.357000,62.920000 63.445000,64.878000 C 59.371000,66.503000 54.231000,63.934000 50.614000,62.203000 C 43.927000,59.001000 37.666000,54.885000 31.594000,50.653000 C 26.110000,46.829000 20.757000,42.808000 15.552000,38.611000 C 15.068000,38.218000 8.6760000,32.341000 8.5410000,32.405000 C 9.2870000,32.057000 12.099000,33.930000 12.722000,34.237000 C 16.283000,35.978000 19.835000,37.737000 23.430000,39.413000 C 31.869000,43.351000 40.652000,47.301000 49.823000,49.163000 C 60.904000,51.411000 67.729000,44.888000 75.267000,37.355000 C 80.728000,31.898000 85.835000,26.098000 90.853000,20.235000 C 91.663000,19.290000 99.910000,11.170000 99.686000,10.270000" id="path16" style="fill:#cfcaba"/>
  <path d="M 99.633000,10.246000 C 99.676000,10.243000 99.676000,10.243000 99.633000,10.246000 M 99.620000,10.247000 C 98.958000,10.779000 98.366000,11.382000 97.843000,12.054000 C 98.366000,11.381000 98.958000,10.779000 99.620000,10.247000 M 8.5460000,32.401000 C 8.5280000,32.412000 8.5280000,32.412000 8.5460000,32.401000" id="path30" style="fill:#ffffd9"/>
  <path d="M 97.842000,12.054000 C 97.677000,12.245000 97.511000,12.434000 97.345000,12.625000 C 97.511000,12.434000 97.677000,12.245000 97.842000,12.054000 M 99.620000,10.247000 C 99.638000,10.245000 99.638000,10.245000 99.620000,10.247000 M 8.5300000,32.472000 C 8.5330000,32.480000 8.5330000,32.480000 8.5300000,32.472000 M 8.5460000,32.401000 C 9.0170000,32.590000 10.856000,32.980000 11.005000,33.404000 C 10.751000,33.284000 9.0070000,32.239000 8.5460000,32.401000" id="path32" style="fill:#d7cca4"/>
  <path d="M 8.5220000,32.448000 C 8.9270000,34.961000 15.972000,36.929000 17.959000,37.803000 C 24.187000,40.544000 30.263000,43.612000 36.513000,46.303000 C 43.551000,49.336000 54.649000,55.124000 62.461000,50.623000 C 70.807000,45.810000 77.399000,37.270000 83.636000,30.122000 C 86.749000,26.555000 89.809000,22.943000 92.971000,19.419000 C 94.674000,17.523000 100.22900,13.105000 99.686000,10.270000 C 99.853000,11.034000 93.523000,17.103000 92.775000,17.984000 C 89.367000,21.991000 85.931000,25.977000 82.387000,29.866000 C 76.264000,36.586000 68.775000,46.109000 59.884000,49.251000 C 51.883000,52.002000 41.046000,46.921000 33.782000,43.963000 C 28.696000,41.892000 23.708000,39.586000 18.765000,37.194000 C 17.682000,36.669000 8.7070000,33.297000 8.5220000,32.448000" id="path34" style="fill:#857d63"/>
  <path d="M 59.884000,49.250000 L 59.884000,49.250000 L 59.884000,49.250000 L 59.884000,49.250000 L 59.884000,49.250000 M 97.345000,12.625000 C 86.919000,24.680000 76.315000,40.462000 62.061000,48.253000 C 76.336000,40.450000 86.883000,24.674000 97.345000,12.625000 M 11.002000,33.403000 C 18.561000,37.010000 26.018000,40.802000 33.783000,43.962000 C 40.988000,46.897000 51.390000,51.739000 59.367000,49.417000 C 51.391000,51.738000 40.992000,46.897000 33.787000,43.963000 C 29.078000,42.046000 24.453000,39.927000 19.870000,37.725000 C 17.388000,36.533000 13.744000,33.746000 11.002000,33.403000" id="path36" style="fill:#ded3ab"/>
  <path d="M 99.620000,10.247000 C 98.694000,10.575000 97.980000,11.896000 97.346000,12.625000 C 97.414000,12.566000 99.619000,10.249000 99.620000,10.247000 M 8.5460000,32.401000 C 8.3630000,32.466000 11.138000,33.440000 11.002000,33.402000 C 10.751000,33.284000 9.0060000,32.239000 8.5460000,32.401000" id="path38" style="fill:#d6cba3"/>
  <path d="M 17.688000,85.925000 C 17.396000,86.357000 17.272000,86.818000 17.320000,87.314000 C 19.044000,88.550000 17.502000,85.570000 17.688000,85.925000" id="path40" style="fill:#ffffe6"/>
  <path d="M 38.869000,55.521000 C 36.510000,59.178000 15.965000,84.403000 18.225000,86.655000 C 26.611000,77.836000 33.705000,66.610000 40.316000,56.434000 C 39.833000,56.128000 39.351000,55.824000 38.869000,55.521000" id="path42" style="fill:#fffff0"/>
  <path d="M 43.504000,49.111000 C 41.328000,50.629000 40.264000,53.352000 38.869000,55.520000 C 41.335000,57.096000 41.974000,53.922000 43.115000,51.820000 C 43.630000,50.871000 44.770000,49.576000 43.504000,49.111000" id="path44" style="fill:#fef3cb"/>
  <path d="M 43.861000,48.914000 C 43.283000,49.118000 43.393000,49.266000 44.191000,49.359000 C 44.282000,48.981000 44.171000,48.832000 43.861000,48.914000" id="path46" style="fill:#eadfb7"/>
  <path d="M 17.183000,83.741000 C 17.249000,83.640000 15.223000,86.510000 15.623000,86.800000 C 16.717000,87.585000 17.295000,84.443000 17.183000,83.741000" id="path48" style="fill:#fffad2"/>
  <path d="M 37.649000,54.733000 C 33.816000,60.459000 29.759000,66.020000 25.724000,71.602000 C 23.508000,74.665000 16.768000,81.260000 17.407000,85.142000 C 20.117000,81.913000 37.370000,54.552000 37.649000,54.733000" id="path50" style="fill:#c7c7c7"/>
  <path d="M 42.002000,48.549000 C 40.211000,50.158000 38.968000,52.764000 37.648000,54.734000 C 38.664000,55.396000 43.541000,49.143000 42.002000,48.549000" id="path52" style="fill:#857d63"/>
  <path d="M 42.263000,48.375000 C 41.371000,48.689000 43.009000,48.111000 42.263000,48.375000" id="path54" style="fill:#857d63"/>
  <path d="M 38.171000,55.071000 C 31.277000,63.820000 24.712000,73.015000 19.305000,82.766000 C 26.118000,73.952000 32.834000,64.884000 38.869000,55.520000 C 38.637000,55.370000 38.403000,55.221000 38.171000,55.071000" id="path56" style="fill:#c7c7c7"/>
  <path d="M 41.614000,50.931000 C 40.409000,52.263000 39.281000,53.663000 38.171000,55.072000 C 39.503000,55.932000 40.949000,52.194000 41.614000,50.931000" id="path58" style="fill:#857d63"/>
  <path d="M 112.20500,62.500000 C 112.21600,62.636000 112.83600,65.154000 113.53700,63.869000 C 113.26600,63.268000 112.82200,62.811000 112.20500,62.500000" id="path60" style="fill:#ffffe6"/>
  <path d="M 80.683000,45.721000 C 80.431000,46.107000 80.177000,46.493000 79.925000,46.879000 C 90.029000,52.965000 100.87900,59.743000 112.07900,63.631000 C 112.77600,61.346000 101.14300,57.040000 99.193000,56.024000 C 92.938000,52.757000 86.724000,49.370000 80.683000,45.721000" id="path62" style="fill:#fffff0"/>
  <path d="M 73.468000,41.917000 C 74.509000,41.549000 78.433000,49.184000 80.683000,45.720000 C 79.251000,44.857000 75.364000,41.248000 73.468000,41.917000" id="path64" style="fill:#fef3cb"/>
  <path d="M 86.942000,47.643000 C 90.677000,49.759000 94.437000,51.828000 98.233000,53.831000 C 94.505000,51.702000 90.748000,49.625000 86.942000,47.643000" id="path66" style="fill:#ffffe1"/>
  <path d="M 81.464000,44.504000 C 81.154000,44.990000 86.172000,47.242000 86.942000,47.643000 C 85.111000,46.607000 83.288000,45.555000 81.464000,44.504000" id="path68" style="fill:#fdf0c8"/>
  <path d="M 74.298000,40.841000 C 74.373000,40.815000 80.568000,45.909000 81.464000,44.504000 C 80.309000,43.839000 75.826000,40.300000 74.298000,40.841000" id="path70" style="fill:#857d63"/>
  <path d="M 111.88900,60.976000 C 112.05400,61.704000 113.66500,64.131000 114.40700,62.772000 C 114.63800,62.346000 111.78500,60.917000 111.88900,60.976000" id="path72" style="fill:#fffad2"/>
  <path d="M 98.233000,53.831000 C 102.72800,56.400000 107.37500,60.379000 112.17200,62.246000 C 111.57100,58.792000 101.18600,55.395000 98.233000,53.831000" id="path74" style="fill:#c7c7c7"/>
  <path d="M 81.273000,44.805000 C 81.076000,45.110000 80.878000,45.416000 80.683000,45.721000 C 90.531000,51.668000 100.82300,57.575000 111.47700,61.968000 C 102.15400,55.338000 91.594000,49.718000 81.273000,44.805000" id="path76" style="fill:#c7c7c7"/>
  <path d="M 75.484000,42.325000 C 76.922000,43.420000 80.172000,46.524000 81.273000,44.805000 C 79.381000,43.903000 77.466000,43.008000 75.484000,42.325000" id="path78" style="fill:#857d63"/>
</svg>
