<?xml version="1.0" encoding="UTF-8" standalone="no"?>
<!-- Created with Inkscape (http://www.inkscape.org/) -->

<svg
   xmlns:dc="http://purl.org/dc/elements/1.1/"
   xmlns:cc="http://creativecommons.org/ns#"
   xmlns:rdf="http://www.w3.org/1999/02/22-rdf-syntax-ns#"
   xmlns:svg="http://www.w3.org/2000/svg"
   xmlns="http://www.w3.org/2000/svg"
   xmlns:sodipodi="http://sodipodi.sourceforge.net/DTD/sodipodi-0.dtd"
   xmlns:inkscape="http://www.inkscape.org/namespaces/inkscape"
   width="199.28792"
   height="200"
   id="svg7999"
   sodipodi:version="0.32"
   inkscape:version="0.92.3 (2405546, 2018-03-11)"
   sodipodi:modified="true"
   version="1.0"
   sodipodi:docname="demo_logo5.svg">
  <defs
     id="defs8001" />
  <sodipodi:namedview
     id="base"
     pagecolor="#ffffff"
     bordercolor="#666666"
     borderopacity="1.0"
     gridtolerance="10000"
     guidetolerance="10"
     objecttolerance="10"
     inkscape:pageopacity="0.0"
     inkscape:pageshadow="2"
     inkscape:zoom="1.4"
     inkscape:cx="-126.98346"
     inkscape:cy="-50.595238"
     inkscape:document-units="px"
     inkscape:current-layer="layer1"
     height="750px"
     width="744.09px"
     inkscape:window-width="1280"
     inkscape:window-height="750"
     inkscape:window-x="0"
     inkscape:window-y="0"
     showgrid="false"
     fit-margin-top="0"
     fit-margin-left="0"
     fit-margin-right="0"
     fit-margin-bottom="0"
     inkscape:window-maximized="0" />
  <metadata
     id="metadata8004">
    <rdf:RDF>
      <cc:Work
         rdf:about="">
        <dc:format>image/svg+xml</dc:format>
        <dc:type
           rdf:resource="http://purl.org/dc/dcmitype/StillImage" />
        <dc:title></dc:title>
      </cc:Work>
    </rdf:RDF>
  </metadata>
  <g
     inkscape:label="Layer 1"
     inkscape:groupmode="layer"
     id="layer1"
     transform="translate(-12.309548,-545.90312)">
    <path
       style="fill:#000000;fill-rule:evenodd;stroke:#000000;stroke-width:0.19823229px;stroke-linecap:butt;stroke-linejoin:miter;stroke-opacity:1"
       d="m 103.88765,727.35991 c 0,0 53.80591,-19.25685 69.09811,-44.74386 15.29221,-25.48701 9.62842,-48.7085 11.32756,-60.60244 1.69913,-11.89394 -24.92063,-56.07141 -37.94732,-47.57574 -13.0267,8.49566 -48.142127,14.15944 -29.45166,29.45164 18.69048,15.29222 24.35425,20.38961 27.18615,11.89394 2.83188,-8.49566 -17.55772,-31.15079 2.83188,-21.52236 20.38961,9.62842 21.52237,24.35426 17.55772,33.98268 -3.96465,9.62842 15.85858,23.78788 -7.36291,36.24818 -23.2215,12.46032 -28.88528,21.52238 -25.48701,26.05339 3.39827,4.53103 1.13275,10.19481 -6.23016,10.19481 -7.36291,0 -21.52236,12.46032 -23.78787,2.83188 -2.265515,-9.62842 -2.831893,-6.79653 6.79653,-14.15945 9.62843,-7.36291 22.65512,-13.02669 27.75252,-28.88526 5.0974,-15.8586 9.06205,-14.72583 3.39827,-21.52238 -5.66378,-6.79652 3.96465,1.13277 -13.02669,-7.36291 -16.99134,-8.49567 -14.15945,-2.26551 -18.1241,-13.02668 -3.96464,-10.76119 -22.088737,-30.01804 -13.593069,-13.59309 8.495669,16.42497 21.522369,29.45167 24.920629,32.84993 3.39827,3.39827 5.0974,13.02669 1.69914,20.3896 -3.39827,7.36293 -5.0974,2.26553 -14.15945,13.02669 -9.062047,10.76119 -7.929295,9.62844 -11.89394,17.55773 -3.964642,7.92929 -15.292205,10.76119 -7.362912,15.85857 7.929292,5.09741 18.124092,6.23016 9.062046,9.06206 -9.062046,2.83188 -24.920627,6.79654 -25.487005,0 -0.56638,-6.79653 -14.725829,1.13276 -0.56638,-16.99134 14.159448,-18.1241 11.893937,-16.42496 17.557715,-29.45165 5.663781,-13.02669 16.991336,1.13275 8.49567,-18.1241 -8.49567,-19.25685 -11.893937,-24.35426 -13.593068,-28.31889 -1.699135,-3.96466 -9.06205,-15.2922 -10.761183,-13.0267 -1.699134,2.26551 8.495668,20.38961 6.796537,36.24818 -1.699134,15.8586 -7.362913,27.75254 -10.194806,36.81458 -2.831887,9.06204 -2.265509,19.25685 -10.194803,16.99133 -7.929291,-2.26551 -22.088738,5.0974 -24.354251,-22.08874 -2.265511,-27.18614 -2.831891,-45.31024 4.531022,-54.93865 7.362916,-9.62844 5.097403,-20.95598 16.424962,-28.88527 11.327561,-7.92931 9.062048,-8.49568 24.354251,-12.46032 15.292205,-3.96465 15.292205,-7.36291 30.584415,-9.62843 15.2922,-2.26551 15.2922,-2.83189 32.28354,-3.39826 16.99134,-0.56638 29.45165,0.56637 35.11543,9.06204 5.66378,8.49566 11.89394,10.76119 13.02669,27.75251 1.13276,16.99135 -1.69912,27.75252 2.83189,34.54906 4.53103,6.79653 13.02669,1.13275 5.0974,20.95598 -7.92929,19.82323 -12.46031,23.2215 -9.62841,27.18616 2.83188,3.96463 -11.32757,10.76117 -12.46033,15.85857 -1.13275,5.09741 -7.36291,15.2922 -14.15944,16.99135 -6.79654,1.69913 -47.00937,8.49566 -39.64646,11.32754 7.36291,2.83191 -10.76118,6.79654 -10.76118,6.79654 0,0 -4.53102,5.09743 11.32756,5.66376 15.85858,0.5664 33.98268,6.79654 41.34559,0 7.36291,-6.79651 11.89393,-4.53101 24.92063,-30.01802 13.0267,-25.48699 16.99133,-31.15077 19.25685,-42.47834 2.26551,-11.32756 2.83189,-3.96463 1.69913,-23.22148 -1.13275,-19.25686 -5.0974,-19.82323 -5.66378,-28.88529 -0.56638,-9.06204 4.53103,-0.56638 -1.13275,-20.38961 -5.66378,-19.82323 1.13275,-23.22148 -8.49567,-32.8499 -9.62843,-9.62844 -15.85858,-15.8586 -40.77922,-14.72584 -24.92063,1.13275 6.79654,-13.0267 -47.00936,5.66378 -53.805911,18.69048 -77.027405,32.84992 -77.027405,36.2482 0,3.39826 -10.761181,17.5577 -10.761181,28.88527 0,11.32756 -13.0266927,8.49566 -5.097402,36.24818 7.929291,27.75251 11.893937,37.94733 15.292204,43.61111 3.398268,5.66378 15.858582,9.62842 15.858582,9.62842 0,0 6.23016,-1.13276 6.23016,3.96465 0,5.09741 -3.964647,17.5577 3.964644,14.72582 7.929292,-2.83188 -2.265513,-3.39826 11.327559,1.13275 13.59307,4.53103 21.522362,6.23018 22.655118,1.69913 1.132759,-4.53101 1.699137,-5.09738 6.230159,2.8319 4.531022,7.92927 6.796532,-7.92928 7.362912,-7.36291 z"
       id="path8007"
       inkscape:connector-curvature="0" />
    <path
       style="fill:#000000;fill-rule:evenodd;stroke:#000000;stroke-width:0.27475509px;stroke-linecap:butt;stroke-linejoin:miter;stroke-opacity:1"
       d="m 48.963182,688.01667 c 0,0 -10.990204,-3.14006 -7.850146,-10.99019 3.140058,-7.85015 9.420172,-6.28012 9.420172,-6.28012 l 2.355045,9.42018 1.57003,7.06512 z"
       id="path8015"
       inkscape:connector-curvature="0" />
    <path
       style="fill:#000000;fill-rule:evenodd;stroke:#000000;stroke-width:0.27475509px;stroke-linecap:butt;stroke-linejoin:miter;stroke-opacity:1"
       d="m 73.29863,688.01667 -12.56023,0.78502 6.280116,-8.63515 -7.850146,1.57001 7.065131,-6.2801 h -7.850147 l 7.065134,-7.06513 -8.635164,1.57003 7.065134,-6.28012 h 5.495101 l -2.355043,4.71009 3.925073,-0.78502 -3.925073,4.71009 h 4.710088 l -4.710088,3.14006 h 7.850144 z"
       id="path8023"
       inkscape:connector-curvature="0" />
    <path
       style="opacity:1;fill:#ff7f2a;fill-opacity:1;stroke:#000000;stroke-width:14.26143837;stroke-miterlimit:4;stroke-dasharray:none;stroke-opacity:1"
       d="m 179.27562,628.09911 a 51.418455,51.418455 0 0 1 -51.41846,51.41845 51.418455,51.418455 0 0 1 -51.418456,-51.41845 51.418455,51.418455 0 0 1 51.418456,-51.41846 51.418455,51.418455 0 0 1 51.41846,51.41846 z"
       id="path4518"
       inkscape:connector-curvature="0" />
    <g
       aria-label="Y"
       style="font-style:normal;font-weight:normal;font-size:21.72492981px;line-height:125%;font-family:sans-serif;letter-spacing:0px;word-spacing:0px;fill:#000000;fill-opacity:1;stroke:none;stroke-width:0.54312325px;stroke-linecap:butt;stroke-linejoin:miter;stroke-opacity:1"
       id="text4524"
       transform="matrix(1.9928792,0,0,1.9928792,-12.221893,-740.59167)">
      <path
         d="m 63.768108,680.27519 q 0,-1.26005 0.456223,-1.26005 0.13035,0 0.695198,0.30415 0.456224,0.28242 0.456224,0.73865 0,1.36867 -1.346946,4.06256 -1.346946,2.67217 -2.237668,3.75841 -0.369324,0.45623 -0.586573,0.80382 -0.195524,0.32588 -0.347599,0.67348 -0.130349,0.32587 -0.608298,1.52074 -0.477948,1.19487 -1.042797,2.52009 l -1.759719,4.21464 q -0.304149,0.6952 -0.782097,0.6952 -0.282424,0 -0.543124,-0.2607 -0.238974,-0.2607 -0.238974,-0.58657 0,-0.89073 2.411467,-5.97436 l 1.281771,-2.73734 -3.584613,-3.64979 q -2.476642,-2.52009 -3.25874,-3.41081 -0.760372,-0.89073 -0.760372,-1.3035 0,-0.19552 0.130349,-0.36932 0.13035,-0.19553 0.325874,-0.19553 0.347599,0 1.281771,0.84728 0.934172,0.82554 3.454264,3.36736 2.715616,2.67217 3.08494,2.67217 0.238974,0 0.456224,-0.1738 0.238974,-0.1738 0.499673,-0.63003 0.282424,-0.45622 0.521398,-0.93417 0.2607,-0.49967 0.738648,-1.43384 0.499673,-0.93418 0.955897,-1.75972 0.347599,-0.6952 0.347599,-1.49902 z"
         style="font-style:normal;font-variant:normal;font-weight:normal;font-stretch:normal;font-family:Purisa;-inkscape-font-specification:Purisa;stroke-width:0.54312325px"
         id="path4539"
         inkscape:connector-curvature="0" />
    </g>
    <g
       aria-label="e"
       style="font-style:normal;font-weight:normal;font-size:21.72492981px;line-height:125%;font-family:sans-serif;letter-spacing:0px;word-spacing:0px;fill:#000000;fill-opacity:1;stroke:none;stroke-width:0.54312325px;stroke-linecap:butt;stroke-linejoin:miter;stroke-opacity:1"
       id="text4528"
       transform="matrix(1.9928792,0,0,1.9928792,-12.221893,-740.59167)">
      <path
         d="m 74.979966,690.19492 q 0.108624,0 0.108624,0.1738 0,0.39105 -0.586573,1.26005 -0.564848,0.869 -1.216596,1.43384 -2.281118,2.02042 -4.562235,2.02042 -0.868997,0 -1.737995,-0.39105 -0.847272,-0.41277 -1.58592,-1.15142 -0.738647,-0.73864 -1.194871,-1.97697 -0.456223,-1.23832 -0.456223,-2.75906 0,-0.93417 0.217249,-1.58592 0.434499,-1.32522 1.846619,-2.80252 1.433846,-1.47729 2.693891,-1.47729 0.347599,0 1.042797,0.0652 1.042797,0.0869 1.45557,0.21725 0.434499,0.13035 0.977622,0.54312 0.695198,0.5214 1.194871,1.34695 0.521399,0.80382 0.521399,1.34695 0,0.69519 -0.543124,1.06452 -0.543123,0.3476 -2.107318,0.6952 -2.042143,0.45622 -3.997387,0.56484 l -2.020418,0.10863 v 0.869 q 0,1.60764 1.49902,3.04149 1.129696,1.08624 2.346292,1.08624 0.934172,0 1.976969,-0.56485 1.064521,-0.58657 1.803169,-1.28177 0.738648,-0.69519 1.41212,-1.26004 0.673473,-0.58658 0.912448,-0.58658 z m -3.497714,-5.30088 q -0.673473,-0.6083 -1.021072,-0.76037 -0.325874,-0.1738 -0.868997,-0.1738 -1.086247,0 -1.62937,0.21725 -0.521398,0.19552 -1.064521,0.82555 -1.651095,1.89006 -1.651095,2.52009 0,0.28242 0.521398,0.28242 1.976969,0 5.605032,-0.82555 1.086247,-0.26069 1.086247,-0.91244 0,-0.30415 -0.977622,-1.17315 z"
         style="font-style:normal;font-variant:normal;font-weight:normal;font-stretch:normal;font-family:Purisa;-inkscape-font-specification:Purisa;stroke-width:0.54312325px"
         id="path4542"
         inkscape:connector-curvature="0" />
    </g>
    <g
       aria-label="t"
       style="font-style:normal;font-weight:normal;font-size:21.72492981px;line-height:125%;font-family:sans-serif;letter-spacing:0px;word-spacing:0px;fill:#000000;fill-opacity:1;stroke:none;stroke-width:0.54312325px;stroke-linecap:butt;stroke-linejoin:miter;stroke-opacity:1"
       id="text4532"
       transform="matrix(1.9928792,0,0,1.9928792,-12.221893,-740.59167)">
      <path
         d="m 77.571579,681.34258 q 0,-0.80382 -0.152074,-2.04214 -0.152075,-1.23832 -0.152075,-2.06387 0,-0.41278 0.02172,-0.54312 0.06518,-0.3476 0.238974,-0.54313 0.195525,-0.21725 0.391049,-0.21725 0.260699,0 0.369324,0.23898 0.06518,0.15207 0.195524,1.60764 0.13035,1.45557 0.238974,2.84597 0.108625,1.39039 0.152075,1.43384 0.02173,0.0217 0.06518,0.0217 0.173799,0 0.999346,-0.1738 0.847273,-0.19553 1.390396,-0.19553 1.086246,0 1.086246,0.47795 0,0.47795 -2.389742,1.06452 l -1.086246,0.2607 0.130349,3.67152 q 0.108625,3.23701 0.412774,6.06125 0.304149,2.80252 0.304149,3.17184 0,0.67347 -0.499673,0.67347 -0.391049,0 -0.651748,-0.69519 -0.238975,-0.6952 -0.238975,-1.80317 0,-0.80383 -0.06517,-1.62937 -0.06517,-0.84727 -0.238975,-2.60699 -0.152074,-1.78145 -0.304149,-3.64979 -0.06517,-0.99935 -0.108624,-1.54247 -0.02173,-0.54313 -0.06517,-0.80382 -0.04345,-0.2607 -0.06518,-0.30415 -0.02172,-0.0652 -0.0869,-0.0652 -0.347598,0 -1.672819,0.23898 -1.325221,0.23897 -1.651095,0.23897 -0.630023,0 -0.630023,-0.5214 0,-0.36932 0.782098,-0.63002 0.803822,-0.2607 1.803169,-0.45622 0.999347,-0.21725 1.238321,-0.36933 0.238974,-0.1738 0.238974,-1.15142 z"
         style="font-style:normal;font-variant:normal;font-weight:normal;font-stretch:normal;font-family:Purisa;-inkscape-font-specification:Purisa;stroke-width:0.54312325px"
         id="path4545"
         inkscape:connector-curvature="0" />
    </g>
    <g
       aria-label="i"
       style="font-style:normal;font-weight:normal;font-size:21.72492981px;line-height:125%;font-family:sans-serif;letter-spacing:0px;word-spacing:0px;fill:#000000;fill-opacity:1;stroke:none;stroke-width:0.54312325px;stroke-linecap:butt;stroke-linejoin:miter;stroke-opacity:1"
       id="text4536"
       transform="matrix(1.9928792,0,0,1.9928792,-12.221893,-740.59167)">
      <path
         d="m 84.063907,683.78244 q 0.304149,-0.2607 0.521398,-0.2607 0.456224,0 0.651748,1.45557 0.21725,1.43385 0.391049,5.53986 0.0869,1.91179 0.0869,3.45426 0,1.54247 -0.13035,1.69455 -0.260699,0.32587 -0.651748,0.32587 -0.543123,0 -0.673473,-0.45622 -0.108624,-0.28243 -0.325874,-4.38844 -0.217249,-4.12774 -0.217249,-5.73538 0,-1.34695 0.347599,-1.62937 z m -0.13035,-5.10536 q 0,-0.30415 0.238975,-0.6083 0.260699,-0.30415 0.456223,-0.30415 0.217249,0 0.586573,0.30415 0.391049,0.28243 0.391049,0.73865 0,0.32587 -0.195524,0.56485 -0.1738,0.21725 -0.477949,0.21725 -0.347599,0 -0.673473,-0.2607 -0.325874,-0.2607 -0.325874,-0.65175 z"
         style="font-style:normal;font-variant:normal;font-weight:normal;font-stretch:normal;font-family:Purisa;-inkscape-font-specification:Purisa;stroke-width:0.54312325px"
         id="path4548"
         inkscape:connector-curvature="0" />
    </g>
  </g>
</svg>
