<?xml version="1.0" encoding="UTF-8" standalone="no"?>
<!-- Created with Inkscape (http://www.inkscape.org/) -->

<svg
   xmlns:dc="http://purl.org/dc/elements/1.1/"
   xmlns:cc="http://creativecommons.org/ns#"
   xmlns:rdf="http://www.w3.org/1999/02/22-rdf-syntax-ns#"
   xmlns:svg="http://www.w3.org/2000/svg"
   xmlns="http://www.w3.org/2000/svg"
   xmlns:xlink="http://www.w3.org/1999/xlink"
   xmlns:sodipodi="http://sodipodi.sourceforge.net/DTD/sodipodi-0.dtd"
   xmlns:inkscape="http://www.inkscape.org/namespaces/inkscape"
   width="158.52953"
   height="200"
   id="svg2"
   sodipodi:version="0.32"
   inkscape:version="0.92.3 (2405546, 2018-03-11)"
   sodipodi:docname="demo_logo2.svg"
   inkscape:export-filename="D:\proj\icons\icon_cube_green.png"
   inkscape:export-xdpi="45"
   inkscape:export-ydpi="45"
   inkscape:output_extension="org.inkscape.output.svg.inkscape"
   version="1.0"
   sodipodi:modified="TRUE">
  <defs
     id="defs4">
    <inkscape:perspective
       sodipodi:type="inkscape:persp3d"
       inkscape:vp_x="0 : 15 : 1"
       inkscape:vp_y="0 : 1000 : 0"
       inkscape:vp_z="30 : 15 : 1"
       inkscape:persp3d-origin="15 : 10 : 1"
       id="perspective18" />
    <linearGradient
       id="linearGradient14266">
      <stop
         style="stop-color:#73d216;stop-opacity:1;"
         offset="0"
         id="stop14268" />
      <stop
         style="stop-color:#5ba711;stop-opacity:1;"
         offset="1"
         id="stop14270" />
    </linearGradient>
    <linearGradient
       inkscape:collect="always"
       xlink:href="#linearGradient14266"
       id="linearGradient2670"
       gradientUnits="userSpaceOnUse"
       gradientTransform="translate(-2,-10.871051)"
       x1="8.125"
       y1="18.5"
       x2="19.75"
       y2="23.625" />
  </defs>
  <sodipodi:namedview
     id="base"
     pagecolor="#ffffff"
     bordercolor="#666666"
     borderopacity="1.0"
     inkscape:pageopacity="0.0"
     inkscape:pageshadow="2"
     inkscape:zoom="1"
     inkscape:cx="-123.89376"
     inkscape:cy="-12.651682"
     inkscape:document-units="px"
     inkscape:current-layer="layer1"
     showgrid="false"
     inkscape:grid-bbox="true"
     inkscape:grid-points="true"
     inkscape:window-width="1680"
     inkscape:window-height="975"
     inkscape:window-x="0"
     inkscape:window-y="0"
     width="60px"
     height="49px"
     gridtolerance="10000"
     fit-margin-top="0"
     fit-margin-left="0"
     fit-margin-right="0"
     fit-margin-bottom="0"
     inkscape:window-maximized="0">
    <inkscape:grid
       id="GridFromPre046Settings"
       type="xygrid"
       originx="-4.6088377"
       originy="5.6288951"
       spacingx="1"
       spacingy="1"
       color="#0000ff"
       empcolor="#0000ff"
       opacity="0.2"
       empopacity="0.4"
       empspacing="4"
       visible="true"
       enabled="true" />
  </sodipodi:namedview>
  <metadata
     id="metadata7">
    <rdf:RDF>
      <cc:Work
         rdf:about="">
        <dc:format>image/svg+xml</dc:format>
        <dc:type
           rdf:resource="http://purl.org/dc/dcmitype/StillImage" />
        <dc:title>icon_cube_green</dc:title>
        <dc:date>2008-05-09</dc:date>
        <dc:creator>
          <cc:Agent>
            <dc:title>Jean-Victor Balin</dc:title>
          </cc:Agent>
        </dc:creator>
        <dc:description>jean.victor.balin@gmail.com</dc:description>
        <cc:license
           rdf:resource="http://creativecommons.org/publicdomain/zero/1.0/" />
        <dc:subject>
          <rdf:Bag>
            <rdf:li>icon</rdf:li>
            <rdf:li>cube</rdf:li>
          </rdf:Bag>
        </dc:subject>
      </cc:Work>
      <cc:License
         rdf:about="http://creativecommons.org/publicdomain/zero/1.0/">
        <cc:permits
           rdf:resource="http://creativecommons.org/ns#Reproduction" />
        <cc:permits
           rdf:resource="http://creativecommons.org/ns#Distribution" />
        <cc:permits
           rdf:resource="http://creativecommons.org/ns#DerivativeWorks" />
      </cc:License>
    </rdf:RDF>
  </metadata>
  <g
     inkscape:label="Calque 1"
     inkscape:groupmode="layer"
     id="layer1"
     transform="translate(-4.6088377,164.3711)">
    <g
       id="g4545"
       transform="matrix(7.6280941,0,0,7.6280941,-30.547809,-236.15173)">
      <g
         transform="matrix(1.4035135,0,0,0.98862232,4.6088483,9.290671)"
         id="g2576">
        <path
           inkscape:connector-curvature="0"
           style="fill:#315b09;fill-opacity:1;stroke:none;stroke-width:1;stroke-linecap:round;stroke-linejoin:round;stroke-miterlimit:4;stroke-opacity:1"
           d="m 7.8382344,0.12496639 c -0.096897,0.0129398 -0.190061,0.0458209 -0.2736141,0.0965697 L 0.35408508,4.3418419 C 0.13538682,4.467933 4.4947774e-4,4.7010064 -3.7043932e-6,4.9534498 V 12.163985 C -8.0361027e-4,12.404276 0.12042253,12.628544 0.32189519,12.759498 L 6.502354,16.879804 c 0.2240483,0.144419 0.5102545,0.150641 0.7403674,0.01609 l 7.2105346,-4.120306 c 0.218698,-0.126091 0.353637,-0.359165 0.354089,-0.611608 V 4.9534498 c 8e-4,-0.2402906 -0.120426,-0.4645588 -0.321899,-0.5955129 L 8.3049878,0.237631 C 8.1672954,0.14681071 8.0021958,0.10695911 7.8382344,0.12496639 Z"
           id="path8364" />
        <g
           id="g16780"
           transform="matrix(0.4542501,0,0,0.4542501,0.8738261,1.0597637)">
          <path
             inkscape:connector-curvature="0"
             sodipodi:nodetypes="ccccc"
             id="rect4447"
             d="m 1.375,9.503949 12,8 v 14 l -12,-8 z"
             style="fill:#8ae234;fill-opacity:1;stroke:none;stroke-width:1;stroke-linecap:round;stroke-linejoin:round;stroke-miterlimit:4;stroke-opacity:1" />
          <path
             inkscape:connector-curvature="0"
             sodipodi:nodetypes="ccccc"
             id="path4450"
             d="m 15.375,1.503949 12,8 -14,8 -12,-8 z"
             style="fill:url(#linearGradient2670);fill-opacity:1;stroke:none;stroke-width:1;stroke-linecap:round;stroke-linejoin:round;stroke-miterlimit:4;stroke-opacity:1" />
          <path
             inkscape:connector-curvature="0"
             sodipodi:nodetypes="ccccc"
             id="path5421"
             d="m 27.375,9.503949 v 14 l -14,8 v -14 z"
             style="fill:#4e9a06;fill-opacity:1;stroke:none;stroke-width:1;stroke-linecap:round;stroke-linejoin:round;stroke-miterlimit:4;stroke-opacity:1" />
        </g>
      </g>
      <g
         aria-label="CUBE"
         style="font-style:normal;font-weight:normal;font-size:6.62520885px;line-height:125%;font-family:sans-serif;letter-spacing:0px;word-spacing:0px;fill:#000000;fill-opacity:1;stroke:none;stroke-width:0.16563022px;stroke-linecap:butt;stroke-linejoin:miter;stroke-opacity:1"
         id="text4529">
        <path
           d="m 8.7508238,32.849672 q -0.6558957,0 -1.2190384,-0.351136 -0.5565176,-0.357762 -0.887778,-0.947405 -0.3246353,-0.596269 -0.3246353,-1.278666 0,-0.695647 0.3378857,-1.27204 0.3378856,-0.583018 0.9142788,-0.920904 0.5830184,-0.344511 1.2654149,-0.344511 0.4968907,0 0.9540301,0.192131 0.4637644,0.185506 0.8016504,0.569768 0.337886,0.384262 0.477015,0.934155 L 9.9168606,29.7822 Q 9.8174824,29.497316 9.519348,29.278684 9.2212136,29.060052 8.8170759,29.060052 q -0.5035159,0 -0.8414015,0.311385 -0.3312605,0.30476 -0.3312605,0.887778 0,0.390887 0.159005,0.682396 0.159005,0.284884 0.4240134,0.437264 0.2650083,0.145755 0.5763932,0.145755 0.2782587,0 0.5167663,-0.119254 0.2385075,-0.119254 0.3908873,-0.291509 0.159005,-0.178881 0.2053815,-0.337886 l 1.0799094,0.371012 q -0.0795,0.463765 -0.410763,0.854652 -0.331261,0.390887 -0.8215263,0.622769 -0.4902654,0.225258 -1.0136569,0.225258 z"
           style="font-style:normal;font-variant:normal;font-weight:normal;font-stretch:normal;font-family:'Riffic Free';-inkscape-font-specification:'Riffic Free';stroke-width:0.16563022px"
           id="path829"
           inkscape:connector-curvature="0" />
        <path
           d="m 13.33288,32.869547 q -0.662521,0 -1.146161,-0.364386 -0.48364,-0.364387 -0.742023,-1.046783 -0.258384,-0.689022 -0.258384,-1.623176 0,-1.09316 0.265009,-2.067066 l 1.42442,0.344511 q -0.06625,0.311385 -0.106004,0.682397 -0.03975,0.364386 -0.08613,0.927529 l -0.01988,0.192131 q 0,1.629801 0.669146,1.629801 0.655896,0 0.655896,-1.596675 0,-0.271633 -0.08613,-0.828151 -0.08613,-0.556518 -0.218632,-1.060033 l 1.404545,-0.397513 q 0.351136,0.980531 0.351136,2.285697 0,0.887778 -0.258384,1.550299 -0.258383,0.655896 -0.735398,1.013657 -0.47039,0.357761 -1.113035,0.357761 z"
           style="font-style:normal;font-variant:normal;font-weight:normal;font-stretch:normal;font-family:'Riffic Free';-inkscape-font-specification:'Riffic Free';stroke-width:0.16563022px"
           id="path831"
           inkscape:connector-curvature="0" />
        <path
           d="m 18.201891,30.040583 q 0.04638,-0.0066 0.139129,-0.0066 0.291509,0 0.523392,0.16563 0.238507,0.16563 0.377637,0.463765 0.139129,0.291509 0.139129,0.655895 0,0.755274 -0.675771,1.126286 -0.675772,0.364386 -2.073691,0.364386 h -1.007031 l 0.0265,-4.823152 q 0.238508,-0.145754 0.728773,-0.198756 0.496891,-0.05963 0.94078,-0.05963 0.410763,0 0.7884,0.159005 0.377637,0.159005 0.609519,0.430639 0.238508,0.271633 0.238508,0.602894 0,0.404137 -0.212007,0.728773 -0.205381,0.324635 -0.543267,0.390887 z m -0.47039,-0.907654 q 0,-0.17888 -0.145755,-0.291509 -0.139129,-0.112628 -0.364386,-0.112628 -0.16563,0 -0.311385,0.07288 v 0.755274 q 0.0795,0.0265 0.192131,0.0265 0.245133,0 0.437264,-0.132505 0.192131,-0.132504 0.192131,-0.31801 z m -0.549892,2.597082 q 0.324635,0 0.549892,-0.172255 0.231882,-0.172256 0.231882,-0.424013 0,-0.205382 -0.172255,-0.331261 -0.172256,-0.125879 -0.424013,-0.125879 -0.251758,0 -0.45714,0.112629 v 0.887778 q 0.125879,0.053 0.271634,0.053 z"
           style="font-style:normal;font-variant:normal;font-weight:normal;font-stretch:normal;font-family:'Riffic Free';-inkscape-font-specification:'Riffic Free';stroke-width:0.16563022px"
           id="path833"
           inkscape:connector-curvature="0" />
        <path
           d="m 23.138189,31.398751 v 1.325042 l -3.49811,0.0795 -0.172256,-5.035159 3.498111,-0.112628 0.09275,1.325042 -2.239321,0.0265 0.0265,0.523392 1.861683,-0.03975 0.06625,1.325041 -1.848434,0.03975 0.03313,0.629395 z"
           style="font-style:normal;font-variant:normal;font-weight:normal;font-stretch:normal;font-family:'Riffic Free';-inkscape-font-specification:'Riffic Free';stroke-width:0.16563022px"
           id="path835"
           inkscape:connector-curvature="0" />
      </g>
      <g
         aria-label="SOLUTIONS"
         style="font-style:normal;font-weight:normal;font-size:2.81471896px;line-height:125%;font-family:sans-serif;letter-spacing:0px;word-spacing:0px;fill:#000000;fill-opacity:1;stroke:none;stroke-width:0.07036797px;stroke-linecap:butt;stroke-linejoin:miter;stroke-opacity:1"
         id="text4533">
        <path
           d="m 8.1280019,33.60445 v 0.270751 q -0.1580531,-0.07559 -0.2982393,-0.112698 -0.1401862,-0.03711 -0.2707518,-0.03711 -0.2267718,0 -0.3504655,0.08796 -0.1223193,0.08796 -0.1223193,0.250136 0,0.136063 0.081088,0.206156 0.082463,0.06872 0.3106086,0.111324 l 0.1676737,0.03436 q 0.3106086,0.0591 0.4576667,0.208905 0.1484325,0.148432 0.1484325,0.398568 0,0.298239 -0.2006587,0.452169 -0.1992843,0.15393 -0.5854835,0.15393 -0.1456837,0 -0.3106087,-0.03299 -0.1635505,-0.03298 -0.3394705,-0.09758 v -0.28587 q 0.1690481,0.09483 0.3312243,0.142935 0.1621762,0.0481 0.3188549,0.0481 0.2377667,0 0.3669579,-0.09346 0.1291912,-0.09346 0.1291912,-0.266628 0,-0.151181 -0.093457,-0.236393 -0.092083,-0.08521 -0.3037368,-0.127816 l -0.169048,-0.03299 q -0.310609,-0.06183 -0.4494208,-0.19377 -0.1388118,-0.13194 -0.1388118,-0.366958 0,-0.272126 0.191038,-0.428805 0.1924125,-0.156679 0.5291342,-0.156679 0.1443093,0 0.2941161,0.02611 0.1498069,0.02611 0.3064856,0.07834 z"
           style="stroke-width:0.07036797px"
           id="path838"
           inkscape:connector-curvature="0" />
        <path
           d="m 9.5174945,33.725395 q -0.3023624,0 -0.481031,0.225397 -0.1772944,0.225397 -0.1772944,0.614345 0,0.387574 0.1772944,0.612972 0.1786686,0.225397 0.481031,0.225397 0.3023624,0 0.4782823,-0.225397 0.1772942,-0.225398 0.1772942,-0.612972 0,-0.388948 -0.1772942,-0.614345 -0.1759199,-0.225397 -0.4782823,-0.225397 z m 0,-0.225398 q 0.4315536,0 0.6899365,0.289993 0.258382,0.288619 0.258382,0.775147 0,0.485155 -0.258382,0.775148 -0.2583829,0.288618 -0.6899365,0.288618 -0.4329279,0 -0.6926847,-0.288618 -0.2583824,-0.288619 -0.2583824,-0.775148 0,-0.486528 0.2583824,-0.775147 0.2597568,-0.289993 0.6926847,-0.289993 z"
           style="stroke-width:0.07036797px"
           id="path840"
           inkscape:connector-curvature="0" />
        <path
           d="m 10.900115,33.537105 h 0.277624 v 1.818298 h 0.99917 v 0.233643 h -1.276794 z"
           style="stroke-width:0.07036797px"
           id="path842"
           inkscape:connector-curvature="0" />
        <path
           d="m 12.297854,33.537105 h 0.278998 v 1.246558 q 0,0.32985 0.119571,0.475534 0.11957,0.144309 0.387573,0.144309 0.266629,0 0.3862,-0.144309 0.11957,-0.145684 0.11957,-0.475534 v -1.246558 h 0.278998 v 1.280917 q 0,0.401318 -0.199284,0.6061 -0.19791,0.204781 -0.585484,0.204781 -0.388948,0 -0.588232,-0.204781 -0.19791,-0.204782 -0.19791,-0.6061 z"
           style="stroke-width:0.07036797px"
           id="path844"
           inkscape:connector-curvature="0" />
        <path
           d="m 14.106531,33.537105 h 1.735835 v 0.233644 h -0.728419 v 1.818297 h -0.278998 v -1.818297 h -0.728418 z"
           style="stroke-width:0.07036797px"
           id="path846"
           inkscape:connector-curvature="0" />
        <path
           d="m 16.111744,33.537105 h 0.277623 v 2.051941 h -0.277623 z"
           style="stroke-width:0.07036797px"
           id="path848"
           inkscape:connector-curvature="0" />
        <path
           d="m 17.774737,33.725395 q -0.302363,0 -0.481031,0.225397 -0.177295,0.225397 -0.177295,0.614345 0,0.387574 0.177295,0.612972 0.178668,0.225397 0.481031,0.225397 0.302362,0 0.478282,-0.225397 0.177294,-0.225398 0.177294,-0.612972 0,-0.388948 -0.177294,-0.614345 -0.17592,-0.225397 -0.478282,-0.225397 z m 0,-0.225398 q 0.431553,0 0.689936,0.289993 0.258382,0.288619 0.258382,0.775147 0,0.485155 -0.258382,0.775148 -0.258383,0.288618 -0.689936,0.288618 -0.432928,0 -0.692685,-0.288618 -0.258382,-0.288619 -0.258382,-0.775148 0,-0.486528 0.258382,-0.775147 0.259757,-0.289993 0.692685,-0.289993 z"
           style="stroke-width:0.07036797px"
           id="path850"
           inkscape:connector-curvature="0" />
        <path
           d="m 19.157357,33.537105 h 0.37383 l 0.909836,1.716594 V 33.537105 H 20.7104 v 2.051941 h -0.37383 l -0.909836,-1.716593 v 1.716593 h -0.269377 z"
           style="stroke-width:0.07036797px"
           id="path852"
           inkscape:connector-curvature="0" />
        <path
           d="m 22.492964,33.60445 v 0.270751 q -0.158053,-0.07559 -0.298239,-0.112698 -0.140186,-0.03711 -0.270752,-0.03711 -0.226771,0 -0.350465,0.08796 -0.122319,0.08796 -0.122319,0.250136 0,0.136063 0.08109,0.206156 0.08246,0.06872 0.310608,0.111324 l 0.167674,0.03436 q 0.310609,0.0591 0.457667,0.208905 0.148432,0.148432 0.148432,0.398568 0,0.298239 -0.200659,0.452169 -0.199284,0.15393 -0.585483,0.15393 -0.145684,0 -0.310609,-0.03299 -0.16355,-0.03298 -0.33947,-0.09758 v -0.28587 q 0.169048,0.09483 0.331224,0.142935 0.162176,0.0481 0.318855,0.0481 0.237767,0 0.366958,-0.09346 0.129191,-0.09346 0.129191,-0.266628 0,-0.151181 -0.09346,-0.236393 -0.09208,-0.08521 -0.303737,-0.127816 l -0.169048,-0.03299 q -0.310609,-0.06185 -0.449421,-0.193787 -0.138811,-0.13194 -0.138811,-0.366958 0,-0.272126 0.191038,-0.428805 0.192412,-0.156679 0.529134,-0.156679 0.144309,0 0.294116,0.02611 0.149807,0.02611 0.306485,0.07834 z"
           style="stroke-width:0.07036797px"
           id="path854"
           inkscape:connector-curvature="0" />
      </g>
    </g>
  </g>
</svg>
