<?xml version="1.0" encoding="UTF-8" standalone="no"?>
<svg
   xmlns:dc="http://purl.org/dc/elements/1.1/"
   xmlns:cc="http://creativecommons.org/ns#"
   xmlns:rdf="http://www.w3.org/1999/02/22-rdf-syntax-ns#"
   xmlns:svg="http://www.w3.org/2000/svg"
   xmlns="http://www.w3.org/2000/svg"
   xmlns:sodipodi="http://sodipodi.sourceforge.net/DTD/sodipodi-0.dtd"
   xmlns:inkscape="http://www.inkscape.org/namespaces/inkscape"
   width="258.58975"
   height="200"
   version="1.1"
   id="svg11"
   sodipodi:docname="demo_logo1.svg"
   inkscape:version="0.92.3 (2405546, 2018-03-11)">
  <metadata
     id="metadata17">
    <rdf:RDF>
      <cc:Work
         rdf:about="">
        <dc:format>image/svg+xml</dc:format>
        <dc:type
           rdf:resource="http://purl.org/dc/dcmitype/StillImage" />
        <dc:title>Headphones</dc:title>
      </cc:Work>
    </rdf:RDF>
  </metadata>
  <defs
     id="defs15" />
  <sodipodi:namedview
     pagecolor="#ffffff"
     bordercolor="#666666"
     borderopacity="1"
     objecttolerance="10"
     gridtolerance="10"
     guidetolerance="10"
     inkscape:pageopacity="0"
     inkscape:pageshadow="2"
     inkscape:window-width="1680"
     inkscape:window-height="975"
     id="namedview13"
     showgrid="false"
     fit-margin-top="0"
     fit-margin-left="0"
     fit-margin-right="0"
     fit-margin-bottom="0"
     inkscape:zoom="0.98333335"
     inkscape:cx="-60.496717"
     inkscape:cy="-40.86745"
     inkscape:window-x="0"
     inkscape:window-y="0"
     inkscape:window-maximized="1"
     inkscape:current-layer="svg11" />
  <title
     id="title2">Headphones</title>
  <g
     id="g830"
     transform="matrix(2.5858976,0,0,2.5858976,-9.7596958e-8,1.2473906e-6)">
    <g
       transform="matrix(1.7687536,0,0,1.7687536,-3.4781504,-13.805203)"
       id="g9">
      <title
         id="title4">Layer 1</title>
      <path
         style="fill:none;fill-opacity:0.75;fill-rule:evenodd;stroke:#333333;stroke-width:3.55312705;stroke-linecap:round;stroke-linejoin:round"
         inkscape:connector-curvature="0"
         d="M 13.35904,26.28466 V 22.486334 C 15.891264,16.15579 20.324365,9.910412 30.38583,9.581609 c 10.061455,0.462515 14.151154,6.257657 16.683365,12.746467 v 4.431377"
         id="path876" />
      <path
         style="fill:#333333;fill-rule:evenodd;stroke:#333333;stroke-width:3.55312705;stroke-linecap:round;stroke-linejoin:round"
         inkscape:connector-curvature="0"
         d="m 13.307643,26.283844 c -5.458097,1.117826 -9.564638,5.948898 -9.564638,11.73592 0,5.805618 4.13531,10.638481 9.619608,11.735924 V 26.283844 c -0.01756,0.0035 -0.03743,-0.0036 -0.05497,0 z"
         id="path879" />
      <path
         style="fill:#333333;fill-rule:evenodd;stroke:#333333;stroke-width:3.55312705;stroke-linecap:round;stroke-linejoin:round"
         inkscape:connector-curvature="0"
         d="m 47.162228,26.283844 c 5.458088,1.117826 9.564636,5.948898 9.564636,11.73592 0,5.805618 -4.135307,10.638481 -9.619606,11.735924 V 26.283844 c 0.01756,0.0035 0.03743,-0.0036 0.05497,0 z"
         id="path880" />
    </g>
    <g
       id="text4529"
       style="font-style:normal;font-weight:normal;font-size:36.71543121px;line-height:125%;font-family:sans-serif;letter-spacing:0px;word-spacing:0px;fill:#000000;fill-opacity:1;stroke:none;stroke-width:0.91788572px;stroke-linecap:butt;stroke-linejoin:miter;stroke-opacity:1"
       transform="scale(0.856445,1.1676173)"
       aria-label="BTU">
      <path
         id="path4531"
         style="font-style:normal;font-variant:normal;font-weight:normal;font-stretch:normal;font-family:'Ubuntu Condensed';-inkscape-font-specification:'Ubuntu Condensed, ';fill:#ff0000;stroke-width:0.91788572px"
         d="m 38.016199,43.270185 h 2.276357 q 4.552713,0 4.552713,-4.112128 0,-1.28504 -0.403869,-2.09278 -0.367155,-0.844454 -0.991317,-1.28504 -0.624162,-0.4773 -1.468617,-0.660877 -0.80774,-0.183578 -1.725626,-0.183578 -0.550731,0 -1.138178,0.03672 -0.550731,0.03672 -1.101463,0.110146 z m 0,2.643511 v 9.178858 q 0.697593,0.110146 1.358471,0.183577 0.697593,0.07343 1.358471,0.07343 1.028032,0 1.945918,-0.220292 0.917886,-0.220293 1.578763,-0.734309 0.697594,-0.514016 1.064748,-1.395186 0.40387,-0.917886 0.40387,-2.239642 0,-2.276356 -1.248325,-3.561397 -1.211609,-1.28504 -3.818405,-1.28504 z M 34.71181,32.806287 q 1.28504,-0.293723 2.606796,-0.440585 1.358471,-0.183577 2.680226,-0.183577 1.652195,0 3.120812,0.330439 1.505333,0.293723 2.643511,1.064747 1.138179,0.734309 1.799056,1.982634 0.697593,1.211609 0.697593,3.047381 0,2.276356 -0.954601,3.744974 -0.954601,1.431901 -2.459934,2.129495 1.872487,0.734308 3.084097,2.239641 1.211609,1.505333 1.211609,4.148844 0,1.982633 -0.660878,3.341104 -0.624162,1.358471 -1.799056,2.239641 -1.174894,0.844455 -2.827088,1.248325 -1.615479,0.367154 -3.561397,0.367154 -1.28504,0 -2.680227,-0.146862 -1.395186,-0.146861 -2.900519,-0.440585 z"
         inkscape:connector-curvature="0" />
      <path
         id="path4533"
         style="font-style:normal;font-variant:normal;font-weight:normal;font-stretch:normal;font-family:'Ubuntu Condensed';-inkscape-font-specification:'Ubuntu Condensed, ';fill:#ff0000;stroke-width:0.91788572px"
         d="m 65.327317,32.439133 v 2.827088 H 59.673141 V 57.882927 H 56.368752 V 35.266221 h -5.654176 v -2.827088 z"
         inkscape:connector-curvature="0" />
      <path
         id="path4535"
         style="font-style:normal;font-variant:normal;font-weight:normal;font-stretch:normal;font-family:'Ubuntu Condensed';-inkscape-font-specification:'Ubuntu Condensed, ';fill:#ff0000;stroke-width:0.91788572px"
         d="m 75.819901,58.433658 q -3.561397,0 -5.360453,-2.019348 -1.762341,-2.019349 -1.762341,-6.388485 V 32.439133 h 3.304389 v 17.292968 q 0,2.900519 0.844455,4.369137 0.844455,1.431901 3.047381,1.431901 2.276356,0 3.084096,-1.468617 0.844455,-1.505333 0.844455,-4.332421 V 32.439133 h 3.304389 v 17.586692 q 0,4.295705 -1.835772,6.351769 -1.835772,2.056064 -5.470599,2.056064 z"
         inkscape:connector-curvature="0" />
    </g>
  </g>
</svg>
