<?xml version="1.0" encoding="UTF-8" standalone="no"?>
<svg
   xmlns:dc="http://purl.org/dc/elements/1.1/"
   xmlns:cc="http://creativecommons.org/ns#"
   xmlns:rdf="http://www.w3.org/1999/02/22-rdf-syntax-ns#"
   xmlns:svg="http://www.w3.org/2000/svg"
   xmlns="http://www.w3.org/2000/svg"
   xmlns:sodipodi="http://sodipodi.sourceforge.net/DTD/sodipodi-0.dtd"
   xmlns:inkscape="http://www.inkscape.org/namespaces/inkscape"
   viewBox="0 0 66.651871 100"
   version="1.1"
   id="svg7"
   sodipodi:docname="demo_icon_2_black.svg"
   width="66.651871"
   height="100"
   inkscape:version="0.92.3 (2405546, 2018-03-11)">
  <metadata
     id="metadata13">
    <rdf:RDF>
      <cc:Work
         rdf:about="">
        <dc:format>image/svg+xml</dc:format>
        <dc:type
           rdf:resource="http://purl.org/dc/dcmitype/StillImage" />
        <dc:title></dc:title>
      </cc:Work>
    </rdf:RDF>
  </metadata>
  <defs
     id="defs11" />
  <sodipodi:namedview
     pagecolor="#ffffff"
     bordercolor="#666666"
     borderopacity="1"
     objecttolerance="10"
     gridtolerance="10"
     guidetolerance="10"
     inkscape:pageopacity="0"
     inkscape:pageshadow="2"
     inkscape:window-width="1322"
     inkscape:window-height="737"
     id="namedview9"
     showgrid="false"
     fit-margin-top="0"
     fit-margin-left="0"
     fit-margin-right="0"
     fit-margin-bottom="0"
     inkscape:zoom="3.9333333"
     inkscape:cx="4"
     inkscape:cy="29.999996"
     inkscape:window-x="0"
     inkscape:window-y="0"
     inkscape:window-maximized="0"
     inkscape:current-layer="svg7" />
  <g
     data-name="Layer 1"
     id="Layer_1"
     transform="matrix(1.6662968,0,0,1.6662968,-16.662968,0.02218967)">
    <path
       d="m 33.26935,6.29132 a 4,4 0 1 0 -6.5387,0 A 20.01524,20.01524 0 0 0 10,26 v 30 a 1.0004,1.0004 0 0 0 0.55273,0.89453 C 14.79053,59.0127 20.96973,60 30,60 39.03027,60 45.20947,59.0127 49.44727,56.89453 A 1.0004,1.0004 0 0 0 50,56 V 26 A 20.01524,20.01524 0 0 0 33.26935,6.29132 Z M 48,26 v 25.36456 a 26.76758,26.76758 0 0 1 -7,1.93732 V 24 C 41,16.733 39.30457,12.6438 36.47034,9.22266 A 18.01442,18.01442 0 0 1 48,26 Z M 27.16895,8.24512 A 17.95883,17.95883 0 0 1 29,8.05066 V 53.99323 A 78.47222,78.47222 0 0 1 21,53.5644 V 24 C 21,15.98291 23.09277,12.32178 26.707,8.707 Z M 31,8.05066 a 17.95883,17.95883 0 0 1 1.83105,0.19446 L 33.293,8.707 C 36.90723,12.32178 39,15.98291 39,24 v 29.56439 a 78.47222,78.47222 0 0 1 -8,0.42883 z M 28,4 A 2,2 0 1 1 30,6 2.002,2.002 0 0 1 28,4 Z M 23.52966,9.22266 C 20.69543,12.6438 19,16.733 19,24 V 53.30188 A 26.76758,26.76758 0 0 1 12,51.36456 V 26 A 18.01442,18.01442 0 0 1 23.52966,9.22266 Z M 30,58 C 21.689,58 15.94043,57.16211 12,55.36914 V 53.539 C 16.16357,55.21191 21.94525,56 30,56 c 8.05475,0 13.83643,-0.78809 18,-2.461 v 1.83014 C 44.05957,57.16211 38.311,58 30,58 Z"
       id="path4"
       inkscape:connector-curvature="0" />
  </g>
</svg>
