<?xml version="1.0" encoding="UTF-8" standalone="no"?>
<svg
   xmlns:dc="http://purl.org/dc/elements/1.1/"
   xmlns:cc="http://creativecommons.org/ns#"
   xmlns:rdf="http://www.w3.org/1999/02/22-rdf-syntax-ns#"
   xmlns:svg="http://www.w3.org/2000/svg"
   xmlns="http://www.w3.org/2000/svg"
   xmlns:sodipodi="http://sodipodi.sourceforge.net/DTD/sodipodi-0.dtd"
   xmlns:inkscape="http://www.inkscape.org/namespaces/inkscape"
   viewBox="0 0 100 99.502487"
   version="1.1"
   id="svg32"
   sodipodi:docname="demo_icon_3_black.svg"
   width="100"
   height="99.502487"
   inkscape:version="0.92.3 (2405546, 2018-03-11)">
  <metadata
     id="metadata38">
    <rdf:RDF>
      <cc:Work
         rdf:about="">
        <dc:format>image/svg+xml</dc:format>
        <dc:type
           rdf:resource="http://purl.org/dc/dcmitype/StillImage" />
        <dc:title></dc:title>
      </cc:Work>
    </rdf:RDF>
  </metadata>
  <defs
     id="defs36" />
  <sodipodi:namedview
     pagecolor="#ffffff"
     bordercolor="#666666"
     borderopacity="1"
     objecttolerance="10"
     gridtolerance="10"
     guidetolerance="10"
     inkscape:pageopacity="0"
     inkscape:pageshadow="2"
     inkscape:window-width="1920"
     inkscape:window-height="995"
     id="namedview34"
     showgrid="false"
     fit-margin-top="0"
     fit-margin-left="0"
     fit-margin-right="0"
     fit-margin-bottom="0"
     inkscape:zoom="1.3906433"
     inkscape:cx="-133.76781"
     inkscape:cy="-7.3974658"
     inkscape:window-x="0"
     inkscape:window-y="0"
     inkscape:window-maximized="1"
     inkscape:current-layer="svg32" />
  <g
     id="text"
     transform="matrix(1.6666689,0,0,1.6583748,-6.5651678e-5,0)">
    <text
       font-size="9"
       transform="translate(12.06201,-49.60986)"
       id="text16"
       style="font-size:9px;font-family:MyriadPro-Regular, 'Myriad Pro'">
      <tspan
         letter-spacing="0.00798em"
         id="tspan4"
         style="letter-spacing:0.00798em" />
      <tspan
         x="5.8857398"
         y="0"
         id="tspan6" />
      <tspan
         letter-spacing="-0.00798em"
         x="10.22363"
         y="0"
         id="tspan8"
         style="letter-spacing:-0.00798em" />
      <tspan
         x="13.09473"
         y="0"
         id="tspan10" />
      <tspan
         letter-spacing="-0.007em"
         x="18.12549"
         y="0"
         id="tspan12"
         style="letter-spacing:-0.007em" />
      <tspan
         x="23.00342"
         y="0"
         id="tspan14" />
    </text>
  </g>
  <g
     data-name="Layer 1"
     id="Layer_1"
     transform="matrix(1.6666689,0,0,1.6583748,-6.5651678e-5,0)">
    <path
       d="M 30,0 A 9.99969,9.99969 0 0 0 29,19.94928 V 59 a 1,1 0 0 0 2,0 V 19.94928 A 9.99969,9.99969 0 0 0 30,0 Z m 0,18 a 8,8 0 1 1 8,-8 8.00917,8.00917 0 0 1 -8,8 z"
       id="path19"
       inkscape:connector-curvature="0" />
    <path
       d="M 50,20 A 9.99969,9.99969 0 0 0 49,39.94928 V 59 a 1,1 0 0 0 2,0 V 39.94928 A 9.99969,9.99969 0 0 0 50,20 Z m 0,18 a 8,8 0 1 1 8,-8 8.00917,8.00917 0 0 1 -8,8 z"
       id="path21"
       inkscape:connector-curvature="0" />
    <path
       d="M 10,16 A 9.99969,9.99969 0 0 0 9,35.94928 V 59 a 1,1 0 0 0 2,0 V 35.94928 A 9.99969,9.99969 0 0 0 10,16 Z m 0,18 a 8,8 0 1 1 8,-8 8.00917,8.00917 0 0 1 -8,8 z"
       id="path23"
       inkscape:connector-curvature="0" />
    <path
       d="m 30,4 a 6,6 0 1 0 6,6 6.00656,6.00656 0 0 0 -6,-6 z m 0,10 a 4,4 0 1 1 4,-4 4.004,4.004 0 0 1 -4,4 z"
       id="path25"
       inkscape:connector-curvature="0" />
    <path
       d="m 50,24 a 6,6 0 1 0 6,6 6.00656,6.00656 0 0 0 -6,-6 z m 0,10 a 4,4 0 1 1 4,-4 4.004,4.004 0 0 1 -4,4 z"
       id="path27"
       inkscape:connector-curvature="0" />
    <path
       d="m 10,20 a 6,6 0 1 0 6,6 6.00656,6.00656 0 0 0 -6,-6 z m 0,10 a 4,4 0 1 1 4,-4 4.004,4.004 0 0 1 -4,4 z"
       id="path29"
       inkscape:connector-curvature="0" />
  </g>
</svg>
