<?xml version="1.0" encoding="UTF-8" standalone="no"?>
<!-- Created with Inkscape (http://www.inkscape.org/) -->

<svg
   xmlns:dc="http://purl.org/dc/elements/1.1/"
   xmlns:cc="http://creativecommons.org/ns#"
   xmlns:rdf="http://www.w3.org/1999/02/22-rdf-syntax-ns#"
   xmlns:svg="http://www.w3.org/2000/svg"
   xmlns="http://www.w3.org/2000/svg"
   xmlns:sodipodi="http://sodipodi.sourceforge.net/DTD/sodipodi-0.dtd"
   xmlns:inkscape="http://www.inkscape.org/namespaces/inkscape"
   id="svg2"
   version="1.1"
   inkscape:version="0.92.3 (2405546, 2018-03-11)"
   width="108"
   height="111.59606"
   sodipodi:docname="Beethoven_BW.svg">
  <title
     id="title2989">Beethoven BW</title>
  <metadata
     id="metadata8">
    <rdf:RDF>
      <cc:Work
         rdf:about="">
        <dc:format>image/svg+xml</dc:format>
        <dc:type
           rdf:resource="http://purl.org/dc/dcmitype/StillImage" />
        <dc:title>Beethoven BW</dc:title>
        <dc:date>04/04/2015</dc:date>
        <dc:creator>
          <cc:Agent>
            <dc:title>edited by Paul Sher,man</dc:title>
          </cc:Agent>
        </dc:creator>
        <dc:rights>
          <cc:Agent>
            <dc:title>pd</dc:title>
          </cc:Agent>
        </dc:rights>
        <dc:publisher>
          <cc:Agent>
            <dc:title>wpclipart</dc:title>
          </cc:Agent>
        </dc:publisher>
        <cc:license
           rdf:resource="http://creativecommons.org/publicdomain/zero/1.0/" />
      </cc:Work>
      <cc:License
         rdf:about="http://creativecommons.org/publicdomain/zero/1.0/">
        <cc:permits
           rdf:resource="http://creativecommons.org/ns#Reproduction" />
        <cc:permits
           rdf:resource="http://creativecommons.org/ns#Distribution" />
        <cc:permits
           rdf:resource="http://creativecommons.org/ns#DerivativeWorks" />
      </cc:License>
    </rdf:RDF>
  </metadata>
  <defs
     id="defs6" />
  <sodipodi:namedview
     pagecolor="#ffffff"
     bordercolor="#666666"
     borderopacity="1"
     objecttolerance="10"
     gridtolerance="10"
     guidetolerance="10"
     inkscape:pageopacity="0"
     inkscape:pageshadow="2"
     inkscape:window-width="1161"
     inkscape:window-height="995"
     id="namedview4"
     showgrid="false"
     fit-margin-top="4"
     fit-margin-left="4"
     fit-margin-right="4"
     fit-margin-bottom="4"
     inkscape:zoom="1.1"
     inkscape:cx="10.215805"
     inkscape:cy="53.893321"
     inkscape:window-x="0"
     inkscape:window-y="0"
     inkscape:window-maximized="0"
     inkscape:current-layer="svg2" />
  <g
     id="g3714"
     transform="matrix(0.28976513,0,0,0.28976513,2.8409395,2.8409395)">
    <path
       inkscape:connector-curvature="0"
       id="path2987"
       d="m 143.78709,345.76734 c -20.49502,-20.90446 -29.48089,-28.7824 -36.23981,-31.77151 -5.50364,-2.43397 -6.07872,-2.47849 -32.016776,-2.47849 -14.526859,0 -26.651967,-0.38751 -26.944686,-0.86114 -0.761995,-1.23294 18.017054,-38.3265 23.616792,-46.64938 2.586435,-3.84421 7.116151,-9.66162 10.066035,-12.92758 l 5.363425,-5.9381 -2.788799,-8.09085 c -3.075989,-8.92405 -4.793139,-18.88137 -4.823462,-27.97004 L 80,203.14316 l -2.888623,2.76747 c -2.465208,2.36182 -2.948012,3.70017 -3.293789,9.13049 -0.501306,7.87287 -2.464746,10.47622 -7.901147,10.47622 -5.731264,0 -6.916441,1.84575 -6.916441,10.77143 0,9.25104 -1.842987,8.78265 -2.558041,-0.65011 -0.385888,-5.09051 -0.03576,-7.13752 1.971377,-11.52557 1.342331,-2.93463 3.710966,-6.28439 5.263633,-7.44389 4.795059,-3.58088 5.964192,-5.03454 7.296917,-9.07273 1.312954,-3.97829 0.764566,-9.07913 -0.976092,-9.07913 -0.530256,0 -2.061532,2.1375 -3.402834,4.75 -1.341303,2.6125 -4.772628,7.1742 -7.625166,10.13712 -6.497156,6.74857 -8.366884,10.97922 -7.476449,16.91707 0.36715,2.44833 0.940599,5.18148 1.274331,6.07366 0.526468,1.40743 0.383454,1.44048 -1.080445,0.24971 C 50.759254,235.89005 50,234.65255 50,233.8949 c 0,-0.75766 -0.6199,-1.37756 -1.377555,-1.37756 -0.757656,0 -1.916906,-0.64988 -2.576112,-1.44417 -0.659206,-0.7943 -2.851806,-1.59326 -4.872445,-1.77547 L 37.5,228.96641 42,227.84897 c 4.274118,-1.06135 4.333563,-1.12282 1.184259,-1.22454 -1.823658,-0.0589 -4.211106,0.37209 -5.305439,0.95776 -4.16846,2.2309 -4.085931,0.17202 0.093,-2.32 l 4.38771,-2.61651 -2.929763,-0.72186 c -1.61137,-0.39703 -4.879795,-1.551 -7.263168,-2.56439 -5.133745,-2.18282 -5.413292,-0.25016 -0.317571,2.19555 l 3.20373,1.53764 -2.945117,2.8216 c -2.99278,2.86726 -6.394588,2.85873 -4.013695,-0.0101 0.655083,-0.78933 1.014434,-1.59 0.798559,-1.77927 -3.396612,-2.97804 -12.060725,-9.6272 -13.659605,-10.4829 -1.155781,-0.61852 -3.256001,-1.12461 -4.667159,-1.12461 -1.411157,0 -2.563858,-0.1125 -2.561556,-0.25 0.0023,-0.1375 1.127302,-2.46377 2.5,-5.16948 1.372698,-2.70571 2.510127,-5.85571 2.527618,-7 0.01749,-1.14429 0.63223,-2.87161 1.366084,-3.83851 1.797416,-2.36819 10.175809,-6.74292 12.905028,-6.73827 1.91013,0.003 1.772612,0.26254 -1.052915,1.9853 -3.688071,2.24866 -4.002095,2.86401 -1.5,2.93936 3.016082,0.0908 11.826061,1.79531 10.25,1.98309 -0.825,0.0983 -2.85,0.79102 -4.5,1.53939 l -3,1.36067 3.5,-0.37517 c 13.3433,-1.43028 12.752602,-1.19262 14.260793,-5.73772 1.234609,-3.72064 1.782944,-4.23547 4.816219,-4.522 L 53.5,188.37067 l -3.25,3.37094 c -3.601,3.73501 -3.982359,4.77573 -1.75,4.77573 2.159736,0 1.85636,0.93185 -1.046855,3.21552 -1.40077,1.10184 -2.356912,2.51661 -2.124759,3.14392 0.232152,0.62731 -0.730954,2.37806 -2.140237,3.89056 l -2.562331,2.75 h 6.219209 c 7.078302,0 11.600533,-1.59831 15.020792,-5.30886 3.279731,-3.55809 3.854704,-10.06091 1.319033,-14.91797 -1.69304,-3.243 -1.755879,-3.8843 -0.484037,-4.93983 1.137756,-0.94426 1.886719,-0.94751 3.380386,-0.0147 C 67.718257,185.35834 68,185.25736 68,183.64826 c 0,-1.03732 -0.672459,-2.44412 -1.494353,-3.12623 -1.227652,-1.01886 -1.846368,-0.81763 -3.466731,1.12755 l -1.972377,2.36776 -0.03327,-5.26905 c -0.03194,-5.05794 0.0622,-5.24509 2.34933,-4.67106 2.306797,0.57897 2.378381,0.42114 2.25,-4.96074 -0.122868,-5.15078 0.138059,-5.82965 3.555358,-9.25023 4.296426,-4.30055 3.612103,-5.61849 6.213205,11.96597 1.107175,7.48494 1.2917,11.39049 0.599291,12.68426 -1.412901,2.64003 -1.24299,4.00085 0.499547,4.00085 0.906896,0 1.5,-0.92722 1.5,-2.34501 0,-3.79628 3.249507,-5.99929 7.705388,-5.2239 2.087032,0.36318 7.394612,1.02755 11.794612,1.47637 5.05923,0.51607 10.12416,1.78585 13.77851,3.45429 3.17819,1.45104 6.87485,2.63825 8.21482,2.63825 2.95885,0 4.06229,1.91372 4.96663,8.61373 0.63637,4.7147 0.5181,5.15874 -1.5157,5.69059 -1.28669,0.33648 -2.80624,-0.0234 -3.64652,-0.86373 -0.79233,-0.79232 -1.85845,-1.44059 -2.36917,-1.44059 -0.51071,0 -0.92857,-0.62686 -0.92857,-1.39301 0,-1.31026 -2.0303,-2.60699 -4.08179,-2.60699 -0.50501,0 -0.91821,1.11643 -0.91821,2.48095 0,1.78429 -0.67344,2.64997 -2.39829,3.08288 -5.2157,1.30906 -7.45038,0.0657 -9.10098,-5.06383 -0.63544,-1.97473 -0.66162,-1.97548 -2.07215,-0.0589 -0.78572,1.06762 -1.42858,3.4046 -1.42858,5.1933 0,5.10574 2.73235,6.36557 13.80584,6.36557 7.04316,0 9.25815,0.30949 8.94614,1.25 -0.28897,0.87104 -3.64435,1.336 -11.06787,1.53367 C 93.94382,211.66686 92.59198,210.98723 87.72203,201.26514 85.674913,197.17843 84,193.31332 84,192.67604 c 0,-0.63729 -0.45,-1.1587 -1,-1.1587 -2.35703,0 0.178639,25.84399 4.02685,41.04242 2.3572,9.30967 8.65082,22.29165 18.43597,38.02819 4.10438,6.6007 7.07295,11.76051 6.59681,11.46625 -0.78557,-0.48551 -17.05296,-24.26111 -19.86718,-29.03686 -1.09964,-1.8661 -1.68439,-1.4644 -8.734103,6 -4.155558,4.4 -9.130418,10.37485 -11.055244,13.27745 -4.459396,6.72468 -18.78148,34.17751 -18.156426,34.80256 0.259414,0.25941 11.334329,0.47486 24.610924,0.47876 l 24.139259,0.007 6.90005,3.74405 c 4.27848,2.32156 11.5283,8.00767 19.08172,14.96601 9.36028,8.62284 12.68422,11.12092 14.35151,10.78575 6.68197,-1.34323 7.66715,-1.70829 7.63912,-2.83073 -0.0169,-0.67702 -1.78051,-5.43341 -3.9191,-10.56975 l -3.88836,-9.33879 5.6691,0.65298 c 9.41261,1.08417 22.37725,-1.04669 30.02639,-4.93512 3.65349,-1.85725 7.54271,-4.09483 8.64271,-4.97241 1.1,-0.87758 -1.78239,0.25721 -6.40531,2.52174 -10.02763,4.91204 -18.32924,6.3543 -32.32191,5.61536 -7.53571,-0.39795 -10.49912,-0.99074 -13.15337,-2.63116 -3.85127,-2.38022 -11.05943,-9.96711 -10.24415,-10.7824 0.29191,-0.2919 2.74968,1.09811 5.46172,3.08893 5.9094,4.3379 13.01038,5.10337 15.42059,1.66232 1.36103,-1.94313 1.38316,-1.94313 3.04692,0 2.9401,3.43379 9.22659,1.98859 16.02224,-3.68334 1.73672,-1.44955 4.12166,-2.35931 6.1849,-2.35931 4.60027,0 7.60979,-1.2897 11.99585,-5.14071 5.55643,-4.87861 8.45966,-10.18388 10.01152,-18.29476 1.66892,-8.72266 1.84616,-33.68644 0.29727,-41.87141 -1.05684,-5.58482 -1.00741,-5.87006 1.29243,-7.45892 4.82402,-3.33269 13.27357,-11.85378 16.04414,-16.17998 2.41828,-3.77609 2.84716,-5.47547 2.84716,-11.28139 0,-4.94367 -0.38833,-6.98462 -1.40305,-7.374 -2.01907,-0.77479 -9.28209,3.19101 -11.19733,6.11403 -0.98204,1.49887 -2.57741,2.48724 -4.01463,2.48724 -1.31174,0 -2.38499,0.41488 -2.38499,0.92195 0,1.04378 -11.6186,7.07805 -13.62834,7.07805 -0.75262,0 -1.06426,-0.6375 -0.73329,-1.5 0.43554,-1.13499 -0.18046,-1.5 -2.53138,-1.5 -1.70885,0 -3.10699,-0.45 -3.10699,-1 0,-0.55 1.19796,-1 2.66214,-1 3.71183,0 10.96438,-4.47512 11.69948,-7.21906 0.33609,-1.25452 0.61722,-3.51844 0.62473,-5.03094 0.0118,-2.37234 -0.38549,-2.75 -2.89273,-2.75 -2.3671,0 -2.81382,0.35395 -2.40755,1.90755 0.80137,3.06444 -3.03098,6.09245 -7.71082,6.09245 -3.38626,0 -4.17744,-0.40159 -4.9872,-2.53144 -0.93923,-2.47035 -1.02488,-2.49054 -3.54915,-0.83657 -1.53108,1.0032 -2.40224,2.34233 -2.1347,3.28144 0.24859,0.87261 0.61935,2.17539 0.82389,2.89505 0.34216,1.2038 -4.33877,3.55458 -9.6488,4.84569 -1.11139,0.27023 -3.10633,1.3102 -4.43319,2.31106 -2.34529,1.76905 -2.37738,1.9766 -1.15208,7.45181 0.73667,3.29178 2.59443,7.38787 4.47084,9.85752 4.29119,5.64788 11.63514,20.45159 11.63514,23.45376 0,3.85632 -1.72028,6.03081 -5.74232,7.2585 -2.06673,0.63085 -5.33268,1.97297 -7.25768,2.98249 -1.925,1.00953 -5.38035,2.39102 -7.67857,3.06998 -3.87701,1.14539 -4.50327,1.04419 -8.67807,-1.4024 -2.47472,-1.45029 -5.18688,-2.63689 -6.02702,-2.63689 -1.35301,0 -3.74434,-1.34886 -10.24222,-5.77724 -1.64821,-1.12327 -1.45222,-1.21592 1.62588,-0.76859 13.57057,1.97216 13.51691,1.97544 15.83109,-0.96656 1.1929,-1.51653 2.16891,-3.57008 2.16891,-4.56345 0,-0.99337 0.40775,-2.05813 0.90612,-2.36614 0.49837,-0.30801 0.68293,-1.41351 0.41013,-2.45666 -0.32145,-1.22927 0.72307,-3.25222 2.96843,-5.74901 2.80801,-3.12245 3.30335,-4.28262 2.61436,-6.12325 -0.72711,-1.94244 -1.4683,-2.23172 -5.12455,-2 l -4.27449,0.2709 v -7 c 0,-5.74039 0.42164,-7.59116 2.34319,-10.28525 2.65179,-3.7179 2.54112,-3.99797 -4.0745,-10.31114 -5.11567,-4.88179 -4.90785,-6.95604 0.98131,-9.79445 2.6125,-1.25915 7.1465,-3.87044 10.07555,-5.80286 3.34914,-2.20958 7.79939,-4.0311 11.99146,-4.90819 3.66625,-0.76708 10.04475,-2.50284 14.17445,-3.85725 5.19437,-1.70358 9.6158,-2.43985 14.34572,-2.38888 3.76045,0.0405 7.21862,-0.31461 7.68483,-0.78916 0.4662,-0.47455 0.20322,-3.56282 -0.58442,-6.86282 -0.78763,-3.3 -1.36511,-8.7 -1.28328,-12 0.11341,-4.57345 -0.48164,-7.39669 -2.50276,-11.87443 -1.70292,-3.77277 -2.65155,-7.61873 -2.65155,-10.75 0,-4.26626 0.25909,-4.87557 2.07317,-4.87557 1.15355,0 3.66601,1.77432 5.66404,4 1.97499,2.2 4.12231,4 4.77185,4 0.64953,0 1.9712,0.8732 2.93704,1.94044 1.99971,2.20966 9.64734,5.06889 13.48204,5.04056 2.2443,-0.0166 1.93504,-0.40923 -2.42814,-3.08289 -4.8538,-2.97431 -9.48493,-7.49595 -9.49503,-9.27055 -0.003,-0.47985 0.65032,-0.32861 1.45123,0.33609 0.8009,0.66469 1.8496,0.96539 2.33043,0.66822 0.48083,-0.29717 3.31304,0.10875 6.2938,0.90204 2.98076,0.79329 5.57207,1.44769 5.75846,1.45422 0.1864,0.007 -0.8261,-1.37266 -2.25,-3.06486 C 219.165,124.74842 218,122.90538 218,122.34499 c 0,-0.5604 -0.97071,-2.38215 -2.15714,-4.04834 -1.18643,-1.66618 -2.50151,-4.66065 -2.9224,-6.65437 -0.42089,-1.99372 -1.07516,-4.62789 -1.45393,-5.85371 -0.67369,-2.18024 -0.62203,-2.19551 2.37284,-0.70148 1.68384,0.84002 4.65988,3.70469 6.61343,6.36594 1.95354,2.66126 5.01333,5.5308 6.79954,6.37675 3.84341,1.82025 12.63266,4.13589 13.2719,3.49665 0.2462,-0.24619 -2.56883,-2.44146 -6.25562,-4.87836 -7.63256,-5.04499 -15.39649,-12.57555 -20.30387,-19.693573 -2.907,-4.21653 -3.80299,-4.86184 -6.67012,-4.80399 -2.16303,0.0436 -3.49567,0.64189 -3.84139,1.72445 -0.29116,0.91169 -1.21515,1.92078 -2.05332,2.24241 -1.33985,0.51415 -1.3486,0.83515 -0.0725,2.65708 0.79831,1.13975 1.23328,2.906643 0.96661,3.926423 -0.31795,1.21582 0.92505,3.38374 3.61053,6.29714 3.85153,4.17841 5.60124,7.21003 2.84541,4.93006 -1.44211,-1.19309 -6.74824,-1.11053 -6.74929,0.10501 -3.9e-4,0.44866 0.52434,1.79682 1.16608,2.99591 1.026,1.9171 0.71002,1.83177 -2.61884,-0.70728 l -3.78562,-2.88743 -4.13676,2.00979 c -3.62609,1.76169 -4.39634,1.83743 -6.2396,0.61355 -1.15657,-0.76793 -4.0779,-1.73341 -6.49186,-2.1455 l -4.38901,-0.74926 8.99745,-5.19835 c 8.98118,-5.18894 8.99039,-5.19839 5.09246,-5.22276 -3.71926,-0.0233 -3.82627,-0.11139 -2.25,-1.85315 2.09815,-2.318433 2.08079,-2.936833 -0.095,-3.385383 -1.31115,-0.2703 -0.68423,-1.07432 2.5,-3.20621 3.12446,-2.09188 4.25,-3.51338 4.25,-5.367544 0,-2.890699 1.01804,-3.527546 -10.66186,6.669684 -5.28144,4.610993 -8.49782,6.605133 -12.25,7.594943 -2.79848,0.73822 -5.08814,0.96092 -5.08814,0.49489 0,-0.46604 -0.9,-0.77955 -2,-0.69669 -1.1,0.0829 -2,0.54445 -2,1.02575 0,0.4813 -1.75919,0.57788 -3.90931,0.21462 -2.71974,-0.45949 -4.85254,-0.17271 -7.00903,0.94245 -2.38864,1.23522 -3.57112,1.35065 -5.15461,0.50319 -1.51321,-0.80985 -2.42417,-0.79328 -3.45573,0.0628 -1.41785,1.17671 -3.40447,0.16219 -10.47132,-5.34746 l -2.5,-1.949123 4.29892,0.5478 c 3.62374,0.46176 4.11494,0.32612 3.12755,-0.86362 -0.68745,-0.82831 -3.01,-1.41136 -5.62222,-1.41136 -3.69856,0 -4.39484,-0.2958 -4.11936,-1.75 0.22298,-1.17707 1.45316,-1.85709 3.75758,-2.0771 2.42083,-0.23113 3.01519,-0.58105 2.0257,-1.19259 -1.07694,-0.66558 -0.77304,-1.103992 1.31573,-1.898143 2.88765,-1.097882 3.52666,-2.588441 1.46612,-3.419886 -0.6875,-0.277413 -0.2375,-0.539913 1,-0.583334 2.55566,-0.08967 2.67486,-0.416569 1.17431,-3.220382 -0.98497,-1.84043 -0.89404,-1.912732 1.07814,-0.857256 1.18461,0.633984 2.8489,0.885976 3.69842,0.559982 1.15979,-0.445051 -0.46365,-2.684558 -6.51635,-8.989185 -9.4445,-9.837615 -10.52309,-12.757621 -7.35656,-19.916078 2.58487,-5.843529 10.31096,-13.656028 13.50499,-13.656028 1.31208,0 4.33907,-1.545842 6.72665,-3.435206 2.38758,-1.889363 4.72233,-3.199571 5.18831,-2.911575 0.46599,0.287997 -0.73276,1.72134 -2.66388,3.185206 -4.66625,3.537194 -4.55608,4.940924 0.16597,2.114652 2.0625,-1.234461 7.06302,-4.045249 11.11227,-6.246197 6.07677,-3.302999 7.06291,-4.169245 5.64784,-4.961159 -1.544,-0.864067 -1.48061,-1.076002 0.63774,-2.132112 1.29368,-0.644971 2.35215,-2.059385 2.35215,-3.143142 0,-1.648528 -0.57184,-1.916229 -3.5,-1.638495 -1.925,0.182585 -5.39821,1.163459 -7.71824,2.17972 l -4.21824,1.847748 3.49043,-5.074194 c 1.91974,-2.790807 3.33314,-5.231487 3.1409,-5.423734 -0.19225,-0.192247 -2.51017,1.720706 -5.15094,4.251006 C 151.99746,23.44429 145.99723,26.471767 141,26.47726 l -3.5,0.0038 5.5,-2.9905 c 5.08838,-2.766689 11.67348,-8.633119 10.73933,-9.567274 -0.22169,-0.221691 -3.88024,1.578472 -8.1301,4.000361 -4.24987,2.421889 -10.73802,5.159553 -14.41813,6.083697 -3.6801,0.924144 -7.50427,2.111786 -8.49815,2.639204 -1.19594,0.63465 -2.89969,0.563834 -5.03805,-0.209405 -2.85867,-1.033707 -3.85481,-0.852243 -8.64409,1.57467 -10.03477,5.08505 -16.41325,10.409632 -23.665689,19.755524 -2.454108,3.1625 -5.013691,5.75 -5.687961,5.75 -3.248485,0 -7.679199,13.248701 -7.624514,22.79879 0.01796,3.135666 0.847019,8.058434 1.842365,10.939487 l 1.809719,5.238273 -2.42041,1.58592 c -3.121634,2.04537 -14.779748,6.437533 -17.087149,6.437533 -1.364386,0 -1.777171,0.81295 -1.777171,3.5 0,3.74086 1.817891,4.71997 3.42652,1.84551 0.588852,-1.05222 1.557993,-1.41194 2.662314,-0.98817 1.412843,0.54216 1.506266,0.94364 0.501345,2.15449 -0.679287,0.81849 -0.842468,1.53382 -0.362624,1.58962 0.479845,0.0558 2.447445,0.27181 4.372445,0.48003 1.925,0.20821 6.425,0.73548 10,1.17171 l 6.5,0.79315 -2.840483,1.90113 c -3.79266,2.53841 -12.214052,2.3306 -17.635447,-0.43519 -4.872504,-2.48577 -5.090275,-1.71065 -0.77407,2.75515 l 3.25,3.36264 -2.8151,-1.06503 c -3.794319,-1.43551 -4.165939,-1.34979 -2.557345,0.58986 2.016474,2.43148 7.240725,4.3451 11.862284,4.3451 5.025509,0 15.784534,-4.75477 21.667941,-9.57577 5.69233,-4.66444 5.5962,-5.86044 -0.40778,-5.07347 l -4.75,0.62262 2.372,-1.83302 c 4.03236,-3.11609 11.23085,-5.1152 20.84588,-5.78916 5.06983,-0.35537 8.98078,-1.029773 8.69098,-1.498663 -0.28979,-0.4689 -1.82378,-0.85254 -3.40886,-0.85254 -1.58508,0 -3.14297,-0.42231 -3.46197,-0.93847 -0.70758,-1.14488 14.44491,-0.51607 15.48383,0.64257 0.39252,0.43774 0.97532,2.200373 1.29511,3.916943 0.56823,3.05008 0.48059,3.13486 -3.85489,3.7291 -4.33616,0.59434 -15.74849,5.68624 -16.89227,7.53691 -0.31674,0.51249 -2.89843,2.87635 -5.7371,5.25301 l -5.16121,4.32121 5.13104,-6.98063 c 2.82208,-3.83935 4.70147,-7.12881 4.17644,-7.30991 -0.52504,-0.1811 -3.54759,1.90497 -6.71679,4.63572 -6.33287,5.45671 -11.53941,8.38329 -18.017813,10.12775 C 78.741824,124.1254 77,125.18637 77,126.03683 c 0,1.66562 -4.110002,2.94651 -7.016046,2.18656 C 68.892779,127.93805 68,128.06843 68,128.51313 c 0,0.96522 5.530987,3.00421 8.149223,3.00421 2.317078,0 2.296174,2.12085 -0.07885,8 -1.625006,4.02255 -2.229155,4.56291 -5.694128,5.09297 L 66.5,145.20328 l 3.25,0.78203 c 4.981902,1.19877 4.402835,4.58414 -1.76971,10.34617 -4.15453,3.87822 -5.170465,5.52622 -5.894379,9.56157 -0.787694,4.39087 -2.214495,6.56566 -4.335911,6.60898 -1.20527,0.0246 -0.805641,-2.32718 0.743057,-4.37283 0.917397,-1.21178 1.121992,-2.46554 0.57115,-3.5 -0.472065,-0.88652 -1.179984,-4.76186 -1.573154,-8.61186 C 56.889908,150.13079 56.078207,147.9155 52.3881,142.09038 49.974645,138.28055 48,134.56805 48,133.84038 c 0,-4.43484 -4.331131,2.59466 -5.527329,8.97094 -0.704438,3.75498 0.275484,6.34394 4.175897,11.03275 2.876103,3.45744 2.974714,6.50256 0.354393,10.94368 -1.619769,2.7453 -2.956581,3.60622 -7.07629,4.55716 -6.328107,1.4607 -10.46548,1.48962 -13.078059,0.0914 -3.067255,-1.64155 -3.681775,-0.0169 -0.859125,2.27132 2.586427,2.09672 2.840025,2.09987 16.390042,0.20335 3.955531,-0.55363 5.186386,-1.22245 6.5,-3.53198 2.165051,-3.80648 3.488162,-3.61922 2.743883,0.38833 -0.331973,1.7875 -0.760814,4.15 -0.952981,5.25 -0.192167,1.1 -1.139064,3.52222 -2.104215,5.3827 -1.388686,2.67692 -1.487755,3.54776 -0.474821,4.17379 1.036996,0.64089 1.031653,1.09032 -0.02814,2.36729 -1.696961,2.04472 -3.318825,1.98768 -7.853091,-0.27619 -2.040589,-1.01882 -5.789723,-2.36071 -8.331409,-2.98197 -2.541687,-0.62127 -5.354187,-1.41083 -6.25,-1.75459 C 24.540156,180.51064 24,180.8363 24,181.91035 c 0,0.92294 -0.824584,1.60699 -1.937129,1.60699 -1.671148,0 -1.855662,0.50203 -1.343804,3.65624 0.592904,3.65364 0.591086,3.65579 -2.556002,3.02637 -2.90198,-0.58039 -3.308542,-0.31777 -5.17652,3.34376 -1.558155,3.05424 -2.614043,3.97363 -4.563573,3.97363 -2.421308,0 -2.465755,-0.10083 -0.979676,-2.22251 C 9.733902,192.02454 9.373782,189.05534 6.5,187.51734 5.125,186.78146 4,185.79533 4,185.32593 c 0,-0.4694 1.620225,-4.81497 3.6005,-9.65681 3.256887,-7.96321 4.01576,-9.0302 7.951764,-11.18033 3.473298,-1.89737 4.41144,-2.99183 4.6495,-5.42421 0.240433,-2.45663 0.81025,-3.10654 2.939978,-3.35322 2.07964,-0.24087 2.531743,-0.72661 2.12477,-2.28288 -0.284335,-1.0873 0.154803,-2.74961 0.975861,-3.69402 0.938336,-1.07931 1.717711,-4.87436 2.098256,-10.21712 1.011163,-14.19649 3.773797,-23.17378 11.690111,-37.98749 6.439338,-12.049868 8.05647,-14.255324 16.097603,-21.954035 l 8.93914,-8.558478 -1.744112,-5.310967 c -1.188256,-3.618339 -1.406149,-5.530565 -0.683685,-6 0.583234,-0.378968 1.542374,-2.039033 2.131423,-3.689033 1.063681,-2.979509 1.071535,-2.970317 1.149944,1.345708 0.07514,4.13638 2.6203,10.154292 4.294555,10.154292 1.378455,0 0.839501,-6.709374 -0.637415,-7.935106 -1.041455,-0.86433 -1.292198,-2.702805 -0.937311,-6.872445 0.734664,-8.631716 1.258417,-10.445069 2.841413,-9.837617 1.016232,0.389965 1.731708,-0.952024 2.617258,-4.909078 1.27669,-5.704853 2.533778,-7.005086 3.089708,-3.195754 0.273111,1.871409 0.81102,1.376404 3.196833,-2.941854 2.607067,-4.718722 5.164513,-7.090873 6.358021,-5.897364 0.251823,0.251823 -0.687068,1.958936 -2.086423,3.793586 -2.792884,3.66166 -4.839604,10.883258 -3.636303,12.830241 0.994623,1.609334 2.463909,-1.143196 3.412678,-6.393239 0.404341,-2.237436 1.825123,-4.908058 3.381623,-6.356388 L 90.5,27.304561 91,31.082781 c 0.275,2.07802 0.96587,3.931183 1.53526,4.11814 0.56939,0.186956 9.3067,-5.517406 19.41625,-12.676361 16.70421,-11.828882 18.53345,-12.8783146 20.05216,-11.503901 1.50691,1.363738 2.69453,1.06156 12.08374,-3.0745946 9.52525,-4.196082 10.69452,-4.4877 13.72091,-3.422034 2.04861,0.721365 5.25994,0.896524 8.43377,0.460011 l 5.12544,-0.704929 5.25814,5.8691126 5.25814,5.869112 6.3081,-3.416677 6.30809,-3.4166766 -3.75,4.1695576 c -4.32691,4.811011 -4.96703,7.191247 -1.28518,4.778806 3.09779,-2.029753 4.53518,-2.05107 4.53518,-0.06726 0,3.032619 -5.00769,6.454455 -9.39602,6.420448 -3.82564,-0.02965 -3.97233,-0.131378 -2.16285,-1.5 1.23825,-0.936568 1.45348,-1.468197 0.59439,-1.468197 -1.7074,0 -8.03552,4.780195 -8.03552,6.069943 0,0.547897 1.14996,0.67954 2.64915,0.303266 1.86439,-0.467931 2.43937,-0.325458 1.94099,0.480948 -0.3895,0.630214 -0.17695,1.145843 0.47232,1.145843 0.64927,0 -0.833,2.3625 -3.29393,5.25 C 170.94893,41.595673 169,45.513989 169,50.38589 c 0,7.471776 2.29455,9.705373 3.47981,3.387375 1.97261,-10.514888 8.86973,-22.255928 13.07396,-22.255928 2.30956,0 2.21571,0.213468 -1.61563,3.674849 -4.85655,4.387608 -6.66455,7.628443 -7.51475,13.470178 l -0.63381,4.354973 5.96046,-9 c 3.27825,-4.95 7.41052,-10.35 9.18282,-12 l 3.22237,-3 -3.82761,-0.54209 -3.82762,-0.54209 3.85623,-1.701271 c 2.12093,-0.935699 4.16539,-1.510203 4.54325,-1.276675 0.37785,0.233528 3.14255,-1.790887 6.14376,-4.498699 3.00122,-2.707811 4.55676,-4.635901 3.45676,-4.284642 -1.1,0.351258 -3.19301,1.73925 -4.65113,3.084425 -1.45812,1.345175 -3.31071,2.291708 -4.11688,2.103407 -1.28575,-0.300322 -1.28329,-0.956378 0.02,-5.342365 1.31727,-4.432826 1.5821,-4.744772 2.33466,-2.75 0.46687,1.2375 1.20085,2.240371 1.63108,2.228602 0.43022,-0.01177 3.89339,-2.036769 7.69592,-4.5 3.80259,-2.4632306 7.22538,-4.4786016 7.60627,-4.4786016 0.38088,0 -0.59204,4.5757466 -2.16204,10.1683276 -1.57001,5.59258 -2.69664,10.32625 -2.50362,10.519266 0.19302,0.193017 7.72977,1.072392 16.74834,1.954168 11.19702,1.09477 17.19027,2.119386 18.8974,3.230733 2.46465,1.604494 2.40103,1.636353 -4.5,2.253295 -14.07208,1.258022 -22.15046,1.000311 -23.60562,-0.753051 -1.10913,-1.336428 -2.71681,-1.533613 -8.9952,-1.103282 -7.91688,0.542635 -10.81526,1.537796 -14.64918,5.02982 -3.7979,3.459215 -2.51833,3.653692 3.30115,0.501729 6.75853,-3.660577 14.12459,-3.971713 20.69911,-0.874313 l 4.24974,2.002143 -8,-0.554404 c -7.99953,-0.554372 -13.5,0.52708 -13.5,2.654246 0,1.960074 -5.46726,7.971262 -7.25,7.971293 -0.9625,1.6e-5 -1.75,0.670549 -1.75,1.490073 0,0.863468 -2.707,2.717458 -6.43745,4.408922 -8.83347,4.005287 -15.1243,8.513363 -18.62641,13.347886 -1.62256,2.239881 -2.83447,4.183752 -2.69313,4.319714 0.90451,0.870072 14.17439,-4.59026 16.46397,-6.774643 3.5195,-3.35779 7.28219,-4.791923 12.57241,-4.791923 3.52627,0 3.92935,0.200642 2.6849,1.33646 -0.80536,0.735054 -3.27293,1.847 -5.48349,2.470992 -2.21056,0.623993 -4.91056,1.808274 -6,2.631737 -1.8138,1.370975 -1.31335,1.499886 5.93587,1.529008 8.70612,0.03497 9.38514,0.732287 1.93108,1.983099 l -4.84775,0.813466 4.0685,0.117619 c 5.29368,0.153039 13.85294,2.715569 15.43412,4.620775 1.01626,1.22452 0.94709,1.496844 -0.38018,1.496844 -0.89234,0 -1.68994,0.45 -1.77244,1 -0.43676,2.911734 -0.14264,3.458549 2.15,3.997204 1.375,0.323056 3.08512,1.801804 3.80026,3.286106 0.71515,1.484302 3.03526,4.61527 5.15581,6.95771 2.12055,2.34244 4.7592,5.38398 5.86366,6.758983 1.10446,1.375 2.34409,2.16526 2.75473,1.75613 0.41063,-0.40913 0.0564,-1.53413 -0.78726,-2.500003 -0.84363,-0.96587 -1.84677,-3.55613 -2.2292,-5.75613 -0.38243,-2.2 -1.75138,-6.333778 -3.04212,-9.186172 -1.69136,-3.737733 -1.95147,-5.034474 -0.93133,-4.643011 C 218.59113,80.574418 219,79.946427 219,78.014107 c 0,-1.896493 -1.3592,-4.057177 -4.5,-7.153548 -4.56475,-4.500169 -5.51115,-6.346246 -3.25,-6.339484 2.79561,0.0084 8.0364,4.32409 10.95779,9.023617 4.21359,6.778251 4.79443,5.442435 0.98167,-2.257661 -5.37152,-10.848133 -8.0544,-13.302452 -17.786,-16.27077 -4.94038,-1.506908 -8.37853,-3.07372 -8.16309,-3.72003 0.20471,-0.614133 2.09169,-1.711909 4.19329,-2.439502 3.65881,-1.266711 3.9609,-1.200147 7.11284,1.567294 1.96199,1.722646 5.04128,3.180115 7.62262,3.607882 6.03107,0.999439 7.59672,2.021565 9.59407,6.263444 1.99714,4.241448 5.23681,5.619716 5.23681,2.227924 0,-1.765848 0.394,-2.015113 2.25,-1.423464 3.72053,1.186017 5.15571,1.00255 5.51035,-0.704421 0.23171,-1.115275 -0.99456,-2.154726 -3.92551,-3.327457 -2.34436,-0.938029 -5.31617,-2.759195 -6.60401,-4.047035 -1.64379,-1.643795 -4.40985,-2.690395 -9.28263,-3.512296 -3.81761,-0.643923 -7.19426,-1.580381 -7.50367,-2.081016 -1.62541,-2.629963 12.60531,1.082525 21.69392,5.659477 7.45678,3.75517 8.86155,4.090979 8.86155,2.118334 0,-1.551589 -3.91331,-4.58286 -9.78068,-7.57617 C 229.89869,46.44533 228,45.218608 228,44.903175 c 0,-0.315432 2.29225,-0.258249 5.09388,0.127074 4.58663,0.630823 5.05897,0.519268 4.74322,-1.120251 -0.22414,-1.163898 -1.71797,-2.144199 -4.14043,-2.717098 -3.77113,-0.891851 -4.74188,-3.454865 -1.08904,-2.875335 3.03205,0.481041 3.51151,0.46832 11.4311,-0.303295 l 7.53873,-0.734506 6.46127,4.922561 c 7.58374,5.777721 11.1006,11.64447 18.9642,31.635613 6.09165,15.486444 10.18427,23.613329 17.19478,34.144462 4.20261,6.31313 5.99994,8.16462 8.66612,8.9273 2.33982,0.66933 3.66031,1.81275 4.33777,3.7561 1.49493,4.28838 6.7067,4.92159 11.35111,1.37913 2.51306,-1.9168 3.89158,-2.40376 4.76134,-1.68192 0.6733,0.5588 4.32714,1.79543 8.11964,2.74807 l 6.89545,1.73208 -2.79042,2.225 c -2.55697,2.03886 -2.71472,2.54506 -1.88568,6.05063 0.75684,3.20022 2.09397,4.67846 8.1794,9.04256 l 7.27465,5.21694 -3.05354,2.25758 C 343.88562,151.23869 343,152.72376 343,154.75629 v 2.86283 l -3.41313,-2.60332 c -4.57548,-3.48988 -5.55641,-5.95862 -2.01439,-5.06962 1.45535,0.36526 2.35069,0.25587 2.03861,-0.24909 -0.30607,-0.49523 -2.62105,-1.1834 -5.14439,-1.52926 -2.52335,-0.34586 -5.22772,-1.26865 -6.00971,-2.05065 -0.782,-0.78199 -2.35263,-1.17839 -3.4903,-0.88088 -1.94356,0.50825 -1.89932,0.64408 0.73241,2.24892 1.5405,0.9394 3.4185,2.45593 4.17334,3.37006 0.75485,0.91413 1.9734,1.66206 2.7079,1.66206 1.96831,0 9.41966,7.41498 9.41966,9.37368 0,2.03922 -5.23626,12.30088 -7.78031,15.2473 -1.00723,1.16654 -2.70621,2.40142 -3.77551,2.74418 -1.0693,0.34277 -2.84418,1.97453 -3.94418,3.62615 -1.1,1.65162 -2.5625,3.00423 -3.25,3.00581 -0.6875,0.002 -1.25,1.03919 -1.25,2.3058 0,2.01949 -1.28068,2.75794 -10.40568,6 C 300.42068,198.79019 299,199.08932 299,197.47203 c 0,-0.65274 -1.31242,-0.79911 -3.49455,-0.38974 l -3.49454,0.65559 1.55694,-4.36027 c 0.85631,-2.39815 1.71227,-5.5281 1.90213,-6.95545 0.18986,-1.42735 1.51178,-6.28808 2.93761,-10.80162 3.03456,-9.60609 3.17267,-12.07813 0.93793,-16.7875 -1.63958,-3.45516 -1.62953,-3.50798 1.11677,-5.86781 2.16072,-1.85665 2.63219,-2.93533 2.14003,-4.89624 -0.702,-2.79699 -6.23799,-9.55165 -7.82836,-9.55165 -0.65049,0 -0.62077,0.47966 0.0822,1.3267 2.46332,2.96811 3.92282,8.15693 2.98826,10.62384 l -0.92835,2.45055 -2.26597,-3.75456 c -2.42424,-4.01681 -7.07737,-7.62917 -9.84109,-7.63994 -0.93004,-0.004 -2.0076,-0.51887 -2.39456,-1.145 -0.50533,-0.81765 0.35107,-0.94056 3.03942,-0.43622 2.73569,0.51322 3.54909,0.38845 3.02248,-0.46362 -1.47148,-2.3809 -7.51005,-3.96015 -14.69424,-3.84295 l -7.28212,0.11879 5.25,0.95748 c 5.20452,0.94918 6.67571,2.3206 3.71018,3.45859 -0.84691,0.32498 -4.26565,0.0546 -7.59722,-0.60084 -3.33157,-0.65544 -6.27511,-0.97401 -6.5412,-0.70792 -0.26609,0.2661 -0.0179,1.35438 0.55157,2.41842 0.85388,1.59548 2.57381,2.05286 9.81167,2.60921 4.82697,0.37103 10.45205,1.12583 12.50018,1.67733 5.15135,1.38712 9.56317,5.3833 10.77999,9.76442 1.15904,4.17308 1.22037,15.22738 0.12588,22.68572 l -0.73374,5 -3.87134,-7.92195 c -4.46587,-9.13854 -4.25878,-9.33669 -7.04531,6.74137 -1.58286,9.13301 -2.69957,11.03443 -3.62985,6.18058 -0.23774,-1.24047 -1.03843,-1.88743 -2.10836,-1.70357 -1.54394,0.26531 -1.65835,-0.42117 -1.08979,-6.53863 0.57326,-6.1681 0.36636,-7.36798 -2.12039,-12.29643 -4.32538,-8.57241 -8.46478,-13.7572 -15.22463,-19.06956 -3.44027,-2.70361 -7.43317,-6.69592 -8.8731,-8.87181 -1.43994,-2.1759 -3.41536,-4.20922 -4.38982,-4.5185 -0.97446,-0.30928 -3.22629,-1.95237 -5.00407,-3.65131 -2.52196,-2.41013 -2.93215,-3.27914 -1.86648,-3.95427 1.10687,-0.70123 1.06978,-0.8682 -0.19561,-0.88061 -0.85879,-0.008 -2.54629,-0.93284 -3.75,-2.05427 L 233,122.43943 v 2.03895 c 0,1.14574 -0.65711,2.03896 -1.5,2.03896 -1.77972,0 -1.79315,0.0988 -0.48218,3.54687 0.76996,2.02514 1.51543,2.54695 3.06117,2.14272 2.66842,-0.6978 3.88803,2.18973 1.49138,3.53097 -1.2545,0.70205 -1.57214,1.71175 -1.14075,3.62621 0.48983,2.17381 0.4057,2.33702 -0.46557,0.90323 C 232.99445,138.67175 230,137.76378 230,139.06538 c 0,2.35387 7.79637,12.00105 11.69859,14.47576 6.17921,3.91875 8.92221,3.87846 4.30141,-0.0632 -3.89388,-3.32155 -4.44641,-3.43784 8.91616,1.87656 11.4552,4.55583 12.70588,8.97463 4.41301,15.59167 -4.08745,3.26145 -8.55066,4.508 -16.32917,4.56066 l -5.5,0.0372 -1.61762,5.11299 c -1.23653,3.90848 -1.37747,5.89545 -0.59826,8.43436 l 1.01936,3.32136 3.5761,-2.94773 c 1.96686,-1.62119 4.59858,-2.94767 5.84826,-2.94767 1.49781,0 2.2717,-0.5964 2.2708,-1.75 -0.001,-1.49039 0.79256,-1.70047 5.35028,-1.41613 5.21618,0.32542 5.44404,0.22593 9.00137,-3.93 2.12374,-2.48112 3.65611,-5.3384 3.66502,-6.83387 0.0312,-5.23208 1.59993,-5.39367 3.73494,-0.38472 5.27537,12.37655 5.41409,17.51006 0.74975,27.74528 -1.925,4.22413 -3.5,7.81918 -3.5,7.98898 0,0.16981 2.1375,1.07238 4.75,2.00572 2.6125,0.93334 7.33583,2.87642 10.49628,4.31795 5.34089,2.43607 5.89225,3.01112 7.81542,8.15124 1.13802,3.04165 3.00224,11.39721 4.14269,18.56791 1.14046,7.1707 4.00788,23.15327 6.37206,35.51683 2.36418,12.36355 4.10112,22.67657 3.85987,22.91782 -0.24125,0.24125 -3.02561,0.60847 -6.18748,0.81604 -3.16186,0.20757 -13.47673,1.03205 -22.92192,1.83218 -9.44519,0.80012 -23.76506,1.45477 -31.82193,1.45477 -14.00513,0 -14.85442,0.1165 -19.32692,2.65115 -16.67364,9.44928 -20.49146,12.55329 -33.42679,27.17702 -5.6382,6.37414 -11.82628,13.25015 -13.75128,15.28002 -4.8542,5.11864 -15.29734,12.89181 -17.31996,12.89181 -0.24829,0 -7.40012,-7.0875 -15.89295,-15.75 z m 47.67164,-18 c 4.95566,-5.62641 11.15788,-11.19333 17.37407,-15.59441 15.79314,-11.18161 14.89655,-10.89318 36.6672,-11.7954 33.23672,-1.3774 50.78825,-3.84183 52.1224,-7.31856 1.21601,-3.16887 -10.38814,-63.95375 -13.59362,-71.20611 -2.64872,-5.99271 -4.19416,-6.42679 -13.09479,-3.67802 l -7.56602,2.33661 -17.214,19.75295 c -19.12671,21.94776 -27.24959,32.80236 -34.6631,46.32028 -4.89388,8.92357 -17.36437,27.35079 -24.09656,35.60666 l -3.40366,4.174 -7.99767,0.326 c -5.83862,0.23799 -7.99704,-0.006 -7.99533,-0.90368 0.003,-1.64963 -7.25483,-5.27032 -10.5648,-5.27032 -3.03477,0 -2.92989,0.66828 1.10901,7.06631 l 2.66304,4.21853 11.89755,-0.54816 C 179.6461,330.95253 185,330.90428 185,331.14678 c 0,0.24251 -0.72675,1.55009 -1.61501,2.90574 -3.4925,5.33023 0.7564,2.02258 8.07374,-6.28518 z M 153.5,241.18574 c 4.46504,-1.63314 6.86571,-5.70269 4.6633,-7.9051 -1.68841,-1.68841 -10.02748,2.74926 -11.26049,5.99232 -1.85927,4.89026 -1.683,4.94136 6.59719,1.91278 z M 23.753939,199.75552 c 0.268868,-0.8066 -0.175164,-1.01377 -1.271304,-0.59314 -0.933372,0.35817 -2.034286,0.0804 -2.468969,-0.62293 -0.540437,-0.87444 -1.597861,0.1186 -3.399075,3.19214 C 15.176566,204.1854 14,206.53314 14,206.9488 c 0,1.10401 9.265985,-5.72942 9.753939,-7.19328 z M 11,183.51734 c -1.938759,-1.25292 -3,-1.25292 -3,0 0,0.55 1.0125,0.99311 2.25,0.98469 1.819438,-0.0124 1.962959,-0.20082 0.75,-0.98469 z m 6.260801,-5.1107 c -0.593945,-2.27125 -2.101966,-2.46679 -2.904061,-0.37657 -0.756688,1.9719 1.667463,5.06614 2.682421,3.42391 0.393637,-0.63692 0.493375,-2.00822 0.22164,-3.04734 z m 22.123498,-40.1393 c 0.839419,-2.8875 1.658851,-5.6625 1.820959,-6.16667 0.162108,-0.50416 -0.211408,-1.08538 -0.830036,-1.29159 C 39.044861,130.36563 36,137.48397 36,141.03758 c 0,4.2051 1.780108,2.74799 3.384299,-2.77024 z m 272.069541,-2.67531 c 0.31452,-0.50891 -1.93928,-1.65531 -5.00847,-2.54755 -6.05018,-1.75883 -6.95458,-4.03401 -1.5969,-4.01728 5.76495,0.018 2.63898,-1.87605 -5.313,-3.21919 -8.70103,-1.46967 -10.92409,-1.0866 -4.63283,0.79831 5.08117,1.52235 5.2922,2.91102 0.44237,2.91102 -3.65241,0 -3.65364,0.001 -1.75,2.10499 1.04775,1.15774 1.67999,2.39524 1.40499,2.75 -0.275,0.35475 0.51028,0.78852 1.74506,0.96391 1.74416,0.24776 2.10233,-0.053 1.60537,-1.34809 -0.553,-1.44109 -0.11192,-1.38866 3.25494,0.38691 4.1201,2.17279 8.89321,2.76261 9.84847,1.21697 z M 45,126.75399 c 0,-0.96984 1.586955,-4.11984 3.526567,-7 2.758216,-4.09571 3.168334,-5.23665 1.882353,-5.23665 -2.58629,0 -9.40892,7.40764 -9.40892,10.21569 0,1.34804 0.3,2.75098 0.666667,3.11764 C 42.972032,129.15604 45,128.48883 45,126.75399 Z M 210.38499,15.05252 c 2.34911,-3.585202 1.97955,-4.22628 -0.88499,-1.535183 -2.55224,2.397707 -3.19917,4 -1.61501,4 0.48674,0 1.61174,-1.109168 2.5,-2.464817 z m -74.38421,271.96686 c -2.27144,-5.97434 -0.80617,-7.26339 9.63935,-8.48006 4.32293,-0.50352 9.74396,-1.83623 12.04674,-2.96158 2.30278,-1.12534 5.00278,-1.78113 6,-1.45731 0.99722,0.32383 2.48813,0.80275 3.31313,1.06426 1.25151,0.39672 1.19351,0.70113 -0.35014,1.83754 -2.77996,2.04656 -1.08883,3.49511 4.08042,3.49511 2.8031,0 5.29807,0.62066 6.3607,1.58233 1.62487,1.47049 1.6324,1.71788 0.1065,3.5 -1.32961,1.55287 -2.98012,1.91767 -8.67632,1.91767 -3.8689,0 -8.50844,-0.42276 -10.31008,-0.93946 -2.94473,-0.84454 -12.26227,0.37449 -19.4603,2.54603 -1.22931,0.37086 -2.04669,-0.25466 -2.75,-2.10453 z M 119,275.5429 c 0,-5.05941 4.3208,-6.75202 16.75555,-6.56375 9.50772,0.14396 10.41284,-0.0122 12.41258,-2.14078 1.66405,-1.77129 2.4679,-2.03806 3.51721,-1.16721 1.43131,1.18788 12.25983,0.64231 21.81466,-1.09909 2.75,-0.5012 5.89738,-1.05605 6.99417,-1.233 2.64699,-0.42705 6.04045,5.82917 4.29958,7.92678 -1.12747,1.35852 -16.64371,1.7822 -46.47127,1.26891 -8.30426,-0.1429 -11.01911,0.19714 -14.75,1.84749 C 121.05762,275.4947 119,276.01699 119,275.5429 Z M 87.71665,87.238442 c -2.988489,-0.739002 -3.664322,-1.310616 -3.216773,-2.720718 0.378811,-1.193528 -0.355821,-2.510713 -2.216645,-3.974413 -1.783655,-1.403 -2.114779,-1.976304 -0.921987,-1.596311 1.572969,0.501108 1.763623,0.203985 1.230948,-1.918359 -0.389003,-1.54991 -0.206146,-2.511304 0.477649,-2.511304 0.60937,0 -0.05706,-1.384526 -1.480948,-3.076725 -2.865523,-3.40548 -3.180751,-4.931418 -1.388894,-6.723275 1.895932,-1.895932 2.417479,-1.49014 4.249173,3.306084 2.176817,5.699913 9.136057,12.713806 15.012787,15.130678 2.4918,1.024781 4.53223,2.200738 4.53429,2.613238 0.007,1.478763 -5.15408,0.710418 -9.28609,-1.382342 -3.98128,-2.016421 -4.11502,-2.025731 -2.46016,-0.17126 0.9625,1.078596 1.75,2.215005 1.75,2.525354 0,1.187924 -2.64784,1.398354 -6.28335,0.499353 z M 75.558304,72.16781 c -0.724538,-4.309972 0.749977,-13.675525 1.962223,-12.463279 0.210049,0.210048 0.03791,4.191359 -0.382537,8.847356 l -0.764444,8.46545 z m 30.030986,-0.768687 c -5.29697,-1.242481 -10.24043,-4.439731 -10.92763,-7.067606 -0.31113,-1.189766 -0.0681,-4.447179 0.54009,-7.238695 l 1.10579,-5.075485 1.12284,5.5 c 1.30847,6.409257 2.13642,8 4.16382,8 1.14957,0 1.24713,-0.427954 0.44098,-1.934259 -1.34535,-2.513816 -1.37433,-10.393382 -0.0352,-9.565741 0.5929,0.366432 1,-0.787286 1,-2.833994 0,-2.213404 0.56296,-3.668055 1.56895,-4.054091 0.98063,-0.376304 1.35135,-1.287681 0.98863,-2.430489 -0.41441,-1.305702 0.49501,-2.683297 3.18105,-4.818668 6.27421,-4.987921 6.71689,-4.880197 2.39804,0.583555 -5.66322,7.164511 -5.55389,10.529513 0.19518,6.007295 l 2.60156,-2.046391 -0.59923,6.41704 c -0.51607,5.526452 -0.24619,7.188187 1.94458,11.973448 2.28663,4.994677 2.37585,5.621549 0.88252,6.200771 -1.49602,0.580266 -1.46819,0.786473 0.27985,2.072944 1.78259,1.311904 1.57841,1.420376 -2.5,1.328129 -2.44262,-0.05525 -6.20095,-0.513242 -8.35184,-1.017763 z M 105,37.177852 c 0,-1.139519 2.43263,-2.827402 6.5,-4.51003 0.55,-0.227529 -0.32169,0.995532 -1.93709,2.717913 C 106.40185,38.756133 105,39.306722 105,37.177852 Z m 14,-0.625331 c 0,-0.530649 1.0125,-1.496128 2.25,-2.145509 2.23794,-1.174363 2.23979,-1.169191 0.34501,0.964816 C 119.47868,37.755368 119,37.97316 119,36.552521 Z"
       style="fill:#ffffff" />
  </g>
</svg>
