<?xml version="1.0" encoding="UTF-8" standalone="no"?>
<svg
   xmlns:dc="http://purl.org/dc/elements/1.1/"
   xmlns:cc="http://creativecommons.org/ns#"
   xmlns:rdf="http://www.w3.org/1999/02/22-rdf-syntax-ns#"
   xmlns:svg="http://www.w3.org/2000/svg"
   xmlns="http://www.w3.org/2000/svg"
   xmlns:sodipodi="http://sodipodi.sourceforge.net/DTD/sodipodi-0.dtd"
   xmlns:inkscape="http://www.inkscape.org/namespaces/inkscape"
   viewBox="0 0 82.279205 100"
   version="1.1"
   id="svg21"
   sodipodi:docname="demo_icon_6_white.svg"
   width="82.279205"
   height="100"
   inkscape:version="0.92.3 (2405546, 2018-03-11)">
  <metadata
     id="metadata27">
    <rdf:RDF>
      <cc:Work
         rdf:about="">
        <dc:format>image/svg+xml</dc:format>
        <dc:type
           rdf:resource="http://purl.org/dc/dcmitype/StillImage" />
        <dc:title></dc:title>
      </cc:Work>
    </rdf:RDF>
  </metadata>
  <defs
     id="defs25" />
  <sodipodi:namedview
     pagecolor="#ffffff"
     bordercolor="#666666"
     borderopacity="1"
     objecttolerance="10"
     gridtolerance="10"
     guidetolerance="10"
     inkscape:pageopacity="0"
     inkscape:pageshadow="2"
     inkscape:window-width="1139"
     inkscape:window-height="721"
     id="namedview23"
     showgrid="false"
     fit-margin-top="0"
     fit-margin-left="0"
     fit-margin-right="0"
     fit-margin-bottom="0"
     inkscape:zoom="3.9333333"
     inkscape:cx="15.955901"
     inkscape:cy="30.002478"
     inkscape:window-x="0"
     inkscape:window-y="0"
     inkscape:window-maximized="0"
     inkscape:current-layer="svg21" />
  <g
     data-name="Layer 1"
     id="Layer_1"
     transform="matrix(1.6666018,0,0,1.6666018,-8.8584629,-2.3424146e-4)"
     style="fill:#ffffff">
    <path
       d="m 22,13 a 5,5 0 1 0 5,5 5.00589,5.00589 0 0 0 -5,-5 z m 0,8 a 3,3 0 1 1 3,-3 3.00328,3.00328 0 0 1 -3,3 z"
       id="path4"
       inkscape:connector-curvature="0"
       style="fill:#ffffff" />
    <circle
       cx="22"
       cy="18"
       r="1"
       id="circle6"
       style="fill:#ffffff" />
    <path
       d="m 38,23 a 5,5 0 1 0 -5,-5 5.00589,5.00589 0 0 0 5,5 z m 0,-8 a 3,3 0 1 1 -3,3 3.00328,3.00328 0 0 1 3,-3 z"
       id="path8"
       inkscape:connector-curvature="0"
       style="fill:#ffffff" />
    <circle
       cx="38"
       cy="18"
       r="1"
       id="circle10"
       style="fill:#ffffff" />
    <path
       d="M 40.44141,49.9649 42.168,52.55469 A 0.999,0.999 0 0 0 42.85648,52.98975 1.01385,1.01385 0 0 0 43,53 1.002,1.002 0 0 0 43.64063,52.76807 c 4.542,-3.78564 12.3877,-14.08008 10.84668,-21.8457 -0.67871,-3.41736 -3.03223,-5.90674 -6.96851,-7.43408 a 10.8999,10.8999 0 0 0 0.50317,-9.99866 c 3.60815,-2.72211 4.70972,-7.4566 2.92627,-12.806 A 1.00007,1.00007 0 0 0 49.23144,0.3599 c -1.37207,1.64648 -3.9834,2.147 -7.00781,2.72607 -1.2771,0.24457 -2.63892,0.50714 -3.99756,0.88837 A 14.555,14.555 0 0 0 30,2 14.555,14.555 0 0 0 21.77393,3.9743 C 20.41529,3.59307 19.05347,3.3305 17.77637,3.08593 14.752,2.50684 12.14063,2.00635 10.76855,0.35986 A 1.00007,1.00007 0 0 0 9.05175,0.68359 C 7.26831,6.033 8.36987,10.76752 11.978,13.48962 a 10.8999,10.8999 0 0 0 0.50317,9.99866 C 8.54492,25.01563 6.19141,27.505 5.5127,30.92236 c -1.541,7.76563 6.30469,18.06006 10.84668,21.8457 A 1.002,1.002 0 0 0 17,53 a 1.01385,1.01385 0 0 0 0.14355,-0.01025 0.999,0.999 0 0 0 0.68848,-0.43506 l 1.72656,-2.58978 a 19.32385,19.32385 0 0 0 4.28711,3.29175 c -0.32153,0.6355 -0.90112,0.76184 -2.13574,0.93475 -1.8418,0.25732 -4.36426,0.60986 -5.6582,4.49219 a 0.99964,0.99964 0 1 0 1.89648,0.63281 c 0.76538,-2.29529 1.92773,-2.78882 3.29028,-3.02972 l -1.13306,2.26605 a 1.00012,1.00012 0 0 0 1.78906,0.89453 l 1.8186,-3.63715 A 3.20914,3.20914 0 0 0 25.65491,54.114 11.86007,11.86007 0 0 0 30,55 a 11.86007,11.86007 0 0 0 4.34509,-0.886 3.20914,3.20914 0 0 0 1.94177,1.69611 l 1.8186,3.63715 a 1.00012,1.00012 0 0 0 1.78906,-0.89453 l -1.13306,-2.26605 c 1.36255,0.24091 2.5249,0.73444 3.29028,3.02972 a 0.99964,0.99964 0 1 0 1.89648,-0.63281 C 42.65427,54.80127 40.13181,54.44873 38.29002,54.1914 37.0554,54.01849 36.47581,53.89214 36.15428,53.25665 A 19.32385,19.32385 0 0 0 40.44141,49.9649 Z M 52.52539,31.312 c 1.27246,6.41211 -5.14453,15.26758 -9.3291,19.1792 L 41.832,48.44531 41.80246,48.46496 c 0.11475,-0.13824 0.23145,-0.27313 0.344,-0.41516 4.81567,-6.0802 6.66675,-14.18658 5.19556,-22.47754 2.92998,1.27588 4.6791,3.19703 5.18337,5.73974 z M 30,22 a 3.00328,3.00328 0 0 0 -3,3 1.0076,1.0076 0 0 0 0.07129,0.37158 l 0.01758,0.04407 A 8.91244,8.91244 0 0 1 22,27 9,9 0 1 1 29.2002,12.6001 l 0.01074,0.0085 a 0.99189,0.99189 0 0 0 1.57813,0 l 0.01074,-0.0085 a 9.00657,9.00657 0 1 1 2.11133,12.81555 l 0.01758,-0.04407 A 1.0076,1.0076 0 0 0 33,25 3.00328,3.00328 0 0 0 30,22 Z M 30.9873,24.83936 30,27.30762 29.0127,24.83936 a 1.00034,1.00034 0 0 1 1.97461,0 z M 42.59961,5.05029 c 2.582,-0.49463 5.0498,-0.96729 6.874,-2.2334 0.86035,3.77722 -0.019,6.92572 -2.4574,8.90009 A 10.94441,10.94441 0 0 0 35.07446,7.40277 22.82591,22.82591 0 0 1 42.59961,5.05029 Z M 30,4 A 14.12069,14.12069 0 0 1 35.64331,4.881 11.85425,11.85425 0 0 0 30,9.73828 11.85425,11.85425 0 0 0 24.35669,4.881 14.12069,14.12069 0 0 1 30,4 Z M 10.52637,2.81689 c 1.82422,1.26611 4.292,1.73877 6.874,2.2334 A 22.82591,22.82591 0 0 1 24.92552,7.40277 10.94441,10.94441 0 0 0 12.98376,11.717 C 10.54541,9.74261 9.666,6.59412 10.52637,2.81689 Z m 7.64163,45.62842 -1.36426,2.0459 C 12.61914,46.57959 6.20215,37.72412 7.47461,31.312 c 0.50427,-2.54266 2.25342,-4.46387 5.18335,-5.73975 -1.47119,8.291 0.37988,16.39734 5.19556,22.47754 0.11255,0.142 0.22925,0.27692 0.344,0.41516 z M 30,53 c -3.55273,0 -7.50781,-2.31494 -10.57812,-6.19189 a 25.98718,25.98718 0 0 1 -4.82422,-20.69519 10.964,10.964 0 0 0 13.25171,1.204 l 1.22192,3.05469 a 1.00046,1.00046 0 0 0 1.85742,0 l 1.22192,-3.05469 a 10.964,10.964 0 0 0 13.25171,-1.204 25.98718,25.98718 0 0 1 -4.82422,20.69519 C 37.50781,50.68506 33.55273,53 30,53 Z"
       id="path12"
       inkscape:connector-curvature="0"
       style="fill:#ffffff" />
    <path
       d="m 40,33 a 0.99974,0.99974 0 0 0 -1,1 1,1 0 0 1 -2,0 1,1 0 0 0 -2,0 1,1 0 0 1 -2,0 1,1 0 0 0 -2,0 1,1 0 0 1 -2,0 1,1 0 0 0 -2,0 1,1 0 0 1 -2,0 1,1 0 0 0 -2,0 1,1 0 0 1 -2,0 1,1 0 0 0 -2,0 2.99863,2.99863 0 0 0 5,2.23438 2.99506,2.99506 0 0 0 4,0 2.99506,2.99506 0 0 0 4,0 2.99506,2.99506 0 0 0 4,0 A 2.99863,2.99863 0 0 0 41,34 0.99974,0.99974 0 0 0 40,33 Z"
       id="path14"
       inkscape:connector-curvature="0"
       style="fill:#ffffff" />
    <path
       d="m 38,39 a 0.99974,0.99974 0 0 0 -1,1 1,1 0 0 1 -2,0 1,1 0 0 0 -2,0 1,1 0 0 1 -2,0 1,1 0 0 0 -2,0 1,1 0 0 1 -2,0 1,1 0 0 0 -2,0 1,1 0 0 1 -2,0 1,1 0 0 0 -2,0 2.99863,2.99863 0 0 0 5,2.23438 2.99506,2.99506 0 0 0 4,0 2.99506,2.99506 0 0 0 4,0 A 2.99863,2.99863 0 0 0 39,40 0.99974,0.99974 0 0 0 38,39 Z"
       id="path16"
       inkscape:connector-curvature="0"
       style="fill:#ffffff" />
    <path
       d="m 36,45 a 0.99974,0.99974 0 0 0 -1,1 1,1 0 0 1 -2,0 1,1 0 0 0 -2,0 1,1 0 0 1 -2,0 1,1 0 0 0 -2,0 1,1 0 0 1 -2,0 1,1 0 0 0 -2,0 2.99863,2.99863 0 0 0 5,2.23438 2.99506,2.99506 0 0 0 4,0 A 2.99863,2.99863 0 0 0 37,46 0.99974,0.99974 0 0 0 36,45 Z"
       id="path18"
       inkscape:connector-curvature="0"
       style="fill:#ffffff" />
  </g>
</svg>
