<?xml version="1.0" encoding="UTF-8" standalone="no"?>
<!-- Created with Inkscape (http://www.inkscape.org/) -->

<svg
   xmlns:dc="http://purl.org/dc/elements/1.1/"
   xmlns:cc="http://creativecommons.org/ns#"
   xmlns:rdf="http://www.w3.org/1999/02/22-rdf-syntax-ns#"
   xmlns:svg="http://www.w3.org/2000/svg"
   xmlns="http://www.w3.org/2000/svg"
   xmlns:sodipodi="http://sodipodi.sourceforge.net/DTD/sodipodi-0.dtd"
   xmlns:inkscape="http://www.inkscape.org/namespaces/inkscape"
   width="422.95047"
   height="200"
   id="svg11860"
   sodipodi:version="0.32"
   inkscape:version="0.92.3 (2405546, 2018-03-11)"
   sodipodi:docname="demo_logo4.svg"
   inkscape:output_extension="org.inkscape.output.svg.inkscape"
   version="1.0">
  <defs
     id="defs11862" />
  <sodipodi:namedview
     id="base"
     pagecolor="#ffffff"
     bordercolor="#666666"
     borderopacity="1.0"
     gridtolerance="10000"
     guidetolerance="10"
     objecttolerance="10"
     inkscape:pageopacity="0.0"
     inkscape:pageshadow="2"
     inkscape:zoom="1.979899"
     inkscape:cx="-0.74508077"
     inkscape:cy="75.91862"
     inkscape:document-units="px"
     inkscape:current-layer="layer1"
     inkscape:window-width="1680"
     inkscape:window-height="975"
     inkscape:window-x="0"
     inkscape:window-y="0"
     showgrid="false"
     fit-margin-top="0"
     fit-margin-left="0"
     fit-margin-right="0"
     fit-margin-bottom="0"
     inkscape:window-maximized="1" />
  <metadata
     id="metadata11865">
    <rdf:RDF>
      <cc:Work
         rdf:about="">
        <dc:format>image/svg+xml</dc:format>
        <dc:type
           rdf:resource="http://purl.org/dc/dcmitype/StillImage" />
        <dc:title></dc:title>
      </cc:Work>
    </rdf:RDF>
  </metadata>
  <g
     inkscape:label="Layer 1"
     inkscape:groupmode="layer"
     id="layer1"
     transform="translate(51.03468,-612.83103)">
    <g
       id="g4696"
       transform="matrix(0.45553302,0,0,0.45553302,-27.786698,445.86011)">
      <g
         transform="rotate(-90,413.2022,516.14505)"
         id="g17399">
        <path
           inkscape:connector-curvature="0"
           style="fill:#262523;fill-opacity:1;fill-rule:evenodd;stroke:#000000;stroke-width:1px;stroke-linecap:butt;stroke-linejoin:miter;stroke-opacity:1"
           d="m 326.78435,538.69961 c -5.61652,10.92598 -6.09116,23.32107 -20.20305,31.81981 L 184.85792,949.8317 c -6.25834,21.23213 13.50632,31.11568 27.27411,21.2132 L 326.78435,834.67431 c 20.09574,-23.37465 40.981,-15.82719 53.03301,0 l 123.23861,140.91628 c 17.46589,14.11946 41.29271,-9.2736 29.7995,-29.7995 L 398.0001,570.51942 c -13.61663,-7.63592 -17.20473,-21.00243 -21.71828,-33.84011 l -4.54568,-12.12183 z"
           id="path16426"
           sodipodi:nodetypes="cccccccccccc" />
        <path
           inkscape:connector-curvature="0"
           style="fill:#fefaf7;fill-opacity:1;fill-rule:evenodd;stroke:#000000;stroke-width:1px;stroke-linecap:round;stroke-linejoin:round;stroke-opacity:1"
           d="m 305.57115,594.258 h 87.88327 l 106.06601,310.62191 -106.57109,-72.71612 -0.50508,-74.76615 c -1.94163,-2.73015 -4.62246,-4.53629 -8.46666,-4.88823 h -65.27447 l -55.55839,53.37555 c -2.97157,1.99652 -4.43104,1.22087 -4.54569,-2.0203 z"
           id="path16428"
           sodipodi:nodetypes="cccccccccc" />
        <path
           inkscape:connector-curvature="0"
           style="fill:#d9d397;fill-opacity:1;fill-rule:evenodd;stroke:#000000;stroke-width:1px;stroke-linecap:butt;stroke-linejoin:miter;stroke-opacity:1"
           d="m 383.60543,148.0538 6.06091,-0.75761 v -3.03046 l 12.87945,-3.53553 c 1.83989,3.18679 2.75512,7.24199 1.51523,11.8693 l -12.62691,1.26268 -0.50508,-2.0203 -6.56598,0.75762 z"
           id="path15417"
           sodipodi:nodetypes="ccccccccc" />
        <path
           inkscape:connector-curvature="0"
           sodipodi:nodetypes="ccccccccc"
           id="path15419"
           d="m 376.02928,122.0538 6.06091,-0.75761 v -3.03046 l 12.87945,-3.53553 c 1.83989,3.18679 2.75512,7.24199 1.51523,11.8693 l -12.62691,1.26268 -0.50508,-2.0203 -6.56598,0.75762 z"
           style="fill:#d9d397;fill-opacity:1;fill-rule:evenodd;stroke:#000000;stroke-width:1px;stroke-linecap:butt;stroke-linejoin:miter;stroke-opacity:1" />
        <path
           inkscape:connector-curvature="0"
           style="fill:#d9d397;fill-opacity:1;fill-rule:evenodd;stroke:#000000;stroke-width:1px;stroke-linecap:butt;stroke-linejoin:miter;stroke-opacity:1"
           d="m 368.95821,100.0538 6.06091,-0.757609 v -3.03046 l 12.87945,-3.53553 c 1.83989,3.18679 2.75512,7.24199 1.51523,11.869299 l -12.62691,1.26268 -0.50508,-2.0203 -6.56598,0.75762 z"
           id="path15421"
           sodipodi:nodetypes="ccccccccc" />
        <path
           inkscape:connector-curvature="0"
           sodipodi:nodetypes="ccccccccc"
           id="path15423"
           d="m 329.87836,100.0538 -6.06091,-0.757608 V 96.265731 L 310.938,92.730201 c -1.83989,3.18679 -2.75512,7.241991 -1.51523,11.869299 l 12.62691,1.26268 0.50508,-2.0203 6.56598,0.75762 z"
           style="fill:#d9d397;fill-opacity:1;fill-rule:evenodd;stroke:#000000;stroke-width:1px;stroke-linecap:butt;stroke-linejoin:miter;stroke-opacity:1" />
        <path
           inkscape:connector-curvature="0"
           style="fill:#d9d397;fill-opacity:1;fill-rule:evenodd;stroke:#000000;stroke-width:1px;stroke-linecap:butt;stroke-linejoin:miter;stroke-opacity:1"
           d="m 320.78698,122.0538 -6.06091,-0.75761 v -3.03046 l -12.87945,-3.53553 c -1.83989,3.18679 -2.75512,7.24199 -1.51523,11.8693 l 12.62691,1.26268 0.50508,-2.0203 6.56598,0.75762 z"
           id="path15425"
           sodipodi:nodetypes="ccccccccc" />
        <path
           inkscape:connector-curvature="0"
           sodipodi:nodetypes="ccccccccc"
           id="path15427"
           d="m 315.23115,148.0538 -6.06091,-0.75761 v -3.03046 l -12.87945,-3.53553 c -1.83989,3.18679 -2.75512,7.24199 -1.51523,11.8693 l 12.62691,1.26268 0.50508,-2.0203 6.56598,0.75762 z"
           style="fill:#d9d397;fill-opacity:1;fill-rule:evenodd;stroke:#000000;stroke-width:1px;stroke-linecap:butt;stroke-linejoin:miter;stroke-opacity:1" />
        <path
           transform="matrix(0.998528,-0.05423841,0.05378367,0.9985526,0,0)"
           style="fill:#e3dedb;fill-opacity:1;fill-rule:evenodd;stroke:#000000;stroke-width:2.10048342;stroke-miterlimit:4;stroke-dasharray:none;stroke-opacity:1"
           d="m 279.57309,745.6051 h 59.10239 c 4.91978,0 8.88047,3.96069 8.88047,8.88047 v 1.16529 c 0,4.91977 -3.96069,8.88046 -8.88047,8.88046 h -59.10239 c -4.91978,0 -8.88046,-3.96069 -8.88046,-8.88046 v -1.16529 c 0,-4.91978 3.96068,-8.88047 8.88046,-8.88047 z"
           id="rect14379"
           inkscape:connector-curvature="0" />
        <path
           transform="matrix(1.5117278,0.00155147,0.00188591,1.5499122,-179.58356,165.12867)"
           style="fill:#cccccc;fill-opacity:1;fill-rule:evenodd;stroke:#000000;stroke-width:0.2;stroke-miterlimit:4;stroke-dasharray:none;stroke-opacity:1"
           d="m 333.39285,369.59433 a 3.125,3.125 0 0 1 -3.125,3.125 3.125,3.125 0 0 1 -3.125,-3.125 3.125,3.125 0 0 1 3.125,-3.125 3.125,3.125 0 0 1 3.125,3.125 z"
           id="path14381"
           inkscape:connector-curvature="0" />
        <path
           transform="matrix(1.5117278,0.00155147,0.00188591,1.5499122,-122.51031,162.03118)"
           style="fill:#cccccc;fill-opacity:1;fill-rule:evenodd;stroke:#000000;stroke-width:0.2;stroke-miterlimit:4;stroke-dasharray:none;stroke-opacity:1"
           d="m 333.39285,369.59433 a 3.125,3.125 0 0 1 -3.125,3.125 3.125,3.125 0 0 1 -3.125,-3.125 3.125,3.125 0 0 1 3.125,-3.125 3.125,3.125 0 0 1 3.125,3.125 z"
           id="path14383"
           inkscape:connector-curvature="0" />
        <path
           transform="matrix(0.9999996,8.6393132e-4,0.00144545,0.999999,0,0)"
           style="fill:#e3dedb;fill-opacity:1;fill-rule:evenodd;stroke:#000000;stroke-width:2.10621142;stroke-miterlimit:4;stroke-dasharray:none;stroke-opacity:1"
           d="m 312.822,763.54126 h 69.61615 c 4.43953,0 8.01359,3.57406 8.01359,8.01359 v 1.05153 c 0,4.43953 -3.57406,8.01358 -8.01359,8.01358 H 312.822 c -4.43953,0 -8.01359,-3.57405 -8.01359,-8.01358 v -1.05153 c 0,-4.43953 3.57406,-8.01359 8.01359,-8.01359 z"
           id="rect32028"
           inkscape:connector-curvature="0" />
        <path
           transform="matrix(0.9999995,0.00102629,0.00121679,0.9999993,0,0)"
           style="fill:#1a1a1a;fill-opacity:1;fill-rule:evenodd;stroke:#000000;stroke-width:2.20232415;stroke-miterlimit:4;stroke-dasharray:none;stroke-opacity:1"
           d="m 323.88984,644.43488 h 50.23355 c 2.43839,0 4.40143,1.96304 4.40143,4.40143 v 24.6466 c 0,2.4384 -1.96304,4.40144 -4.40143,4.40144 h -50.23355 c -2.4384,0 -4.40144,-1.96304 -4.40144,-4.40144 v -24.6466 c 0,-2.43839 1.96304,-4.40143 4.40144,-4.40143 z"
           id="rect14375"
           inkscape:connector-curvature="0" />
        <g
           transform="translate(1.0101525,39.901026)"
           id="g15399">
          <path
             style="fill:#333333;fill-opacity:1;stroke:none;stroke-width:2;stroke-linecap:round;stroke-linejoin:round;stroke-miterlimit:4;stroke-dasharray:none;stroke-opacity:1"
             d="m 327.1632,606.37982 h 42.67885 c 3.84745,0 6.94485,3.0974 6.94485,6.94484 v 0.25246 c 0,3.84744 -3.0974,6.94484 -6.94485,6.94484 H 327.1632 c -3.84745,0 -6.94485,-3.0974 -6.94485,-6.94484 v -0.25246 c 0,-3.84744 3.0974,-6.94484 6.94485,-6.94484 z"
             id="rect15401"
             inkscape:connector-curvature="0" />
          <path
             style="fill:#333333;fill-opacity:1;stroke:none;stroke-width:2;stroke-linecap:round;stroke-linejoin:round;stroke-miterlimit:4;stroke-dasharray:none;stroke-opacity:1"
             d="m 326.91516,622.54224 h 43.17492 c 3.71004,0 6.69682,2.98677 6.69682,6.69681 v 0.24343 c 0,3.71004 -2.98678,6.69682 -6.69682,6.69682 h -43.17492 c -3.71003,0 -6.69681,-2.98678 -6.69681,-6.69682 v -0.24343 c 0,-3.71004 2.98678,-6.69681 6.69681,-6.69681 z"
             id="rect15403"
             inkscape:connector-curvature="0" />
        </g>
        <path
           transform="matrix(0.9999995,0.00102629,0.00121679,0.9999993,0,0)"
           style="fill:#1a1a1a;fill-opacity:1;fill-rule:evenodd;stroke:#000000;stroke-width:2.20232415;stroke-miterlimit:4;stroke-dasharray:none;stroke-opacity:1"
           d="m 323.93839,604.53381 h 50.23355 c 2.4384,0 4.40144,1.96304 4.40144,4.40144 v 24.6466 c 0,2.4384 -1.96304,4.40144 -4.40144,4.40144 h -50.23355 c -2.43839,0 -4.40143,-1.96304 -4.40143,-4.40144 v -24.6466 c 0,-2.4384 1.96304,-4.40144 4.40143,-4.40144 z"
           id="rect14377"
           inkscape:connector-curvature="0" />
        <path
           inkscape:connector-curvature="0"
           style="fill:#000000;fill-opacity:0.99487179;fill-rule:evenodd;stroke:#000000;stroke-width:0.89850783;stroke-linecap:round;stroke-linejoin:round;stroke-miterlimit:4;stroke-dasharray:none;stroke-opacity:1"
           d="m 330.35189,201.16585 36.76728,-0.039 c 2.59214,-24.15534 25.05702,-32.0819 25.05702,-32.0819 L 358.60073,58.422968 c -3.47715,-9.281987 -18.80587,-6.904786 -21.08994,0.368125 L 306.61654,170.83975 c 0,0 23.68429,10.13476 23.73535,30.3261 z"
           id="path2545"
           sodipodi:nodetypes="ccccccc" />
        <path
           transform="matrix(0.9999995,0.00102629,0.00121679,0.9999993,0,0)"
           style="fill:#1a1a1a;fill-opacity:1;fill-rule:evenodd;stroke:#000000;stroke-width:2.20232415;stroke-miterlimit:4;stroke-dasharray:none;stroke-opacity:1"
           d="m 323.84068,684.841 h 50.23354 c 2.4384,0 4.40144,1.96304 4.40144,4.40144 v 24.6466 c 0,2.4384 -1.96304,4.40144 -4.40144,4.40144 h -50.23354 c -2.4384,0 -4.40144,-1.96304 -4.40144,-4.40144 v -24.6466 c 0,-2.4384 1.96304,-4.40144 4.40144,-4.40144 z"
           id="rect32026"
           inkscape:connector-curvature="0" />
        <g
           id="g15405"
           transform="translate(1.0101525,80.812204)">
          <path
             style="fill:#333333;fill-opacity:1;stroke:none;stroke-width:2;stroke-linecap:round;stroke-linejoin:round;stroke-miterlimit:4;stroke-dasharray:none;stroke-opacity:1"
             d="m 327.1632,606.37982 h 42.67885 c 3.84745,0 6.94485,3.0974 6.94485,6.94484 v 0.25246 c 0,3.84744 -3.0974,6.94484 -6.94485,6.94484 H 327.1632 c -3.84745,0 -6.94485,-3.0974 -6.94485,-6.94484 v -0.25246 c 0,-3.84744 3.0974,-6.94484 6.94485,-6.94484 z"
             id="rect15407"
             inkscape:connector-curvature="0" />
          <path
             style="fill:#333333;fill-opacity:1;stroke:none;stroke-width:2;stroke-linecap:round;stroke-linejoin:round;stroke-miterlimit:4;stroke-dasharray:none;stroke-opacity:1"
             d="m 326.91516,622.54224 h 43.17492 c 3.71004,0 6.69682,2.98677 6.69682,6.69681 v 0.24343 c 0,3.71004 -2.98678,6.69682 -6.69682,6.69682 h -43.17492 c -3.71003,0 -6.69681,-2.98678 -6.69681,-6.69682 v -0.24343 c 0,-3.71004 2.98678,-6.69681 6.69681,-6.69681 z"
             id="rect15409"
             inkscape:connector-curvature="0" />
        </g>
        <g
           id="g15395"
           transform="translate(1.0101525)">
          <path
             style="fill:#333333;fill-opacity:1;stroke:none;stroke-width:2;stroke-linecap:round;stroke-linejoin:round;stroke-miterlimit:4;stroke-dasharray:none;stroke-opacity:1"
             d="m 327.1632,606.37982 h 42.67885 c 3.84745,0 6.94485,3.0974 6.94485,6.94484 v 0.25246 c 0,3.84744 -3.0974,6.94484 -6.94485,6.94484 H 327.1632 c -3.84745,0 -6.94485,-3.0974 -6.94485,-6.94484 v -0.25246 c 0,-3.84744 3.0974,-6.94484 6.94485,-6.94484 z"
             id="rect15369"
             inkscape:connector-curvature="0" />
          <path
             style="fill:#333333;fill-opacity:1;stroke:none;stroke-width:2;stroke-linecap:round;stroke-linejoin:round;stroke-miterlimit:4;stroke-dasharray:none;stroke-opacity:1"
             d="m 326.91516,622.54224 h 43.17492 c 3.71004,0 6.69682,2.98677 6.69682,6.69681 v 0.24343 c 0,3.71004 -2.98678,6.69682 -6.69682,6.69682 h -43.17492 c -3.71003,0 -6.69681,-2.98678 -6.69681,-6.69682 v -0.24343 c 0,-3.71004 2.98678,-6.69681 6.69681,-6.69681 z"
             id="rect15371"
             inkscape:connector-curvature="0" />
        </g>
        <path
           inkscape:connector-curvature="0"
           style="fill:#808080;fill-rule:evenodd;stroke:#000000;stroke-width:2.05708027px;stroke-linecap:butt;stroke-linejoin:miter;stroke-opacity:1"
           d="m 331.40622,200.77656 -6.70525,392.39721 47.20079,0.0484 -5.60792,-392.40985 z"
           id="path32032" />
        <path
           transform="matrix(0.9999995,0.00102629,0.00121679,0.9999993,0,0)"
           style="fill:#ffffff;fill-opacity:1;fill-rule:evenodd;stroke:#000000;stroke-width:0;stroke-miterlimit:4;stroke-dasharray:none;stroke-opacity:1"
           d="m 333.12688,569.47595 h 28.33615 c 0.0897,0 0.16186,0.0722 0.16186,0.16186 v 4.51159 c 0,0.0897 -0.0722,0.16186 -0.16186,0.16186 h -28.33615 c -0.0897,0 -0.16185,-0.0722 -0.16185,-0.16186 v -4.51159 c 0,-0.0897 0.0722,-0.16186 0.16185,-0.16186 z"
           id="rect32064"
           inkscape:connector-curvature="0" />
        <path
           transform="matrix(0.9999995,0.00102629,0.00121679,0.9999993,0,0)"
           style="fill:#ffffff;fill-opacity:1;fill-rule:evenodd;stroke:#000000;stroke-width:0;stroke-miterlimit:4;stroke-dasharray:none;stroke-opacity:1"
           d="m 334.2152,549.39081 h 26.88502 c 0.0897,0 0.16185,0.0722 0.16185,0.16185 v 4.5116 c 0,0.0897 -0.0722,0.16185 -0.16185,0.16185 H 334.2152 c -0.0897,0 -0.16186,-0.0722 -0.16186,-0.16185 v -4.5116 c 0,-0.0897 0.0722,-0.16185 0.16186,-0.16185 z"
           id="rect32066"
           inkscape:connector-curvature="0" />
        <path
           transform="matrix(0.9999995,0.00102629,0.00121679,0.9999993,0,0)"
           style="fill:#ffffff;fill-opacity:1;fill-rule:evenodd;stroke:#000000;stroke-width:0;stroke-miterlimit:4;stroke-dasharray:none;stroke-opacity:1"
           d="m 333.17668,527.07404 h 27.1482 c 0.11726,0 0.21166,0.0944 0.21166,0.21165 v 5.89978 c 0,0.11726 -0.0944,0.21166 -0.21166,0.21166 h -27.1482 c -0.11725,0 -0.21165,-0.0944 -0.21165,-0.21166 v -5.89978 c 0,-0.11726 0.0944,-0.21165 0.21165,-0.21165 z"
           id="rect32068"
           inkscape:connector-curvature="0" />
        <path
           transform="matrix(0.9999995,0.00102629,0.00121679,0.9999993,0,0)"
           style="fill:#ffffff;fill-opacity:1;fill-rule:evenodd;stroke:#000000;stroke-width:0;stroke-miterlimit:4;stroke-dasharray:none;stroke-opacity:1"
           d="m 332.87608,501.78168 h 26.66091 c 0.15175,0 0.27391,0.12216 0.27391,0.27391 v 7.635 c 0,0.15175 -0.12216,0.27391 -0.27391,0.27391 h -26.66091 c -0.15174,0 -0.27391,-0.12216 -0.27391,-0.27391 v -7.635 c 0,-0.15175 0.12217,-0.27391 0.27391,-0.27391 z"
           id="rect32070"
           inkscape:connector-curvature="0" />
        <path
           transform="matrix(0.9999995,0.00102629,0.00121679,0.9999993,0,0)"
           style="fill:#ffffff;fill-opacity:1;fill-rule:evenodd;stroke:#000000;stroke-width:0;stroke-miterlimit:4;stroke-dasharray:none;stroke-opacity:1"
           d="m 332.56312,457.1481 h 26.19853 c 0.17933,0 0.32371,0.14438 0.32371,0.32371 v 9.02319 c 0,0.17934 -0.14438,0.32371 -0.32371,0.32371 h -26.19853 c -0.17933,0 -0.32371,-0.14437 -0.32371,-0.32371 v -9.02319 c 0,-0.17933 0.14438,-0.32371 0.32371,-0.32371 z"
           id="rect32072"
           inkscape:connector-curvature="0" />
        <path
           transform="matrix(0.9999995,0.00102629,0.00121679,0.9999993,0,0)"
           style="fill:#ffffff;fill-opacity:1;fill-rule:evenodd;stroke:#000000;stroke-width:0;stroke-miterlimit:4;stroke-dasharray:none;stroke-opacity:1"
           d="m 338.66647,317.66815 h 17.98245 c 0.34488,0 0.62253,0.27765 0.62253,0.62252 v 17.35229 c 0,0.34488 -0.27765,0.62252 -0.62253,0.62252 h -17.98245 c -0.34488,0 -0.62252,-0.27764 -0.62252,-0.62252 v -17.35229 c 0,-0.34487 0.27764,-0.62252 0.62252,-0.62252 z"
           id="rect32074"
           inkscape:connector-curvature="0" />
        <path
           transform="matrix(0.9999995,0.00102629,0.00121679,0.9999993,0,0)"
           style="fill:#cccccc;fill-opacity:1;fill-rule:evenodd;stroke:#000000;stroke-width:1.02854145;stroke-miterlimit:4;stroke-dasharray:none;stroke-opacity:1"
           d="m 330.2072,199.4745 h 37.08201 c 0.17934,0 0.32371,0.14438 0.32371,0.32371 v 4.55983 c 0,0.17934 -0.14437,0.32371 -0.32371,0.32371 H 330.2072 c -0.17934,0 -0.32372,-0.14437 -0.32372,-0.32371 v -4.55983 c 0,-0.17933 0.14438,-0.32371 0.32372,-0.32371 z"
           id="rect32076"
           inkscape:connector-curvature="0" />
        <path
           transform="matrix(0.9999995,0.00102629,0.00121679,0.9999993,0,0)"
           style="fill:#ffffff;fill-opacity:1;fill-rule:evenodd;stroke:#000000;stroke-width:0;stroke-miterlimit:4;stroke-dasharray:none;stroke-opacity:1"
           d="m 340.01098,209.80359 h 17.83305 c 0.38626,0 0.69722,0.31096 0.69722,0.69722 v 19.43456 c 0,0.38626 -0.31096,0.69723 -0.69722,0.69723 h -17.83305 c -0.38627,0 -0.69723,-0.31097 -0.69723,-0.69723 v -19.43456 c 0,-0.38626 0.31096,-0.69722 0.69723,-0.69722 z"
           id="rect32080"
           inkscape:connector-curvature="0" />
        <path
           transform="matrix(0.9999995,0.00102629,0.00121679,0.9999993,0,0)"
           style="fill:#ffffff;fill-opacity:1;fill-rule:evenodd;stroke:#000000;stroke-width:0;stroke-miterlimit:4;stroke-dasharray:none;stroke-opacity:1"
           d="m 339.46672,265.59558 h 17.83306 c 0.38626,0 0.69722,0.31096 0.69722,0.69723 v 19.43455 c 0,0.38627 -0.31096,0.69723 -0.69722,0.69723 h -17.83306 c -0.38626,0 -0.69722,-0.31096 -0.69722,-0.69723 v -19.43455 c 0,-0.38627 0.31096,-0.69723 0.69722,-0.69723 z"
           id="rect32082"
           inkscape:connector-curvature="0" />
        <path
           transform="matrix(0.9999995,0.00102629,0.00121679,0.9999993,0,0)"
           style="fill:#ffffff;fill-opacity:1;fill-rule:evenodd;stroke:#000000;stroke-width:0;stroke-miterlimit:4;stroke-dasharray:none;stroke-opacity:1"
           d="m 338.2041,363.04559 h 18.18167 c 0.28969,0 0.52291,0.23322 0.52291,0.52292 v 14.57592 c 0,0.2897 -0.23322,0.52292 -0.52291,0.52292 H 338.2041 c -0.2897,0 -0.52292,-0.23322 -0.52292,-0.52292 v -14.57592 c 0,-0.2897 0.23322,-0.52292 0.52292,-0.52292 z"
           id="rect32084"
           inkscape:connector-curvature="0" />
        <path
           transform="matrix(0.9999995,0.00102629,0.00121679,0.9999993,0,0)"
           style="fill:#ffffff;fill-opacity:1;fill-rule:evenodd;stroke:#000000;stroke-width:0;stroke-miterlimit:4;stroke-dasharray:none;stroke-opacity:1"
           d="m 338.1045,403.58774 h 18.38087 c 0.23452,0 0.42331,0.1888 0.42331,0.42331 v 11.79956 c 0,0.23451 -0.18879,0.42331 -0.42331,0.42331 H 338.1045 c -0.23452,0 -0.42332,-0.1888 -0.42332,-0.42331 v -11.79956 c 0,-0.23451 0.1888,-0.42331 0.42332,-0.42331 z"
           id="rect32086"
           inkscape:connector-curvature="0" />
        <g
           style="fill:#cccccc"
           id="g14299"
           transform="matrix(1.2517994,0.01268209,-0.00947091,1.2919454,-512.76585,34.671946)">
          <path
             transform="rotate(-0.50543951)"
             style="fill:#cccccc;fill-opacity:1;fill-rule:evenodd;stroke:#000000;stroke-width:0.36515781;stroke-miterlimit:4;stroke-dasharray:none;stroke-opacity:1"
             d="m 668.06512,425.06119 h 37.43911 c 0.1338,0 0.24152,0.10771 0.24152,0.24151 v 0.62698 c 0,0.1338 -0.10772,0.24152 -0.24152,0.24152 h -37.43911 c -0.1338,0 -0.24151,-0.10772 -0.24151,-0.24152 v -0.62698 c 0,-0.1338 0.10771,-0.24151 0.24151,-0.24151 z"
             id="rect32034"
             inkscape:connector-curvature="0" />
          <path
             transform="rotate(-0.50543951)"
             style="fill:#cccccc;fill-opacity:1;fill-rule:evenodd;stroke:#000000;stroke-width:0.3627584;stroke-miterlimit:4;stroke-dasharray:none;stroke-opacity:1"
             d="m 668.35428,418.72653 h 36.86087 c 0.13409,0 0.24204,0.10795 0.24204,0.24204 v 0.62833 c 0,0.13409 -0.10795,0.24204 -0.24204,0.24204 h -36.86087 c -0.13409,0 -0.24204,-0.10795 -0.24204,-0.24204 v -0.62833 c 0,-0.13409 0.10795,-0.24204 0.24204,-0.24204 z"
             id="rect32036"
             inkscape:connector-curvature="0" />
          <path
             transform="rotate(-0.50543951)"
             style="fill:#cccccc;fill-opacity:1;fill-rule:evenodd;stroke:#000000;stroke-width:0.36515781;stroke-miterlimit:4;stroke-dasharray:none;stroke-opacity:1"
             d="m 667.77539,411.24277 h 37.43911 c 0.1338,0 0.24151,0.10771 0.24151,0.24151 v 0.62698 c 0,0.1338 -0.10771,0.24152 -0.24151,0.24152 h -37.43911 c -0.1338,0 -0.24152,-0.10772 -0.24152,-0.24152 v -0.62698 c 0,-0.1338 0.10772,-0.24151 0.24152,-0.24151 z"
             id="rect32038"
             inkscape:connector-curvature="0" />
          <path
             transform="rotate(-0.50543951)"
             style="fill:#cccccc;fill-opacity:1;fill-rule:evenodd;stroke:#000000;stroke-width:0.36515781;stroke-miterlimit:4;stroke-dasharray:none;stroke-opacity:1"
             d="m 667.77539,403.75784 h 37.43911 c 0.1338,0 0.24151,0.10772 0.24151,0.24152 v 0.62698 c 0,0.1338 -0.10771,0.24151 -0.24151,0.24151 h -37.43911 c -0.1338,0 -0.24152,-0.10771 -0.24152,-0.24151 v -0.62698 c 0,-0.1338 0.10772,-0.24152 0.24152,-0.24152 z"
             id="rect32040"
             inkscape:connector-curvature="0" />
          <path
             transform="rotate(-0.50543951)"
             style="fill:#cccccc;fill-opacity:1;fill-rule:evenodd;stroke:#000000;stroke-width:0.36275837;stroke-miterlimit:4;stroke-dasharray:none;stroke-opacity:1"
             d="m 668.64407,395.40805 h 36.86088 c 0.13408,0 0.24203,0.10795 0.24203,0.24204 v 0.62833 c 0,0.13409 -0.10795,0.24203 -0.24203,0.24203 h -36.86088 c -0.13408,0 -0.24203,-0.10794 -0.24203,-0.24203 v -0.62833 c 0,-0.13409 0.10795,-0.24204 0.24203,-0.24204 z"
             id="rect32042"
             inkscape:connector-curvature="0" />
          <path
             transform="rotate(-0.50543951)"
             style="fill:#cccccc;fill-opacity:1;fill-rule:evenodd;stroke:#000000;stroke-width:0.36154965;stroke-miterlimit:4;stroke-dasharray:none;stroke-opacity:1"
             d="m 668.93346,386.77097 h 36.57176 c 0.13424,0 0.2423,0.10806 0.2423,0.24229 v 0.62902 c 0,0.13423 -0.10806,0.24229 -0.2423,0.24229 h -36.57176 c -0.13423,0 -0.2423,-0.10806 -0.2423,-0.24229 v -0.62902 c 0,-0.13423 0.10807,-0.24229 0.2423,-0.24229 z"
             id="rect32044"
             inkscape:connector-curvature="0" />
          <path
             transform="rotate(-0.50543951)"
             style="fill:#cccccc;fill-opacity:1;fill-rule:evenodd;stroke:#000000;stroke-width:0.36396107;stroke-miterlimit:4;stroke-dasharray:none;stroke-opacity:1"
             d="m 668.64442,378.13565 h 37.14999 c 0.13394,0 0.24178,0.10783 0.24178,0.24178 v 0.62765 c 0,0.13394 -0.10784,0.24178 -0.24178,0.24178 h -37.14999 c -0.13394,0 -0.24177,-0.10784 -0.24177,-0.24178 v -0.62765 c 0,-0.13395 0.10783,-0.24178 0.24177,-0.24178 z"
             id="rect32046"
             inkscape:connector-curvature="0" />
          <path
             transform="rotate(-0.50543951)"
             style="fill:#cccccc;fill-opacity:1;fill-rule:evenodd;stroke:#000000;stroke-width:0.36033481;stroke-miterlimit:4;stroke-dasharray:none;stroke-opacity:1"
             d="m 669.22297,368.63376 h 36.28265 c 0.13438,0 0.24256,0.10818 0.24256,0.24256 v 0.6297 c 0,0.13437 -0.10818,0.24256 -0.24256,0.24256 h -36.28265 c -0.13438,0 -0.24256,-0.10819 -0.24256,-0.24256 v -0.6297 c 0,-0.13438 0.10818,-0.24256 0.24256,-0.24256 z"
             id="rect32048"
             inkscape:connector-curvature="0" />
          <path
             transform="rotate(-0.50543951)"
             style="fill:#cccccc;fill-opacity:1;fill-rule:evenodd;stroke:#000000;stroke-width:0.36033481;stroke-miterlimit:4;stroke-dasharray:none;stroke-opacity:1"
             d="m 669.51282,357.98209 h 36.28266 c 0.13438,0 0.24256,0.10818 0.24256,0.24256 v 0.62969 c 0,0.13438 -0.10818,0.24256 -0.24256,0.24256 h -36.28266 c -0.13437,0 -0.24256,-0.10818 -0.24256,-0.24256 v -0.62969 c 0,-0.13438 0.10819,-0.24256 0.24256,-0.24256 z"
             id="rect32050"
             inkscape:connector-curvature="0" />
          <path
             transform="rotate(-0.50543951)"
             style="fill:#cccccc;fill-opacity:1;fill-rule:evenodd;stroke:#000000;stroke-width:0.35788655;stroke-miterlimit:4;stroke-dasharray:none;stroke-opacity:1"
             d="m 669.51214,347.32919 h 35.70444 c 0.13467,0 0.24309,0.10842 0.24309,0.2431 v 0.63107 c 0,0.13467 -0.10842,0.24309 -0.24309,0.24309 h -35.70444 c -0.13468,0 -0.2431,-0.10842 -0.2431,-0.24309 v -0.63107 c 0,-0.13468 0.10842,-0.2431 0.2431,-0.2431 z"
             id="rect32052"
             inkscape:connector-curvature="0" />
          <path
             transform="rotate(-0.50543951)"
             style="fill:#cccccc;fill-opacity:1;fill-rule:evenodd;stroke:#000000;stroke-width:0.35038754;stroke-miterlimit:4;stroke-dasharray:none;stroke-opacity:1"
             d="m 670.37942,335.52231 h 33.96991 c 0.13558,0 0.24472,0.10914 0.24472,0.24472 v 0.63529 c 0,0.13558 -0.10914,0.24472 -0.24472,0.24472 h -33.96991 c -0.13557,0 -0.24472,-0.10914 -0.24472,-0.24472 v -0.63529 c 0,-0.13558 0.10915,-0.24472 0.24472,-0.24472 z"
             id="rect32054"
             inkscape:connector-curvature="0" />
          <path
             transform="rotate(-0.50543951)"
             style="fill:#cccccc;fill-opacity:1;fill-rule:evenodd;stroke:#000000;stroke-width:0.3516539;stroke-miterlimit:4;stroke-dasharray:none;stroke-opacity:1"
             d="m 670.0899,324.2955 h 34.25899 c 0.13543,0 0.24445,0.10902 0.24445,0.24445 v 0.63458 c 0,0.13542 -0.10902,0.24444 -0.24445,0.24444 H 670.0899 c -0.13542,0 -0.24444,-0.10902 -0.24444,-0.24444 v -0.63458 c 0,-0.13543 0.10902,-0.24445 0.24444,-0.24445 z"
             id="rect32056"
             inkscape:connector-curvature="0" />
          <path
             transform="rotate(-0.50543951)"
             style="fill:#cccccc;fill-opacity:1;fill-rule:evenodd;stroke:#000000;stroke-width:0.35416657;stroke-miterlimit:4;stroke-dasharray:none;stroke-opacity:1"
             d="m 670.09064,311.05417 h 34.83716 c 0.13512,0 0.2439,0.10878 0.2439,0.2439 v 0.63317 c 0,0.13512 -0.10878,0.2439 -0.2439,0.2439 h -34.83716 c -0.13512,0 -0.2439,-0.10878 -0.2439,-0.2439 v -0.63317 c 0,-0.13512 0.10878,-0.2439 0.2439,-0.2439 z"
             id="rect32058"
             inkscape:connector-curvature="0" />
          <path
             transform="rotate(-0.50543951)"
             style="fill:#cccccc;fill-opacity:1;fill-rule:evenodd;stroke:#000000;stroke-width:0.33463341;stroke-miterlimit:4;stroke-dasharray:none;stroke-opacity:1"
             d="m 672.69333,176.31537 h 30.50127 c 0.13746,0 0.24813,0.11067 0.24813,0.24813 v 0.64417 c 0,0.13747 -0.11067,0.24813 -0.24813,0.24813 h -30.50127 c -0.13747,0 -0.24814,-0.11066 -0.24814,-0.24813 v -0.64417 c 0,-0.13746 0.11067,-0.24813 0.24814,-0.24813 z"
             id="rect32060"
             inkscape:connector-curvature="0" />
          <path
             transform="rotate(-0.50543951)"
             style="fill:#cccccc;fill-opacity:1;fill-rule:evenodd;stroke:#000000;stroke-width:0.32913503;stroke-miterlimit:4;stroke-dasharray:none;stroke-opacity:1"
             d="m 673.41626,154.43359 h 29.3452 c 0.13812,0 0.24932,0.1112 0.24932,0.24933 v 0.64726 c 0,0.13813 -0.1112,0.24933 -0.24932,0.24933 h -29.3452 c -0.13813,0 -0.24933,-0.1112 -0.24933,-0.24933 v -0.64726 c 0,-0.13813 0.1112,-0.24933 0.24933,-0.24933 z"
             id="rect32062"
             inkscape:connector-curvature="0" />
          <path
             transform="rotate(-0.50543951)"
             style="fill:#cccccc;fill-opacity:1;fill-rule:evenodd;stroke:#000000;stroke-width:0.34264317;stroke-miterlimit:4;stroke-dasharray:none;stroke-opacity:1"
             d="m 671.82617,215.75931 h 32.23551 c 0.13651,0 0.2464,0.10989 0.2464,0.2464 v 0.63965 c 0,0.13651 -0.10989,0.2464 -0.2464,0.2464 h -32.23551 c -0.1365,0 -0.2464,-0.10989 -0.2464,-0.2464 v -0.63965 c 0,-0.13651 0.1099,-0.2464 0.2464,-0.2464 z"
             id="rect32088"
             inkscape:connector-curvature="0" />
          <path
             transform="rotate(-0.50543951)"
             style="fill:#cccccc;fill-opacity:1;fill-rule:evenodd;stroke:#000000;stroke-width:0.33598772;stroke-miterlimit:4;stroke-dasharray:none;stroke-opacity:1"
             d="m 672.69376,196.46783 h 30.7903 c 0.13731,0 0.24784,0.11054 0.24784,0.24785 v 0.6434 c 0,0.1373 -0.11053,0.24784 -0.24784,0.24784 h -30.7903 c -0.1373,0 -0.24784,-0.11054 -0.24784,-0.24784 v -0.6434 c 0,-0.13731 0.11054,-0.24785 0.24784,-0.24785 z"
             id="rect32090"
             inkscape:connector-curvature="0" />
          <path
             transform="rotate(-0.50543951)"
             style="fill:#cccccc;fill-opacity:1;fill-rule:evenodd;stroke:#000000;stroke-width:0.34000379;stroke-miterlimit:4;stroke-dasharray:none;stroke-opacity:1"
             d="m 672.1152,234.18243 h 31.65741 c 0.13682,0 0.24697,0.11015 0.24697,0.24697 v 0.64115 c 0,0.13682 -0.11015,0.24697 -0.24697,0.24697 H 672.1152 c -0.13683,0 -0.24697,-0.11015 -0.24697,-0.24697 v -0.64115 c 0,-0.13682 0.11014,-0.24697 0.24697,-0.24697 z"
             id="rect32092"
             inkscape:connector-curvature="0" />
          <path
             transform="rotate(-0.50543951)"
             style="fill:#cccccc;fill-opacity:1;fill-rule:evenodd;stroke:#000000;stroke-width:0.34264317;stroke-miterlimit:4;stroke-dasharray:none;stroke-opacity:1"
             d="m 671.53638,251.45673 h 32.23551 c 0.1365,0 0.2464,0.10989 0.2464,0.24639 v 0.63966 c 0,0.1365 -0.1099,0.2464 -0.2464,0.2464 h -32.23551 c -0.13651,0 -0.2464,-0.1099 -0.2464,-0.2464 v -0.63966 c 0,-0.1365 0.10989,-0.24639 0.2464,-0.24639 z"
             id="rect32094"
             inkscape:connector-curvature="0" />
          <path
             transform="rotate(-0.50543951)"
             style="fill:#cccccc;fill-opacity:1;fill-rule:evenodd;stroke:#000000;stroke-width:0.34000379;stroke-miterlimit:4;stroke-dasharray:none;stroke-opacity:1"
             d="m 671.24581,267.28894 h 31.65742 c 0.13682,0 0.24697,0.11015 0.24697,0.24697 v 0.64114 c 0,0.13682 -0.11015,0.24697 -0.24697,0.24697 h -31.65742 c -0.13682,0 -0.24697,-0.11015 -0.24697,-0.24697 v -0.64114 c 0,-0.13682 0.11015,-0.24697 0.24697,-0.24697 z"
             id="rect32096"
             inkscape:connector-curvature="0" />
          <path
             transform="rotate(-0.50543951)"
             style="fill:#cccccc;fill-opacity:1;fill-rule:evenodd;stroke:#000000;stroke-width:0.34911436;stroke-miterlimit:4;stroke-dasharray:none;stroke-opacity:1"
             d="m 670.95856,282.83914 h 33.68083 c 0.13573,0 0.24499,0.10927 0.24499,0.245 v 0.63601 c 0,0.13573 -0.10926,0.24499 -0.24499,0.24499 h -33.68083 c -0.13573,0 -0.245,-0.10926 -0.245,-0.24499 v -0.63601 c 0,-0.13573 0.10927,-0.245 0.245,-0.245 z"
             id="rect32098"
             inkscape:connector-curvature="0" />
          <path
             transform="rotate(-0.50543951)"
             style="fill:#cccccc;fill-opacity:1;fill-rule:evenodd;stroke:#000000;stroke-width:0.35038754;stroke-miterlimit:4;stroke-dasharray:none;stroke-opacity:1"
             d="m 670.66916,297.23392 h 33.96991 c 0.13557,0 0.24472,0.10914 0.24472,0.24472 v 0.63529 c 0,0.13558 -0.10915,0.24472 -0.24472,0.24472 h -33.96991 c -0.13558,0 -0.24472,-0.10914 -0.24472,-0.24472 v -0.63529 c 0,-0.13558 0.10914,-0.24472 0.24472,-0.24472 z"
             id="rect32100"
             inkscape:connector-curvature="0" />
        </g>
        <path
           inkscape:connector-curvature="0"
           style="fill:none;fill-rule:evenodd;stroke:#555555;stroke-width:1.03126001;stroke-linecap:butt;stroke-linejoin:miter;stroke-miterlimit:4;stroke-dasharray:none;stroke-opacity:1"
           d="m 330.3428,129.36429 8.85196,72.62156 -4.01806,572.29867"
           id="path32102"
           sodipodi:nodetypes="ccc" />
        <path
           transform="matrix(1.8801009,0.00162428,0.00234547,1.6226506,-306.57006,171.92398)"
           style="fill:#cccccc;fill-opacity:1;fill-rule:evenodd;stroke:#000000;stroke-width:0.2;stroke-miterlimit:4;stroke-dasharray:none;stroke-opacity:1"
           d="m 333.39285,369.59433 a 3.125,3.125 0 0 1 -3.125,3.125 3.125,3.125 0 0 1 -3.125,-3.125 3.125,3.125 0 0 1 3.125,-3.125 3.125,3.125 0 0 1 3.125,3.125 z"
           id="path32122"
           inkscape:connector-curvature="0" />
        <path
           inkscape:connector-curvature="0"
           style="fill:none;fill-opacity:1;fill-rule:evenodd;stroke:#555555;stroke-width:1.03207445;stroke-linecap:butt;stroke-linejoin:miter;stroke-miterlimit:4;stroke-dasharray:none;stroke-opacity:1"
           d="m 373.97782,153.98746 -11.19923,47.92621 6.86144,573.32632"
           id="path32104"
           sodipodi:nodetypes="ccc" />
        <path
           transform="matrix(1.8801009,0.00162428,0.00234547,1.6226506,-239.35079,172.31839)"
           style="fill:#cccccc;fill-opacity:1;fill-rule:evenodd;stroke:#000000;stroke-width:0.2;stroke-miterlimit:4;stroke-dasharray:none;stroke-opacity:1"
           d="m 333.39285,369.59433 a 3.125,3.125 0 0 1 -3.125,3.125 3.125,3.125 0 0 1 -3.125,-3.125 3.125,3.125 0 0 1 3.125,-3.125 3.125,3.125 0 0 1 3.125,3.125 z"
           id="path32124"
           inkscape:connector-curvature="0" />
        <path
           inkscape:connector-curvature="0"
           style="fill:none;fill-rule:evenodd;stroke:#555555;stroke-width:1.03122044;stroke-linecap:butt;stroke-linejoin:miter;stroke-miterlimit:4;stroke-dasharray:none;stroke-opacity:1"
           d="m 367.774,128.97429 -10.43747,73.00245 2.87425,573.68975"
           id="path32106"
           sodipodi:nodetypes="ccc" />
        <path
           inkscape:connector-curvature="0"
           style="fill:none;fill-rule:evenodd;stroke:#555555;stroke-width:1.03145981;stroke-linecap:butt;stroke-linejoin:miter;stroke-miterlimit:4;stroke-dasharray:none;stroke-opacity:1"
           d="m 361.7568,107.52614 -10.58821,93.88598 0.33473,573.15207"
           id="path32108"
           sodipodi:nodetypes="ccc" />
        <path
           inkscape:connector-curvature="0"
           style="fill:none;fill-rule:evenodd;stroke:#555555;stroke-width:1.03181219;stroke-linecap:butt;stroke-linejoin:miter;stroke-miterlimit:4;stroke-dasharray:none;stroke-opacity:1"
           d="m 336.28025,106.67808 8.72043,96.65731 -1.48087,571.37449"
           id="path32110"
           sodipodi:nodetypes="ccc" />
        <path
           inkscape:connector-curvature="0"
           style="fill:none;fill-rule:evenodd;stroke:#555555;stroke-width:1.0308125;stroke-linecap:butt;stroke-linejoin:miter;stroke-miterlimit:4;stroke-dasharray:none;stroke-opacity:1"
           d="m 324.37251,154.4379 9.66985,47.33651 -6.19355,572.89539"
           id="path32126"
           sodipodi:nodetypes="ccc" />
        <path
           transform="matrix(0.9999996,8.6393132e-4,0.00144545,0.999999,0,0)"
           style="fill:#b3b3b3;fill-opacity:1;fill-rule:evenodd;stroke:none;stroke-width:0.5;stroke-miterlimit:4;stroke-dasharray:none;stroke-opacity:1"
           d="m 326.62633,768.38757 h 41.66673 c 3.12462,0 5.64012,2.5155 5.64012,5.64012 0,3.12463 -2.5155,5.64012 -5.64012,5.64012 h -41.66673 c -3.12463,0 -5.64012,-2.51549 -5.64012,-5.64012 0,-3.12462 2.51549,-5.64012 5.64012,-5.64012 z"
           id="rect32130"
           inkscape:connector-curvature="0" />
        <path
           transform="matrix(0.7166666,0,0,0.7166666,36.655906,9.0704988)"
           style="opacity:1;fill:#d4caaf;fill-opacity:1;stroke:none;stroke-width:2;stroke-linecap:round;stroke-linejoin:round;stroke-miterlimit:4;stroke-dasharray:none;stroke-opacity:1"
           d="m 423.50644,132.36575 a 7.5761442,7.5761442 0 0 1 -7.57614,7.57615 7.5761442,7.5761442 0 0 1 -7.57615,-7.57615 7.5761442,7.5761442 0 0 1 7.57615,-7.57614 7.5761442,7.5761442 0 0 1 7.57614,7.57614 z"
           id="path16408"
           inkscape:connector-curvature="0" />
        <path
           transform="matrix(0.7166666,0,0,0.7166666,30.594991,31.070499)"
           style="opacity:1;fill:#d4caaf;fill-opacity:1;stroke:none;stroke-width:2;stroke-linecap:round;stroke-linejoin:round;stroke-miterlimit:4;stroke-dasharray:none;stroke-opacity:1"
           d="m 423.50644,132.36575 a 7.5761442,7.5761442 0 0 1 -7.57614,7.57615 7.5761442,7.5761442 0 0 1 -7.57615,-7.57615 7.5761442,7.5761442 0 0 1 7.57615,-7.57614 7.5761442,7.5761442 0 0 1 7.57614,7.57614 z"
           id="path16410"
           inkscape:connector-curvature="0" />
        <path
           transform="matrix(0.7166666,0,0,0.7166666,23.523923,57.070499)"
           style="opacity:1;fill:#d4caaf;fill-opacity:1;stroke:none;stroke-width:2;stroke-linecap:round;stroke-linejoin:round;stroke-miterlimit:4;stroke-dasharray:none;stroke-opacity:1"
           d="m 423.50644,132.36575 a 7.5761442,7.5761442 0 0 1 -7.57614,7.57615 7.5761442,7.5761442 0 0 1 -7.57615,-7.57615 7.5761442,7.5761442 0 0 1 7.57615,-7.57614 7.5761442,7.5761442 0 0 1 7.57614,7.57614 z"
           id="path16412"
           inkscape:connector-curvature="0" />
        <path
           transform="matrix(0.7166666,0,0,0.7166666,65.697792,9.0704988)"
           style="opacity:1;fill:#d4caaf;fill-opacity:1;stroke:none;stroke-width:2;stroke-linecap:round;stroke-linejoin:round;stroke-miterlimit:4;stroke-dasharray:none;stroke-opacity:1"
           d="m 423.50644,132.36575 a 7.5761442,7.5761442 0 0 1 -7.57614,7.57615 7.5761442,7.5761442 0 0 1 -7.57615,-7.57615 7.5761442,7.5761442 0 0 1 7.57615,-7.57614 7.5761442,7.5761442 0 0 1 7.57614,7.57614 z"
           id="path16414"
           inkscape:connector-curvature="0" />
        <path
           transform="matrix(0.7166666,0,0,0.7166666,70.496017,31.070499)"
           style="opacity:1;fill:#d4caaf;fill-opacity:1;stroke:none;stroke-width:2;stroke-linecap:round;stroke-linejoin:round;stroke-miterlimit:4;stroke-dasharray:none;stroke-opacity:1"
           d="m 423.50644,132.36575 a 7.5761442,7.5761442 0 0 1 -7.57614,7.57615 7.5761442,7.5761442 0 0 1 -7.57615,-7.57615 7.5761442,7.5761442 0 0 1 7.57615,-7.57614 7.5761442,7.5761442 0 0 1 7.57614,7.57614 z"
           id="path16416"
           inkscape:connector-curvature="0" />
        <path
           transform="matrix(0.7166666,0,0,0.7166666,78.072161,57.070499)"
           style="opacity:1;fill:#d4caaf;fill-opacity:1;stroke:none;stroke-width:2;stroke-linecap:round;stroke-linejoin:round;stroke-miterlimit:4;stroke-dasharray:none;stroke-opacity:1"
           d="m 423.50644,132.36575 a 7.5761442,7.5761442 0 0 1 -7.57614,7.57615 7.5761442,7.5761442 0 0 1 -7.57615,-7.57615 7.5761442,7.5761442 0 0 1 7.57615,-7.57614 7.5761442,7.5761442 0 0 1 7.57614,7.57614 z"
           id="path16418"
           inkscape:connector-curvature="0" />
      </g>
      <g
         aria-label="WORLD"
         transform="rotate(16.107977)"
         style="font-style:normal;font-weight:normal;font-size:96.66461945px;line-height:125%;font-family:sans-serif;letter-spacing:0px;word-spacing:0px;fill:#000000;fill-opacity:1;stroke:none;stroke-width:2.41661525px;stroke-linecap:butt;stroke-linejoin:miter;stroke-opacity:1"
         id="text4594">
        <path
           d="m 713.64183,498.78882 q 4.6399,15.56301 9.27981,28.22607 4.73656,12.5664 9.18313,23.10285 3.38327,-11.40643 6.66986,-26.87277 3.38327,-15.46634 6.47653,-32.67264 h 6.47653 q -1.73996,10.34312 -3.57659,19.42959 -1.73996,8.98981 -3.67325,17.2063 -1.9333,8.11983 -4.05992,15.65967 -2.12662,7.44318 -4.6399,14.69302 h -7.05652 q -2.31995,-5.50988 -4.6399,-11.01976 -2.22328,-5.50989 -4.44657,-11.30976 -2.22329,-5.89655 -4.44657,-12.27641 -2.22329,-6.37987 -4.54324,-13.53305 -2.31995,7.15318 -4.6399,13.53305 -2.22329,6.37986 -4.44657,12.27641 -2.22329,5.79987 -4.54324,11.30976 -2.22329,5.50988 -4.54324,11.01976 h -6.95985 q -2.60995,-7.24984 -4.83323,-14.69302 -2.12662,-7.53984 -4.05992,-15.65967 -1.83662,-8.21649 -3.57659,-17.2063 -1.6433,-9.08647 -3.38326,-19.42959 h 6.76652 q 1.44997,8.50649 2.99661,16.72298 1.54663,8.11983 3.18993,15.75633 1.73996,7.63651 3.47993,14.4997 1.83662,6.76652 3.57659,12.5664 4.15658,-10.72978 8.89314,-23.19951 4.73657,-12.5664 9.37647,-28.12941 z"
           style="font-style:normal;font-variant:normal;font-weight:300;font-stretch:normal;font-family:Ubuntu;-inkscape-font-specification:'Ubuntu Light';stroke-width:2.41661525px"
           id="path4753"
           inkscape:connector-curvature="0" />
        <path
           d="m 824.11741,524.01829 q 0,8.60315 -2.51328,15.17635 -2.51328,6.57319 -6.86319,11.01976 -4.25324,4.34991 -9.95646,6.5732 -5.70321,2.22328 -12.08307,2.22328 -6.37987,0 -12.08308,-2.22328 -5.70321,-2.22329 -10.05312,-6.5732 -4.25325,-4.44657 -6.76653,-11.01976 -2.51328,-6.5732 -2.51328,-15.17635 0,-8.60315 2.51328,-15.07968 2.51328,-6.57319 6.76653,-10.9231 4.34991,-4.44657 10.05312,-6.66986 5.70321,-2.22329 12.08308,-2.22329 6.37986,0 12.08307,2.22329 5.70322,2.22329 9.95646,6.66986 4.34991,4.34991 6.86319,10.9231 2.51328,6.47653 2.51328,15.07968 z m -6.95986,0 q 0,-6.76652 -1.73996,-12.08308 -1.73996,-5.41322 -4.92989,-9.18314 -3.18994,-3.76992 -7.73317,-5.70321 -4.44658,-2.02996 -10.05312,-2.02996 -5.60655,0 -10.14979,2.02996 -4.44657,1.93329 -7.6365,5.70321 -3.18994,3.76992 -4.9299,9.18314 -1.73996,5.31656 -1.73996,12.08308 0,6.76652 1.73996,12.17974 1.73996,5.31656 4.9299,9.08648 3.18993,3.76992 7.6365,5.79987 4.54324,2.02996 10.14979,2.02996 5.60654,0 10.05312,-2.02996 4.54323,-2.02995 7.73317,-5.79987 3.18993,-3.76992 4.92989,-9.08648 1.73996,-5.41322 1.73996,-12.17974 z"
           style="font-style:normal;font-variant:normal;font-weight:300;font-stretch:normal;font-family:Ubuntu;-inkscape-font-specification:'Ubuntu Light';stroke-width:2.41661525px"
           id="path4755"
           inkscape:connector-curvature="0" />
        <path
           d="m 883.41511,510.67857 q 0,7.53984 -3.96325,11.88975 -3.96324,4.34991 -10.43977,6.2832 1.54663,1.93329 3.96324,5.21989 2.51329,3.2866 5.12323,7.24985 2.60994,3.86658 5.12322,8.11983 2.51328,4.25324 4.25325,8.11982 h -7.05652 q -2.02996,-3.86658 -4.44657,-7.73317 -2.31995,-3.86658 -4.83323,-7.44317 -2.41662,-3.67326 -4.73657,-6.76653 -2.31995,-3.09326 -4.05991,-5.41321 -3.09327,0.28999 -6.18654,0.28999 h -10.82644 v 27.06609 h -6.57319 v -65.73194 q 3.47993,-0.96664 8.11983,-1.3533 4.73656,-0.48333 8.69981,-0.48333 13.82304,0 20.7829,5.21989 7.05651,5.21989 7.05651,15.46634 z m -27.06609,-14.98301 q -3.67326,0 -6.47653,0.28999 -2.70661,0.19333 -4.54324,0.38666 v 28.51606 h 9.08648 q 4.54324,0 8.60315,-0.38666 4.05991,-0.48332 7.05652,-1.93329 2.9966,-1.54663 4.73656,-4.34991 1.73997,-2.80327 1.73997,-7.6365 0,-4.44657 -1.73997,-7.34651 -1.73996,-2.89994 -4.54323,-4.54324 -2.80328,-1.73996 -6.47653,-2.31995 -3.57659,-0.67665 -7.44318,-0.67665 z"
           style="font-style:normal;font-variant:normal;font-weight:300;font-stretch:normal;font-family:Ubuntu;-inkscape-font-specification:'Ubuntu Light';stroke-width:2.41661525px"
           id="path4757"
           inkscape:connector-curvature="0" />
        <path
           d="m 936.50211,551.8577 v 5.70321 h -38.08586 v -66.98858 h 6.57319 v 61.28537 z"
           style="font-style:normal;font-variant:normal;font-weight:300;font-stretch:normal;font-family:Ubuntu;-inkscape-font-specification:'Ubuntu Light';stroke-width:2.41661525px"
           id="path4759"
           inkscape:connector-curvature="0" />
        <path
           d="m 1000.1029,524.01829 q 0,8.60315 -2.7066,14.98302 -2.70661,6.37986 -7.63651,10.6331 -4.83323,4.25325 -11.59975,6.37987 -6.76653,2.12662 -14.88635,2.12662 -4.05992,0 -8.50649,-0.48332 -4.44657,-0.38666 -7.82984,-1.25664 v -64.57197 q 3.38327,-0.96664 7.82984,-1.3533 4.44657,-0.48333 8.50649,-0.48333 8.11982,0 14.88635,2.12663 6.76652,2.12662 11.59975,6.37986 4.9299,4.25324 7.63651,10.63311 2.7066,6.37986 2.7066,14.88635 z m -46.59234,27.74275 q 0.57999,0.0967 2.89994,0.38665 2.41661,0.29 7.6365,0.29 7.24985,0 12.66307,-1.93329 5.41322,-2.02996 9.08647,-5.70322 3.67326,-3.67325 5.50988,-8.89314 1.83663,-5.31656 1.83663,-11.88975 0,-6.57319 -1.83663,-11.79308 -1.83662,-5.21989 -5.50988,-8.89315 -3.67325,-3.67325 -9.08647,-5.60655 -5.41322,-2.02995 -12.66307,-2.02995 -5.21989,0 -7.6365,0.28999 -2.31995,0.28999 -2.89994,0.38666 z"
           style="font-style:normal;font-variant:normal;font-weight:300;font-stretch:normal;font-family:Ubuntu;-inkscape-font-specification:'Ubuntu Light';stroke-width:2.41661525px"
           id="path4761"
           inkscape:connector-curvature="0" />
      </g>
      <g
         aria-label="ROCK"
         inkscape:transform-center-x="371.42858"
         inkscape:transform-center-y="-134.28574"
         style="font-style:normal;font-weight:normal;font-size:132.95135498px;line-height:125%;font-family:sans-serif;letter-spacing:0px;word-spacing:0px;fill:#000000;fill-opacity:1;stroke:none;stroke-width:3.32378364px;stroke-linecap:butt;stroke-linejoin:miter;stroke-opacity:1"
         id="text4604">
        <path
           d="m 128.0394,615.86037 q 20.74041,0 31.77537,7.44527 11.03496,7.31233 11.03496,22.86763 0,9.70545 -4.52034,15.82122 -4.3874,5.98281 -12.76333,9.43954 2.79197,3.45674 5.84985,7.97708 3.05789,4.3874 5.98282,9.3066 3.05788,4.78625 5.84986,10.1043 2.79197,5.1851 5.1851,10.23726 H 153.1672 q -2.52607,-4.52035 -5.1851,-9.17365 -2.52608,-4.6533 -5.31806,-9.04069 -2.65902,-4.3874 -5.31805,-8.24298 -2.65903,-3.98855 -5.31805,-7.17938 h -10.23726 v 33.6367 h -20.74041 v -90.80578 q 6.78052,-1.32951 13.95989,-1.86132 7.31233,-0.5318 13.02924,-0.5318 z m 1.19656,17.68253 q -2.26018,0 -4.12149,0.13295 -1.72837,0.13295 -3.32379,0.2659 v 24.99485 h 5.84986 q 11.69972,0 16.75187,-2.92493 5.05215,-2.92493 5.05215,-9.97135 0,-6.78052 -5.1851,-9.57249 -5.05215,-2.92493 -15.0235,-2.92493 z"
           style="font-style:normal;font-variant:normal;font-weight:bold;font-stretch:normal;font-family:Ubuntu;-inkscape-font-specification:'Ubuntu Bold';stroke-width:3.32378364px"
           id="path4764"
           inkscape:connector-curvature="0" />
        <path
           d="m 204.93721,662.92514 q 0,6.78052 1.59542,12.23153 1.72837,5.45101 4.78625,9.43955 3.19083,3.85559 7.71118,5.98281 4.52034,2.12722 10.3702,2.12722 5.71691,0 10.23726,-2.12722 4.65329,-2.12722 7.71117,-5.98281 3.19084,-3.98854 4.78625,-9.43955 1.72837,-5.45101 1.72837,-12.23153 0,-6.78051 -1.72837,-12.23152 -1.59541,-5.58396 -4.78625,-9.43955 -3.05788,-3.98854 -7.71117,-6.11576 -4.52035,-2.12722 -10.23726,-2.12722 -5.84986,0 -10.3702,2.26017 -4.52035,2.12722 -7.71118,6.11577 -3.05788,3.85558 -4.78625,9.43954 -1.59542,5.45101 -1.59542,12.09857 z m 70.33127,0 q 0,11.83268 -3.58969,20.87337 -3.45673,8.90774 -9.5725,15.0235 -6.11576,5.98281 -14.62464,9.04069 -8.37594,3.05788 -18.08139,3.05788 -9.43955,0 -17.81548,-3.05788 -8.37594,-3.05788 -14.62465,-9.04069 -6.24871,-6.11576 -9.8384,-15.0235 -3.58969,-9.04069 -3.58969,-20.87337 0,-11.83267 3.72264,-20.74041 3.72264,-9.04069 9.97135,-15.15645 6.38167,-6.11576 14.62465,-9.17364 8.37594,-3.05789 17.54958,-3.05789 9.43955,0 17.81548,3.05789 8.37594,3.05788 14.62465,9.17364 6.24872,6.11576 9.8384,15.15645 3.58969,8.90774 3.58969,20.74041 z"
           style="font-style:normal;font-variant:normal;font-weight:bold;font-stretch:normal;font-family:Ubuntu;-inkscape-font-specification:'Ubuntu Bold';stroke-width:3.32378364px"
           id="path4766"
           inkscape:connector-curvature="0" />
        <path
           d="m 334.44014,710.92058 q -22.46878,0 -34.30145,-12.49742 -11.69972,-12.49743 -11.69972,-35.49802 0,-11.43381 3.58969,-20.34155 3.58969,-9.04069 9.8384,-15.15646 6.24871,-6.24871 14.89055,-9.43954 8.64184,-3.19084 18.74614,-3.19084 5.84986,0 10.63611,0.93066 4.78625,0.79771 8.37594,1.99427 3.58968,1.06362 5.98281,2.26018 2.39312,1.19656 3.45673,1.86132 l -5.98281,16.75187 q -4.25444,-2.26018 -9.97135,-3.85559 -5.58396,-1.59542 -12.76333,-1.59542 -4.78625,0 -9.43955,1.59542 -4.52034,1.59541 -8.11003,5.1851 -3.45673,3.45674 -5.58396,9.04069 -2.12722,5.58396 -2.12722,13.56104 0,6.38167 1.32952,11.96562 1.46246,5.45101 4.52034,9.43955 3.19083,3.98854 8.24299,6.38166 5.05215,2.26018 12.23152,2.26018 4.52035,0 8.11003,-0.53181 3.58969,-0.5318 6.38167,-1.19656 2.79198,-0.79771 4.9192,-1.72837 2.12722,-0.93066 3.85559,-1.72837 l 5.71691,16.61892 q -4.3874,2.65903 -12.36448,4.78625 -7.97708,2.12722 -18.48024,2.12722 z"
           style="font-style:normal;font-variant:normal;font-weight:bold;font-stretch:normal;font-family:Ubuntu;-inkscape-font-specification:'Ubuntu Bold';stroke-width:3.32378364px"
           id="path4768"
           inkscape:connector-curvature="0" />
        <path
           d="m 433.01526,709.05927 q -2.79197,-4.52035 -6.64756,-9.70545 -3.72264,-5.31806 -8.24299,-10.50316 -4.38739,-5.31806 -9.17364,-10.1043 -4.78625,-4.9192 -9.5725,-8.64184 v 38.95475 h -20.74041 v -92.13529 h 20.74041 v 34.83325 q 8.11003,-8.50889 16.22007,-17.68253 8.24298,-9.30659 15.2894,-17.15072 h 24.596 q -9.43954,11.16791 -19.01204,21.53812 -9.43955,10.3702 -19.9427,20.87336 11.03496,9.17364 21.27221,21.80402 10.37021,12.63038 19.80976,27.91979 z"
           style="font-style:normal;font-variant:normal;font-weight:bold;font-stretch:normal;font-family:Ubuntu;-inkscape-font-specification:'Ubuntu Bold';stroke-width:3.32378364px"
           id="path4770"
           inkscape:connector-curvature="0" />
      </g>
      <g
         aria-label="CAFE"
         transform="rotate(-18.601512)"
         style="font-style:normal;font-weight:normal;font-size:96.66461945px;line-height:125%;font-family:sans-serif;letter-spacing:0px;word-spacing:0px;fill:#000000;fill-opacity:1;stroke:none;stroke-width:2.41661525px;stroke-linecap:butt;stroke-linejoin:miter;stroke-opacity:1"
         id="text4610">
        <path
           d="m 335.83958,630.12691 q -6.47653,0 -12.08308,-2.31995 -5.50988,-2.31995 -9.66646,-6.76652 -4.05991,-4.44658 -6.47653,-10.92311 -2.31995,-6.57319 -2.31995,-14.98301 0,-8.40982 2.51328,-14.88635 2.60995,-6.5732 6.86319,-11.01977 4.25324,-4.44657 9.85979,-6.66986 5.60655,-2.31995 11.69642,-2.31995 3.76992,0 6.86319,0.48332 3.09326,0.48333 5.41322,1.25664 2.31995,0.67666 3.96324,1.44997 1.6433,0.67666 2.51328,1.25664 l -2.12662,5.70322 q -2.41661,-1.44997 -6.18653,-2.80328 -3.67326,-1.44997 -9.18314,-1.44997 -6.2832,0 -11.01977,2.12662 -4.6399,2.12663 -7.82983,5.99321 -3.18993,3.86658 -4.83323,9.18314 -1.54664,5.31655 -1.54664,11.79308 0,6.66986 1.54664,12.08308 1.6433,5.31655 4.73656,9.08647 3.09327,3.76992 7.53984,5.79988 4.54324,2.02996 10.34312,2.02996 6.37986,0 10.63311,-1.15998 4.3499,-1.25664 6.57319,-2.51328 l 1.83663,5.60655 q -0.67665,0.48332 -2.31995,1.15998 -1.6433,0.57998 -4.15658,1.25664 -2.51328,0.67665 -5.79988,1.06331 -3.2866,0.48332 -7.34651,0.48332 z"
           style="font-style:normal;font-variant:normal;font-weight:300;font-stretch:normal;font-family:Ubuntu;-inkscape-font-specification:'Ubuntu Light';stroke-width:2.41661525px"
           id="path4773"
           inkscape:connector-curvature="0" />
        <path
           d="m 414.02766,628.67694 q -1.83662,-4.92989 -3.47992,-9.47313 -1.6433,-4.54324 -3.18994,-8.89315 h -32.57597 q -1.6433,4.34991 -3.2866,8.89315 -1.6433,4.54324 -3.38326,9.47313 h -6.86319 q 3.86659,-10.43978 7.24985,-19.42959 3.38326,-9.08647 6.57319,-17.10964 3.2866,-8.11982 6.47653,-15.563 3.18993,-7.44317 6.76652,-14.88635 h 5.79988 q 3.57659,7.44318 6.76653,14.88635 3.18993,7.44318 6.37986,15.563 3.2866,8.02317 6.66986,17.10964 3.38326,8.98981 7.34651,19.42959 z M 391.02148,569.2282 q -3.67325,8.31316 -7.15318,16.91631 -3.38326,8.60315 -7.05652,18.55961 h 28.51607 q -3.67326,-9.95646 -7.15318,-18.55961 -3.47993,-8.60315 -7.15319,-16.91631 z"
           style="font-style:normal;font-variant:normal;font-weight:300;font-stretch:normal;font-family:Ubuntu;-inkscape-font-specification:'Ubuntu Light';stroke-width:2.41661525px"
           id="path4775"
           inkscape:connector-curvature="0" />
        <path
           d="m 430.90772,628.67694 v -66.98858 h 38.18253 v 5.70321 h -31.60933 v 23.58617 h 28.03274 v 5.70321 h -28.03274 v 31.99599 z"
           style="font-style:normal;font-variant:normal;font-weight:300;font-stretch:normal;font-family:Ubuntu;-inkscape-font-specification:'Ubuntu Light';stroke-width:2.41661525px"
           id="path4777"
           inkscape:connector-curvature="0" />
        <path
           d="m 481.12801,628.67694 v -66.98858 h 38.66585 v 5.70321 H 487.7012 v 23.29618 h 28.61273 v 5.60654 H 487.7012 v 26.67944 h 34.60594 v 5.70321 z"
           style="font-style:normal;font-variant:normal;font-weight:300;font-stretch:normal;font-family:Ubuntu;-inkscape-font-specification:'Ubuntu Light';stroke-width:2.41661525px"
           id="path4779"
           inkscape:connector-curvature="0" />
      </g>
    </g>
  </g>
</svg>
