<?xml version="1.0" encoding="UTF-8" standalone="no"?>
<!-- Created with Inkscape (http://www.inkscape.org/) -->

<svg
   xmlns:dc="http://purl.org/dc/elements/1.1/"
   xmlns:cc="http://creativecommons.org/ns#"
   xmlns:rdf="http://www.w3.org/1999/02/22-rdf-syntax-ns#"
   xmlns:svg="http://www.w3.org/2000/svg"
   xmlns="http://www.w3.org/2000/svg"
   xmlns:sodipodi="http://sodipodi.sourceforge.net/DTD/sodipodi-0.dtd"
   xmlns:inkscape="http://www.inkscape.org/namespaces/inkscape"
   width="100"
   height="100.35732"
   id="svg7999"
   sodipodi:version="0.32"
   inkscape:version="0.92.3 (2405546, 2018-03-11)"
   sodipodi:modified="true"
   version="1.0"
   sodipodi:docname="yeti.svg">
  <defs
     id="defs8001" />
  <sodipodi:namedview
     id="base"
     pagecolor="#ffffff"
     bordercolor="#666666"
     borderopacity="1.0"
     gridtolerance="10000"
     guidetolerance="10"
     objecttolerance="10"
     inkscape:pageopacity="0.0"
     inkscape:pageshadow="2"
     inkscape:zoom="1.4"
     inkscape:cx="19.445113"
     inkscape:cy="-50.59523"
     inkscape:document-units="px"
     inkscape:current-layer="layer1"
     height="750px"
     width="744.09px"
     inkscape:window-width="1280"
     inkscape:window-height="750"
     inkscape:window-x="0"
     inkscape:window-y="0"
     showgrid="false"
     fit-margin-top="0"
     fit-margin-left="0"
     fit-margin-right="0"
     fit-margin-bottom="0"
     inkscape:window-maximized="0" />
  <metadata
     id="metadata8004">
    <rdf:RDF>
      <cc:Work
         rdf:about="">
        <dc:format>image/svg+xml</dc:format>
        <dc:type
           rdf:resource="http://purl.org/dc/dcmitype/StillImage" />
        <dc:title></dc:title>
      </cc:Work>
    </rdf:RDF>
  </metadata>
  <g
     inkscape:label="Layer 1"
     inkscape:groupmode="layer"
     id="layer1"
     transform="translate(-12.309547,-645.54581)">
    <path
       style="fill:#000000;fill-rule:evenodd;stroke:#000000;stroke-width:0.0994703px;stroke-linecap:butt;stroke-linejoin:miter;stroke-opacity:1"
       d="m 58.26221,736.59839 c 0,0 26.99908,-9.66283 34.672502,-22.45187 7.673428,-12.78904 4.831415,-24.44127 5.684017,-30.40949 0.852603,-5.96822 -12.504837,-28.13588 -19.041456,-23.87287 -6.53662,4.26301 -24.157071,7.10502 -14.778444,14.77844 9.378628,7.67343 12.220636,10.23123 13.641641,5.96822 1.421004,-4.26301 -8.810227,-15.63105 1.421004,-10.79963 10.23123,4.83141 10.799632,12.22064 8.810226,17.05205 -1.989407,4.83141 7.957623,11.93644 -3.694612,18.18885 -11.652233,6.25242 -14.494242,10.79964 -12.789037,13.07324 1.705205,2.27361 0.568401,5.11562 -3.12621,5.11562 -3.694611,0 -10.799631,6.25242 -11.936436,1.421 -1.136803,-4.83141 -1.421004,-3.41041 3.410411,-7.10502 4.831414,-3.69461 11.368033,-6.53662 13.925841,-14.49424 2.557808,-7.95763 4.547214,-7.38922 1.705207,-10.79964 -2.842009,-3.4104 1.989405,0.56841 -6.536621,-3.69461 -8.526025,-4.26301 -7.105021,-1.1368 -9.094427,-6.53661 -1.989405,-5.39982 -11.083833,-15.06265 -6.820821,-6.82083 4.263013,8.24183 10.799634,14.77845 12.504839,16.48365 1.705204,1.70521 2.557806,6.53662 0.852601,10.23123 -1.705205,3.69462 -2.557806,1.13681 -7.105021,6.53662 -4.547212,5.39982 -3.978812,4.83142 -5.968218,8.81023 -1.989404,3.97881 -7.673423,5.39982 -3.69461,7.95762 3.978812,2.55781 9.094427,3.12621 4.547213,4.54722 -4.547213,1.421 -12.504836,3.41041 -12.789037,0 -0.284202,-3.41041 -7.389223,0.5684 -0.284202,-8.52603 7.105021,-9.09443 5.968218,-8.24182 8.810226,-14.77844 2.842009,-6.53662 8.526025,0.5684 4.263013,-9.09443 -4.263013,-9.66283 -5.968218,-12.22064 -6.820819,-14.21004 -0.852603,-1.98941 -4.547215,-7.67342 -5.399817,-6.53662 -0.852603,1.1368 4.263012,10.23123 3.410411,18.18885 -0.852603,7.95763 -3.694611,13.92585 -5.115617,18.47306 -1.421003,4.54721 -1.136802,9.66283 -5.115615,8.52602 -3.978812,-1.1368 -11.083832,2.55781 -12.220636,-11.08383 -1.136803,-13.64164 -1.421005,-22.73607 2.273606,-27.56748 3.694612,-4.83142 2.557808,-10.51543 8.241825,-14.49424 5.684018,-3.97882 4.547214,-4.26302 12.220636,-6.25242 7.673423,-1.98941 7.673423,-3.69461 15.346847,-4.83142 7.673423,-1.1368 7.673423,-1.421 16.199447,-1.7052 8.526026,-0.2842 14.778444,0.2842 17.620453,4.54721 2.842008,4.26301 5.96822,5.39982 6.53662,13.92584 0.5684,8.52603 -0.8526,13.92584 1.421,17.33625 2.27361,3.41041 6.53662,0.5684 2.55781,10.51543 -3.97881,9.94703 -6.252417,11.65224 -4.83141,13.64165 1.421,1.9894 -5.68402,5.39981 -6.252422,7.95762 -0.568401,2.55781 -3.69461,7.67342 -7.105021,8.52603 -3.41041,0.8526 -23.588669,4.26301 -19.894059,5.68401 3.694611,1.42101 -5.399816,3.41041 -5.399816,3.41041 0,0 -2.273606,2.55782 5.684017,2.842 7.957625,0.28421 17.052051,3.41041 20.746662,0 3.69461,-3.4104 5.968217,-2.2736 12.504839,-15.06264 6.53662,-12.78903 8.52602,-15.63104 9.66283,-21.31506 1.1368,-5.68402 1.421,-1.9894 0.8526,-11.65223 -0.5684,-9.66283 -2.55781,-9.94703 -2.84201,-14.49425 -0.2842,-4.54721 2.27361,-0.2842 -0.5684,-10.23123 -2.84201,-9.94703 0.5684,-11.65223 -4.26301,-16.48364 -4.831418,-4.83142 -7.957627,-7.95763 -20.462465,-7.38923 -12.504837,0.5684 3.410411,-6.53662 -23.588669,2.84201 -26.999082,9.37863 -38.651316,16.48365 -38.651316,18.18886 0,1.7052 -5.399816,8.81022 -5.399816,14.49424 0,5.68402 -6.5366194,4.26301 -2.557808,18.18885 3.978812,13.92584 5.968218,19.04146 7.673423,21.88347 1.705205,2.84201 7.957623,4.83141 7.957623,4.83141 0,0 3.126211,-0.5684 3.126211,1.98941 0,2.55781 -1.989407,8.81022 1.989405,7.38922 3.978812,-1.421 -1.136804,-1.7052 5.684017,0.5684 6.82082,2.27361 10.799632,3.12622 11.368034,0.8526 0.568403,-2.2736 0.852604,-2.5578 3.12621,1.42101 2.273606,3.9788 3.410409,-3.97881 3.694611,-3.69461 z"
       id="path8007"
       inkscape:connector-curvature="0" />
    <path
       style="fill:#000000;fill-rule:evenodd;stroke:#000000;stroke-width:0.13786842px;stroke-linecap:butt;stroke-linejoin:miter;stroke-opacity:1"
       d="m 30.701849,716.85648 c 0,0 -5.514737,-1.57564 -3.939098,-5.51473 1.575639,-3.9391 4.726916,-3.15128 4.726916,-3.15128 l 1.18173,4.72692 0.78782,3.54518 z"
       id="path8015"
       inkscape:connector-curvature="0" />
    <path
       style="fill:#000000;fill-rule:evenodd;stroke:#000000;stroke-width:0.13786842px;stroke-linecap:butt;stroke-linejoin:miter;stroke-opacity:1"
       d="m 42.91305,716.85648 -6.302555,0.39391 3.151278,-4.333 -3.939098,0.78781 3.545188,-3.15127 h -3.939098 l 3.545189,-3.54519 -4.333009,0.78782 3.545189,-3.15128 h 2.757368 l -1.181729,2.36346 1.969549,-0.39391 -1.969549,2.36346 h 2.363459 l -2.363459,1.57564 h 3.939097 z"
       id="path8023"
       inkscape:connector-curvature="0" />
    <path
       style="opacity:1;fill:#ff7f2a;fill-opacity:1;stroke:#000000;stroke-width:7.15619802;stroke-miterlimit:4;stroke-dasharray:none;stroke-opacity:1"
       d="m 96.090878,686.79065 a 25.80109,25.80109 0 0 1 -25.801091,25.80109 25.80109,25.80109 0 0 1 -25.80109,-25.80109 25.80109,25.80109 0 0 1 25.80109,-25.80109 25.80109,25.80109 0 0 1 25.801091,25.80109 z"
       id="path4518"
       inkscape:connector-curvature="0" />
    <g
       aria-label="Y"
       style="font-style:normal;font-weight:normal;font-size:21.72492981px;line-height:125%;font-family:sans-serif;letter-spacing:0px;word-spacing:0px;fill:#000000;fill-opacity:1;stroke:none;stroke-width:0.54312325px;stroke-linecap:butt;stroke-linejoin:miter;stroke-opacity:1"
       id="text4524">
      <path
         d="m 63.768108,680.27519 q 0,-1.26005 0.456223,-1.26005 0.13035,0 0.695198,0.30415 0.456224,0.28242 0.456224,0.73865 0,1.36867 -1.346946,4.06256 -1.346946,2.67217 -2.237668,3.75841 -0.369324,0.45623 -0.586573,0.80382 -0.195524,0.32588 -0.347599,0.67348 -0.130349,0.32587 -0.608298,1.52074 -0.477948,1.19487 -1.042797,2.52009 l -1.759719,4.21464 q -0.304149,0.6952 -0.782097,0.6952 -0.282424,0 -0.543124,-0.2607 -0.238974,-0.2607 -0.238974,-0.58657 0,-0.89073 2.411467,-5.97436 l 1.281771,-2.73734 -3.584613,-3.64979 q -2.476642,-2.52009 -3.25874,-3.41081 -0.760372,-0.89073 -0.760372,-1.3035 0,-0.19552 0.130349,-0.36932 0.13035,-0.19553 0.325874,-0.19553 0.347599,0 1.281771,0.84728 0.934172,0.82554 3.454264,3.36736 2.715616,2.67217 3.08494,2.67217 0.238974,0 0.456224,-0.1738 0.238974,-0.1738 0.499673,-0.63003 0.282424,-0.45622 0.521398,-0.93417 0.2607,-0.49967 0.738648,-1.43384 0.499673,-0.93418 0.955897,-1.75972 0.347599,-0.6952 0.347599,-1.49902 z"
         style="font-style:normal;font-variant:normal;font-weight:normal;font-stretch:normal;font-family:Purisa;-inkscape-font-specification:Purisa;stroke-width:0.54312325px"
         id="path4539"
         inkscape:connector-curvature="0" />
    </g>
    <g
       aria-label="e"
       style="font-style:normal;font-weight:normal;font-size:21.72492981px;line-height:125%;font-family:sans-serif;letter-spacing:0px;word-spacing:0px;fill:#000000;fill-opacity:1;stroke:none;stroke-width:0.54312325px;stroke-linecap:butt;stroke-linejoin:miter;stroke-opacity:1"
       id="text4528">
      <path
         d="m 74.979966,690.19492 q 0.108624,0 0.108624,0.1738 0,0.39105 -0.586573,1.26005 -0.564848,0.869 -1.216596,1.43384 -2.281118,2.02042 -4.562235,2.02042 -0.868997,0 -1.737995,-0.39105 -0.847272,-0.41277 -1.58592,-1.15142 -0.738647,-0.73864 -1.194871,-1.97697 -0.456223,-1.23832 -0.456223,-2.75906 0,-0.93417 0.217249,-1.58592 0.434499,-1.32522 1.846619,-2.80252 1.433846,-1.47729 2.693891,-1.47729 0.347599,0 1.042797,0.0652 1.042797,0.0869 1.45557,0.21725 0.434499,0.13035 0.977622,0.54312 0.695198,0.5214 1.194871,1.34695 0.521399,0.80382 0.521399,1.34695 0,0.69519 -0.543124,1.06452 -0.543123,0.3476 -2.107318,0.6952 -2.042143,0.45622 -3.997387,0.56484 l -2.020418,0.10863 v 0.869 q 0,1.60764 1.49902,3.04149 1.129696,1.08624 2.346292,1.08624 0.934172,0 1.976969,-0.56485 1.064521,-0.58657 1.803169,-1.28177 0.738648,-0.69519 1.41212,-1.26004 0.673473,-0.58658 0.912448,-0.58658 z m -3.497714,-5.30088 q -0.673473,-0.6083 -1.021072,-0.76037 -0.325874,-0.1738 -0.868997,-0.1738 -1.086247,0 -1.62937,0.21725 -0.521398,0.19552 -1.064521,0.82555 -1.651095,1.89006 -1.651095,2.52009 0,0.28242 0.521398,0.28242 1.976969,0 5.605032,-0.82555 1.086247,-0.26069 1.086247,-0.91244 0,-0.30415 -0.977622,-1.17315 z"
         style="font-style:normal;font-variant:normal;font-weight:normal;font-stretch:normal;font-family:Purisa;-inkscape-font-specification:Purisa;stroke-width:0.54312325px"
         id="path4542"
         inkscape:connector-curvature="0" />
    </g>
    <g
       aria-label="t"
       style="font-style:normal;font-weight:normal;font-size:21.72492981px;line-height:125%;font-family:sans-serif;letter-spacing:0px;word-spacing:0px;fill:#000000;fill-opacity:1;stroke:none;stroke-width:0.54312325px;stroke-linecap:butt;stroke-linejoin:miter;stroke-opacity:1"
       id="text4532">
      <path
         d="m 77.571579,681.34258 q 0,-0.80382 -0.152074,-2.04214 -0.152075,-1.23832 -0.152075,-2.06387 0,-0.41278 0.02172,-0.54312 0.06518,-0.3476 0.238974,-0.54313 0.195525,-0.21725 0.391049,-0.21725 0.260699,0 0.369324,0.23898 0.06518,0.15207 0.195524,1.60764 0.13035,1.45557 0.238974,2.84597 0.108625,1.39039 0.152075,1.43384 0.02173,0.0217 0.06518,0.0217 0.173799,0 0.999346,-0.1738 0.847273,-0.19553 1.390396,-0.19553 1.086246,0 1.086246,0.47795 0,0.47795 -2.389742,1.06452 l -1.086246,0.2607 0.130349,3.67152 q 0.108625,3.23701 0.412774,6.06125 0.304149,2.80252 0.304149,3.17184 0,0.67347 -0.499673,0.67347 -0.391049,0 -0.651748,-0.69519 -0.238975,-0.6952 -0.238975,-1.80317 0,-0.80383 -0.06517,-1.62937 -0.06517,-0.84727 -0.238975,-2.60699 -0.152074,-1.78145 -0.304149,-3.64979 -0.06517,-0.99935 -0.108624,-1.54247 -0.02173,-0.54313 -0.06517,-0.80382 -0.04345,-0.2607 -0.06518,-0.30415 -0.02172,-0.0652 -0.0869,-0.0652 -0.347598,0 -1.672819,0.23898 -1.325221,0.23897 -1.651095,0.23897 -0.630023,0 -0.630023,-0.5214 0,-0.36932 0.782098,-0.63002 0.803822,-0.2607 1.803169,-0.45622 0.999347,-0.21725 1.238321,-0.36933 0.238974,-0.1738 0.238974,-1.15142 z"
         style="font-style:normal;font-variant:normal;font-weight:normal;font-stretch:normal;font-family:Purisa;-inkscape-font-specification:Purisa;stroke-width:0.54312325px"
         id="path4545"
         inkscape:connector-curvature="0" />
    </g>
    <g
       aria-label="i"
       style="font-style:normal;font-weight:normal;font-size:21.72492981px;line-height:125%;font-family:sans-serif;letter-spacing:0px;word-spacing:0px;fill:#000000;fill-opacity:1;stroke:none;stroke-width:0.54312325px;stroke-linecap:butt;stroke-linejoin:miter;stroke-opacity:1"
       id="text4536">
      <path
         d="m 84.063907,683.78244 q 0.304149,-0.2607 0.521398,-0.2607 0.456224,0 0.651748,1.45557 0.21725,1.43385 0.391049,5.53986 0.0869,1.91179 0.0869,3.45426 0,1.54247 -0.13035,1.69455 -0.260699,0.32587 -0.651748,0.32587 -0.543123,0 -0.673473,-0.45622 -0.108624,-0.28243 -0.325874,-4.38844 -0.217249,-4.12774 -0.217249,-5.73538 0,-1.34695 0.347599,-1.62937 z m -0.13035,-5.10536 q 0,-0.30415 0.238975,-0.6083 0.260699,-0.30415 0.456223,-0.30415 0.217249,0 0.586573,0.30415 0.391049,0.28243 0.391049,0.73865 0,0.32587 -0.195524,0.56485 -0.1738,0.21725 -0.477949,0.21725 -0.347599,0 -0.673473,-0.2607 -0.325874,-0.2607 -0.325874,-0.65175 z"
         style="font-style:normal;font-variant:normal;font-weight:normal;font-stretch:normal;font-family:Purisa;-inkscape-font-specification:Purisa;stroke-width:0.54312325px"
         id="path4548"
         inkscape:connector-curvature="0" />
    </g>
  </g>
</svg>
