<?xml version="1.0" encoding="UTF-8" standalone="no"?>
<svg
   xmlns:dc="http://purl.org/dc/elements/1.1/"
   xmlns:cc="http://creativecommons.org/ns#"
   xmlns:rdf="http://www.w3.org/1999/02/22-rdf-syntax-ns#"
   xmlns:svg="http://www.w3.org/2000/svg"
   xmlns="http://www.w3.org/2000/svg"
   xmlns:sodipodi="http://sodipodi.sourceforge.net/DTD/sodipodi-0.dtd"
   xmlns:inkscape="http://www.inkscape.org/namespaces/inkscape"
   width="99.999931"
   height="91.938988"
   version="1.1"
   id="svg14"
   sodipodi:docname="demo_croissant.svg"
   inkscape:version="0.92.3 (2405546, 2018-03-11)">
  <defs
     id="defs18" />
  <sodipodi:namedview
     pagecolor="#ffffff"
     bordercolor="#666666"
     borderopacity="1"
     objecttolerance="10"
     gridtolerance="10"
     guidetolerance="10"
     inkscape:pageopacity="0"
     inkscape:pageshadow="2"
     inkscape:window-width="1209"
     inkscape:window-height="965"
     id="namedview16"
     showgrid="false"
     fit-margin-top="0"
     fit-margin-left="0"
     fit-margin-right="0"
     fit-margin-bottom="0"
     inkscape:zoom="1.3906434"
     inkscape:cx="-79.195973"
     inkscape:cy="-61.652488"
     inkscape:window-x="0"
     inkscape:window-y="0"
     inkscape:window-maximized="0"
     inkscape:current-layer="g12" />
  <metadata
     id="metadata7">image/svg+xml<rdf:RDF>
  <cc:Work
     rdf:about="">
    <dc:format>image/svg+xml</dc:format>
    <dc:type
       rdf:resource="http://purl.org/dc/dcmitype/StillImage" />
    <dc:title />
  </cc:Work>
</rdf:RDF>
</metadata>
  <g
     id="g12"
     style="stroke:#000000"
     transform="translate(-164.80257,-271.79264)">
    <title
       id="title3">Layer 1</title>
    <path
       style="fill:none;fill-rule:evenodd;stroke:#ff6600;stroke-width:2;stroke-linecap:round;stroke-linejoin:round;stroke-miterlimit:4;stroke-dasharray:none;stroke-dashoffset:0;marker-start:none;marker-mid:none;marker-end:none"
       d="M 53.658203 1 C 24.577753 1 1 24.025056 1 52.416016 C 1 54.609696 1.1467219 56.766792 1.4199219 58.888672 C 2.2467453 58.384149 3.0918441 57.907453 3.9511719 57.455078 C 4.610555 66.179521 7.0579002 71.942874 11.322266 77.193359 C 11.770564 76.855843 12.274845 76.504869 12.769531 76.15625 C 17.177695 81.993726 23.370666 85.879361 30.908203 89.453125 C 38.747403 93.169895 39.900186 89.475724 38.072266 83.277344 C 36.220057 76.996722 35.575749 76.630174 35.441406 68.328125 C 36.939309 68.467781 38.410903 68.701315 39.839844 69.039062 C 39.557114 67.462112 39.394531 65.829901 39.394531 64.175781 C 39.394531 61.060532 39.923423 58.066653 40.888672 55.265625 C 42.381259 55.84017 43.841516 56.48372 45.255859 57.208984 C 50.345319 48.022544 59.923273 41.544531 71.095703 40.525391 C 71.23433 39.695269 71.343327 38.85236 71.439453 38.005859 C 74.758892 38.442583 77.897262 39.424094 80.769531 40.841797 C 81.38545 40.114434 82.000011 39.269237 82.605469 38.351562 C 86.828918 39.579155 90.06299 41.10608 91.892578 42.541016 C 96.669308 46.287376 101.1099 43.005027 97.873047 33.966797 C 96.158523 29.179333 93.251193 25.018791 89.359375 21.517578 C 89.479566 20.807734 89.578256 20.112811 89.632812 19.453125 C 83.641202 10.859197 73.607179 5.0070131 62.789062 4.4960938 C 62.036931 3.4498536 61.247479 2.4328487 60.416016 1.4550781 C 58.202166 1.1780281 55.948743 1 53.658203 1 z "
       transform="translate(164.80257,271.79264)"
       id="path3185" />
    <path
       inkscape:connector-curvature="0"
       style="fill:none;fill-rule:evenodd;stroke:#ff6600;stroke-width:2;stroke-linecap:round;stroke-linejoin:round;stroke-miterlimit:4;stroke-dasharray:none;stroke-dashoffset:0;marker-start:none;marker-mid:none;marker-end:none"
       id="path822"
       d="m 227.56296,276.24343 c 5.64498,7.83746 9.00363,17.54 9.00363,28.03262 0,1.80223 -0.0939,3.58493 -0.28633,5.33955 3.96726,0.28368 5.92134,1.35571 9.29196,3.01939 4.13469,-4.88282 8.30542,-14.64115 8.86352,-21.3896 -6.32436,-9.0712 -15.3725,-15.09855 -26.87278,-15.00196 z"
       stroke-miterlimit="4"
       sodipodi:nodetypes="cscccc" />
    <path
       inkscape:connector-curvature="0"
       style="fill:none;fill-opacity:1;fill-rule:evenodd;stroke:#ff6600;stroke-width:2;stroke-linecap:round;stroke-linejoin:round;stroke-miterlimit:4;stroke-dasharray:none;stroke-dashoffset:0;marker-start:none;marker-mid:none;marker-end:none"
       id="path824"
       d="m 188.89438,323.79292 c -7.07446,0 -14.25283,2.4148 -20.24064,5.36491 0.47379,9.62368 2.95297,14.26636 7.47031,19.82832 5.30046,-3.99063 14.05775,-9.0134 21.2013,-9.0134 2.51631,0 4.97008,0.30331 7.31745,0.85814 -0.28273,-1.57695 -0.44541,-3.20868 -0.44541,-4.8628 0,-3.59954 0.70165,-5.54568 1.97252,-8.71082 -5.33426,-2.23136 -11.1641,-3.46436 -17.27553,-3.46436 z"
       stroke-miterlimit="4"
       sodipodi:nodetypes="cccscsccc" />
  </g>
</svg>
