<?xml version="1.0" encoding="UTF-8" standalone="no"?>
<svg
   xmlns:dc="http://purl.org/dc/elements/1.1/"
   xmlns:cc="http://creativecommons.org/ns#"
   xmlns:rdf="http://www.w3.org/1999/02/22-rdf-syntax-ns#"
   xmlns:svg="http://www.w3.org/2000/svg"
   xmlns="http://www.w3.org/2000/svg"
   xmlns:sodipodi="http://sodipodi.sourceforge.net/DTD/sodipodi-0.dtd"
   xmlns:inkscape="http://www.inkscape.org/namespaces/inkscape"
   id="Layer_1"
   data-name="Layer 1"
   viewBox="0 0 16 15.999999"
   version="1.1"
   sodipodi:docname="droopler-ikona.svg"
   width="16"
   height="15.999999"
   inkscape:version="0.92.3 (2405546, 2018-03-11)">
  <metadata
     id="metadata29">
    <rdf:RDF>
      <cc:Work
         rdf:about="">
        <dc:format>image/svg+xml</dc:format>
        <dc:type
           rdf:resource="http://purl.org/dc/dcmitype/StillImage" />
        <dc:title>logo droopler</dc:title>
      </cc:Work>
    </rdf:RDF>
  </metadata>
  <defs
     id="defs27" />
  <sodipodi:namedview
     pagecolor="#ffffff"
     bordercolor="#666666"
     borderopacity="1"
     objecttolerance="10"
     gridtolerance="10"
     guidetolerance="10"
     inkscape:pageopacity="0"
     inkscape:pageshadow="2"
     inkscape:window-width="1920"
     inkscape:window-height="1043"
     id="namedview25"
     showgrid="false"
     fit-margin-top="0"
     fit-margin-left="0"
     fit-margin-right="0"
     fit-margin-bottom="0"
     inkscape:zoom="8.4448821"
     inkscape:cx="-27.951266"
     inkscape:cy="28.658547"
     inkscape:window-x="1920"
     inkscape:window-y="0"
     inkscape:window-maximized="1"
     inkscape:current-layer="Layer_1" />
  <title
     id="title2">logo droopler</title>
  <path
     d="m 5.6086572,1.920058 v 0 l 0.8943176,1.647596 -1.7854298,3.0644 a 3.340068,3.340068 0 1 0 5.667217,0 L 6.7626154,0 H 0.50239194 Z M 7.5896188,5.535794 8.72755,7.62574 8.74678,7.65459 a 1.4039825,1.4039825 0 0 1 0.21797,0.756484 1.4168045,1.4168045 0 1 1 -2.8336089,0 A 1.4039825,1.4039825 0 0 1 6.349114,7.65459 Z"
     id="path20"
     inkscape:connector-curvature="0"
     style="fill:#196dba;stroke-width:0.32054394" />
  <path
     d="M 8.881411,0.141039 H 8.798071 8.682675 L 9.936002,2.44575 c 2.243807,0.916756 3.618941,2.981059 3.618941,5.567848 0,3.525984 -2.682953,6.090336 -6.3820303,6.090336 H 2.4256557 V 1.920058 H 5.6118626 L 0.50239194,0 V 0 15.998348 H 7.1729117 A 8.4719767,8.4719767 0 0 0 13.109386,13.732103 7.8501214,7.8501214 0 0 0 15.475,7.997571 7.7796017,7.7796017 0 0 0 8.881411,0.141039 Z"
     id="path22"
     inkscape:connector-curvature="0"
     style="fill:#15a6ff;stroke-width:0.32054394" />
</svg>
