<?xml version="1.0" encoding="UTF-8" standalone="no"?>
<svg
   xmlns:dc="http://purl.org/dc/elements/1.1/"
   xmlns:cc="http://creativecommons.org/ns#"
   xmlns:rdf="http://www.w3.org/1999/02/22-rdf-syntax-ns#"
   xmlns:svg="http://www.w3.org/2000/svg"
   xmlns="http://www.w3.org/2000/svg"
   viewBox="0 0 304 78.171677"
   height="78.171677"
   width="304"
   xml:space="preserve"
   id="svg2"
   version="1.1"><metadata
     id="metadata8"><rdf:RDF><cc:Work
         rdf:about=""><dc:format>image/svg+xml</dc:format><dc:type
           rdf:resource="http://purl.org/dc/dcmitype/StillImage" /><dc:title></dc:title></cc:Work></rdf:RDF></metadata><defs
     id="defs6"><clipPath
       id="clipPath18"
       clipPathUnits="userSpaceOnUse"><path
         id="path16"
         d="M 0,51.9 H 197.8 V 0 H 0 Z" /></clipPath></defs><g
     transform="matrix(1.3333333,0,0,-1.3333333,-1.0664,78.803807)"
     id="g10"><g
       id="g12"><g
         transform="matrix(1.1626692,0,0,1.1626692,-0.1301028,-0.07712145)"
         clip-path="url(#clipPath18)"
         id="g14"><g
           transform="translate(22.7998,33.1998)"
           id="g20"><path
             id="path22"
             style="fill:#196dba;fill-opacity:1;fill-rule:nonzero;stroke:none"
             d="M 0,0 3.5,-6.5 3.6,-6.6 C 4,-7.3 4.3,-8.2 4.3,-9 c 0,-2.399 -2,-4.399 -4.4,-4.399 -2.4,0 -4.4,2 -4.4,4.399 0,0.9 0.2,1.7 0.7,2.4 z m -6.4,11.7 v 0 l 3.1,-5.6 -5.6,-9.6 c -1,-1.7 -1.6,-3.6 -1.6,-5.5 0,-5.7 4.7,-10.399 10.4,-10.399 5.7,0 10.4,4.699 10.4,10.399 0,2 -0.5,3.9 -1.6,5.5 L -2.8,17.7 H -22 Z" /></g><g
           transform="translate(26.8999,50.5001)"
           id="g24"><path
             id="path26"
             style="fill:#15a6ff;fill-opacity:1;fill-rule:nonzero;stroke:none"
             d="m 0,0 h -0.7 l 3.9,-7.2 c 7,-2.9 11.3,-9.3 11.3,-17.4 0,-11 -8.4,-19 -19.9,-19 h -14.7 v 38 h 9.6 l -15.6,6 v -49.9 h 20.8 c 6.9,-0.1 13.5,2.4 18.5,7.1 4.8,4.7 7.5,11.2 7.4,17.9 C 20.8,-12.3 12,-1.9 0,0" /></g><g
           transform="translate(65.2222,5.9117)"
           id="g28"><path
             id="path30"
             style="fill:#000000;fill-opacity:1;fill-rule:nonzero;stroke:none"
             d="M 0,0 C 0,0.408 -0.054,0.773 -0.162,1.098 -0.27,1.422 -0.426,1.695 -0.63,1.92 -0.833,2.145 -1.081,2.316 -1.37,2.436 -1.66,2.557 -1.986,2.615 -2.349,2.615 h -1.444 v -5.232 h 1.444 c 0.363,0 0.689,0.06 0.979,0.181 0.289,0.12 0.537,0.291 0.74,0.516 0.204,0.225 0.36,0.498 0.468,0.822 C -0.054,-0.773 0,-0.408 0,0 m 1.418,0 c 0,-0.545 -0.09,-1.045 -0.272,-1.5 C 0.964,-1.957 0.709,-2.35 0.38,-2.678 0.051,-3.008 -0.345,-3.262 -0.807,-3.443 -1.27,-3.625 -1.784,-3.717 -2.349,-3.717 h -2.832 v 7.434 h 2.832 c 0.565,0 1.079,-0.092 1.542,-0.276 C -0.345,3.258 0.051,3.002 0.38,2.676 0.709,2.348 0.964,1.957 1.146,1.5 1.328,1.045 1.418,0.545 1.418,0" /></g><g
           transform="translate(68.7578,6.5543)"
           id="g32"><path
             id="path34"
             style="fill:#000000;fill-opacity:1;fill-rule:nonzero;stroke:none"
             d="m 0,0 c 0.165,0.314 0.36,0.562 0.586,0.742 0.226,0.18 0.494,0.27 0.802,0.27 0.243,0 0.438,-0.053 0.586,-0.158 L 1.892,-0.098 C 1.875,-0.16 1.85,-0.203 1.817,-0.229 1.784,-0.254 1.741,-0.268 1.686,-0.268 c -0.052,0 -0.128,0.008 -0.229,0.026 -0.101,0.017 -0.2,0.025 -0.295,0.025 -0.141,0 -0.266,-0.019 -0.375,-0.06 C 0.677,-0.318 0.578,-0.379 0.491,-0.455 0.403,-0.531 0.326,-0.625 0.26,-0.734 0.193,-0.846 0.13,-0.971 0.072,-1.111 v -3.248 h -1.27 v 5.273 h 0.746 c 0.13,0 0.221,-0.021 0.272,-0.068 0.052,-0.047 0.086,-0.129 0.103,-0.25 z" /></g><g
           transform="translate(75.9385,7.4684)"
           id="g36"><path
             id="path38"
             style="fill:#000000;fill-opacity:1;fill-rule:nonzero;stroke:none"
             d="m 0,0 v -5.273 h -0.776 c -0.168,0 -0.274,0.078 -0.319,0.232 l -0.087,0.42 c -0.216,-0.219 -0.454,-0.397 -0.714,-0.531 -0.261,-0.135 -0.568,-0.203 -0.921,-0.203 -0.287,0 -0.542,0.048 -0.763,0.146 -0.221,0.098 -0.407,0.236 -0.558,0.414 -0.151,0.178 -0.264,0.391 -0.341,0.635 -0.078,0.244 -0.116,0.515 -0.116,0.808 V 0 h 1.269 v -3.352 c 0,-0.32 0.075,-0.57 0.224,-0.746 0.149,-0.177 0.373,-0.265 0.671,-0.265 0.219,0 0.425,0.049 0.617,0.146 0.191,0.098 0.373,0.233 0.544,0.404 V 0 Z" /></g><g
           transform="translate(78.4619,3.5621)"
           id="g40"><path
             id="path42"
             style="fill:#000000;fill-opacity:1;fill-rule:nonzero;stroke:none"
             d="m 0,0 c 0.144,-0.174 0.301,-0.297 0.471,-0.369 0.169,-0.072 0.353,-0.108 0.552,-0.108 0.192,0 0.365,0.036 0.519,0.108 0.154,0.072 0.286,0.182 0.394,0.328 0.107,0.148 0.19,0.334 0.249,0.559 0.058,0.224 0.087,0.488 0.087,0.793 0,0.308 -0.025,0.57 -0.074,0.785 C 2.148,2.309 2.077,2.482 1.984,2.617 1.892,2.75 1.779,2.848 1.647,2.91 1.516,2.971 1.366,3.002 1.198,3.002 0.934,3.002 0.709,2.947 0.524,2.836 0.339,2.725 0.165,2.566 0,2.365 Z M -0.066,3.188 C 0.149,3.43 0.394,3.627 0.668,3.779 0.942,3.93 1.265,4.004 1.635,4.004 1.922,4.004 2.186,3.945 2.424,3.824 2.662,3.705 2.867,3.531 3.041,3.303 3.213,3.074 3.347,2.795 3.441,2.461 3.536,2.125 3.583,1.742 3.583,1.311 3.583,0.918 3.53,0.553 3.423,0.217 3.317,-0.119 3.166,-0.41 2.969,-0.658 2.771,-0.904 2.533,-1.098 2.254,-1.236 1.975,-1.375 1.662,-1.443 1.316,-1.443 1.021,-1.443 0.77,-1.398 0.561,-1.307 0.352,-1.217 0.165,-1.092 0,-0.93 v -2.158 h -1.27 v 6.994 h 0.777 c 0.164,0 0.272,-0.076 0.324,-0.23 z" /></g><g
           transform="translate(85.8174,4.4469)"
           id="g44"><path
             id="path46"
             style="fill:#000000;fill-opacity:1;fill-rule:nonzero;stroke:none"
             d="m 0,0 c -0.367,-0.018 -0.675,-0.049 -0.925,-0.096 -0.25,-0.045 -0.451,-0.105 -0.602,-0.177 -0.151,-0.071 -0.259,-0.155 -0.324,-0.252 -0.065,-0.096 -0.097,-0.2 -0.097,-0.313 0,-0.223 0.066,-0.383 0.198,-0.478 0.131,-0.096 0.304,-0.143 0.516,-0.143 0.261,0 0.486,0.047 0.676,0.141 0.19,0.093 0.376,0.236 0.558,0.429 z m -2.909,2.287 c 0.606,0.555 1.336,0.832 2.189,0.832 0.309,0 0.584,-0.051 0.828,-0.15 C 0.351,2.867 0.557,2.727 0.725,2.547 0.893,2.367 1.02,2.152 1.107,1.902 1.195,1.652 1.239,1.377 1.239,1.08 V -2.252 H 0.663 c -0.12,0 -0.213,0.018 -0.278,0.055 -0.065,0.035 -0.116,0.109 -0.154,0.218 L 0.118,-1.6 c -0.134,-0.119 -0.264,-0.224 -0.39,-0.314 -0.127,-0.092 -0.259,-0.168 -0.396,-0.229 -0.137,-0.062 -0.284,-0.109 -0.44,-0.142 -0.156,-0.033 -0.328,-0.049 -0.517,-0.049 -0.222,0 -0.428,0.031 -0.616,0.09 -0.189,0.06 -0.351,0.15 -0.488,0.269 -0.138,0.121 -0.244,0.27 -0.319,0.448 -0.076,0.179 -0.113,0.386 -0.113,0.623 0,0.133 0.022,0.265 0.067,0.398 0.044,0.131 0.117,0.258 0.218,0.377 0.101,0.121 0.232,0.233 0.393,0.34 0.161,0.105 0.359,0.199 0.594,0.277 0.235,0.078 0.508,0.143 0.82,0.194 C -0.757,0.73 -0.401,0.76 0,0.771 V 1.08 c 0,0.352 -0.076,0.613 -0.226,0.783 -0.151,0.17 -0.369,0.254 -0.653,0.254 -0.205,0 -0.376,-0.023 -0.512,-0.072 C -1.526,1.998 -1.645,1.943 -1.748,1.883 -1.851,1.824 -1.944,1.77 -2.028,1.723 -2.112,1.674 -2.205,1.65 -2.308,1.65 c -0.089,0 -0.165,0.024 -0.226,0.069 -0.062,0.047 -0.112,0.101 -0.149,0.162 z" /></g><path
           id="path48"
           style="fill:#000000;fill-opacity:1;fill-rule:nonzero;stroke:none"
           d="m 89.533,2.195 h -1.27 v 7.639 h 1.27 z" /><g
           transform="translate(93.6704,2.1949)"
           id="g50"><path
             id="path52"
             style="fill:#000000;fill-opacity:1;fill-rule:nonzero;stroke:none"
             d="m 0,0 v 4.318 l -0.458,0.073 c -0.099,0.019 -0.178,0.054 -0.238,0.105 -0.06,0.049 -0.09,0.119 -0.09,0.213 v 0.52 H 0 v 0.39 c 0,0.301 0.045,0.572 0.136,0.811 0.091,0.24 0.221,0.445 0.391,0.613 0.17,0.168 0.376,0.295 0.619,0.385 0.244,0.09 0.518,0.133 0.823,0.133 0.243,0 0.469,-0.032 0.678,-0.098 L 2.622,6.826 C 2.618,6.779 2.604,6.74 2.581,6.711 2.556,6.682 2.524,6.66 2.485,6.645 2.446,6.629 2.4,6.619 2.349,6.613 2.298,6.607 2.243,6.605 2.185,6.605 2.034,6.605 1.899,6.59 1.781,6.557 1.663,6.523 1.562,6.467 1.48,6.387 1.398,6.307 1.335,6.199 1.293,6.068 1.25,5.936 1.229,5.773 1.229,5.578 V 5.229 H 2.601 V 4.322 H 1.27 V 0 Z" /></g><g
           transform="translate(99.1836,3.0953)"
           id="g54"><path
             id="path56"
             style="fill:#000000;fill-opacity:1;fill-rule:nonzero;stroke:none"
             d="M 0,0 C 0.439,0 0.764,0.146 0.975,0.441 1.186,0.736 1.291,1.168 1.291,1.736 1.291,2.307 1.186,2.738 0.975,3.037 0.764,3.336 0.439,3.484 0,3.484 -0.445,3.484 -0.775,3.334 -0.989,3.035 -1.204,2.734 -1.311,2.303 -1.311,1.736 -1.311,1.172 -1.204,0.74 -0.989,0.443 -0.775,0.148 -0.445,0 0,0 M 0,4.455 C 0.391,4.455 0.746,4.393 1.067,4.266 1.388,4.139 1.661,3.959 1.89,3.727 2.117,3.492 2.293,3.209 2.416,2.873 2.54,2.537 2.602,2.162 2.602,1.748 2.602,1.328 2.54,0.953 2.416,0.617 2.293,0.281 2.117,-0.006 1.89,-0.242 1.661,-0.479 1.388,-0.66 1.067,-0.787 0.746,-0.914 0.391,-0.977 0,-0.977 c -0.394,0 -0.752,0.063 -1.074,0.19 -0.322,0.127 -0.597,0.308 -0.825,0.545 -0.228,0.236 -0.404,0.523 -0.529,0.859 -0.126,0.336 -0.188,0.711 -0.188,1.131 0,0.414 0.062,0.789 0.188,1.125 0.125,0.336 0.301,0.619 0.529,0.854 0.228,0.232 0.503,0.412 0.825,0.539 0.322,0.127 0.68,0.189 1.074,0.189" /></g><g
           transform="translate(103.9482,6.5543)"
           id="g58"><path
             id="path60"
             style="fill:#000000;fill-opacity:1;fill-rule:nonzero;stroke:none"
             d="m 0,0 c 0.164,0.314 0.359,0.562 0.586,0.742 0.226,0.18 0.493,0.27 0.802,0.27 0.243,0 0.438,-0.053 0.586,-0.158 L 1.892,-0.098 C 1.874,-0.16 1.85,-0.203 1.816,-0.229 1.784,-0.254 1.74,-0.268 1.686,-0.268 c -0.052,0 -0.128,0.008 -0.229,0.026 -0.102,0.017 -0.2,0.025 -0.296,0.025 -0.14,0 -0.265,-0.019 -0.375,-0.06 C 0.677,-0.318 0.578,-0.379 0.49,-0.455 0.403,-0.531 0.326,-0.625 0.26,-0.734 0.192,-0.846 0.13,-0.971 0.071,-1.111 v -3.248 h -1.269 v 5.273 h 0.746 c 0.13,0 0.221,-0.021 0.272,-0.068 0.051,-0.047 0.085,-0.129 0.103,-0.25 z" /></g><g
           transform="translate(112.6484,6.3531)"
           id="g62"><path
             id="path64"
             style="fill:#000000;fill-opacity:1;fill-rule:nonzero;stroke:none"
             d="m 0,0 c -0.038,-0.047 -0.074,-0.086 -0.11,-0.113 -0.036,-0.028 -0.089,-0.041 -0.158,-0.041 -0.064,0 -0.128,0.019 -0.189,0.06 -0.063,0.039 -0.136,0.084 -0.222,0.133 -0.086,0.049 -0.187,0.094 -0.305,0.133 -0.119,0.041 -0.265,0.06 -0.44,0.06 -0.222,0 -0.418,-0.041 -0.586,-0.121 C -2.178,0.031 -2.317,-0.086 -2.429,-0.236 -2.54,-0.387 -2.623,-0.568 -2.678,-0.783 -2.732,-0.998 -2.76,-1.24 -2.76,-1.51 c 0,-0.281 0.03,-0.531 0.09,-0.752 0.06,-0.218 0.147,-0.402 0.259,-0.552 0.113,-0.149 0.251,-0.262 0.412,-0.338 0.16,-0.078 0.342,-0.116 0.544,-0.116 0.202,0 0.366,0.024 0.491,0.075 0.125,0.048 0.231,0.103 0.317,0.164 0.085,0.06 0.16,0.115 0.223,0.164 0.064,0.051 0.134,0.074 0.213,0.074 0.103,0 0.18,-0.039 0.232,-0.117 l 0.365,-0.463 c -0.141,-0.164 -0.293,-0.303 -0.458,-0.414 -0.164,-0.111 -0.335,-0.201 -0.511,-0.268 -0.177,-0.066 -0.358,-0.113 -0.545,-0.14 -0.187,-0.028 -0.373,-0.041 -0.558,-0.041 -0.326,0 -0.632,0.06 -0.92,0.181 -0.288,0.121 -0.54,0.299 -0.755,0.533 -0.216,0.233 -0.387,0.518 -0.512,0.856 -0.125,0.338 -0.188,0.723 -0.188,1.154 0,0.387 0.056,0.746 0.167,1.076 0.112,0.33 0.276,0.618 0.492,0.858 0.215,0.242 0.482,0.431 0.801,0.568 0.319,0.137 0.685,0.205 1.1,0.205 0.395,0 0.739,-0.062 1.036,-0.189 0.296,-0.127 0.563,-0.309 0.799,-0.545 z" /></g><g
           transform="translate(116.0635,3.0953)"
           id="g66"><path
             id="path68"
             style="fill:#000000;fill-opacity:1;fill-rule:nonzero;stroke:none"
             d="M 0,0 C 0.439,0 0.764,0.146 0.975,0.441 1.186,0.736 1.291,1.168 1.291,1.736 1.291,2.307 1.186,2.738 0.975,3.037 0.764,3.336 0.439,3.484 0,3.484 -0.445,3.484 -0.774,3.334 -0.989,3.035 -1.203,2.734 -1.311,2.303 -1.311,1.736 -1.311,1.172 -1.203,0.74 -0.989,0.443 -0.774,0.148 -0.445,0 0,0 M 0,4.455 C 0.391,4.455 0.746,4.393 1.067,4.266 1.388,4.139 1.661,3.959 1.89,3.727 2.117,3.492 2.293,3.209 2.416,2.873 2.54,2.537 2.602,2.162 2.602,1.748 2.602,1.328 2.54,0.953 2.416,0.617 2.293,0.281 2.117,-0.006 1.89,-0.242 1.661,-0.479 1.388,-0.66 1.067,-0.787 0.746,-0.914 0.391,-0.977 0,-0.977 c -0.394,0 -0.752,0.063 -1.074,0.19 -0.322,0.127 -0.597,0.308 -0.824,0.545 -0.229,0.236 -0.405,0.523 -0.53,0.859 -0.126,0.336 -0.188,0.711 -0.188,1.131 0,0.414 0.062,0.789 0.188,1.125 0.125,0.336 0.301,0.619 0.53,0.854 0.227,0.232 0.502,0.412 0.824,0.539 0.322,0.127 0.68,0.189 1.074,0.189" /></g><g
           transform="translate(120.834,6.5543)"
           id="g70"><path
             id="path72"
             style="fill:#000000;fill-opacity:1;fill-rule:nonzero;stroke:none"
             d="m 0,0 c 0.164,0.314 0.359,0.562 0.586,0.742 0.226,0.18 0.493,0.27 0.802,0.27 0.243,0 0.438,-0.053 0.586,-0.158 L 1.892,-0.098 C 1.874,-0.16 1.85,-0.203 1.816,-0.229 1.784,-0.254 1.74,-0.268 1.686,-0.268 c -0.052,0 -0.128,0.008 -0.229,0.026 -0.102,0.017 -0.2,0.025 -0.296,0.025 -0.14,0 -0.265,-0.019 -0.375,-0.06 C 0.677,-0.318 0.578,-0.379 0.49,-0.455 0.403,-0.531 0.326,-0.625 0.26,-0.734 0.192,-0.846 0.13,-0.971 0.071,-1.111 v -3.248 h -1.269 v 5.273 h 0.746 c 0.13,0 0.221,-0.021 0.272,-0.068 0.051,-0.047 0.085,-0.129 0.103,-0.25 z" /></g><g
           transform="translate(124.7402,3.5621)"
           id="g74"><path
             id="path76"
             style="fill:#000000;fill-opacity:1;fill-rule:nonzero;stroke:none"
             d="m 0,0 c 0.144,-0.174 0.301,-0.297 0.471,-0.369 0.169,-0.072 0.353,-0.108 0.551,-0.108 0.193,0 0.366,0.036 0.52,0.108 0.154,0.072 0.285,0.182 0.394,0.328 0.107,0.148 0.19,0.334 0.249,0.559 0.057,0.224 0.086,0.488 0.086,0.793 0,0.308 -0.024,0.57 -0.074,0.785 C 2.147,2.309 2.076,2.482 1.984,2.617 1.892,2.75 1.779,2.848 1.647,2.91 1.516,2.971 1.365,3.002 1.197,3.002 0.934,3.002 0.709,2.947 0.524,2.836 0.339,2.725 0.164,2.566 0,2.365 Z M -0.066,3.188 C 0.149,3.43 0.394,3.627 0.668,3.779 0.942,3.93 1.265,4.004 1.635,4.004 1.922,4.004 2.186,3.945 2.424,3.824 2.661,3.705 2.867,3.531 3.04,3.303 3.213,3.074 3.347,2.795 3.441,2.461 3.535,2.125 3.582,1.742 3.582,1.311 3.582,0.918 3.529,0.553 3.423,0.217 3.317,-0.119 3.165,-0.41 2.969,-0.658 2.771,-0.904 2.533,-1.098 2.254,-1.236 1.975,-1.375 1.662,-1.443 1.315,-1.443 1.021,-1.443 0.77,-1.398 0.561,-1.307 0.352,-1.217 0.164,-1.092 0,-0.93 v -2.158 h -1.27 v 6.994 h 0.777 c 0.164,0 0.272,-0.076 0.323,-0.23 z" /></g><g
           transform="translate(131.6426,3.0953)"
           id="g78"><path
             id="path80"
             style="fill:#000000;fill-opacity:1;fill-rule:nonzero;stroke:none"
             d="M 0,0 C 0.439,0 0.764,0.146 0.975,0.441 1.186,0.736 1.291,1.168 1.291,1.736 1.291,2.307 1.186,2.738 0.975,3.037 0.764,3.336 0.439,3.484 0,3.484 -0.445,3.484 -0.774,3.334 -0.989,3.035 -1.203,2.734 -1.311,2.303 -1.311,1.736 -1.311,1.172 -1.203,0.74 -0.989,0.443 -0.774,0.148 -0.445,0 0,0 M 0,4.455 C 0.391,4.455 0.746,4.393 1.067,4.266 1.388,4.139 1.661,3.959 1.89,3.727 2.117,3.492 2.293,3.209 2.416,2.873 2.54,2.537 2.602,2.162 2.602,1.748 2.602,1.328 2.54,0.953 2.416,0.617 2.293,0.281 2.117,-0.006 1.89,-0.242 1.661,-0.479 1.388,-0.66 1.067,-0.787 0.746,-0.914 0.391,-0.977 0,-0.977 c -0.394,0 -0.752,0.063 -1.074,0.19 -0.322,0.127 -0.597,0.308 -0.824,0.545 -0.229,0.236 -0.405,0.523 -0.53,0.859 -0.126,0.336 -0.188,0.711 -0.188,1.131 0,0.414 0.062,0.789 0.188,1.125 0.125,0.336 0.301,0.619 0.53,0.854 0.227,0.232 0.502,0.412 0.824,0.539 0.322,0.127 0.68,0.189 1.074,0.189" /></g><g
           transform="translate(136.4082,6.5543)"
           id="g82"><path
             id="path84"
             style="fill:#000000;fill-opacity:1;fill-rule:nonzero;stroke:none"
             d="m 0,0 c 0.164,0.314 0.359,0.562 0.586,0.742 0.226,0.18 0.493,0.27 0.802,0.27 0.243,0 0.438,-0.053 0.586,-0.158 L 1.892,-0.098 C 1.874,-0.16 1.85,-0.203 1.816,-0.229 1.784,-0.254 1.74,-0.268 1.686,-0.268 c -0.052,0 -0.128,0.008 -0.229,0.026 -0.102,0.017 -0.2,0.025 -0.296,0.025 -0.14,0 -0.265,-0.019 -0.375,-0.06 C 0.677,-0.318 0.578,-0.379 0.49,-0.455 0.403,-0.531 0.326,-0.625 0.26,-0.734 0.192,-0.846 0.13,-0.971 0.071,-1.111 v -3.248 h -1.269 v 5.273 h 0.746 c 0.13,0 0.221,-0.021 0.272,-0.068 0.051,-0.047 0.085,-0.129 0.103,-0.25 z" /></g><g
           transform="translate(141.7637,4.4469)"
           id="g86"><path
             id="path88"
             style="fill:#000000;fill-opacity:1;fill-rule:nonzero;stroke:none"
             d="m 0,0 c -0.366,-0.018 -0.675,-0.049 -0.925,-0.096 -0.25,-0.045 -0.451,-0.105 -0.601,-0.177 -0.152,-0.071 -0.259,-0.155 -0.325,-0.252 -0.064,-0.096 -0.097,-0.2 -0.097,-0.313 0,-0.223 0.066,-0.383 0.198,-0.478 0.132,-0.096 0.304,-0.143 0.517,-0.143 0.26,0 0.485,0.047 0.675,0.141 0.191,0.093 0.376,0.236 0.558,0.429 z m -2.909,2.287 c 0.606,0.555 1.337,0.832 2.189,0.832 0.309,0 0.584,-0.051 0.828,-0.15 C 0.352,2.867 0.557,2.727 0.725,2.547 0.893,2.367 1.021,2.152 1.107,1.902 1.195,1.652 1.239,1.377 1.239,1.08 V -2.252 H 0.663 c -0.12,0 -0.213,0.018 -0.277,0.055 C 0.32,-2.162 0.27,-2.088 0.231,-1.979 L 0.118,-1.6 c -0.134,-0.119 -0.264,-0.224 -0.39,-0.314 -0.127,-0.092 -0.259,-0.168 -0.396,-0.229 -0.137,-0.062 -0.284,-0.109 -0.439,-0.142 -0.157,-0.033 -0.329,-0.049 -0.517,-0.049 -0.223,0 -0.429,0.031 -0.617,0.09 -0.189,0.06 -0.351,0.15 -0.488,0.269 -0.137,0.121 -0.244,0.27 -0.319,0.448 -0.075,0.179 -0.113,0.386 -0.113,0.623 0,0.133 0.022,0.265 0.067,0.398 0.044,0.131 0.117,0.258 0.218,0.377 0.102,0.121 0.232,0.233 0.394,0.34 0.161,0.105 0.358,0.199 0.593,0.277 0.235,0.078 0.508,0.143 0.82,0.194 C -0.757,0.73 -0.4,0.76 0,0.771 V 1.08 c 0,0.352 -0.075,0.613 -0.226,0.783 -0.151,0.17 -0.369,0.254 -0.653,0.254 -0.205,0 -0.376,-0.023 -0.512,-0.072 C -1.525,1.998 -1.645,1.943 -1.747,1.883 -1.851,1.824 -1.943,1.77 -2.027,1.723 -2.111,1.674 -2.205,1.65 -2.308,1.65 c -0.088,0 -0.165,0.024 -0.226,0.069 -0.062,0.047 -0.112,0.101 -0.149,0.162 z" /></g><g
           transform="translate(145.8779,2.1129)"
           id="g90"><path
             id="path92"
             style="fill:#000000;fill-opacity:1;fill-rule:nonzero;stroke:none"
             d="m 0,0 c -0.459,0 -0.811,0.129 -1.056,0.389 -0.245,0.257 -0.368,0.615 -0.368,1.072 v 2.943 h -0.539 c -0.068,0 -0.127,0.024 -0.175,0.069 -0.048,0.043 -0.072,0.111 -0.072,0.199 v 0.504 l 0.849,0.138 0.266,1.44 c 0.018,0.068 0.05,0.121 0.098,0.16 0.048,0.037 0.11,0.057 0.185,0.057 h 0.659 V 5.311 H 1.255 V 4.404 H -0.153 V 1.547 c 0,-0.164 0.04,-0.293 0.12,-0.385 0.081,-0.092 0.191,-0.139 0.332,-0.139 0.078,0 0.144,0.01 0.197,0.028 C 0.55,1.07 0.596,1.09 0.635,1.111 0.675,1.131 0.71,1.15 0.74,1.17 0.771,1.187 0.803,1.197 0.833,1.197 0.871,1.197 0.901,1.187 0.926,1.17 0.949,1.15 0.976,1.123 1.003,1.084 L 1.383,0.469 C 1.198,0.314 0.985,0.197 0.746,0.119 0.506,0.039 0.258,0 0,0" /></g><g
           transform="translate(151.2979,5.4391)"
           id="g94"><path
             id="path96"
             style="fill:#000000;fill-opacity:1;fill-rule:nonzero;stroke:none"
             d="M 0,0 C 0,0.164 -0.023,0.318 -0.069,0.465 -0.115,0.611 -0.186,0.738 -0.277,0.848 -0.37,0.957 -0.487,1.043 -0.63,1.107 -0.771,1.17 -0.937,1.203 -1.126,1.203 -1.492,1.203 -1.781,1.098 -1.992,0.889 -2.202,0.68 -2.337,0.383 -2.396,0 Z m -2.421,-0.766 c 0.021,-0.271 0.068,-0.505 0.144,-0.703 0.075,-0.195 0.174,-0.359 0.298,-0.488 0.124,-0.127 0.27,-0.223 0.44,-0.287 0.169,-0.063 0.356,-0.096 0.562,-0.096 0.206,0 0.383,0.026 0.533,0.072 0.148,0.049 0.279,0.102 0.39,0.161 0.112,0.058 0.209,0.111 0.293,0.158 0.084,0.049 0.165,0.072 0.244,0.072 0.106,0 0.185,-0.039 0.237,-0.117 L 1.085,-2.457 C 0.944,-2.621 0.786,-2.76 0.611,-2.871 0.437,-2.982 0.254,-3.072 0.064,-3.139 -0.126,-3.205 -0.319,-3.252 -0.517,-3.279 -0.714,-3.307 -0.904,-3.32 -1.09,-3.32 c -0.366,0 -0.707,0.06 -1.022,0.181 -0.316,0.121 -0.59,0.303 -0.823,0.541 -0.233,0.237 -0.417,0.532 -0.55,0.883 -0.133,0.352 -0.201,0.758 -0.201,1.221 0,0.359 0.059,0.699 0.175,1.015 0.116,0.317 0.283,0.592 0.501,0.829 0.218,0.234 0.484,0.42 0.797,0.556 0.314,0.137 0.667,0.205 1.062,0.205 0.332,0 0.638,-0.052 0.92,-0.158 C 0.05,1.846 0.291,1.691 0.493,1.488 0.695,1.283 0.854,1.033 0.969,0.736 1.084,0.441 1.141,0.102 1.141,-0.277 1.141,-0.471 1.12,-0.6 1.079,-0.666 c -0.041,-0.066 -0.12,-0.1 -0.236,-0.1 z" /></g><g
           transform="translate(163.2109,7.4684)"
           id="g98"><path
             id="path100"
             style="fill:#000000;fill-opacity:1;fill-rule:nonzero;stroke:none"
             d="m 0,0 -1.676,-5.273 h -1.017 c -0.118,0 -0.198,0.076 -0.243,0.226 l -0.945,3.049 c -0.031,0.102 -0.059,0.203 -0.085,0.305 -0.025,0.101 -0.047,0.203 -0.064,0.306 -0.021,-0.103 -0.044,-0.207 -0.07,-0.31 -0.025,-0.106 -0.053,-0.209 -0.085,-0.313 l -0.961,-3.037 c -0.041,-0.15 -0.131,-0.226 -0.272,-0.226 H -6.395 L -8.065,0 h 1.012 c 0.093,0 0.172,-0.021 0.237,-0.066 0.065,-0.045 0.108,-0.102 0.129,-0.17 l 0.755,-2.817 c 0.037,-0.154 0.072,-0.304 0.1,-0.451 0.029,-0.148 0.055,-0.295 0.075,-0.443 0.037,0.148 0.078,0.295 0.12,0.443 0.043,0.147 0.089,0.297 0.137,0.451 l 0.874,2.828 c 0.021,0.069 0.061,0.125 0.12,0.168 0.061,0.045 0.133,0.069 0.219,0.069 h 0.56 c 0.089,0 0.165,-0.024 0.229,-0.069 0.063,-0.043 0.105,-0.099 0.126,-0.168 l 0.848,-2.828 c 0.045,-0.154 0.086,-0.304 0.126,-0.455 0.04,-0.148 0.078,-0.297 0.116,-0.443 0.044,0.291 0.107,0.59 0.19,0.898 l 0.776,2.817 c 0.024,0.068 0.067,0.125 0.129,0.17 C -1.126,-0.021 -1.053,0 -0.967,0 Z" /></g><g
           transform="translate(167.2373,5.4391)"
           id="g102"><path
             id="path104"
             style="fill:#000000;fill-opacity:1;fill-rule:nonzero;stroke:none"
             d="M 0,0 C 0,0.164 -0.022,0.318 -0.069,0.465 -0.115,0.611 -0.185,0.738 -0.277,0.848 -0.37,0.957 -0.487,1.043 -0.629,1.107 -0.771,1.17 -0.937,1.203 -1.125,1.203 -1.492,1.203 -1.78,1.098 -1.991,0.889 -2.202,0.68 -2.337,0.383 -2.395,0 Z m -2.421,-0.766 c 0.021,-0.271 0.069,-0.505 0.145,-0.703 0.075,-0.195 0.174,-0.359 0.297,-0.488 0.124,-0.127 0.27,-0.223 0.44,-0.287 0.17,-0.063 0.357,-0.096 0.562,-0.096 0.206,0 0.384,0.026 0.533,0.072 0.149,0.049 0.279,0.102 0.39,0.161 0.112,0.058 0.209,0.111 0.293,0.158 0.084,0.049 0.165,0.072 0.244,0.072 0.107,0 0.186,-0.039 0.237,-0.117 L 1.085,-2.457 C 0.944,-2.621 0.787,-2.76 0.612,-2.871 0.437,-2.982 0.255,-3.072 0.064,-3.139 -0.125,-3.205 -0.319,-3.252 -0.517,-3.279 -0.713,-3.307 -0.904,-3.32 -1.089,-3.32 c -0.367,0 -0.708,0.06 -1.023,0.181 -0.316,0.121 -0.589,0.303 -0.823,0.541 -0.233,0.237 -0.416,0.532 -0.549,0.883 -0.134,0.352 -0.201,0.758 -0.201,1.221 0,0.359 0.058,0.699 0.175,1.015 0.116,0.317 0.283,0.592 0.501,0.829 0.218,0.234 0.484,0.42 0.797,0.556 0.314,0.137 0.667,0.205 1.061,0.205 0.333,0 0.639,-0.052 0.921,-0.158 C 0.05,1.846 0.292,1.691 0.494,1.488 0.696,1.283 0.854,1.033 0.97,0.736 1.084,0.441 1.142,0.102 1.142,-0.277 1.142,-0.471 1.121,-0.6 1.08,-0.666 1.039,-0.732 0.96,-0.766 0.844,-0.766 Z" /></g><g
           transform="translate(170.5986,3.5621)"
           id="g106"><path
             id="path108"
             style="fill:#000000;fill-opacity:1;fill-rule:nonzero;stroke:none"
             d="m 0,0 c 0.145,-0.174 0.301,-0.297 0.471,-0.369 0.17,-0.072 0.348,-0.108 0.537,-0.108 0.195,0 0.371,0.036 0.527,0.104 0.155,0.07 0.288,0.182 0.398,0.33 0.11,0.148 0.194,0.34 0.252,0.57 0.058,0.231 0.087,0.508 0.087,0.83 0,0.58 -0.095,0.998 -0.288,1.256 C 1.793,2.873 1.517,3.002 1.157,3.002 0.913,3.002 0.701,2.947 0.52,2.836 0.338,2.725 0.165,2.566 0,2.365 Z m 0,3.26 c 0.213,0.222 0.448,0.4 0.707,0.531 0.259,0.133 0.555,0.197 0.887,0.197 0.304,0 0.58,-0.058 0.825,-0.179 C 2.664,3.689 2.873,3.518 3.046,3.293 3.219,3.068 3.352,2.797 3.444,2.479 3.537,2.16 3.583,1.801 3.583,1.404 3.583,0.975 3.53,0.586 3.424,0.236 3.317,-0.113 3.166,-0.412 2.969,-0.66 2.771,-0.908 2.534,-1.102 2.257,-1.238 1.979,-1.375 1.671,-1.443 1.332,-1.443 c -0.165,0 -0.313,0.015 -0.447,0.048 -0.134,0.032 -0.257,0.079 -0.37,0.137 -0.114,0.057 -0.217,0.129 -0.312,0.213 -0.094,0.084 -0.183,0.178 -0.269,0.279 l -0.057,-0.353 c -0.021,-0.09 -0.056,-0.154 -0.106,-0.192 -0.049,-0.037 -0.117,-0.056 -0.203,-0.056 H -1.27 V 6.271 H 0 Z" /></g><g
           transform="translate(178.3809,6.441)"
           id="g110"><path
             id="path112"
             style="fill:#000000;fill-opacity:1;fill-rule:nonzero;stroke:none"
             d="m 0,0 c -0.034,-0.055 -0.07,-0.094 -0.107,-0.115 -0.039,-0.024 -0.086,-0.033 -0.145,-0.033 -0.061,0 -0.127,0.015 -0.197,0.05 -0.071,0.036 -0.153,0.073 -0.244,0.116 -0.093,0.043 -0.199,0.082 -0.317,0.115 -0.118,0.035 -0.258,0.053 -0.419,0.053 -0.25,0 -0.446,-0.053 -0.589,-0.161 -0.141,-0.105 -0.212,-0.244 -0.212,-0.416 0,-0.113 0.037,-0.209 0.11,-0.285 0.074,-0.078 0.172,-0.144 0.293,-0.203 0.122,-0.058 0.26,-0.111 0.414,-0.156 0.154,-0.047 0.31,-0.098 0.47,-0.152 0.16,-0.055 0.316,-0.118 0.47,-0.188 0.155,-0.07 0.292,-0.16 0.414,-0.268 0.121,-0.107 0.219,-0.236 0.293,-0.386 0.074,-0.153 0.111,-0.334 0.111,-0.545 0,-0.254 -0.046,-0.489 -0.137,-0.703 -0.091,-0.213 -0.225,-0.399 -0.403,-0.555 -0.178,-0.156 -0.399,-0.277 -0.66,-0.365 -0.263,-0.086 -0.565,-0.131 -0.908,-0.131 -0.181,0 -0.359,0.016 -0.532,0.049 -0.173,0.033 -0.339,0.078 -0.498,0.136 -0.16,0.059 -0.307,0.127 -0.442,0.205 -0.136,0.079 -0.255,0.165 -0.358,0.258 l 0.293,0.483 c 0.038,0.058 0.082,0.103 0.134,0.134 0.052,0.03 0.116,0.045 0.195,0.045 0.079,0 0.154,-0.021 0.224,-0.066 0.07,-0.045 0.151,-0.092 0.244,-0.145 0.093,-0.05 0.201,-0.099 0.326,-0.142 0.125,-0.045 0.284,-0.068 0.476,-0.068 0.15,0 0.28,0.019 0.388,0.054 0.108,0.035 0.197,0.084 0.267,0.141 0.07,0.058 0.122,0.127 0.154,0.203 0.033,0.078 0.049,0.158 0.049,0.24 0,0.123 -0.037,0.225 -0.11,0.303 -0.074,0.078 -0.172,0.146 -0.293,0.205 -0.122,0.059 -0.261,0.111 -0.416,0.158 -0.156,0.045 -0.316,0.096 -0.479,0.151 -0.163,0.054 -0.322,0.119 -0.477,0.193 -0.156,0.074 -0.295,0.166 -0.417,0.279 -0.121,0.114 -0.219,0.252 -0.293,0.416 -0.073,0.166 -0.11,0.364 -0.11,0.598 0,0.215 0.042,0.422 0.128,0.617 0.085,0.195 0.211,0.365 0.377,0.51 0.167,0.146 0.374,0.264 0.622,0.35 0.249,0.087 0.537,0.13 0.862,0.13 0.363,0 0.694,-0.058 0.992,-0.179 0.298,-0.119 0.546,-0.278 0.745,-0.473 z" /></g><path
           id="path114"
           style="fill:#000000;fill-opacity:1;fill-rule:nonzero;stroke:none"
           d="m 180.997,2.195 h -1.274 v 5.273 h 1.274 z m 0.175,6.81 c 0,-0.109 -0.023,-0.212 -0.067,-0.308 -0.044,-0.096 -0.103,-0.18 -0.177,-0.252 -0.074,-0.07 -0.16,-0.129 -0.26,-0.172 -0.099,-0.043 -0.205,-0.064 -0.318,-0.064 -0.11,0 -0.213,0.021 -0.311,0.064 -0.098,0.043 -0.183,0.102 -0.255,0.172 -0.072,0.072 -0.129,0.156 -0.172,0.252 -0.043,0.096 -0.064,0.199 -0.064,0.308 0,0.114 0.021,0.219 0.064,0.319 0.043,0.099 0.1,0.185 0.172,0.258 0.072,0.072 0.157,0.129 0.255,0.172 0.098,0.042 0.201,0.064 0.311,0.064 0.113,0 0.219,-0.022 0.318,-0.064 0.1,-0.043 0.186,-0.1 0.26,-0.172 0.074,-0.073 0.133,-0.159 0.177,-0.258 0.044,-0.1 0.067,-0.205 0.067,-0.319" /><g
           transform="translate(184.0479,2.1129)"
           id="g116"><path
             id="path118"
             style="fill:#000000;fill-opacity:1;fill-rule:nonzero;stroke:none"
             d="m 0,0 c -0.459,0 -0.811,0.129 -1.056,0.389 -0.245,0.257 -0.368,0.615 -0.368,1.072 v 2.943 h -0.539 c -0.068,0 -0.127,0.024 -0.175,0.069 -0.048,0.043 -0.072,0.111 -0.072,0.199 v 0.504 l 0.849,0.138 0.266,1.44 c 0.018,0.068 0.05,0.121 0.098,0.16 0.048,0.037 0.11,0.057 0.185,0.057 h 0.659 V 5.311 H 1.255 V 4.404 H -0.153 V 1.547 c 0,-0.164 0.04,-0.293 0.12,-0.385 0.081,-0.092 0.191,-0.139 0.332,-0.139 0.078,0 0.144,0.01 0.197,0.028 C 0.55,1.07 0.596,1.09 0.635,1.111 0.675,1.131 0.71,1.15 0.74,1.17 0.771,1.187 0.803,1.197 0.833,1.197 0.871,1.197 0.901,1.187 0.926,1.17 0.949,1.15 0.976,1.123 1.003,1.084 L 1.383,0.469 C 1.198,0.314 0.985,0.197 0.746,0.119 0.506,0.039 0.258,0 0,0" /></g><g
           transform="translate(189.4678,5.4391)"
           id="g120"><path
             id="path122"
             style="fill:#000000;fill-opacity:1;fill-rule:nonzero;stroke:none"
             d="M 0,0 C 0,0.164 -0.023,0.318 -0.069,0.465 -0.115,0.611 -0.186,0.738 -0.277,0.848 -0.37,0.957 -0.487,1.043 -0.63,1.107 -0.771,1.17 -0.937,1.203 -1.126,1.203 -1.492,1.203 -1.781,1.098 -1.992,0.889 -2.202,0.68 -2.337,0.383 -2.396,0 Z m -2.421,-0.766 c 0.021,-0.271 0.068,-0.505 0.144,-0.703 0.075,-0.195 0.174,-0.359 0.298,-0.488 0.124,-0.127 0.27,-0.223 0.44,-0.287 0.169,-0.063 0.356,-0.096 0.562,-0.096 0.206,0 0.383,0.026 0.533,0.072 0.148,0.049 0.279,0.102 0.39,0.161 0.112,0.058 0.209,0.111 0.293,0.158 0.084,0.049 0.165,0.072 0.244,0.072 0.106,0 0.185,-0.039 0.237,-0.117 L 1.085,-2.457 C 0.944,-2.621 0.786,-2.76 0.611,-2.871 0.437,-2.982 0.254,-3.072 0.064,-3.139 -0.126,-3.205 -0.319,-3.252 -0.517,-3.279 -0.714,-3.307 -0.904,-3.32 -1.09,-3.32 c -0.366,0 -0.707,0.06 -1.022,0.181 -0.316,0.121 -0.59,0.303 -0.823,0.541 -0.233,0.237 -0.417,0.532 -0.55,0.883 -0.133,0.352 -0.201,0.758 -0.201,1.221 0,0.359 0.059,0.699 0.175,1.015 0.116,0.317 0.283,0.592 0.501,0.829 0.218,0.234 0.484,0.42 0.797,0.556 0.314,0.137 0.667,0.205 1.062,0.205 0.332,0 0.638,-0.052 0.92,-0.158 C 0.05,1.846 0.291,1.691 0.493,1.488 0.695,1.283 0.854,1.033 0.969,0.736 1.084,0.441 1.141,0.102 1.141,-0.277 1.141,-0.471 1.12,-0.6 1.079,-0.666 c -0.041,-0.066 -0.12,-0.1 -0.236,-0.1 z" /></g><g
           transform="translate(194.7773,6.441)"
           id="g124"><path
             id="path126"
             style="fill:#000000;fill-opacity:1;fill-rule:nonzero;stroke:none"
             d="m 0,0 c -0.034,-0.055 -0.07,-0.094 -0.108,-0.115 -0.038,-0.024 -0.086,-0.033 -0.144,-0.033 -0.061,0 -0.128,0.015 -0.198,0.05 -0.071,0.036 -0.152,0.073 -0.244,0.116 -0.093,0.043 -0.198,0.082 -0.317,0.115 -0.118,0.035 -0.258,0.053 -0.418,0.053 -0.251,0 -0.447,-0.053 -0.589,-0.161 -0.142,-0.105 -0.213,-0.244 -0.213,-0.416 0,-0.113 0.037,-0.209 0.111,-0.285 0.073,-0.078 0.171,-0.144 0.293,-0.203 0.121,-0.058 0.259,-0.111 0.413,-0.156 0.154,-0.047 0.311,-0.098 0.471,-0.152 0.159,-0.055 0.316,-0.118 0.47,-0.188 0.154,-0.07 0.292,-0.16 0.413,-0.268 0.122,-0.107 0.22,-0.236 0.293,-0.386 0.075,-0.153 0.111,-0.334 0.111,-0.545 0,-0.254 -0.045,-0.489 -0.136,-0.703 -0.091,-0.213 -0.226,-0.399 -0.403,-0.555 -0.179,-0.156 -0.399,-0.277 -0.661,-0.365 -0.262,-0.086 -0.565,-0.131 -0.908,-0.131 -0.181,0 -0.358,0.016 -0.531,0.049 -0.174,0.033 -0.34,0.078 -0.499,0.136 -0.159,0.059 -0.307,0.127 -0.442,0.205 -0.135,0.079 -0.254,0.165 -0.357,0.258 l 0.293,0.483 c 0.037,0.058 0.082,0.103 0.134,0.134 0.051,0.03 0.116,0.045 0.195,0.045 0.078,0 0.154,-0.021 0.223,-0.066 0.07,-0.045 0.152,-0.092 0.244,-0.145 0.093,-0.05 0.202,-0.099 0.327,-0.142 0.125,-0.045 0.283,-0.068 0.476,-0.068 0.15,0 0.279,0.019 0.388,0.054 0.107,0.035 0.197,0.084 0.267,0.141 0.07,0.058 0.121,0.127 0.154,0.203 0.033,0.078 0.049,0.158 0.049,0.24 0,0.123 -0.037,0.225 -0.111,0.303 -0.073,0.078 -0.171,0.146 -0.293,0.205 -0.121,0.059 -0.26,0.111 -0.416,0.158 -0.156,0.045 -0.316,0.096 -0.478,0.151 -0.163,0.054 -0.322,0.119 -0.478,0.193 -0.156,0.074 -0.295,0.166 -0.416,0.279 -0.122,0.114 -0.22,0.252 -0.293,0.416 -0.074,0.166 -0.11,0.364 -0.11,0.598 0,0.215 0.042,0.422 0.127,0.617 0.086,0.195 0.212,0.365 0.378,0.51 0.166,0.146 0.373,0.264 0.622,0.35 0.248,0.087 0.536,0.13 0.861,0.13 0.363,0 0.694,-0.058 0.992,-0.179 0.299,-0.119 0.547,-0.278 0.745,-0.473 z" /></g><g
           transform="translate(77.6118,30.2901)"
           id="g128"><path
             id="path130"
             style="fill:#000000;fill-opacity:1;fill-rule:nonzero;stroke:none"
             d="m 0,0 c 0,1.394 -0.185,2.645 -0.553,3.751 -0.37,1.107 -0.903,2.044 -1.6,2.811 -0.697,0.768 -1.54,1.356 -2.53,1.767 -0.99,0.41 -2.106,0.614 -3.347,0.614 h -4.938 V -8.944 h 4.938 c 1.241,0 2.357,0.205 3.347,0.615 0.99,0.411 1.833,0.998 2.53,1.766 0.697,0.768 1.23,1.704 1.6,2.812 C -0.185,-2.645 0,-1.394 0,0 M 4.85,0 C 4.85,-1.863 4.539,-3.573 3.918,-5.131 3.297,-6.689 2.425,-8.03 1.3,-9.155 c -1.124,-1.124 -2.478,-1.997 -4.059,-2.618 -1.581,-0.621 -3.338,-0.931 -5.271,-0.931 h -9.682 v 25.408 h 9.682 c 1.933,0 3.69,-0.314 5.271,-0.94 C -1.178,11.137 0.176,10.264 1.3,9.146 2.425,8.027 3.297,6.688 3.918,5.131 4.539,3.573 4.85,1.862 4.85,0" /></g><g
           transform="translate(89.7183,32.4864)"
           id="g132"><path
             id="path134"
             style="fill:#000000;fill-opacity:1;fill-rule:nonzero;stroke:none"
             d="M 0,0 C 0.562,1.078 1.23,1.924 2.004,2.539 2.777,3.154 3.69,3.461 4.745,3.461 5.576,3.461 6.244,3.28 6.748,2.917 L 6.466,-0.334 C 6.408,-0.545 6.323,-0.694 6.211,-0.782 6.1,-0.87 5.951,-0.914 5.764,-0.914 c -0.176,0 -0.437,0.03 -0.782,0.088 -0.346,0.059 -0.682,0.088 -1.01,0.088 -0.481,0 -0.909,-0.07 -1.283,-0.211 C 2.314,-1.089 1.978,-1.292 1.679,-1.555 1.38,-1.819 1.116,-2.138 0.888,-2.513 0.66,-2.888 0.445,-3.315 0.247,-3.795 V -14.9 H -4.094 V 3.127 h 2.548 c 0.445,0 0.756,-0.078 0.931,-0.237 0.177,-0.158 0.293,-0.442 0.352,-0.852 z" /></g><g
           transform="translate(106.2002,20.6608)"
           id="g136"><path
             id="path138"
             style="fill:#000000;fill-opacity:1;fill-rule:nonzero;stroke:none"
             d="M 0,0 C 1.499,0 2.608,0.504 3.329,1.512 4.05,2.519 4.41,3.995 4.41,5.939 4.41,7.884 4.05,9.366 3.329,10.385 2.608,11.404 1.499,11.914 0,11.914 c -1.523,0 -2.65,-0.513 -3.383,-1.538 C -4.115,9.351 -4.48,7.872 -4.48,5.939 -4.48,4.007 -4.115,2.533 -3.383,1.521 -2.65,0.507 -1.523,0 0,0 m 0,15.234 c 1.335,0 2.551,-0.216 3.646,-0.65 C 4.741,14.151 5.678,13.536 6.457,12.739 7.236,11.942 7.836,10.97 8.258,9.823 8.68,8.674 8.891,7.392 8.891,5.975 8.891,4.545 8.68,3.257 8.258,2.108 7.836,0.961 7.236,-0.018 6.457,-0.825 5.678,-1.634 4.741,-2.255 3.646,-2.688 2.551,-3.121 1.335,-3.338 0,-3.338 c -1.348,0 -2.571,0.217 -3.673,0.65 -1.101,0.433 -2.041,1.054 -2.82,1.863 -0.778,0.807 -1.382,1.786 -1.809,2.933 -0.428,1.149 -0.642,2.437 -0.642,3.867 0,1.417 0.214,2.699 0.642,3.848 0.427,1.147 1.031,2.119 1.809,2.916 0.779,0.797 1.719,1.412 2.82,1.845 1.102,0.434 2.325,0.65 3.673,0.65" /></g><g
           transform="translate(126.3887,20.6608)"
           id="g140"><path
             id="path142"
             style="fill:#000000;fill-opacity:1;fill-rule:nonzero;stroke:none"
             d="m 0,0 c 1.499,0 2.609,0.504 3.33,1.512 0.721,1.007 1.08,2.483 1.08,4.427 0,1.945 -0.359,3.427 -1.08,4.446 -0.721,1.019 -1.831,1.529 -3.33,1.529 -1.522,0 -2.65,-0.513 -3.382,-1.538 C -4.115,9.351 -4.48,7.872 -4.48,5.939 -4.48,4.007 -4.115,2.533 -3.382,1.521 -2.65,0.507 -1.522,0 0,0 m 0,15.234 c 1.336,0 2.551,-0.216 3.646,-0.65 C 4.741,14.151 5.678,13.536 6.458,12.739 7.236,11.942 7.837,10.97 8.258,9.823 8.68,8.674 8.891,7.392 8.891,5.975 8.891,4.545 8.68,3.257 8.258,2.108 7.837,0.961 7.236,-0.018 6.458,-0.825 5.678,-1.634 4.741,-2.255 3.646,-2.688 2.551,-3.121 1.336,-3.338 0,-3.338 c -1.348,0 -2.571,0.217 -3.673,0.65 -1.1,0.433 -2.041,1.054 -2.819,1.863 -0.779,0.807 -1.383,1.786 -1.81,2.933 -0.428,1.149 -0.642,2.437 -0.642,3.867 0,1.417 0.214,2.699 0.642,3.848 0.427,1.147 1.031,2.119 1.81,2.916 0.778,0.797 1.719,1.412 2.819,1.845 1.102,0.434 2.325,0.65 3.673,0.65" /></g><g
           transform="translate(142.9404,22.2604)"
           id="g144"><path
             id="path146"
             style="fill:#000000;fill-opacity:1;fill-rule:nonzero;stroke:none"
             d="m 0,0 c 0.492,-0.598 1.028,-1.02 1.607,-1.266 0.581,-0.246 1.21,-0.369 1.889,-0.369 0.656,0 1.248,0.123 1.775,0.369 0.527,0.246 0.975,0.621 1.344,1.125 0.369,0.503 0.654,1.139 0.853,1.907 0.199,0.766 0.299,1.672 0.299,2.714 0,1.055 -0.086,1.948 -0.255,2.68 C 7.342,7.892 7.099,8.486 6.782,8.943 6.466,9.4 6.082,9.734 5.631,9.945 5.181,10.156 4.668,10.261 4.095,10.261 3.192,10.261 2.425,10.071 1.792,9.69 1.159,9.309 0.562,8.773 0,8.083 Z m -0.229,10.894 c 0.739,0.831 1.576,1.504 2.513,2.021 0.937,0.515 2.038,0.773 3.303,0.773 0.984,0 1.883,-0.206 2.697,-0.616 0.815,-0.409 1.518,-1.004 2.109,-1.783 C 10.984,10.51 11.441,9.55 11.764,8.407 12.085,7.265 12.247,5.956 12.247,4.48 12.247,3.133 12.064,1.886 11.702,0.737 11.339,-0.41 10.82,-1.406 10.147,-2.249 9.474,-3.093 8.659,-3.752 7.705,-4.227 6.75,-4.7 5.681,-4.937 4.498,-4.937 3.491,-4.937 2.63,-4.782 1.915,-4.473 1.2,-4.162 0.562,-3.731 0,-3.181 v -7.38 h -4.34 v 23.915 h 2.653 c 0.562,0 0.931,-0.264 1.107,-0.791 z" /></g><path
           id="path148"
           style="fill:#000000;fill-opacity:1;fill-rule:nonzero;stroke:none"
           d="m 162.954,17.587 h -4.341 v 26.11 h 4.341 z" /><g
           transform="translate(178.9082,28.6734)"
           id="g150"><path
             id="path152"
             style="fill:#000000;fill-opacity:1;fill-rule:nonzero;stroke:none"
             d="M 0,0 C 0,0.562 -0.08,1.092 -0.237,1.59 -0.396,2.088 -0.633,2.524 -0.949,2.899 -1.266,3.274 -1.667,3.57 -2.153,3.787 -2.64,4.003 -3.204,4.112 -3.849,4.112 -5.103,4.112 -6.089,3.754 -6.81,3.04 -7.529,2.325 -7.989,1.312 -8.188,0 Z m -8.276,-2.618 c 0.07,-0.926 0.234,-1.725 0.492,-2.399 0.257,-0.673 0.597,-1.229 1.018,-1.669 0.422,-0.439 0.922,-0.767 1.502,-0.984 0.58,-0.217 1.222,-0.325 1.925,-0.325 0.702,0 1.309,0.082 1.818,0.246 0.51,0.164 0.956,0.346 1.336,0.545 0.38,0.199 0.714,0.381 1.001,0.545 0.288,0.164 0.565,0.246 0.835,0.246 0.363,0 0.632,-0.135 0.809,-0.404 l 1.247,-1.582 c -0.48,-0.562 -1.019,-1.034 -1.616,-1.414 -0.599,-0.381 -1.222,-0.686 -1.872,-0.914 -0.651,-0.228 -1.312,-0.389 -1.986,-0.483 -0.673,-0.094 -1.326,-0.141 -1.959,-0.141 -1.253,0 -2.419,0.208 -3.496,0.624 -1.079,0.415 -2.015,1.031 -2.811,1.845 -0.798,0.814 -1.424,1.821 -1.881,3.022 -0.456,1.201 -0.686,2.592 -0.686,4.173 0,1.23 0.201,2.387 0.599,3.47 0.397,1.084 0.969,2.027 1.713,2.829 0.743,0.803 1.651,1.438 2.724,1.907 1.071,0.468 2.28,0.703 3.627,0.703 1.136,0 2.185,-0.182 3.146,-0.545 C 0.169,6.314 0.995,5.784 1.687,5.087 2.377,4.39 2.919,3.535 3.312,2.521 3.704,1.508 3.9,0.352 3.9,-0.949 3.9,-1.605 3.83,-2.047 3.689,-2.275 3.549,-2.504 3.279,-2.618 2.881,-2.618 Z" /></g><g
           transform="translate(190.1523,32.4864)"
           id="g154"><path
             id="path156"
             style="fill:#000000;fill-opacity:1;fill-rule:nonzero;stroke:none"
             d="M 0,0 C 0.562,1.078 1.23,1.924 2.004,2.539 2.777,3.154 3.69,3.461 4.745,3.461 5.576,3.461 6.244,3.28 6.748,2.917 L 6.467,-0.334 C 6.408,-0.545 6.323,-0.694 6.212,-0.782 6.101,-0.87 5.951,-0.914 5.764,-0.914 c -0.176,0 -0.437,0.03 -0.782,0.088 -0.345,0.059 -0.682,0.088 -1.01,0.088 -0.481,0 -0.909,-0.07 -1.284,-0.211 C 2.314,-1.089 1.978,-1.292 1.679,-1.555 1.38,-1.819 1.116,-2.138 0.888,-2.513 0.66,-2.888 0.445,-3.315 0.247,-3.795 V -14.9 h -4.34 V 3.127 h 2.547 c 0.445,0 0.756,-0.078 0.932,-0.237 0.176,-0.158 0.292,-0.442 0.351,-0.852 z" /></g></g></g></g></svg>