<svg id="Layer_1" data-name="Layer 1" xmlns="http://www.w3.org/2000/svg" xmlns:xlink="http://www.w3.org/1999/xlink" width="246" height="62" viewBox="0 0 246 62"><defs><style>.cls-1{fill:none;}.cls-2{fill:url(#linear-gradient);}.cls-3{fill:url(#linear-gradient-2);}.cls-4{fill:url(#linear-gradient-3);}.cls-5{fill:url(#linear-gradient-4);}.cls-6{fill:url(#linear-gradient-5);}.cls-7{fill:url(#linear-gradient-6);}.cls-8{fill:url(#linear-gradient-7);}.cls-9{fill:url(#linear-gradient-8);}.cls-10{fill:#fff;}</style><linearGradient id="linear-gradient" x1="-354.92" y1="-1513.4" x2="-354.23" y2="-1513.4" gradientTransform="translate(210313.85 -49244.4) rotate(-90) scale(138.95)" gradientUnits="userSpaceOnUse"><stop offset="0" stop-color="#00aeca"/><stop offset="1" stop-color="#004a81"/></linearGradient><linearGradient id="linear-gradient-2" x1="-350.81" y1="-1512.95" x2="-350.12" y2="-1512.95" gradientTransform="translate(161539.48 -37412.33) rotate(-90) scale(106.76)" xlink:href="#linear-gradient"/><linearGradient id="linear-gradient-3" x1="-354.92" y1="-1513.46" x2="-354.23" y2="-1513.46" xlink:href="#linear-gradient"/><linearGradient id="linear-gradient-4" x1="-350.81" y1="-1512.94" x2="-350.12" y2="-1512.94" gradientTransform="translate(161539.48 -37412.33) rotate(-90) scale(106.76)" xlink:href="#linear-gradient"/><linearGradient id="linear-gradient-5" x1="-354.92" y1="-1513.3" x2="-354.23" y2="-1513.3" xlink:href="#linear-gradient"/><linearGradient id="linear-gradient-6" x1="-354.92" y1="-1513.47" x2="-354.23" y2="-1513.47" xlink:href="#linear-gradient"/><linearGradient id="linear-gradient-7" x1="34.65" y1="12.11" x2="21.56" y2="40.35" gradientTransform="matrix(1, 0, 0, -1, 0, 64)" xlink:href="#linear-gradient"/><linearGradient id="linear-gradient-8" x1="21.27" y1="32.69" x2="31.51" y2="32.69" gradientTransform="matrix(1, 0, 0, -1, 0, 64)" gradientUnits="userSpaceOnUse"><stop offset="0" stop-color="#f2934c"/><stop offset="0.5" stop-color="#ec6d05"/><stop offset="1" stop-color="#d25817"/></linearGradient></defs><title>logo droopler -01</title><g id="Layer_1-2" data-name="Layer 1"><path d="M88.6,30.71c0,10.9-5.45,16.65-15.75,16.65H61.35V14h11.5C83.15,14,88.6,19.76,88.6,30.71Zm-6,0c0-8-2.8-11.25-9.75-11.25h-5.5V41.91h5.5C79.8,41.91,82.6,38.66,82.6,30.71Z"/><path d="M105.9,22v5.2a24.86,24.86,0,0,0-6.45.85v19.3h-6V24.66A33.71,33.71,0,0,1,105.9,22Z"/><path d="M131.25,34.91c0,8.3-4.2,12.85-11.8,12.85s-11.8-4.55-11.8-12.85,4.2-12.85,11.8-12.85S131.25,26.61,131.25,34.91Zm-6,0c0-6.6-2.25-7.9-5.8-7.9s-5.8,1.3-5.8,7.9,2.25,7.9,5.8,7.9S125.25,41.51,125.25,34.91Z"/><path d="M157.55,34.91c0,8.3-4.2,12.85-11.8,12.85S134,43.21,134,34.91s4.2-12.85,11.8-12.85S157.55,26.61,157.55,34.91Zm-6,0c0-6.6-2.25-7.9-5.8-7.9s-5.8,1.3-5.8,7.9,2.25,7.9,5.8,7.9S151.55,41.51,151.55,34.91Z"/><path d="M183.1,35.21c0,8.15-4.15,12.65-11.6,12.65a18.72,18.72,0,0,1-4.1-.45v9.2h-6V30.46c0-4,2.75-8.4,10.5-8.4C175.25,22.06,183.1,23.36,183.1,35.21Zm-6.05.3c0-5.7-1.3-8.3-5.15-8.3-2.65,0-4.5.6-4.5,2.7v13a25.16,25.16,0,0,0,3.7.3C174.7,43.21,177.05,41.56,177.05,35.51Z"/><path d="M188,47.36V12.91h6V47.36Z"/><path d="M220.05,40.66v4.85a19.42,19.42,0,0,1-9.4,2.25c-5,0-11.6-2-11.6-12.6,0-7.45,3-13.2,11.15-13.2,7.8,0,11.15,5.85,11.15,12.1,0,1.1,0,2.1-.1,3.1h-16c.35,4.8,3.45,5.45,6.35,5.45A19.56,19.56,0,0,0,220.05,40.66ZM205.2,33h10.05c-.3-3.15-1.85-6.15-5.05-6.15C207.25,26.86,205.55,28.56,205.2,33Z"/><path d="M237.7,22v5.2a24.86,24.86,0,0,0-6.45.85v19.3h-6V24.66A33.71,33.71,0,0,1,237.7,22Z"/><path class="cls-1" d="M34.4,25.54c-2.54-3.11-4.57-3.1-5.87-3.84a14.07,14.07,0,0,1-2.9-3A3.28,3.28,0,0,1,25,20.57a9.88,9.88,0,0,1-3.13,2.14,9.74,9.74,0,0,0-5.47,8.84,10.15,10.15,0,0,0,2.52,6.56,9.66,9.66,0,0,0,6,3.23,10.1,10.1,0,0,0,1.46.11A10.21,10.21,0,0,0,33.18,39a9.57,9.57,0,0,0,3.21-7.5,10.8,10.8,0,0,0-.23-2.22,9.31,9.31,0,0,0-.51-1.68A8.44,8.44,0,0,0,34.4,25.54Z"/><path class="cls-2" d="M22.14,40.53a9.83,9.83,0,0,1-3.21-2.42,10.15,10.15,0,0,1-2.52-6.56,9.74,9.74,0,0,1,5.47-8.84A9.88,9.88,0,0,0,25,20.57a3.28,3.28,0,0,0,.61-1.92,14.07,14.07,0,0,0,2.9,3c1.3.74,3.32.74,5.87,3.84a8.44,8.44,0,0,1,1.25,2.11,45,45,0,0,1,9.53-6.12l.92-.39a19.5,19.5,0,0,0-5.94-9.29c-.2-.18-.41-.35-.62-.51V11h-.36A14.87,14.87,0,0,0,34,8.52a27.94,27.94,0,0,0-4.84-.76C24,12.13,19.39,17.3,14.76,21.67c-2.2,2.08-4.52,4.43-7,6.75v19A13.93,13.93,0,0,0,8.18,51a3.55,3.55,0,0,0,1.15,1.79c3.51-3.14,6.78-6.51,9.82-9.38C20.14,42.51,21.14,41.53,22.14,40.53Z"/><path class="cls-3" d="M18.9,16c2.48-2.64,5-5.51,7.5-8.4H13.54A6,6,0,0,0,9.14,9a6,6,0,0,0-1.36,4.4V28C11.77,24,15.46,19.7,18.9,16Z"/><path class="cls-4" d="M29.13,7.76c-.87-.07-1.78-.1-2.73-.12-2.54,2.89-5,5.76-7.5,8.4-3.44,3.66-7.13,8-11.12,12v.43c2.46-2.32,4.78-4.67,7-6.75C19.39,17.3,24,12.13,29.13,7.76Z"/><path class="cls-5" d="M29.13,7.76c-.87-.07-1.78-.1-2.73-.12-2.54,2.89-5,5.76-7.5,8.4-3.44,3.66-7.13,8-11.12,12v.43c2.46-2.32,4.78-4.67,7-6.75C19.39,17.3,24,12.13,29.13,7.76Z"/><path class="cls-6" d="M35.65,27.65a9.31,9.31,0,0,1,.51,1.68,52.65,52.65,0,0,1,10.09-7.66l-.16-.53-.92.39A45,45,0,0,0,35.65,27.65Z"/><path class="cls-7" d="M25,41.34a9.8,9.8,0,0,1-2.81-.82c-1,1-2,2-3,2.92-3,2.87-6.31,6.25-9.82,9.38a4,4,0,0,0,.55.39A7.4,7.4,0,0,0,13.5,54c1.87-2,3.66-4.06,5.4-5.9C20.91,46,22.92,43.67,25,41.34Z"/><path class="cls-8" d="M46.26,21.67l-.16-.53-.92.39a45,45,0,0,0-9.53,6.12,9.31,9.31,0,0,1,.51,1.68,10.8,10.8,0,0,1,.23,2.22A9.57,9.57,0,0,1,33.18,39a10.21,10.21,0,0,1-6.78,2.4,10.1,10.1,0,0,1-1.4-.06,9.8,9.8,0,0,1-2.81-.82c-1,1-2,2-3,2.92-3,2.87-6.31,6.25-9.82,9.38a4,4,0,0,0,.55.39A7.4,7.4,0,0,0,13.5,54H26a36.35,36.35,0,0,0,5.74-.41,18.43,18.43,0,0,0,4.76-1.42,16.07,16.07,0,0,0,4.08-2.69,19.29,19.29,0,0,0,3.89-5,22.53,22.53,0,0,0,2.24-6.21,37,37,0,0,0,.73-7.62A32.87,32.87,0,0,0,46.26,21.67Z"/><circle class="cls-9" cx="26.39" cy="31.31" r="5.12"/><circle class="cls-10" cx="26.39" cy="31.31" r="1.68"/></g></svg>