<?xml version="1.0" encoding="UTF-8" standalone="no"?>
<svg
   xmlns:dc="http://purl.org/dc/elements/1.1/"
   xmlns:cc="http://creativecommons.org/ns#"
   xmlns:rdf="http://www.w3.org/1999/02/22-rdf-syntax-ns#"
   xmlns:svg="http://www.w3.org/2000/svg"
   xmlns="http://www.w3.org/2000/svg"
   xmlns:sodipodi="http://sodipodi.sourceforge.net/DTD/sodipodi-0.dtd"
   xmlns:inkscape="http://www.inkscape.org/namespaces/inkscape"
   id="Layer_1"
   data-name="Layer 1"
   viewBox="0 0 218.19 49.915153"
   version="1.1"
   sodipodi:docname="logo.svg"
   width="218.19"
   height="49.915154"
   inkscape:version="0.92.3 (2405546, 2018-03-11)">
  <metadata
     id="metadata29">
    <rdf:RDF>
      <cc:Work
         rdf:about="">
        <dc:format>image/svg+xml</dc:format>
        <dc:type
           rdf:resource="http://purl.org/dc/dcmitype/StillImage" />
        <dc:title>logo droopler</dc:title>
      </cc:Work>
    </rdf:RDF>
  </metadata>
  <defs
     id="defs27" />
  <sodipodi:namedview
     pagecolor="#ffffff"
     bordercolor="#666666"
     borderopacity="1"
     objecttolerance="10"
     gridtolerance="10"
     guidetolerance="10"
     inkscape:pageopacity="0"
     inkscape:pageshadow="2"
     inkscape:window-width="1371"
     inkscape:window-height="734"
     id="namedview25"
     showgrid="false"
     fit-margin-top="0"
     fit-margin-left="0"
     fit-margin-right="0"
     fit-margin-bottom="0"
     inkscape:zoom="2.1112205"
     inkscape:cx="107.76068"
     inkscape:cy="-51.871854"
     inkscape:window-x="0"
     inkscape:window-y="0"
     inkscape:window-maximized="0"
     inkscape:current-layer="Layer_1" />
  <title
     id="title2">logo droopler</title>
  <path
     d="m 84.67,25.2 a 16.12,16.12 0 0 1 -1.08,6 13.52,13.52 0 0 1 -7.79,7.75 16.83,16.83 0 0 1 -6.15,1.08 H 58.35 V 10.38 h 11.3 a 16.62,16.62 0 0 1 6.15,1.1 13.47,13.47 0 0 1 7.79,7.74 16.07,16.07 0 0 1 1.08,5.98 z m -5.66,0 a 13.8,13.8 0 0 0 -0.64,-4.37 8.86,8.86 0 0 0 -1.87,-3.28 8,8 0 0 0 -3,-2.07 10.27,10.27 0 0 0 -3.9,-0.71 h -5.71 v 20.92 h 5.76 a 10.08,10.08 0 0 0 3.9,-0.72 8.14,8.14 0 0 0 3,-2.06 9,9 0 0 0 1.87,-3.28 A 13.82,13.82 0 0 0 79,25.2 Z"
     id="path4"
     inkscape:connector-curvature="0" />
  <path
     d="m 93.14,22.69 a 8.88,8.88 0 0 1 2.34,-3 5,5 0 0 1 3.19,-1.08 3.88,3.88 0 0 1 2.34,0.64 l -0.33,3.79 a 1,1 0 0 1 -0.29,0.52 0.86,0.86 0 0 1 -0.53,0.16 6,6 0 0 1 -0.91,-0.11 8.06,8.06 0 0 0 -1.18,-0.1 4,4 0 0 0 -1.49,0.25 3.8,3.8 0 0 0 -1.18,0.7 4.91,4.91 0 0 0 -0.93,1.12 11.65,11.65 0 0 0 -0.74,1.5 v 12.94 h -5.07 v -21 h 3 a 1.6,1.6 0 0 1 1.09,0.28 1.58,1.58 0 0 1 0.41,1 z"
     id="path6"
     inkscape:connector-curvature="0" />
  <path
     d="m 112.37,18.69 a 11.56,11.56 0 0 1 4.25,0.76 9.11,9.11 0 0 1 5.38,5.53 14.05,14.05 0 0 1 0,9 9.57,9.57 0 0 1 -2.1,3.42 9.13,9.13 0 0 1 -3.28,2.17 11.36,11.36 0 0 1 -4.25,0.76 11.57,11.57 0 0 1 -4.29,-0.76 9.17,9.17 0 0 1 -3.29,-2.17 9.73,9.73 0 0 1 -2.11,-3.42 12.85,12.85 0 0 1 -0.75,-4.51 12.74,12.74 0 0 1 0.75,-4.49 9.14,9.14 0 0 1 5.4,-5.56 11.78,11.78 0 0 1 4.29,-0.73 z m 0,17.78 a 4.44,4.44 0 0 0 3.88,-1.78 8.81,8.81 0 0 0 1.26,-5.16 9,9 0 0 0 -1.26,-5.19 4.42,4.42 0 0 0 -3.88,-1.78 4.54,4.54 0 0 0 -4,1.79 8.88,8.88 0 0 0 -1.28,5.18 8.76,8.76 0 0 0 1.33,5.16 4.54,4.54 0 0 0 3.95,1.75 z"
     id="path8"
     inkscape:connector-curvature="0" />
  <path
     d="m 135.92,18.69 a 11.62,11.62 0 0 1 4.26,0.76 9.11,9.11 0 0 1 5.38,5.56 13,13 0 0 1 0.73,4.49 13.09,13.09 0 0 1 -0.73,4.51 9.71,9.71 0 0 1 -2.1,3.42 9.22,9.22 0 0 1 -3.28,2.17 12.38,12.38 0 0 1 -8.54,0 9.09,9.09 0 0 1 -3.29,-2.17 9.59,9.59 0 0 1 -2.11,-3.42 12.85,12.85 0 0 1 -0.75,-4.51 12.74,12.74 0 0 1 0.75,-4.49 9.14,9.14 0 0 1 5.4,-5.56 11.69,11.69 0 0 1 4.28,-0.76 z m 0,17.78 a 4.46,4.46 0 0 0 3.89,-1.78 8.81,8.81 0 0 0 1.26,-5.16 9,9 0 0 0 -1.26,-5.19 4.44,4.44 0 0 0 -3.89,-1.78 4.53,4.53 0 0 0 -3.92,1.77 8.8,8.8 0 0 0 -1.29,5.18 8.68,8.68 0 0 0 1.29,5.18 4.52,4.52 0 0 0 3.92,1.75 z"
     id="path10"
     inkscape:connector-curvature="0" />
  <path
     d="m 155,21.86 a 11,11 0 0 1 2.93,-2.36 7.88,7.88 0 0 1 3.85,-0.9 6.88,6.88 0 0 1 3.15,0.72 7.06,7.06 0 0 1 2.46,2.08 10.09,10.09 0 0 1 1.6,3.36 17.14,17.14 0 0 1 0.56,4.58 14.56,14.56 0 0 1 -0.63,4.37 10.66,10.66 0 0 1 -1.82,3.48 8.36,8.36 0 0 1 -2.85,2.31 8.19,8.19 0 0 1 -3.74,0.83 7.53,7.53 0 0 1 -3,-0.54 7.37,7.37 0 0 1 -2.24,-1.51 v 8.61 h -5.06 v -27.9 h 3.09 a 1.26,1.26 0 0 1 1.3,0.92 z m 0.26,12.71 a 5,5 0 0 0 1.88,1.48 5.68,5.68 0 0 0 2.2,0.43 4.91,4.91 0 0 0 2.07,-0.43 4.05,4.05 0 0 0 1.59,-1.36 6.52,6.52 0 0 0 1,-2.22 12.82,12.82 0 0 0 0.34,-3.17 14.52,14.52 0 0 0 -0.29,-3.12 6.18,6.18 0 0 0 -0.85,-2.08 3.27,3.27 0 0 0 -1.35,-1.17 4.09,4.09 0 0 0 -1.79,-0.37 5.09,5.09 0 0 0 -2.69,0.67 8.17,8.17 0 0 0 -2.09,1.87 z"
     id="path12"
     inkscape:connector-curvature="0" />
  <path
     d="m 178.58,9.56 v 30.46 h -5.06 V 9.56 Z"
     id="path14"
     inkscape:connector-curvature="0" />
  <path
     d="m 187.54,30.14 a 10,10 0 0 0 0.57,2.8 5.69,5.69 0 0 0 1.19,2 4.85,4.85 0 0 0 1.76,1.15 6.38,6.38 0 0 0 2.24,0.38 7,7 0 0 0 2.12,-0.29 8.85,8.85 0 0 0 1.58,-0.69 l 1.17,-0.63 a 2,2 0 0 1 1,-0.29 1.07,1.07 0 0 1 0.95,0.47 l 1.45,1.85 a 8.88,8.88 0 0 1 -1.88,1.65 10.52,10.52 0 0 1 -2.19,1.06 11.81,11.81 0 0 1 -2.31,0.57 16.55,16.55 0 0 1 -2.29,0.16 11.16,11.16 0 0 1 -4.08,-0.73 9,9 0 0 1 -3.28,-2.15 10,10 0 0 1 -2.19,-3.52 13.55,13.55 0 0 1 -0.8,-4.87 11.72,11.72 0 0 1 0.69,-4 9.67,9.67 0 0 1 2,-3.3 9.45,9.45 0 0 1 3.18,-2.23 10.57,10.57 0 0 1 4.18,-0.84 10.36,10.36 0 0 1 3.67,0.64 7.93,7.93 0 0 1 2.89,1.85 8.69,8.69 0 0 1 1.9,3 11.09,11.09 0 0 1 0.69,4 3.29,3.29 0 0 1 -0.25,1.54 1,1 0 0 1 -0.94,0.4 z m 9.66,-3.05 a 6.29,6.29 0 0 0 -0.28,-1.86 4.39,4.39 0 0 0 -0.83,-1.52 3.82,3.82 0 0 0 -1.41,-1 4.81,4.81 0 0 0 -2,-0.38 4.71,4.71 0 0 0 -3.46,1.25 6.15,6.15 0 0 0 -1.61,3.55 z"
     id="path16"
     inkscape:connector-curvature="0" />
  <path
     d="m 210.32,22.69 a 9,9 0 0 1 2.33,-3 5,5 0 0 1 3.2,-1.08 3.88,3.88 0 0 1 2.34,0.64 l -0.33,3.79 a 1,1 0 0 1 -0.3,0.52 0.83,0.83 0 0 1 -0.56,0.13 5.85,5.85 0 0 1 -0.91,-0.11 8.17,8.17 0 0 0 -1.18,-0.1 4.14,4.14 0 0 0 -1.5,0.25 3.8,3.8 0 0 0 -1.18,0.7 4.88,4.88 0 0 0 -0.92,1.12 10.48,10.48 0 0 0 -0.75,1.5 v 12.97 h -5.06 v -21 h 3 a 1.23,1.23 0 0 1 1.5,1.27 z"
     id="path18"
     inkscape:connector-curvature="0" />
  <path
     d="m 15.93,5.99 v 0 l 2.79,5.14 -5.57,9.56 a 10.42,10.42 0 1 0 17.68,0 L 19.53,0 H 0 Z m 6.18,11.28 3.55,6.52 0.06,0.09 a 4.38,4.38 0 0 1 0.68,2.36 4.42,4.42 0 1 1 -8.84,0 4.38,4.38 0 0 1 0.68,-2.36 z"
     id="path20"
     inkscape:connector-curvature="0"
     style="fill:#196dba" />
  <path
     d="m 26.14,0.44 h -0.26 -0.36 l 3.91,7.19 c 7,2.86 11.29,9.3 11.29,17.37 0,11 -8.37,19 -19.91,19 H 6 V 5.99 h 9.94 L 0,0 V 0 49.91 H 20.81 A 26.43,26.43 0 0 0 39.33,42.84 24.49,24.49 0 0 0 46.71,24.95 24.27,24.27 0 0 0 26.14,0.44 Z"
     id="path22"
     inkscape:connector-curvature="0"
     style="fill:#15a6ff" />
</svg>
