<svg height="512pt" viewBox="0 0 512.00583 512" width="512pt" xmlns="http://www.w3.org/2000/svg"><path d="m238.351562 335.453125h35.308594c4.875 0 8.828125 3.949219 8.828125 8.824219v35.3125c0 4.875-3.953125 8.828125-8.828125 8.828125h-35.308594c-4.875 0-8.828124-3.953125-8.828124-8.828125v-35.3125c0-4.875 3.953124-8.824219 8.828124-8.824219zm0 0" fill="#E3391E"/><path d="m238.351562 114.761719h35.308594c4.875 0 8.828125 3.953125 8.828125 8.828125v158.894531c0 4.875-3.953125 8.828125-8.828125 8.828125h-35.308594c-4.875 0-8.828124-3.953125-8.828124-8.828125v-158.894531c0-4.875 3.953124-8.828125 8.828124-8.828125zm0 0" fill="#E3391E"/><g fill="#CC5525"><path d="m52.972656 256.003906c-.019531 53.847656 21.386719 105.492188 59.496094 143.535156 10.402344 10.375 21.886719 19.609376 34.25 27.542969l32.425781-32.421875c2.523438-2.527344 6.320313-3.28125 9.617188-1.914062 3.300781 1.367187 5.449219 4.585937 5.449219 8.15625v102.273437c0 4.875-3.949219 8.828125-8.824219 8.828125h-102.277344c-3.570313 0-6.789063-2.152344-8.15625-5.449218-1.363281-3.300782-.609375-7.097657 1.914063-9.621094l31.71875-31.71875c-11.949219-8.464844-23.171876-17.914063-33.546876-28.246094-63.820312-63.761719-89.351562-156.417969-67.195312-243.871094 22.152344-87.453125 88.722656-156.777344 175.203125-182.460937 2.660156-.742188 5.511719-.195313 7.707031 1.480469 2.195313 1.675781 3.476563 4.285156 3.457032 7.046874v37.246094c-.019532 3.742188-2.40625 7.0625-5.945313 8.273438-81.027344 28.738281-135.203125 105.347656-135.292969 191.320312zm0 0"/><path d="m512.003906 256.003906c-.140625 113.230469-74.539062 212.964844-183.039062 245.367188-2.660156.742187-5.511719.191406-7.707032-1.484375-2.195312-1.675781-3.476562-4.285157-3.457031-7.046875v-37.246094c.019531-3.742188 2.40625-7.058594 5.945313-8.269531 65.710937-23.226563 114.902344-78.546875 130.285156-146.519531 15.386719-67.96875-5.1875-139.082032-54.488281-188.339844-10.402344-10.371094-21.886719-19.605469-34.25-27.539063l-32.425781 32.421875c-2.523438 2.523438-6.320313 3.28125-9.617188 1.914063-3.300781-1.367188-5.449219-4.585938-5.449219-8.15625v-102.273438c0-4.875 3.949219-8.82812475 8.824219-8.82812475h102.277344c3.570312 0 6.789062 2.14843775 8.152344 5.44921875 1.367187 3.296875.613281 7.09375-1.910157 9.621094l-31.71875 31.714843c11.949219 8.464844 23.171875 17.914063 33.546875 28.25 48.074219 47.945313 75.074219 113.066407 75.03125 180.964844zm0 0"/></g></svg>
