<?xml version="1.0" encoding="UTF-8" standalone="no"?>
<svg
   xmlns:dc="http://purl.org/dc/elements/1.1/"
   xmlns:cc="http://creativecommons.org/ns#"
   xmlns:rdf="http://www.w3.org/1999/02/22-rdf-syntax-ns#"
   xmlns:svg="http://www.w3.org/2000/svg"
   xmlns="http://www.w3.org/2000/svg"
   xmlns:sodipodi="http://sodipodi.sourceforge.net/DTD/sodipodi-0.dtd"
   xmlns:inkscape="http://www.inkscape.org/namespaces/inkscape"
   height="16"
   version="1.1"
   viewBox="0 0 16 16"
   width="16"
   id="svg11"
   sodipodi:docname="alert.svg"
   inkscape:version="0.92.3 (2405546, 2018-03-11)">
  <metadata
     id="metadata15">
    <rdf:RDF>
      <cc:Work
         rdf:about="">
        <dc:format>image/svg+xml</dc:format>
        <dc:type
           rdf:resource="http://purl.org/dc/dcmitype/StillImage" />
        <dc:title></dc:title>
      </cc:Work>
    </rdf:RDF>
  </metadata>
  <sodipodi:namedview
     pagecolor="#ffffff"
     bordercolor="#666666"
     borderopacity="1"
     objecttolerance="10"
     gridtolerance="10"
     guidetolerance="10"
     inkscape:pageopacity="0"
     inkscape:pageshadow="2"
     inkscape:window-width="1920"
     inkscape:window-height="1043"
     id="namedview13"
     showgrid="false"
     inkscape:zoom="14.75"
     inkscape:cx="-7.1723286"
     inkscape:cy="9.4574975"
     inkscape:window-x="0"
     inkscape:window-y="0"
     inkscape:window-maximized="1"
     inkscape:current-layer="svg11" />
  <desc
     id="desc4" />
  <defs
     id="defs6" />
  <g
     id="Page-1"
     style="fill:#ff0000;fill-rule:evenodd;stroke:none;stroke-width:1.77202952"
     transform="matrix(0.56432463,0,0,0.56432463,-0.96278128,-1.0026982)">
    <g
       id="icon-61-warning"
       style="fill:#ff0000;stroke-width:1.77202952">
      <path
         d="m 14.307797,6.0544896 c 0.870066,-1.407663 2.282795,-1.4043083 3.150788,0 L 28.243674,23.503477 c 1.161529,1.879215 0.315436,3.40262 -1.888703,3.40262 H 5.4114106 c -2.2046308,0 -3.0539832,-1.517336 -1.888703,-3.40262 z m 1.575767,5.8516074 c -0.552284,0 -1,0.453036 -1,0.99703 v 6.00594 c 0,0.550644 0.443865,0.99703 1,0.99703 0.552285,0 1,-0.453036 1,-0.99703 v -6.00594 c 0,-0.550644 -0.443865,-0.99703 -1,-0.99703 z m 0,12 c 0.552285,0 1,-0.447715 1,-1 0,-0.552285 -0.447715,-1 -1,-1 -0.552284,0 -1,0.447715 -1,1 0,0.552285 0.447716,1 1,1 z"
         id="warning"
         style="fill:#ff0000;stroke-width:1.77202952"
         inkscape:connector-curvature="0" />
    </g>
  </g>
</svg>
