<svg width="64" height="64" viewBox="0 0 64 64" fill="none" xmlns="http://www.w3.org/2000/svg">
<g clip-path="url(#clip0_42_4455)">
<path d="M50.7358 28.2032H42.6994V20.0047C42.6994 19.8489 42.5731 19.7227 42.4174 19.7227H34.0084H25.5994C25.4436 19.7227 25.3174 19.8489 25.3174 20.0047V28.2032V36.9337H34.0084H42.6994H51.3904V28.8579C51.3905 28.4963 51.0974 28.2032 50.7358 28.2032Z" fill="#FFB703"/>
<path d="M51.3902 36.9336H42.6992V28.2031H50.7355C51.0971 28.2031 51.3902 28.4963 51.3902 28.8579V36.9336Z" fill="#FB8500"/>
<path d="M34.0086 28.2021H25.3174V36.9326H34.0086V28.2021Z" fill="#FB8500"/>
<path d="M42.6993 28.2032H34.0083V19.7227H42.4173C42.5731 19.7227 42.6993 19.8489 42.6993 20.0047V28.2032Z" fill="#FB8500"/>
<path d="M12.8832 18.0818V11.7707C12.8832 11.2307 12.4456 10.793 11.9055 10.793C11.3654 10.793 10.9277 11.2307 10.9277 11.7707V18.0818H12.8832Z" fill="#B5BCBF"/>
<path d="M20.3904 27.876H3.42041V37.3644H20.3904V27.876Z" fill="#F5F7F9"/>
<path d="M20.3907 27.876H13.1436V37.3644H20.3907V27.876Z" fill="#D0DBDF"/>
<path d="M53.3309 34.9973C53.3309 35.9208 52.5823 36.6696 51.6587 36.6696H0.707187C0.258812 36.6696 -0.0771881 37.0816 0.0154369 37.5203C0.530062 39.9563 1.78094 43.1832 4.71131 46.4557C5.26256 47.0713 5.38619 47.9601 5.03006 48.7057L3.45131 52.0111C3.18631 52.5658 3.59081 53.2071 4.20544 53.2071H54.6088C54.9309 53.2071 55.2242 53.0209 55.3612 52.7293L63.9201 34.5098C64.1791 33.9586 63.7768 33.3252 63.1677 33.3252H55.0031C54.0796 33.3252 53.3309 34.0738 53.3309 34.9973Z" fill="#219EBC"/>
<path d="M63.1675 33.3252H56.5889L47.249 53.2072H54.6085C54.9308 53.2072 55.2239 53.0211 55.3609 52.7294L63.9198 34.5099C64.1789 33.9586 63.7766 33.3252 63.1675 33.3252Z" fill="#0E88A5"/>
<path d="M17.5107 27.0375H6.2998V17.9671C6.2998 17.7037 6.5133 17.4902 6.77668 17.4902H17.0338C17.2972 17.4902 17.5107 17.7037 17.5107 17.9671V27.0375Z" fill="#F5F7F9"/>
<path d="M17.0339 17.4902H10.2637V27.0375H17.5108V17.9671C17.5108 17.7037 17.2974 17.4902 17.0339 17.4902Z" fill="#D0DBDF"/>
<path d="M21.3553 29.0243H2.45595C2.28582 29.0243 2.14795 28.8864 2.14795 28.7163V26.3529C2.14795 26.1828 2.28582 26.0449 2.45595 26.0449H21.3553C21.5254 26.0449 21.6633 26.1828 21.6633 26.3529V28.7163C21.6633 28.8864 21.5254 29.0243 21.3553 29.0243Z" fill="#B5BCBF"/>
<path d="M21.3551 26.0449H14.416V29.0243H21.3551C21.5253 29.0243 21.6631 28.8864 21.6631 28.7163V26.3529C21.6631 26.1828 21.5253 26.0449 21.3551 26.0449Z" fill="#A8ADAE"/>
<path d="M5.1928 47.4297C5.27443 47.8527 5.22368 48.3002 5.03005 48.7056L3.4513 52.0109C3.1863 52.5657 3.5908 53.2069 4.20543 53.2069H54.6088C54.9309 53.2069 55.2242 53.0208 55.3612 52.7292L57.8507 47.4297H5.1928Z" fill="#8ECAE6"/>
<path d="M49.963 47.4298L47.249 53.2071H54.6085C54.6488 53.2071 54.6886 53.2042 54.7278 53.1984C54.806 53.1871 54.8814 53.1648 54.952 53.1327C55.0226 53.1006 55.0885 53.0588 55.1475 53.0086C55.2361 52.9331 55.3094 52.8386 55.3608 52.7292L57.8503 47.4297L49.963 47.4298Z" fill="#219EBC"/>
</g>
<defs>
<clipPath id="clip0_42_4455">
<rect width="64" height="64" fill="white"/>
</clipPath>
</defs>
</svg>
