<svg width="64" height="64" viewBox="0 0 64 64" fill="none" xmlns="http://www.w3.org/2000/svg">
<g clip-path="url(#clip0_42_4359)">
<path d="M57.576 8.66408C57.576 6.7107 55.9926 5.1272 54.0392 5.12695H3.53713C1.58363 5.12695 0 6.71058 0 8.66408V23.452H57.576V8.66408Z" fill="#FB8500"/>
<path d="M56.8677 8.66408V23.452H63.9999V8.66408C63.9999 6.71058 62.4163 5.12695 60.4628 5.12695H53.3306C55.2841 5.12695 56.8677 6.71058 56.8677 8.66408Z" fill="#D87200"/>
<path d="M57.576 55.3368V15.7739C57.576 13.3985 55.6505 11.4729 53.2751 11.4727H48.6455C46.9751 11.4727 45.4558 12.4398 44.7486 13.9533C44.0415 15.4667 42.5221 16.4338 40.8517 16.4338H4.30125C1.92575 16.4338 0 18.3595 0 20.735V55.3368C0 57.2903 1.58363 58.8739 3.53713 58.8739H54.0391C55.9925 58.8737 57.576 57.2902 57.576 55.3368Z" fill="#FFB703"/>
<path d="M59.6987 11.4727H52.5664C54.9419 11.4727 56.8677 13.3984 56.8677 15.7739V55.3368C56.8677 57.2903 55.284 58.8739 53.3305 58.8739H60.4629C62.4164 58.8739 64 57.2903 64 55.3368V15.7739C63.9999 13.3984 62.0742 11.4727 59.6987 11.4727Z" fill="#EAA700"/>
<path d="M40.8177 37.5736C40.8177 30.4558 36.0356 24.4555 29.5092 22.6084C22.3163 23.7968 16.8301 30.044 16.8301 37.5736C16.8301 45.1033 22.3163 51.3505 29.5092 52.5389C36.0356 50.6918 40.8177 44.6916 40.8177 37.5736Z" fill="white"/>
<path d="M31.9999 22.4033C30.8046 22.4033 29.6425 22.5437 28.5269 22.8052C35.2272 24.3784 40.216 30.3929 40.216 37.5733C40.216 44.7537 35.2272 50.7682 28.5269 52.3414C29.6424 52.6029 30.8045 52.7433 31.9997 52.7433C40.3779 52.7433 47.1697 45.9514 47.1697 37.5733C47.1697 29.1952 40.378 22.4033 31.9999 22.4033Z" fill="#F5F7F9"/>
<path d="M35.4633 36.7575V30.8078C35.4633 30.284 35.0387 29.8594 34.5149 29.8594H29.4798C28.9559 29.8594 28.5312 30.2842 28.5314 30.8081L28.5338 36.757C28.5341 37.2809 28.1093 37.7058 27.5854 37.7058H23.8932C23.0182 37.7058 22.6099 38.7896 23.2676 39.3669L31.3743 46.4826C31.7322 46.7968 32.2677 46.7968 32.6256 46.4826L40.7323 39.3669C41.3899 38.7896 40.9817 37.7058 40.1067 37.7058H36.4117C35.8879 37.7059 35.4633 37.2813 35.4633 36.7575Z" fill="#219EBC"/>
</g>
<defs>
<clipPath id="clip0_42_4359">
<rect width="64" height="64" fill="white"/>
</clipPath>
</defs>
</svg>
