<?xml version="1.0" encoding="UTF-8" standalone="no"?>
<svg
   xmlns:dc="http://purl.org/dc/elements/1.1/"
   xmlns:cc="http://creativecommons.org/ns#"
   xmlns:rdf="http://www.w3.org/1999/02/22-rdf-syntax-ns#"
   xmlns:svg="http://www.w3.org/2000/svg"
   xmlns="http://www.w3.org/2000/svg"
   xmlns:sodipodi="http://sodipodi.sourceforge.net/DTD/sodipodi-0.dtd"
   xmlns:inkscape="http://www.inkscape.org/namespaces/inkscape"
   id="Layer_1"
   data-name="Layer 1"
   viewBox="0 0 50 50"
   version="1.1"
   sodipodi:docname="d_demo_icon_contact.svg"
   width="100"
   height="100"
   inkscape:version="0.92.3 (2405546, 2018-03-11)">
  <metadata
     id="metadata13">
    <rdf:RDF>
      <cc:Work
         rdf:about="">
        <dc:format>image/svg+xml</dc:format>
        <dc:type
           rdf:resource="http://purl.org/dc/dcmitype/StillImage" />
        <dc:title>ikona</dc:title>
      </cc:Work>
    </rdf:RDF>
  </metadata>
  <sodipodi:namedview
     pagecolor="#ffffff"
     bordercolor="#666666"
     borderopacity="1"
     objecttolerance="10"
     gridtolerance="10"
     guidetolerance="10"
     inkscape:pageopacity="0"
     inkscape:pageshadow="2"
     inkscape:window-width="1920"
     inkscape:window-height="1001"
     id="namedview11"
     showgrid="false"
     inkscape:zoom="6.8109665"
     inkscape:cx="38.464391"
     inkscape:cy="17.441711"
     inkscape:window-x="3840"
     inkscape:window-y="0"
     inkscape:window-maximized="1"
     inkscape:current-layer="Layer_1" />
  <defs
     id="defs4">
    <style
       id="style2">.cls-1{fill:#ac0000;}</style>
  </defs>
  <title
     id="title6">ikona</title>
  <path
     class="cls-1"
     d="M 45.239568,6.7674206 H 4.781107 A 4.0458461,4.0458461 0 0 0 0.73526083,10.813267 V 39.186733 A 4.0458461,4.0458461 0 0 0 4.781107,43.232579 h 40.458461 a 4.0248287,4.0248287 0 0 0 4.024829,-4.045846 V 10.86581 A 4.0458461,4.0458461 0 0 0 45.239568,6.7674206 Z M 16.918645,12.830935 a 6.0740235,6.0740235 0 1 1 -6.074023,6.074024 6.0740235,6.0740235 0 0 1 6.074023,-6.074024 z M 29.108727,37.106012 H 4.781107 v -1.965125 c 0,-4.045846 8.091692,-6.305215 12.137538,-6.305215 4.045846,0 12.190082,2.206825 12.190082,6.305215 z m 7.78694,-8.091692 h 3.320747 l 2.994976,4.024829 -4.035337,4.035337 a 15.206076,15.206076 0 0 1 -6.074023,-12.106012 14.817255,14.817255 0 0 1 0.567469,-4.045846 15.100989,15.100989 0 0 1 5.517063,-8.081184 l 4.024828,4.035338 -3.04752,4.045846 h -3.320746 a 12.347712,12.347712 0 0 0 -0.704082,4.045846 11.990417,11.990417 0 0 0 0.704082,4.045846 z"
     id="path8"
     inkscape:connector-curvature="0"
     style="fill:#ac0000;stroke-width:1.05086911" />
</svg>
