<?xml version="1.0" encoding="UTF-8" standalone="no"?>
<svg
   xmlns:dc="http://purl.org/dc/elements/1.1/"
   xmlns:cc="http://creativecommons.org/ns#"
   xmlns:rdf="http://www.w3.org/1999/02/22-rdf-syntax-ns#"
   xmlns:svg="http://www.w3.org/2000/svg"
   xmlns="http://www.w3.org/2000/svg"
   xmlns:sodipodi="http://sodipodi.sourceforge.net/DTD/sodipodi-0.dtd"
   xmlns:inkscape="http://www.inkscape.org/namespaces/inkscape"
   id="Layer_1"
   data-name="Layer 1"
   viewBox="0 0 100 99.999997"
   version="1.1"
   sodipodi:docname="d_demo_icon_boat.svg"
   width="100"
   height="100"
   inkscape:version="0.92.3 (2405546, 2018-03-11)">
  <metadata
     id="metadata13">
    <rdf:RDF>
      <cc:Work
         rdf:about="">
        <dc:format>image/svg+xml</dc:format>
        <dc:type
           rdf:resource="http://purl.org/dc/dcmitype/StillImage" />
        <dc:title>ikona</dc:title>
      </cc:Work>
    </rdf:RDF>
  </metadata>
  <sodipodi:namedview
     pagecolor="#ffffff"
     bordercolor="#666666"
     borderopacity="1"
     objecttolerance="10"
     gridtolerance="10"
     guidetolerance="10"
     inkscape:pageopacity="0"
     inkscape:pageshadow="2"
     inkscape:window-width="1920"
     inkscape:window-height="1001"
     id="namedview11"
     showgrid="false"
     inkscape:zoom="0.95287612"
     inkscape:cx="-317.60253"
     inkscape:cy="-24.008201"
     inkscape:window-x="3840"
     inkscape:window-y="0"
     inkscape:window-maximized="1"
     inkscape:current-layer="Layer_1" />
  <defs
     id="defs4">
    <style
       id="style2">.cls-1{fill:#ac0000;}</style>
  </defs>
  <title
     id="title6">ikona</title>
  <g
     id="g821"
     transform="translate(0.1226292,15.287818)">
    <path
       style="fill:#ac0000;stroke-width:0.39000055"
       inkscape:connector-curvature="0"
       id="path8"
       d="M 98.270589,40.544636 86.843573,64.35417 a 8.3265117,8.3265117 0 0 1 -7.41001,4.508406 H 12.076568 a 1.6614023,1.6614023 0 0 1 -1.485903,-2.414103 l 0.0273,-0.0585 A 4.1067058,4.1067058 0 0 0 9.3387637,61.199066 l -0.0897,-0.0663 A 14.574321,14.574321 0 0 1 3.1494549,49.272849 V 43.875241 H 63.12374 v -0.0234 a 3.2994047,3.2994047 0 0 1 3.299405,-3.299405 z M 59.793135,20.55321 H 48.128219 a 1.6653023,1.6653023 0 0 0 -1.665303,1.665303 v 18.330023 a 1.6653023,1.6653023 0 0 0 1.665303,1.665303 h 11.664916 a 1.6653023,1.6653023 0 0 0 1.665303,-1.665303 V 22.218513 A 1.6653023,1.6653023 0 0 0 59.793135,20.55321 Z m 19.987528,6.661208 H 66.454345 a 1.6692024,1.6692024 0 0 0 -1.665303,1.669202 v 6.661209 a 1.6653023,1.6653023 0 0 0 1.665303,1.677003 h 13.326318 a 1.6692024,1.6692024 0 0 0 1.653603,-1.677003 V 28.88362 A 1.6692024,1.6692024 0 0 0 79.780663,27.214418 Z M 28.136791,42.209939 h 13.330218 a 1.6653023,1.6653023 0 0 0 1.665303,-1.665303 V 27.214418 A 1.6653023,1.6653023 0 0 0 41.467009,25.549117 H 28.136791 a 1.6692024,1.6692024 0 0 0 -1.665303,1.665301 v 13.330218 a 1.6653023,1.6653023 0 0 0 1.665303,1.665303 z M 27.286589,17.222605 23.140884,20.55321 V 42.209939 H 6.4800596 V 20.55321 H 1.4841526 V 17.222605 H 13.145169 V 12.390499 H 8.855163 v -1.950003 h 4.290006 V 0.56178177 h 1.665303 V 10.444396 h 4.290006 v 1.950003 h -4.290006 v 4.828206 z m -7.15651,13.704618 h -5.421007 v 4.976407 h 5.421007 z m 0,-7.971609 h -5.421007 v 4.976405 h 5.421007 z"
       class="cls-1" />
  </g>
</svg>
