<?xml version="1.0" encoding="UTF-8" standalone="no"?>
<svg
   xmlns:dc="http://purl.org/dc/elements/1.1/"
   xmlns:cc="http://creativecommons.org/ns#"
   xmlns:rdf="http://www.w3.org/1999/02/22-rdf-syntax-ns#"
   xmlns:svg="http://www.w3.org/2000/svg"
   xmlns="http://www.w3.org/2000/svg"
   xmlns:sodipodi="http://sodipodi.sourceforge.net/DTD/sodipodi-0.dtd"
   xmlns:inkscape="http://www.inkscape.org/namespaces/inkscape"
   id="Layer_1"
   data-name="Layer 1"
   viewBox="0 0 99.999999 99.999997"
   version="1.1"
   sodipodi:docname="d_demo_icon_car.svg"
   width="100"
   height="100"
   inkscape:version="0.92.3 (2405546, 2018-03-11)">
  <metadata
     id="metadata17">
    <rdf:RDF>
      <cc:Work
         rdf:about="">
        <dc:format>image/svg+xml</dc:format>
        <dc:type
           rdf:resource="http://purl.org/dc/dcmitype/StillImage" />
        <dc:title>ikona</dc:title>
      </cc:Work>
    </rdf:RDF>
  </metadata>
  <sodipodi:namedview
     pagecolor="#ffffff"
     bordercolor="#666666"
     borderopacity="1"
     objecttolerance="10"
     gridtolerance="10"
     guidetolerance="10"
     inkscape:pageopacity="0"
     inkscape:pageshadow="2"
     inkscape:window-width="1920"
     inkscape:window-height="1001"
     id="namedview15"
     showgrid="false"
     inkscape:zoom="2.6101523"
     inkscape:cx="90.32966"
     inkscape:cy="60.473879"
     inkscape:window-x="3840"
     inkscape:window-y="0"
     inkscape:window-maximized="1"
     inkscape:current-layer="Layer_1" />
  <defs
     id="defs4">
    <style
       id="style2">.cls-1{fill:#ac0000;}</style>
  </defs>
  <title
     id="title6">ikona</title>
  <g
     id="g827"
     transform="matrix(0.37938099,0,0,0.37938099,1.3083468,34.345202)">
    <path
       style="fill:#ac0000"
       inkscape:connector-curvature="0"
       id="path8"
       d="m 55.62,57.219997 a 21.39,21.39 0 1 0 21.38,21.39 21.42,21.42 0 0 0 -21.38,-21.39 z m 0,34.23 a 12.84,12.84 0 1 1 12.83,-12.84 12.85,12.85 0 0 1 -12.83,12.84 z"
       class="cls-1" />
    <path
       style="fill:#ac0000"
       inkscape:connector-curvature="0"
       id="path10"
       d="m 252.41,57.219997 v -25.7 a 4.28,4.28 0 0 0 -2.93,-4 l -24.13,-8 c -9.09,-15.4000004 -21.59,-30 -49.21,-34.89 l -0.14,-0.11 c -51,-7 -89.3,4.46 -113.88,34.22 -18.3,0.26 -37,4.09 -48,11.12 a 21,21 0 0 0 -9.35,16.74 l -0.49,10.62 a 4.28,4.28 0 0 0 -4.28,4.3 v 17.09 a 4.28,4.28 0 0 0 4.28,4.28 h 17.11 a 4.31,4.31 0 0 0 4.28,-4.37 v 0 a 29.95,29.95 0 0 1 59.89,0.11 c -0.31,2.6 1.74,4.28 4.28,4.28 h 77 a 4.31,4.31 0 0 0 4.29,-4.39 v 0 a 29.95,29.95 0 0 1 59.89,0.11 c -0.31,2.6 1.74,4.28 4.28,4.28 h 17.11 a 4.28,4.28 0 0 0 4.28,-4.28 v -17.11 a 4.28,4.28 0 0 0 -4.28,-4.3 z m -115.51,-40.64 a 2.14,2.14 0 0 1 -2.14,2.14 H 79 a 2.15,2.15 0 0 1 -1.42,-3.76 c 14.85,-13.5300004 33.73,-21.2700004 57,-23.3300004 a 2.18,2.18 0 0 1 2.36,2.16 z m 51.4,0 a 2.14,2.14 0 0 1 -2.14,2.12 H 147.6 a 2.14,2.14 0 0 1 -2.14,-2.14 V -6.7800034 a 2.14,2.14 0 0 1 2.12,-2.16 196.12,196.12 0 0 1 27.16,1.94 72,72 0 0 1 12.34,3.26 2.15,2.15 0 0 1 1.39,2 z m 22.33,2.12 H 199 a 2.14,2.14 0 0 1 -2.15,-2.18 l 0.12,-11.6000004 a 2.15,2.15 0 0 1 3.45,-1.68 56.56,56.56 0 0 1 11.9,12.0000004 2.15,2.15 0 0 1 -1.69,3.48 z"
       class="cls-1" />
    <path
       style="fill:#ac0000"
       inkscape:connector-curvature="0"
       id="path12"
       d="m 201.07,57.219997 a 21.39,21.39 0 1 0 21.39,21.39 21.42,21.42 0 0 0 -21.39,-21.39 z m 0,34.23 a 12.84,12.84 0 1 1 12.84,-12.84 12.85,12.85 0 0 1 -12.84,12.84 z"
       class="cls-1" />
  </g>
</svg>
