<svg width="64" height="64" viewBox="0 0 64 64" fill="none" xmlns="http://www.w3.org/2000/svg">
<g clip-path="url(#clip0_42_4396)">
<path d="M43.1744 13.2064H41.1427V11.1746C41.1427 6.1335 37.0414 2.03175 31.9998 2.03175C26.9582 2.03175 22.8569 6.13338 22.8569 11.1746V13.2064H20.8252V11.1746C20.8252 5.01288 25.8381 0 31.9998 0C38.1616 0 43.1744 5.01288 43.1744 11.1746V13.2064Z" fill="#023047"/>
<path d="M2.53955 34.54V59.9369C2.53955 62.181 4.3588 64.0004 6.60305 64.0004H57.3967C59.6409 64.0004 61.4602 62.181 61.4602 59.9369V34.54H2.53955Z" fill="#023047"/>
<path d="M14.7301 45.7147H49.2697C54.1258 45.7147 58.4792 43.5629 61.4602 40.1757V34.54H2.53955V59.9369C2.53955 62.1812 4.3588 64.0004 6.60305 64.0004H57.3967C59.6409 64.0004 61.4602 62.181 61.4602 59.9369H17.7777C13.2893 59.9369 9.65068 56.2983 9.65068 51.8099V47.4795C9.65068 46.2257 10.7743 45.2697 12.0099 45.4823C12.8941 45.6345 13.8026 45.7147 14.7301 45.7147Z" fill="#012334"/>
<path d="M49.2698 43.6828H14.7301C6.87531 43.6828 0.507812 37.3153 0.507812 29.4605V17.27C0.507812 16.1479 1.41744 15.2383 2.53956 15.2383H61.4602C62.5823 15.2383 63.4919 16.1479 63.4919 17.27V29.4605C63.4919 37.3153 57.1244 43.6828 49.2698 43.6828Z" fill="#023047"/>
<path d="M22.8572 11.1748H20.8254C20.2643 11.1748 19.8096 11.6296 19.8096 12.1907V15.2383H23.8731V12.1907C23.8731 11.6296 23.4183 11.1748 22.8572 11.1748Z" fill="#232526"/>
<path d="M43.1746 11.1748H41.1428C40.5817 11.1748 40.127 11.6296 40.127 12.1907V15.2383H44.1905V12.1907C44.1905 11.6296 43.7356 11.1748 43.1746 11.1748Z" fill="#232526"/>
<path d="M51.3018 23.3653H11.6827C8.3164 23.3653 5.5874 20.6364 5.5874 17.27V15.2383H57.3969V17.27C57.397 20.6363 54.668 23.3653 51.3018 23.3653Z" fill="#004567"/>
<path d="M45.7144 48.7618H44.6985C44.1375 48.7618 43.6826 48.3069 43.6826 47.7459V37.5872C43.6826 37.0262 44.1375 36.5713 44.6985 36.5713H45.7144C46.2754 36.5713 46.7302 37.0262 46.7302 37.5872V47.7459C46.7302 48.307 46.2755 48.7618 45.7144 48.7618Z" fill="#232526"/>
<path d="M47.2383 46.7303H43.1748C42.0527 46.7303 41.1431 45.8207 41.1431 44.6986V43.1748H49.2701V44.6986C49.2701 45.8207 48.3604 46.7303 47.2383 46.7303Z" fill="#FB8500"/>
<path d="M47.7462 44.6979H42.6668C41.8252 44.6979 41.1431 44.0156 41.1431 43.1741C41.1431 42.3325 41.8253 41.6504 42.6668 41.6504H47.7462C48.5878 41.6504 49.2699 42.3326 49.2699 43.1741C49.2701 44.0156 48.5878 44.6979 47.7462 44.6979Z" fill="#FFB703"/>
<path d="M19.3018 48.7618H18.2859C17.7249 48.7618 17.27 48.3069 17.27 47.7459V37.5872C17.27 37.0262 17.7249 36.5713 18.2859 36.5713H19.3018C19.8628 36.5713 20.3176 37.0262 20.3176 37.5872V47.7459C20.3176 48.307 19.8628 48.7618 19.3018 48.7618Z" fill="#232526"/>
<path d="M20.8252 46.7303H16.7617C15.6396 46.7303 14.73 45.8207 14.73 44.6986V43.1748H22.857V44.6986C22.857 45.8207 21.9475 46.7303 20.8252 46.7303Z" fill="#FB8500"/>
<path d="M21.3336 44.6979H16.2542C15.4126 44.6979 14.7305 44.0156 14.7305 43.1741C14.7305 42.3325 15.4127 41.6504 16.2542 41.6504H21.3336C22.1752 41.6504 22.8573 42.3326 22.8573 43.1741C22.8572 44.0156 22.1751 44.6979 21.3336 44.6979Z" fill="#FFB703"/>
</g>
<defs>
<clipPath id="clip0_42_4396">
<rect width="64" height="64" fill="white"/>
</clipPath>
</defs>
</svg>
