<svg width="64" height="64" viewBox="0 0 64 64" fill="none" xmlns="http://www.w3.org/2000/svg">
<path d="M22.7219 12.9047L20.0376 10.2204L23.8471 6.41092C24.2283 6.02969 24.8464 6.02969 25.2276 6.41092L26.5312 7.71456C26.9125 8.09578 26.9125 8.71385 26.5312 9.09508L22.7219 12.9047Z" fill="#023047"/>
<path d="M29.8586 16.2699L27.1743 13.5856L30.9838 9.77615C31.365 9.39493 31.9831 9.39493 32.3643 9.77615L33.668 11.0798C34.0492 11.461 34.0492 12.0791 33.668 12.4603L29.8586 16.2699Z" fill="#023047"/>
<path d="M51.3218 41.5046L54.006 44.1888L57.8155 40.3794C58.1967 39.9981 58.1967 39.3801 57.8155 38.9988L56.5118 37.6951C56.1306 37.3139 55.5125 37.3139 55.1313 37.6951L51.3218 41.5046Z" fill="#023047"/>
<path d="M47.5034 34.3678L50.1877 37.052L53.9972 33.2425C54.3784 32.8613 54.3784 32.2432 53.9972 31.862L52.6935 30.5584C52.3123 30.1772 51.6942 30.1772 51.313 30.5584L47.5034 34.3678Z" fill="#023047"/>
<path d="M51.1046 52.6811L34.0656 29.8538L11.2382 12.8147C10.4384 12.2176 10.3539 11.0499 11.0598 10.344L13.4001 8.00366C14.4479 6.95584 16.0238 6.64252 17.3926 7.20992L45.1891 18.7301L56.7093 46.5267C57.2766 47.8956 56.9633 49.4714 55.9155 50.5191L53.5753 52.8594C52.8695 53.5655 51.7017 53.4811 51.1046 52.6811Z" fill="#8ECAE6"/>
<path d="M24.4329 57.5948L16.5969 47.1766L6.17877 39.3406C5.83731 39.0838 5.80214 38.5843 6.10434 38.2821L7.30562 37.0809C8.11507 36.2714 9.34122 36.0481 10.3841 36.5202L21.9966 41.777L27.2534 53.3895C27.7255 54.4324 27.5021 55.6585 26.6927 56.468L25.4913 57.6693C25.1892 57.9714 24.6896 57.9363 24.4329 57.5948Z" fill="#8ECAE6"/>
<path d="M27.2534 53.3891L25.4532 49.4124L24.3325 50.533C23.3563 51.5092 21.7421 51.3957 20.9122 50.2923L17.7221 46.0509L17.7121 46.0608L6.64873 37.7373L6.10427 38.2818C5.80217 38.5839 5.83734 39.0834 6.1787 39.3402L16.5969 47.1762L24.4329 57.5944C24.6897 57.9359 25.1893 57.9711 25.4914 57.6689L26.6928 56.4675C27.5021 55.658 27.7255 54.4319 27.2534 53.3891Z" fill="#219EBC"/>
<path d="M56.648 49.4668C56.6951 49.3649 56.7392 49.2619 56.7766 49.1563C56.8535 48.9402 56.9074 48.717 56.9426 48.4908C57.0436 47.8403 56.9722 47.1614 56.7092 46.5265L55.0346 42.4859L54.9283 42.2293C54.8291 43.0207 54.4724 43.7759 53.8839 44.3644L51.5437 46.7046C50.8378 47.4105 49.6702 47.3262 49.073 46.5262L35.5326 28.3865L11.2365 10.167L11.0596 10.3439C10.5958 10.8077 10.4754 11.4702 10.6727 12.0399C10.7757 12.3373 10.9638 12.6097 11.238 12.8144L26.0693 23.885L34.0654 29.8536L40.034 37.8496L51.1045 52.6809C51.3093 52.9553 51.5818 53.1433 51.8791 53.2463C52.4488 53.4436 53.1114 53.3232 53.5752 52.8594L55.9154 50.5191C56.226 50.2088 56.4702 49.851 56.648 49.4668Z" fill="#219EBC"/>
<path d="M16.6281 49.9128C14.8474 50.7625 12.9874 48.9025 13.8372 47.1218C15.7258 43.1639 18.138 39.4779 21.0092 36.1631L40.7396 13.384C43.6585 10.014 47.7685 7.9045 52.2083 7.49744L53.4181 7.3866C55.1045 7.23198 56.5179 8.64522 56.3633 10.3318L56.2525 11.5415C55.8454 15.9813 53.7359 20.0913 50.3659 23.0103L27.5869 42.7408C24.2719 45.6119 20.5862 48.0243 16.6281 49.9128Z" fill="#023047"/>
<path d="M56.2525 11.5415L56.3633 10.3318C56.518 8.64532 55.1044 7.23198 53.4176 7.3866L52.2077 7.49744C52.1919 7.49887 52.1762 7.50091 52.1604 7.50233C51.7427 11.924 49.6364 16.0153 46.2778 18.9239L14.25 49.5132C14.8318 50.0876 15.7367 50.3354 16.622 49.9128C20.5805 48.0243 24.2671 45.6119 27.5824 42.7408L50.3649 23.0104C53.7354 20.0914 55.8453 15.9814 56.2525 11.5415Z" fill="#012334"/>
<path d="M46.7273 11.6279C46.2952 11.591 45.915 11.9114 45.8779 12.3433C45.841 12.7753 46.1614 13.1556 46.5933 13.1926C48.9481 13.3942 50.356 14.8022 50.5574 17.1567C50.5739 17.3485 50.658 17.5184 50.7843 17.6447C50.9424 17.8028 51.1666 17.8926 51.4067 17.8721C51.8388 17.8351 52.1591 17.4548 52.1221 17.0227C51.8561 13.9111 49.8392 11.894 46.7273 11.6279Z" fill="white"/>
<path d="M51.406 17.8721C51.8386 17.8356 52.1591 17.4599 52.1221 17.0331C51.9917 15.5293 51.441 14.2853 50.5489 13.375C50.3067 13.8755 50.0402 14.3642 49.75 14.8394C50.2007 15.4542 50.4752 16.2347 50.5558 17.1653C50.5724 17.3548 50.6565 17.5226 50.7829 17.6474C50.9413 17.8036 51.1657 17.8925 51.406 17.8721Z" fill="#F5F7F9"/>
</svg>
