<svg width="64" height="64" viewBox="0 0 64 64" fill="none" xmlns="http://www.w3.org/2000/svg">
<g clip-path="url(#clip0_42_4374)">
<path fill-rule="evenodd" clip-rule="evenodd" d="M43.8712 4.22967C45.8531 4.73059 47.7198 5.5134 49.434 6.53006L51.0404 4.92723C51.8065 4.16296 53.0596 4.16296 53.8255 4.92723L58.4811 9.56871C59.2434 10.333 59.2434 11.5834 58.4811 12.3476L56.871 13.9505C57.8899 15.6608 58.6745 17.5271 59.1802 19.5009H61.4485C62.5306 19.5009 63.4194 20.3839 63.4194 21.4637V28.0308C63.4194 29.1142 62.5307 29.9972 61.4485 29.9972H59.1802C58.6745 31.971 57.8899 33.8373 56.871 35.5439L58.4811 37.1505C59.2434 37.9148 59.2434 39.1652 58.4811 39.9294L53.8255 44.5709C53.0595 45.3352 51.8064 45.3352 51.0404 44.5709L49.434 42.9681C47.7198 43.9847 45.8531 44.7638 43.8712 45.2685V47.5354C43.8712 48.615 42.9861 49.4981 41.904 49.4981H35.3223C34.2403 49.4981 33.3515 48.6151 33.3515 47.5354V45.2685C31.3733 44.7639 29.5028 43.9847 27.7924 42.9681L26.1859 44.5709C25.4198 45.3352 24.1668 45.3352 23.4008 44.5709L18.7453 39.9294C17.9792 39.1652 17.9792 37.9148 18.7453 37.1505L20.3517 35.5477C19.3366 33.8373 18.552 31.971 18.0463 29.9972H15.778C14.6922 29.9972 13.8071 29.1142 13.8071 28.0308V21.4637C13.8071 20.3841 14.6922 19.5009 15.778 19.5009H18.0463C18.552 17.5271 19.3366 15.6608 20.3517 13.9505L18.7453 12.3476C17.9792 11.5834 17.9792 10.333 18.7453 9.56871L23.4008 4.92723C24.1669 4.16296 25.42 4.16296 26.1859 4.92723L27.7924 6.53006C29.5066 5.5134 31.3733 4.73433 33.3515 4.22967V1.96275C33.3516 0.882994 34.2403 0 35.3223 0H41.904C42.9861 0 43.8712 0.882994 43.8712 1.96275V4.22967Z" fill="#8ECAE6"/>
<path fill-rule="evenodd" clip-rule="evenodd" d="M58.4811 9.56871L53.8255 4.92723C53.0594 4.16296 51.8063 4.16296 51.0404 4.92723L49.434 6.53006C47.7197 5.5134 45.853 4.73059 43.8711 4.22967V1.96275C43.8711 0.882994 42.9861 0 41.904 0H37.4492C38.7581 2.70847 39.87 5.7063 40.7439 8.92678C48.5713 9.96932 54.6101 16.6552 54.6101 24.7473C54.6101 32.3718 49.2555 38.746 42.0937 40.3302C41.904 40.3747 41.7107 40.4118 41.521 40.4489C40.8294 43.6694 39.9146 46.708 38.8028 49.4981H41.904C42.9861 49.4981 43.8711 48.6151 43.8711 47.5354V45.2685C45.853 44.7639 47.7197 43.9847 49.434 42.9681L51.0404 44.5709C51.8065 45.3352 53.0596 45.3352 53.8255 44.5709L58.481 39.9294C59.2433 39.1652 59.2433 37.9148 58.481 37.1505L56.871 35.5439C57.8898 33.8372 58.6744 31.971 59.1801 29.9972H61.4484C62.5305 29.9972 63.4193 29.1142 63.4193 28.0308V21.4637C63.4193 20.3841 62.5307 19.5009 61.4484 19.5009H59.1801C58.6744 17.5271 57.8898 15.6608 56.871 13.9505L58.481 12.3476C59.2433 11.5834 59.2433 10.333 58.4811 9.56871Z" fill="#219EBC"/>
<path fill-rule="evenodd" clip-rule="evenodd" d="M38.6132 40.7089C47.4223 40.7089 54.6103 33.5407 54.6103 24.7475C54.6103 15.958 47.4225 8.78613 38.6132 8.78613C29.8004 8.78613 22.6162 15.958 22.6162 24.7475C22.6162 33.5407 29.8004 40.7089 38.6132 40.7089Z" fill="white"/>
<path fill-rule="evenodd" clip-rule="evenodd" d="M42.0941 32.7245C45.5932 31.4297 48.1069 28.057 48.1069 24.1279C48.1069 20.9891 46.5042 18.2064 44.0798 16.5553C41.5326 14.8189 42.0234 17.5608 42.0234 18.0209V23.5268C42.0234 25.4525 40.5099 27.0404 38.6135 27.1666C36.7171 27.0404 35.2036 25.4525 35.2036 23.5268V18.0209C35.2036 17.5608 35.6945 14.8189 33.1472 16.5553C30.7191 18.2063 29.1201 20.9891 29.1201 24.1279C29.1201 28.057 31.6338 31.4297 35.1329 32.7245V40.3305C36.2522 40.579 37.4198 40.7089 38.6134 40.7089C39.807 40.7089 40.9709 40.5791 42.0938 40.3305V32.7245H42.0941Z" fill="#FFB703"/>
<path fill-rule="evenodd" clip-rule="evenodd" d="M42.0941 40.3301V32.7241C45.5932 31.4293 48.1069 28.0566 48.1069 24.1275C48.1069 20.9887 46.5042 18.2061 44.0798 16.5549C43.5369 16.1839 43.1316 16.0169 42.8304 15.9873C44.6971 17.668 45.8722 20.0982 45.8722 22.7882C45.8722 26.5727 43.5443 29.8376 40.2424 31.2327C39.6957 31.4627 39.8594 32.1084 39.8594 32.765V40.664C40.6179 40.6046 41.3653 40.4934 42.0941 40.3301Z" fill="#FB8500"/>
<path fill-rule="evenodd" clip-rule="evenodd" d="M54.6105 24.7475C54.6105 15.932 47.4487 8.78613 38.6135 8.78613C37.9888 8.78613 37.3752 8.82322 36.769 8.89379C44.5555 9.96981 50.5498 16.637 50.5498 24.7031C50.5498 30.7953 47.1251 36.0935 42.0939 38.7835V40.3307C49.2559 38.7462 54.6105 32.372 54.6105 24.7475Z" fill="#F5F7F9"/>
<path fill-rule="evenodd" clip-rule="evenodd" d="M9.11078 47.172L4.8457 53.8504L9.11078 60.399L17.3509 61.8238L28.5994 63.7716C29.7297 64.0276 31.6969 64.2019 33.928 63.5379L54.3946 57.4346C57.968 56.3697 56.9232 51.2607 52.8626 52.2699L50.7616 52.7596L39.8182 55.3122C39.1191 55.4755 38.4758 55.5089 37.84 55.4829C36.9252 55.4421 36.0253 55.2788 35.0027 55.2009L27.6996 53.984C24.7769 53.2939 25.6135 49.7135 28.131 49.899H30.4551C35.6462 49.899 35.5383 43.6362 30.9683 42.8867H27.9449C26.8629 42.8867 25.8812 42.9163 24.8884 43.0055C22.7057 43.1984 20.4596 43.677 16.9382 44.7604L11.9666 46.2926L9.11078 47.172Z" fill="#FFD6A8"/>
<path fill-rule="evenodd" clip-rule="evenodd" d="M0.580566 47.0274V60.6737V60.6848C0.584301 61.4899 1.24619 62.1503 2.05682 62.1503H7.6346C8.44896 62.1503 9.11085 61.4863 9.11085 60.6737V60.3992V47.1722V47.0274C9.11085 46.2149 8.44896 45.5508 7.6346 45.5508H2.05682C1.24619 45.5508 0.584301 46.2113 0.580566 47.0163V47.0274Z" fill="#8ECAE6"/>
<path fill-rule="evenodd" clip-rule="evenodd" d="M9.11084 56.0431V60.399L17.351 61.8237L28.5994 63.7715C29.7298 64.0275 31.6969 64.2019 33.928 63.5378L54.3946 57.4345C56.689 56.7481 57.0794 54.3996 55.9899 53.0713C55.6329 53.5129 55.1048 53.8726 54.3946 54.0694L50.7617 55.0749L39.0261 58.8333L33.2178 60.4362C30.9867 61.0521 29.4919 60.362 28.3614 60.08C21.8653 58.8147 15.607 57.312 9.11084 56.0431Z" fill="#FFC98B"/>
<path fill-rule="evenodd" clip-rule="evenodd" d="M9.11085 60.3988V56.043C9.11085 56.8555 8.44896 57.5196 7.6346 57.5196H7.23669H2.05682C1.24619 57.5196 0.584301 56.8591 0.580566 56.054V60.6732V60.6843C0.584301 61.4894 1.24619 62.1499 2.05682 62.1499H7.6346C8.44896 62.1499 9.11085 61.4858 9.11085 60.6732V60.3988Z" fill="#219EBC"/>
</g>
<defs>
<clipPath id="clip0_42_4374">
<rect width="64" height="64" fill="white"/>
</clipPath>
</defs>
</svg>
