<svg width="64" height="64" viewBox="0 0 64 64" fill="none" xmlns="http://www.w3.org/2000/svg">
<g clip-path="url(#clip0_42_4430)">
<path d="M46.7588 18.2189H56.474C57.9657 18.2189 59.1748 17.0098 59.1748 15.5182V7.14118C59.1748 5.64956 57.9657 4.44043 56.474 4.44043H46.7588V18.2189Z" fill="#FB8500"/>
<path d="M46.7588 31.9972H56.474C57.9657 31.9972 59.1748 30.7881 59.1748 29.2965V20.9195C59.1748 19.4279 57.9657 18.2188 56.474 18.2188H46.7588V31.9972Z" fill="#219EBC"/>
<path d="M46.7588 45.7756H56.474C57.9657 45.7756 59.1748 44.5664 59.1748 43.0748V34.6978C59.1748 33.2062 57.9657 31.9971 56.474 31.9971H46.7588V45.7756Z" fill="#023047"/>
<path d="M44.1675 64C46.5343 64 48.453 62.0813 48.453 59.7145V4.2855C48.453 1.91875 46.5342 0 44.1675 0H13.5411L11.6523 1.159V62.8411L13.5411 64H44.1675Z" fill="#F5F7F9"/>
<path d="M49.8806 0H42.7939C45.1608 0 47.0794 1.91875 47.0794 4.2855V59.7145C47.0794 62.0814 45.1607 64 42.7939 64H49.8806C52.2474 64 54.1661 62.0813 54.1661 59.7145V4.2855C54.1661 1.91875 52.2474 0 49.8806 0Z" fill="#D0DBDF"/>
<path d="M4.82422 4.2855V59.7145C4.82422 62.0814 6.74297 64 9.10972 64H13.5412V0H9.10972C6.74284 0 4.82422 1.91875 4.82422 4.2855Z" fill="#023047"/>
<path d="M33.2832 45.7959C40.9024 45.7959 47.0791 39.6192 47.0791 32C47.0791 24.3807 40.9024 18.2041 33.2832 18.2041C25.6639 18.2041 19.4873 24.3807 19.4873 32C19.4873 39.6192 25.6639 45.7959 33.2832 45.7959Z" fill="#8ECAE6"/>
<path d="M33.2828 32C27.9756 32 23.5856 35.9199 22.8457 41.022C25.3755 43.9459 29.1131 45.7959 33.2828 45.7959C37.4526 45.7959 41.1902 43.9459 43.72 41.022C42.9801 35.9199 38.5901 32 33.2828 32Z" fill="#023047"/>
<path d="M33.2835 33.9264C36.0441 33.9264 38.2819 31.6886 38.2819 28.9281C38.2819 26.1675 36.0441 23.9297 33.2835 23.9297C30.523 23.9297 28.2852 26.1675 28.2852 28.9281C28.2852 31.6886 30.523 33.9264 33.2835 33.9264Z" fill="#023047"/>
</g>
<defs>
<clipPath id="clip0_42_4430">
<rect width="64" height="64" fill="white"/>
</clipPath>
</defs>
</svg>
