<svg width="64" height="64" viewBox="0 0 64 64" fill="none" xmlns="http://www.w3.org/2000/svg">
<g clip-path="url(#clip0_42_4488)">
<path d="M62.6738 30.8086C60.9316 29.5879 57.2764 27.8506 50.5806 27.8506H49.5483L36.3472 21.6904C34.8438 20.9888 33.2046 20.625 31.5454 20.625H20.064C19.085 20.625 18.1167 20.8237 17.2173 21.2095L5.29736 26.3179C4.52637 26.6484 3.69629 26.8188 2.85742 26.8188H2.06445C0.924316 26.8184 0 27.7427 0 28.8828V35.418C0 36.416 0.713379 37.271 1.69531 37.4492L11.355 39.2056V40.2378H61.9355C63.0757 40.2378 64 39.3135 64 38.1733V33.3521C64 32.3364 63.5054 31.3911 62.6738 30.8086Z" fill="#023047"/>
<path d="M20.2392 22.6895H28.6352V27.8506H16.2412C14.3193 27.8506 13.7519 25.2314 15.5019 24.436L18.5307 23.0596C19.0673 22.8154 19.6499 22.6895 20.2392 22.6895Z" fill="#012334"/>
<path d="M63.0273 36.1089C62.2183 36.1089 61.5161 35.6211 61.1489 34.8999C59.9556 32.5547 57.5215 30.9473 54.7095 30.9473C51.8979 30.9473 49.4639 32.5547 48.27 34.8999C47.9033 35.6211 47.2012 36.1089 46.3921 36.1089H25.8062V31.98H15.9297C15.4336 31.98 14.9341 31.8965 14.4883 31.6787C13.5405 31.2153 12.481 30.9473 11.355 30.9473C10.2271 30.9473 9.16553 31.2139 8.21729 31.6782C7.771 31.8965 7.27002 31.98 6.77295 31.98H0V35.418C0 35.5391 0.0112305 35.6577 0.0317383 35.7734C0.0517578 35.8877 0.0820312 35.9985 0.120117 36.1064C0.120605 36.1069 0.120605 36.1079 0.120605 36.1089C0.362793 36.7891 0.951172 37.314 1.69531 37.4492L11.355 39.2056L13.4194 40.2378H61.9355C63.0757 40.2378 64 39.3135 64 38.1733V36.1089H63.0273Z" fill="#012334"/>
<path d="M61.9356 40.2373H15.4839V38.1729H64C64 39.313 63.0757 40.2373 61.9356 40.2373Z" fill="#023047"/>
<path d="M49.5482 27.8506L38.4881 22.6895H23.6605C22.7655 22.6895 22.2826 23.7397 22.8651 24.4194L24.8792 26.7695C25.4676 27.4556 26.3265 27.8511 27.2308 27.8511H49.5482V27.8506Z" fill="#8ECAE6"/>
<path d="M23.1523 24.7539L24.8794 26.769C25.4678 27.4556 26.3267 27.8506 27.231 27.8506H49.5483L42.9126 24.7539H23.1523Z" fill="#219EBC"/>
<path d="M25.8068 31.9795H22.9577C22.4304 31.9795 22.1291 32.5815 22.4455 33.0034L24.155 35.2827C24.5451 35.8022 25.1569 36.1084 25.8068 36.1084H28.6555C29.1828 36.1084 29.4841 35.5063 29.1677 35.084L27.4582 32.8052C27.0686 32.2852 26.4563 31.9795 25.8068 31.9795Z" fill="#B5BCBF"/>
<path d="M2.06445 29.915H0V31.98H2.06445C2.63525 31.98 3.09668 31.5181 3.09668 30.9473C3.09668 30.377 2.63525 29.915 2.06445 29.915Z" fill="#FB8500"/>
<path d="M59.8711 38.1729C59.8711 41.0234 57.5601 43.334 54.7095 43.334C51.8594 43.334 49.5483 41.0234 49.5483 38.1729C49.5483 35.3223 51.8594 33.0117 54.7095 33.0117C57.5601 33.0117 59.8711 35.3223 59.8711 38.1729Z" fill="#6A7173"/>
<path d="M57.8062 38.1729C57.8062 39.8828 56.4199 41.2695 54.7095 41.2695C52.9995 41.2695 51.6128 39.8828 51.6128 38.1729C51.6128 36.4624 52.9995 35.0762 54.7095 35.0762C56.4199 35.0762 57.8062 36.4624 57.8062 38.1729Z" fill="#F5F7F9"/>
<path d="M54.7095 35.0762C53.5894 35.0762 52.6084 35.6689 52.0649 36.5605C52.5342 36.2744 53.0874 36.1084 53.6772 36.1084C55.3877 36.1084 56.7739 37.4946 56.7739 39.2051C56.7739 39.7949 56.6079 40.3477 56.3213 40.8169C57.2129 40.2729 57.8062 39.2935 57.8062 38.1729C57.8066 36.4624 56.4199 35.0762 54.7095 35.0762Z" fill="#B5BCBF"/>
<path d="M55.7417 38.1729C55.7417 38.7427 55.2798 39.2051 54.7095 39.2051C54.1396 39.2051 53.6772 38.7427 53.6772 38.1729C53.6772 37.6025 54.1396 37.1406 54.7095 37.1406C55.2798 37.1406 55.7417 37.6025 55.7417 38.1729Z" fill="#B5BCBF"/>
<path d="M16.5161 38.1729C16.5161 41.0234 14.2056 43.334 11.355 43.334C8.50439 43.334 6.19385 41.0234 6.19385 38.1729C6.19385 35.3223 8.50439 33.0117 11.355 33.0117C14.2056 33.0117 16.5161 35.3223 16.5161 38.1729Z" fill="#6A7173"/>
<path d="M14.4517 38.1729C14.4517 39.8828 13.0649 41.2695 11.355 41.2695C9.64453 41.2695 8.2583 39.8828 8.2583 38.1729C8.2583 36.4624 9.64453 35.0762 11.355 35.0762C13.0649 35.0762 14.4517 36.4624 14.4517 38.1729Z" fill="#F5F7F9"/>
<path d="M11.355 35.0762C10.2344 35.0762 9.25439 35.6694 8.71045 36.5605C9.17969 36.2744 9.73291 36.1084 10.3228 36.1084C12.0327 36.1084 13.4194 37.4946 13.4194 39.2051C13.4194 39.7949 13.2529 40.3481 12.9668 40.8169C13.8584 40.2734 14.4517 39.2935 14.4517 38.1729C14.4517 36.4624 13.0649 35.0762 11.355 35.0762Z" fill="#B5BCBF"/>
<path d="M12.3872 38.1729C12.3872 38.7427 11.9248 39.2051 11.355 39.2051C10.7847 39.2051 10.3228 38.7427 10.3228 38.1729C10.3228 37.6025 10.7847 37.1406 11.355 37.1406C11.9248 37.1406 12.3872 37.6025 12.3872 38.1729Z" fill="#B5BCBF"/>
<path d="M29.6089 27.8506H32.3267L27.9023 22.6895H25.1851L29.6089 27.8506Z" fill="#B5BCBF"/>
<path d="M26.9546 24.7539L29.6089 27.8506H32.3267L29.6724 24.7539H26.9546Z" fill="#6A7173"/>
<path d="M61.9355 33.0122H63.981C63.8901 32.1992 63.4976 31.4629 62.8574 30.9473H61.9355C61.3652 30.9473 60.9033 31.4097 60.9033 31.98C60.9033 32.5498 61.3652 33.0122 61.9355 33.0122Z" fill="#FFB703"/>
<path d="M26.8049 35.5386L24.1355 31.9795H22.9577C22.4304 31.9795 22.1291 32.5815 22.4455 33.0034L24.155 35.2827C24.5451 35.8022 25.1569 36.1084 25.8068 36.1084H27.9445C27.4963 36.1084 27.0739 35.897 26.8049 35.5386Z" fill="#6A7173"/>
</g>
<defs>
<clipPath id="clip0_42_4488">
<rect width="64" height="64" fill="white"/>
</clipPath>
</defs>
</svg>
