<?xml version="1.0" encoding="UTF-8" standalone="no"?>
<svg
   xmlns:dc="http://purl.org/dc/elements/1.1/"
   xmlns:cc="http://creativecommons.org/ns#"
   xmlns:rdf="http://www.w3.org/1999/02/22-rdf-syntax-ns#"
   xmlns:svg="http://www.w3.org/2000/svg"
   xmlns="http://www.w3.org/2000/svg"
   xmlns:sodipodi="http://sodipodi.sourceforge.net/DTD/sodipodi-0.dtd"
   xmlns:inkscape="http://www.inkscape.org/namespaces/inkscape"
   id="Layer_1"
   data-name="Layer 1"
   viewBox="0 0 100 100"
   version="1.1"
   sodipodi:docname="d_demo_icon_plane.svg"
   width="100"
   height="100"
   inkscape:version="0.92.3 (2405546, 2018-03-11)">
  <metadata
     id="metadata13">
    <rdf:RDF>
      <cc:Work
         rdf:about="">
        <dc:format>image/svg+xml</dc:format>
        <dc:type
           rdf:resource="http://purl.org/dc/dcmitype/StillImage" />
        <dc:title>ikona</dc:title>
      </cc:Work>
    </rdf:RDF>
  </metadata>
  <sodipodi:namedview
     pagecolor="#ffffff"
     bordercolor="#666666"
     borderopacity="1"
     objecttolerance="10"
     gridtolerance="10"
     guidetolerance="10"
     inkscape:pageopacity="0"
     inkscape:pageshadow="2"
     inkscape:window-width="1920"
     inkscape:window-height="1001"
     id="namedview11"
     showgrid="false"
     inkscape:zoom="0.65745489"
     inkscape:cx="-271.43792"
     inkscape:cy="77.775871"
     inkscape:window-x="3840"
     inkscape:window-y="0"
     inkscape:window-maximized="1"
     inkscape:current-layer="Layer_1" />
  <defs
     id="defs4">
    <style
       id="style2">.cls-1{fill:#ac0000;}</style>
  </defs>
  <title
     id="title6">ikona</title>
  <g
     id="g821"
     transform="translate(1.7023912,-1.6884047)">
    <path
       style="fill:#ac0000;stroke-width:0.53816414"
       inkscape:connector-curvature="0"
       id="path8"
       d="M 90.239257,22.898758 C 94.205527,17.592459 96.57883,12.081659 96.589594,8.1476791 A 5.4354576,5.4354576 0 0 0 95.841546,5.1339601 2.2333811,2.2333811 0 0 0 95.405633,4.595796 2.4916999,2.4916999 0 0 0 94.867468,4.1921729 5.3816412,5.3816412 0 0 0 91.837605,3.4010716 c -3.928599,0 -9.439399,2.3786854 -14.751079,6.3503366 C 72.781213,12.980393 68.50819,17.484827 62.556095,23.743675 q -1.512241,1.614493 -3.191313,3.352763 l -11.468278,-3.449632 0.03229,-0.03229 a 2.5724245,2.5724245 0 0 0 0,-3.632608 l -2.077313,-2.082695 a 2.5885694,2.5885694 0 0 0 -1.829758,-0.758811 2.5401346,2.5401346 0 0 0 -1.824377,0.753429 l -3.105207,3.110589 -1.646782,-0.489729 a 2.5186081,2.5186081 0 0 0 0.538164,-1.566058 2.5508979,2.5508979 0 0 0 -0.748048,-1.83514 l -2.114985,-2.088076 a 2.593951,2.593951 0 0 0 -1.829758,-0.75343 2.534753,2.534753 0 0 0 -1.813613,0.75343 l -2.85227,2.852269 -11.699688,-3.503448 a 3.0137191,3.0137191 0 0 0 -0.839536,-0.118396 3.0998253,3.0998253 0 0 0 -2.152656,0.877207 l -4.1115739,4.111574 a 2.4163569,2.4163569 0 0 0 -0.7211399,1.700599 2.3625405,2.3625405 0 0 0 1.2539228,2.114985 l 24.588718,13.744711 a 3.8801633,3.8801633 0 0 1 0.597362,0.452058 l 6.996134,6.996134 c -6.538694,6.926172 -12.399301,13.620934 -16.941407,19.422343 -0.425149,0.538164 -0.828772,1.076328 -1.221632,1.614492 L 5.3384861,63.562438 a 2.6370042,2.6370042 0 0 0 -0.3282802,0 3.5357382,3.5357382 0 0 0 -2.3571588,0.974077 L 0.73180122,66.45238 A 2.400212,2.400212 0 0 0 -1.0198292e-4,68.131452 2.3302506,2.3302506 0 0 0 1.3829798,70.284108 l 13.3895232,6.3611 a 3.3419992,3.3419992 0 0 1 0.538164,0.365952 l 1.108618,1.076328 a 8.0724617,8.0724617 0 0 0 -0.538164,2.577806 3.3689074,3.3689074 0 0 0 0.931024,2.464792 l 0.04843,0.04305 v 0 a 3.3958156,3.3958156 0 0 0 2.45941,0.95255 8.1639496,8.1639496 0 0 0 2.550898,-0.538164 l 1.130144,1.124763 a 3.0191007,3.0191007 0 0 1 0.349807,0.505874 l 6.350337,13.357234 a 2.3571588,2.3571588 0 0 0 2.152656,1.404608 v 0 a 2.3786854,2.3786854 0 0 0 1.689835,-0.715758 l 1.975063,-1.958918 a 3.4873035,3.4873035 0 0 0 0.936405,-2.351777 c 0,-0.107633 0,-0.193739 0,-0.236792 L 34.722247,75.611933 c 0.538164,-0.39286 1.076328,-0.796483 1.614492,-1.216251 C 42.170438,69.83205 48.8652,63.982206 55.764464,57.432749 l 6.996133,6.996133 a 3.8640184,3.8640184 0 0 1 0.45744,0.602744 L 76.93584,89.593437 a 2.3948303,2.3948303 0 0 0 3.831729,0.538164 l 4.143863,-4.138482 a 3.1267335,3.1267335 0 0 0 0.844918,-2.152657 2.8684147,2.8684147 0 0 0 -0.113014,-0.807246 l -3.503449,-11.699688 2.85227,-2.857651 a 2.5778061,2.5778061 0 0 0 0,-3.63799 l -2.114985,-2.050405 a 2.5831878,2.5831878 0 0 0 -3.401197,-0.215266 l -0.48973,-1.614492 3.110589,-3.11597 a 2.593951,2.593951 0 0 0 0.75343,-1.824377 2.534753,2.534753 0 0 0 -0.75343,-1.813613 l -2.082695,-2.082695 a 2.5724245,2.5724245 0 0 0 -3.654134,0 v 0 L 72.915754,40.61512 q 1.781323,-1.70598 3.401197,-3.228984 c 6.215796,-5.930569 10.72023,-10.203592 13.922306,-14.487378 z"
       class="cls-1" />
  </g>
</svg>
