<svg width="64" height="64" viewBox="0 0 64 64" fill="none" xmlns="http://www.w3.org/2000/svg">
<path d="M8.1123 23.8877V40.113C12.5928 40.113 16.225 36.4809 16.225 32.0004C16.225 27.5199 12.5928 23.8877 8.1123 23.8877Z" fill="#219EBC"/>
<path d="M12.3622 32.0004C12.3622 27.5199 10.4596 23.8877 8.11268 23.8877C3.63216 23.8877 0 27.5199 0 32.0004C0 36.4809 3.63216 40.113 8.11268 40.113C10.4596 40.113 12.3622 36.4809 12.3622 32.0004Z" fill="#8ECAE6"/>
<path d="M32 23.8877V40.113C36.4805 40.113 40.1127 36.4809 40.1127 32.0004C40.1127 27.5199 36.4805 23.8877 32 23.8877Z" fill="#219EBC"/>
<path d="M36.2499 32.0004C36.2499 27.5199 34.3473 23.8877 32.0004 23.8877C27.5199 23.8877 23.8877 27.5199 23.8877 32.0004C23.8877 36.4809 27.5199 40.113 32.0004 40.113C34.3473 40.113 36.2499 36.4809 36.2499 32.0004Z" fill="#8ECAE6"/>
<path d="M55.8877 23.8877V40.113C60.3682 40.113 64.0004 36.4809 64.0004 32.0004C64.0004 27.5199 60.3682 23.8877 55.8877 23.8877Z" fill="#219EBC"/>
<path d="M60.1366 32.0004C60.1366 27.5199 58.234 23.8877 55.8871 23.8877C51.4066 23.8877 47.7744 27.5199 47.7744 32.0004C47.7744 36.4809 51.4066 40.113 55.8871 40.113C58.234 40.113 60.1366 36.4809 60.1366 32.0004Z" fill="#8ECAE6"/>
</svg>
