<?xml version="1.0" encoding="UTF-8" standalone="no"?>
<svg
   xmlns:dc="http://purl.org/dc/elements/1.1/"
   xmlns:cc="http://creativecommons.org/ns#"
   xmlns:rdf="http://www.w3.org/1999/02/22-rdf-syntax-ns#"
   xmlns:svg="http://www.w3.org/2000/svg"
   xmlns="http://www.w3.org/2000/svg"
   xmlns:sodipodi="http://sodipodi.sourceforge.net/DTD/sodipodi-0.dtd"
   xmlns:inkscape="http://www.inkscape.org/namespaces/inkscape"
   id="Layer_1"
   data-name="Layer 1"
   viewBox="0 0 50 50"
   version="1.1"
   sodipodi:docname="d_demo_icon_download.svg"
   width="100"
   height="100"
   inkscape:version="0.92.3 (2405546, 2018-03-11)">
  <metadata
     id="metadata13">
    <rdf:RDF>
      <cc:Work
         rdf:about="">
        <dc:format>image/svg+xml</dc:format>
        <dc:type
           rdf:resource="http://purl.org/dc/dcmitype/StillImage" />
        <dc:title>ikona</dc:title>
      </cc:Work>
    </rdf:RDF>
  </metadata>
  <sodipodi:namedview
     pagecolor="#ffffff"
     bordercolor="#666666"
     borderopacity="1"
     objecttolerance="10"
     gridtolerance="10"
     guidetolerance="10"
     inkscape:pageopacity="0"
     inkscape:pageshadow="2"
     inkscape:window-width="1920"
     inkscape:window-height="1001"
     id="namedview11"
     showgrid="false"
     inkscape:zoom="5.1382538"
     inkscape:cx="71.484578"
     inkscape:cy="22.204667"
     inkscape:window-x="3840"
     inkscape:window-y="0"
     inkscape:window-maximized="1"
     inkscape:current-layer="Layer_1" />
  <defs
     id="defs4">
    <style
       id="style2">.cls-1{fill:#ac0000;}</style>
  </defs>
  <title
     id="title6">ikona</title>
  <path
     class="cls-1"
     d="M 48.468158,6.3966955 44.658159,1.7794927 A 4.1759317,4.1759317 0 0 0 41.429346,0.28347586 H 8.516977 A 4.1221182,4.1221182 0 0 0 5.35274,1.7794927 L 1.5427405,6.3966955 A 5.3813553,5.3813553 0 0 0 0.28350338,9.8945772 V 44.227623 A 5.4889824,5.4889824 0 0 0 5.7724858,49.716606 H 44.22765 a 5.4889824,5.4889824 0 0 0 5.488983,-5.488983 V 9.8945772 A 5.5320332,5.5320332 0 0 0 48.468158,6.3966955 Z M 25.037737,40.105505 9.9699429,25.03771 h 9.6111001 v -5.488982 h 10.913389 v 5.488982 h 9.6111 z M 6.1168925,5.7724583 8.3555363,3.0279671 H 41.310956 l 2.572288,2.7444912 z"
     id="path8"
     inkscape:connector-curvature="0"
     style="fill:#ac0000;stroke-width:1.07627106" />
</svg>
