<svg width="64" height="64" viewBox="0 0 64 64" fill="none" xmlns="http://www.w3.org/2000/svg">
<g clip-path="url(#clip0_42_4411)">
<path d="M43.666 48.9141L48.9036 43.6765L55.9951 50.7681L50.7576 56.0056L43.666 48.9141Z" fill="#6A7173"/>
<path d="M52.7022 47.4629C52.2255 48.6031 51.5244 49.6692 50.5972 50.5963C49.6843 51.5092 48.6234 52.2196 47.4677 52.7052L43.6758 48.9132L48.9142 43.6748L52.7022 47.4629Z" fill="#232526"/>
<path d="M63.6195 57.1217L57.1217 63.6195C56.6145 64.1267 55.7924 64.1267 55.2853 63.6195L49.9808 58.315C49.1132 57.4474 49.1132 56.0408 49.9808 55.1732L55.1732 49.9808C56.0408 49.1132 57.4474 49.1132 58.315 49.9808L63.6195 55.2853C64.1267 55.7923 64.1267 56.6145 63.6195 57.1217Z" fill="#FFB703"/>
<path d="M63.6199 57.1224L61.2333 59.5091L55.0107 53.2864C54.1433 52.4189 52.7369 52.4189 51.8682 53.2864L55.1729 49.9817C56.0417 49.1142 57.4479 49.1142 58.3154 49.9817L63.6198 55.2862C64.127 55.7932 64.127 56.6153 63.6199 57.1224Z" fill="#FB8500"/>
<path d="M48.4452 48.4447C46.1437 50.7462 42.4125 50.7462 40.111 48.4447L35.9438 44.2776L44.2781 35.9434L48.4452 40.1105C50.7467 42.412 50.7467 46.1434 48.4452 48.4447Z" fill="#FFB703"/>
<path d="M48.2761 39.9417C47.2061 41.5817 45.9568 43.1219 44.5402 44.5399C43.1222 45.9566 41.5821 47.2057 39.9421 48.2757L35.9438 44.2775L44.278 35.9434L48.2761 39.9417Z" fill="#FB8500"/>
<path d="M24.4771 48.9543C37.9955 48.9543 48.9543 37.9955 48.9543 24.4771C48.9543 10.9588 37.9955 0 24.4771 0C10.9588 0 0 10.9588 0 24.4771C0 37.9955 10.9588 48.9543 24.4771 48.9543Z" fill="#8ECAE6"/>
<path d="M48.9541 24.4776C48.9541 37.9955 37.9956 48.954 24.4777 48.954C23.4324 48.954 22.4014 48.8891 21.3911 48.7619C33.452 47.2439 42.7809 36.9503 42.7809 24.4778C42.7809 12.0039 33.4521 1.71025 21.3911 0.19225C22.4014 0.064875 23.4325 0 24.4777 0C37.9956 0 48.9541 10.9585 48.9541 24.4776Z" fill="#219EBC"/>
<path d="M24.3306 43.673C34.9322 43.673 43.5265 35.0787 43.5265 24.4771C43.5265 13.8755 34.9322 5.28125 24.3306 5.28125C13.7291 5.28125 5.13477 13.8755 5.13477 24.4771C5.13477 35.0787 13.7291 43.673 24.3306 43.673Z" fill="white"/>
<path d="M43.5263 24.4778C43.5263 35.0794 34.9323 43.6734 24.3307 43.6734C21.2112 43.6734 18.2645 42.9291 15.6597 41.6077C16.6445 41.7644 17.6552 41.8454 18.6847 41.8454C29.2863 41.8454 37.8803 33.2514 37.8803 22.6498C37.8803 15.1691 33.6002 8.6868 27.357 5.51855C36.5212 6.96968 43.5263 14.9057 43.5263 24.4778Z" fill="#F5F7F9"/>
<path d="M24.2493 30.6691C22.9673 30.6234 21.9698 29.5308 21.9698 28.2481V25.6841C21.9698 24.9473 22.313 24.2527 22.8981 23.8051L26.6499 20.9348C27.2331 20.3034 27.5471 19.4877 27.537 18.6227C27.5264 17.7126 27.1568 16.8643 26.4965 16.2344C25.2094 15.0066 23.0519 15.0404 21.8008 16.3051C21.0789 17.0347 20.7356 18.0279 20.8543 19.0509C21.0031 20.3354 20.1286 21.5448 18.8486 21.7283C17.5368 21.9163 16.3309 20.9936 16.1648 19.6844C15.8426 17.1464 16.7555 14.5768 18.6065 12.8109C20.1105 11.3762 22.0915 10.5859 24.1845 10.5859C26.2776 10.5859 28.2586 11.3761 29.7626 12.8109C31.3526 14.3278 32.2425 16.3722 32.2684 18.5672C32.2816 19.6932 32.067 20.7846 31.6453 21.7902C31.1104 23.0656 30.2208 24.1608 29.1223 25.0011L26.9561 26.6582C26.7955 26.7811 26.7014 26.9717 26.7014 27.1738V28.3049C26.7014 29.6401 25.5953 30.7169 24.2493 30.6691Z" fill="#FFB703"/>
<path d="M32.269 18.5662C32.2936 20.762 31.4535 22.8254 29.9005 24.3784C29.8277 24.4524 29.7486 24.5213 29.6655 24.5849L26.957 26.6573C26.7963 26.7802 26.7022 26.9708 26.7022 27.1729V28.243C26.7022 29.5659 25.6197 30.691 24.2971 30.6697C23.5288 30.6572 22.8513 30.2797 22.4287 29.7025C23.2961 29.3519 23.9077 28.5014 23.9077 27.5093V26.5948C23.9077 26.2562 24.0655 25.9368 24.3345 25.7309L26.8723 23.7889C26.9541 23.7265 27.0333 23.6578 27.1073 23.5838C28.6591 22.0307 29.5006 19.9673 29.4746 17.7715C29.4486 15.577 28.5591 13.5318 26.9683 12.015C26.3723 11.4463 25.7022 10.9788 24.9802 10.623C26.7761 10.797 28.4512 11.558 29.7627 12.8098C31.3521 14.3264 32.243 16.3717 32.269 18.5662Z" fill="#FB8500"/>
<path d="M24.4029 38.3838C25.7094 38.3838 26.7686 37.3247 26.7686 36.0181C26.7686 34.7115 25.7094 33.6523 24.4029 33.6523C23.0963 33.6523 22.0371 34.7115 22.0371 36.0181C22.0371 37.3247 23.0963 38.3838 24.4029 38.3838Z" fill="#FFB703"/>
<path d="M26.7689 36.0173C26.7689 37.3241 25.7095 38.3835 24.4027 38.3835C23.9586 38.3835 23.5435 38.2608 23.1885 38.0481C24.0257 37.7543 24.626 36.9563 24.626 36.0173C24.626 35.0795 24.0257 34.2815 23.1885 33.9877C23.5435 33.775 23.9587 33.6523 24.4027 33.6523C25.7095 33.6523 26.7689 34.7117 26.7689 36.0173Z" fill="#FB8500"/>
</g>
<defs>
<clipPath id="clip0_42_4411">
<rect width="64" height="64" fill="white"/>
</clipPath>
</defs>
</svg>
