<?xml version="1.0" encoding="UTF-8" standalone="no"?>
<svg
   xmlns:dc="http://purl.org/dc/elements/1.1/"
   xmlns:cc="http://creativecommons.org/ns#"
   xmlns:rdf="http://www.w3.org/1999/02/22-rdf-syntax-ns#"
   xmlns:svg="http://www.w3.org/2000/svg"
   xmlns="http://www.w3.org/2000/svg"
   xmlns:sodipodi="http://sodipodi.sourceforge.net/DTD/sodipodi-0.dtd"
   xmlns:inkscape="http://www.inkscape.org/namespaces/inkscape"
   id="Layer_1"
   data-name="Layer 1"
   viewBox="0 0 50 50"
   version="1.1"
   sodipodi:docname="d_demo_icon_cog.svg"
   width="100"
   height="100"
   inkscape:version="0.92.3 (2405546, 2018-03-11)">
  <metadata
     id="metadata14">
    <rdf:RDF>
      <cc:Work
         rdf:about="">
        <dc:format>image/svg+xml</dc:format>
        <dc:type
           rdf:resource="http://purl.org/dc/dcmitype/StillImage" />
        <dc:title>ikona</dc:title>
      </cc:Work>
    </rdf:RDF>
  </metadata>
  <sodipodi:namedview
     pagecolor="#ffffff"
     bordercolor="#666666"
     borderopacity="1"
     objecttolerance="10"
     gridtolerance="10"
     guidetolerance="10"
     inkscape:pageopacity="0"
     inkscape:pageshadow="2"
     inkscape:window-width="1920"
     inkscape:window-height="1001"
     id="namedview12"
     showgrid="false"
     inkscape:zoom="2.3454581"
     inkscape:cx="-57.329419"
     inkscape:cy="-41.253183"
     inkscape:window-x="3840"
     inkscape:window-y="0"
     inkscape:window-maximized="1"
     inkscape:current-layer="Layer_1" />
  <defs
     id="defs4">
    <style
       id="style2">.cls-1{fill:#ac0000;}</style>
  </defs>
  <title
     id="title6">ikona</title>
  <g
     id="settings"
     transform="matrix(0.95762396,0,0,0.95762396,1.2671396,0.91276578)">
    <path
       class="cls-1"
       d="m 43.33,27.81 c 0,-0.76 0.25,-1.52 0.25,-2.53 a 7.9,7.9 0 0 0 -0.25,-2.53 l 5.31,-4.29 a 1.18,1.18 0 0 0 0.25,-1.52 l -5,-8.85 A 1.42,1.42 0 0 0 42.37,7.84 L 36,10.37 A 23.37,23.37 0 0 0 31.7,7.84 l -1,-6.58 C 30.95,0.51 30.19,0 29.7,0 H 19.57 C 19.06,0 18.3,0.51 18.3,1 l -1,6.83 A 18.57,18.57 0 0 0 13,10.37 L 6.93,7.84 A 1.56,1.56 0 0 0 5.16,8.34 L 0.1,17.19 c -0.25,0.25 0,1 0.5,1.52 l 5.31,4 c 0,0.76 -0.25,1.52 -0.25,2.53 a 7.9,7.9 0 0 0 0.25,2.53 L 0.6,32.11 a 1.19,1.19 0 0 0 -0.25,1.51 l 5.06,8.85 a 1.41,1.41 0 0 0 1.52,0.26 l 6.32,-2.53 a 24.21,24.21 0 0 0 4.29,2.53 l 1,6.57 a 1.16,1.16 0 0 0 1.27,1 h 10.12 c 0.51,0 1.27,-0.51 1.27,-1 l 1,-6.57 a 24.21,24.21 0 0 0 4.3,-2.53 l 6.33,2.53 a 1.21,1.21 0 0 0 1.51,-0.51 l 5.06,-8.85 c 0.25,-0.5 0.25,-1.26 -0.25,-1.52 z m -18.71,6.32 a 8.85,8.85 0 1 1 8.85,-8.85 9,9 0 0 1 -8.85,8.85 z"
       id="path8"
       inkscape:connector-curvature="0"
       style="fill:#ac0000" />
  </g>
</svg>
