<?xml version="1.0" encoding="UTF-8" standalone="no"?>
<svg
  xmlns:dc="http://purl.org/dc/elements/1.1/"
  xmlns:cc="http://creativecommons.org/ns#"
  xmlns:rdf="http://www.w3.org/1999/02/22-rdf-syntax-ns#"
  xmlns:svg="http://www.w3.org/2000/svg"
  xmlns="http://www.w3.org/2000/svg"
  xmlns:sodipodi="http://sodipodi.sourceforge.net/DTD/sodipodi-0.dtd"
  xmlns:inkscape="http://www.inkscape.org/namespaces/inkscape"
  id="Layer_1"
  data-name="Layer 1"
  viewBox="0 0 370.9 58.92"
  version="1.1"
  sodipodi:docname="logo.svg"
  width="370.9"
  height="58.92"
  inkscape:version="0.92.3 (2405546, 2018-03-11)">
  <defs><style>.cls-1{fill:red;}</style></defs><title>g</title><path d="M99.89,29.75a19,19,0,0,1-1.28,7.06A15.81,15.81,0,0,1,89.42,46a19.74,19.74,0,0,1-7.25,1.28H68.86V12.28H82.17a19.54,19.54,0,0,1,7.25,1.29A16.46,16.46,0,0,1,95,17.17a16.1,16.1,0,0,1,3.6,5.53A18.94,18.94,0,0,1,99.89,29.75Zm-6.67,0a16.27,16.27,0,0,0-.76-5.16,10.66,10.66,0,0,0-2.2-3.86,9.52,9.52,0,0,0-3.48-2.43,11.84,11.84,0,0,0-4.61-.85H75.38V42.06h6.79a12,12,0,0,0,4.61-.85,9.52,9.52,0,0,0,3.48-2.43,10.62,10.62,0,0,0,2.2-3.87A16.18,16.18,0,0,0,93.22,29.75Z"/><path d="M109.87,26.73a10.89,10.89,0,0,1,2.76-3.49A5.84,5.84,0,0,1,116.4,22a4.59,4.59,0,0,1,2.75.75l-.38,4.47a1.18,1.18,0,0,1-.35.62,1,1,0,0,1-.62.18,7,7,0,0,1-1.07-.12,8.45,8.45,0,0,0-1.4-.12,4.85,4.85,0,0,0-1.76.29,4.47,4.47,0,0,0-1.39.83,5.73,5.73,0,0,0-1.09,1.32,13.73,13.73,0,0,0-.88,1.76V47.23h-6V22.43h3.51a1.91,1.91,0,0,1,1.28.33,1.91,1.91,0,0,1,.48,1.17Z"/><path d="M132.54,22a13.47,13.47,0,0,1,5,.9,10.91,10.91,0,0,1,3.87,2.54,11.09,11.09,0,0,1,2.47,4,15.25,15.25,0,0,1,.87,5.29,15.34,15.34,0,0,1-.87,5.32,11.34,11.34,0,0,1-2.47,4,10.84,10.84,0,0,1-3.87,2.57,13.67,13.67,0,0,1-5,.89,13.84,13.84,0,0,1-5-.89,10.8,10.8,0,0,1-3.88-2.57,11.53,11.53,0,0,1-2.49-4,15.34,15.34,0,0,1-.88-5.32,15.24,15.24,0,0,1,.88-5.29,11.26,11.26,0,0,1,2.49-4,10.86,10.86,0,0,1,3.88-2.54A13.63,13.63,0,0,1,132.54,22Zm0,21a5.23,5.23,0,0,0,4.58-2.08,10.44,10.44,0,0,0,1.49-6.09,10.57,10.57,0,0,0-1.49-6.12,5.22,5.22,0,0,0-4.58-2.1,5.34,5.34,0,0,0-4.65,2.12,10.39,10.39,0,0,0-1.51,6.1,10.3,10.3,0,0,0,1.51,6.08A5.37,5.37,0,0,0,132.54,43Z"/><path d="M160.31,22a13.47,13.47,0,0,1,5,.9,10.82,10.82,0,0,1,3.87,2.54,11.09,11.09,0,0,1,2.47,4,15.25,15.25,0,0,1,.87,5.29,15.34,15.34,0,0,1-.87,5.32,11.34,11.34,0,0,1-2.47,4,10.76,10.76,0,0,1-3.87,2.57,13.67,13.67,0,0,1-5,.89,13.84,13.84,0,0,1-5.05-.89,10.88,10.88,0,0,1-3.88-2.57,11.53,11.53,0,0,1-2.49-4,15.34,15.34,0,0,1-.88-5.32,15.24,15.24,0,0,1,.88-5.29,11.26,11.26,0,0,1,2.49-4,11,11,0,0,1,3.88-2.54A13.63,13.63,0,0,1,160.31,22Zm0,21a5.23,5.23,0,0,0,4.58-2.08,10.37,10.37,0,0,0,1.49-6.09,10.5,10.5,0,0,0-1.49-6.12,5.22,5.22,0,0,0-4.58-2.1,5.34,5.34,0,0,0-4.65,2.12,10.39,10.39,0,0,0-1.51,6.1,10.3,10.3,0,0,0,1.51,6.08A5.37,5.37,0,0,0,160.31,43Z"/><path d="M182.77,25.81A12.91,12.91,0,0,1,186.22,23,9.41,9.41,0,0,1,190.77,22a8.07,8.07,0,0,1,3.71.85,8.34,8.34,0,0,1,2.9,2.45,11.75,11.75,0,0,1,1.88,4,19.77,19.77,0,0,1,.67,5.41,16.89,16.89,0,0,1-.75,5.14A12.54,12.54,0,0,1,197,43.89a9.92,9.92,0,0,1-3.36,2.72,9.79,9.79,0,0,1-4.41,1,8.8,8.8,0,0,1-3.55-.64,8.6,8.6,0,0,1-2.64-1.78V55.33h-6V22.43h3.65a1.46,1.46,0,0,1,1.52,1.09Zm.31,15a6,6,0,0,0,2.21,1.74,6.59,6.59,0,0,0,2.6.51,5.67,5.67,0,0,0,2.44-.51A4.73,4.73,0,0,0,192.18,41a7.46,7.46,0,0,0,1.17-2.62,14.66,14.66,0,0,0,.41-3.73,16.27,16.27,0,0,0-.35-3.69,6.93,6.93,0,0,0-1-2.45,3.92,3.92,0,0,0-1.58-1.38,5,5,0,0,0-2.12-.44,6,6,0,0,0-3.16.79,9.51,9.51,0,0,0-2.47,2.21Z"/><path d="M210.61,11.31V47.23h-6V11.31Z"/><path d="M218.42,34.25v.46a16.29,16.29,0,0,0,.63,4.76,9.58,9.58,0,0,0,1.78,3.44A7.3,7.3,0,0,0,223.64,45a9.2,9.2,0,0,0,3.67.71,11.15,11.15,0,0,0,3.14-.4,12.1,12.1,0,0,0,2.24-.9,14.19,14.19,0,0,0,1.44-.89,1.58,1.58,0,0,1,.77-.4.55.55,0,0,1,.48.24l.63.77a6.42,6.42,0,0,1-1.53,1.36,10.61,10.61,0,0,1-2.13,1.07,15.62,15.62,0,0,1-2.51.72,14.52,14.52,0,0,1-2.7.26,11.27,11.27,0,0,1-4.49-.86,9.34,9.34,0,0,1-3.48-2.5,11.2,11.2,0,0,1-2.24-4,17.48,17.48,0,0,1-.78-5.45,14.82,14.82,0,0,1,.73-4.77A10.93,10.93,0,0,1,219,26.16a9.66,9.66,0,0,1,3.41-2.47,11.11,11.11,0,0,1,4.58-.9,10.15,10.15,0,0,1,3.77.7,8.57,8.57,0,0,1,3,2.05,9.57,9.57,0,0,1,2,3.3,12.7,12.7,0,0,1,.73,4.49,1.27,1.27,0,0,1-.14.73.57.57,0,0,1-.48.19Zm16.05-1.48a10.38,10.38,0,0,0-.55-3.46,7.28,7.28,0,0,0-1.53-2.6A6.71,6.71,0,0,0,230,25.08a7.72,7.72,0,0,0-3-.57,9,9,0,0,0-3.33.58,7.15,7.15,0,0,0-2.55,1.67,8.09,8.09,0,0,0-1.73,2.61,11.78,11.78,0,0,0-.87,3.4Z"/><path d="M245,27.39a13.72,13.72,0,0,1,3.86-3.34,9.58,9.58,0,0,1,4.87-1.26,9,9,0,0,1,3.49.63,6.38,6.38,0,0,1,2.5,1.81,8,8,0,0,1,1.5,2.86,12.83,12.83,0,0,1,.51,3.77V47.23h-2.32V31.86a8.25,8.25,0,0,0-1.55-5.31,5.68,5.68,0,0,0-4.71-1.92,8.5,8.5,0,0,0-4.39,1.2,12.35,12.35,0,0,0-3.64,3.32V47.23H242.8v-24h1.28a.65.65,0,0,1,.71.6Z"/><path d="M288.75,24.24V25c0,.36-.23.57-.68.65L284.4,26a7.07,7.07,0,0,1,1,2.05,8.15,8.15,0,0,1,.36,2.47,7.64,7.64,0,0,1-.62,3.15,6.82,6.82,0,0,1-1.74,2.42,7.88,7.88,0,0,1-2.7,1.56,10.51,10.51,0,0,1-3.49.56,10.69,10.69,0,0,1-3.75-.63,5.19,5.19,0,0,0-1.61,1.36,2.65,2.65,0,0,0-.59,1.56,1.87,1.87,0,0,0,.74,1.6,4.83,4.83,0,0,0,1.93.81,17.37,17.37,0,0,0,2.73.32l3.13.16c1.07.06,2.11.16,3.13.3a10.17,10.17,0,0,1,2.73.76,5,5,0,0,1,1.94,1.53,4.19,4.19,0,0,1,.73,2.59,6,6,0,0,1-.75,2.88,7.63,7.63,0,0,1-2.16,2.44A11.41,11.41,0,0,1,282,55.56a15,15,0,0,1-4.49.64,17.26,17.26,0,0,1-4.45-.52,10.62,10.62,0,0,1-3.2-1.41,6.08,6.08,0,0,1-1.95-2,4.87,4.87,0,0,1-.65-2.46,4.7,4.7,0,0,1,1.25-3.28A8.47,8.47,0,0,1,272,44.35a4.64,4.64,0,0,1-2-1.19,3,3,0,0,1-.74-2.14,3.25,3.25,0,0,1,.2-1.07,4.5,4.5,0,0,1,.58-1.1,5.58,5.58,0,0,1,.94-1,6.39,6.39,0,0,1,1.26-.87,7.05,7.05,0,0,1-2.67-2.64,7.45,7.45,0,0,1-1-3.84,7.88,7.88,0,0,1,.62-3.16A6.81,6.81,0,0,1,271,24.9a8.11,8.11,0,0,1,2.72-1.58,10.57,10.57,0,0,1,3.52-.55,10.44,10.44,0,0,1,2.93.39,8.68,8.68,0,0,1,2.41,1.08Zm-2.51,24.61a2.69,2.69,0,0,0-.6-1.83A3.88,3.88,0,0,0,284.06,46a9.53,9.53,0,0,0-2.28-.55c-.86-.1-1.77-.18-2.71-.23L276.23,45a23.65,23.65,0,0,1-2.68-.29,10.63,10.63,0,0,0-1.69.83,6.27,6.27,0,0,0-1.33,1.08,4.72,4.72,0,0,0-.87,1.32,3.81,3.81,0,0,0,.23,3.5A4.78,4.78,0,0,0,271.48,53a9.07,9.07,0,0,0,2.57,1.05,14.27,14.27,0,0,0,3.51.39,13.82,13.82,0,0,0,3.42-.41,9.88,9.88,0,0,0,2.76-1.16,5.91,5.91,0,0,0,1.83-1.79A4.16,4.16,0,0,0,286.24,48.85Zm-9-12.26a7.86,7.86,0,0,0,2.75-.44,5.76,5.76,0,0,0,2-1.25A5.31,5.31,0,0,0,283.29,33a6.69,6.69,0,0,0,.43-2.46,6.84,6.84,0,0,0-.44-2.48A5.44,5.44,0,0,0,282,26.13a5.8,5.8,0,0,0-2-1.23,8.6,8.6,0,0,0-5.43,0,5.67,5.67,0,0,0-2,1.23,5.16,5.16,0,0,0-1.27,1.92,6.84,6.84,0,0,0-.44,2.48,6.69,6.69,0,0,0,.44,2.46,5.2,5.2,0,0,0,1.27,1.91,5.85,5.85,0,0,0,2,1.25A7.65,7.65,0,0,0,277.25,36.59Z"/><path d="M297.62,14.89a1.85,1.85,0,0,1-.18.81,2.4,2.4,0,0,1-.47.66,2.1,2.1,0,0,1-.68.46,2.06,2.06,0,0,1-1.64,0,2,2,0,0,1-.68-.46,2.18,2.18,0,0,1-.46-.66,2,2,0,0,1-.17-.81,2.12,2.12,0,0,1,.17-.83,2.09,2.09,0,0,1,.46-.69,2,2,0,0,1,.68-.46,2.06,2.06,0,0,1,1.64,0,2.1,2.1,0,0,1,.68.46,2.28,2.28,0,0,1,.47.69A2,2,0,0,1,297.62,14.89Zm-1,8.29v24h-2.3v-24Z"/><path d="M307,27.39a13.59,13.59,0,0,1,3.86-3.34,9.55,9.55,0,0,1,4.87-1.26,9,9,0,0,1,3.49.63,6.38,6.38,0,0,1,2.5,1.81,8,8,0,0,1,1.5,2.86,12.83,12.83,0,0,1,.51,3.77V47.23h-2.32V31.86a8.25,8.25,0,0,0-1.55-5.31,5.68,5.68,0,0,0-4.71-1.92,8.5,8.5,0,0,0-4.39,1.2,12.35,12.35,0,0,0-3.64,3.32V47.23h-2.32v-24h1.28a.63.63,0,0,1,.7.6Z"/><path d="M332.23,34.25v.46a16.29,16.29,0,0,0,.63,4.76,9.59,9.59,0,0,0,1.79,3.44,7.2,7.2,0,0,0,2.8,2.09,9.24,9.24,0,0,0,3.67.71,11.27,11.27,0,0,0,3.15-.4,12,12,0,0,0,2.23-.9,13.14,13.14,0,0,0,1.44-.89,1.58,1.58,0,0,1,.77-.4.58.58,0,0,1,.49.24l.63.77a6.48,6.48,0,0,1-1.54,1.36,10.35,10.35,0,0,1-2.13,1.07,15.62,15.62,0,0,1-2.51.72,14.34,14.34,0,0,1-2.69.26,11.28,11.28,0,0,1-4.5-.86,9.51,9.51,0,0,1-3.48-2.5,11.35,11.35,0,0,1-2.24-4,17.48,17.48,0,0,1-.78-5.45,14.55,14.55,0,0,1,.74-4.77,11.07,11.07,0,0,1,2.12-3.78,9.66,9.66,0,0,1,3.41-2.47,11.14,11.14,0,0,1,4.58-.9,10.15,10.15,0,0,1,3.77.7,8.48,8.48,0,0,1,3,2.05,9.42,9.42,0,0,1,2,3.3,12.69,12.69,0,0,1,.74,4.49,1.26,1.26,0,0,1-.15.73.55.55,0,0,1-.48.19Zm16-1.48a10.38,10.38,0,0,0-.54-3.46,7.45,7.45,0,0,0-1.54-2.6,6.71,6.71,0,0,0-2.36-1.63,7.72,7.72,0,0,0-3-.57,9,9,0,0,0-3.33.58A7.33,7.33,0,0,0,335,26.76a8.26,8.26,0,0,0-1.73,2.61,12.46,12.46,0,0,0-.87,3.4Z"/><path d="M369.84,26.15a.61.61,0,0,1-.56.34,1.23,1.23,0,0,1-.67-.3,10.88,10.88,0,0,0-1.11-.68,8.48,8.48,0,0,0-1.7-.67,8.37,8.37,0,0,0-2.46-.31,7.16,7.16,0,0,0-2.38.38,5.89,5.89,0,0,0-1.84,1A4.39,4.39,0,0,0,358,27.37a3.86,3.86,0,0,0-.41,1.76,3,3,0,0,0,.58,1.88,4.89,4.89,0,0,0,1.51,1.28,11,11,0,0,0,2.13.92l2.46.77c.83.26,1.65.55,2.45.86A9.3,9.3,0,0,1,368.81,36a5.67,5.67,0,0,1,1.51,1.72,4.88,4.88,0,0,1,.58,2.47,7.63,7.63,0,0,1-.55,2.92,6.62,6.62,0,0,1-1.64,2.34A7.77,7.77,0,0,1,366.07,47a10.54,10.54,0,0,1-3.6.58,10.8,10.8,0,0,1-4.38-.81,12.45,12.45,0,0,1-3.29-2.12l.54-.82a.85.85,0,0,1,.27-.29.78.78,0,0,1,.43-.1,1.28,1.28,0,0,1,.76.39,8.71,8.71,0,0,0,1.2.83,10,10,0,0,0,1.84.84,8.53,8.53,0,0,0,2.72.38,7.91,7.91,0,0,0,2.69-.42,5.51,5.51,0,0,0,1.93-1.15,4.88,4.88,0,0,0,1.17-1.7,5.34,5.34,0,0,0,.4-2.07,3.29,3.29,0,0,0-.58-2,4.89,4.89,0,0,0-1.52-1.36,10.79,10.79,0,0,0-2.14-.94c-.8-.26-1.62-.52-2.45-.77s-1.66-.54-2.46-.85a9,9,0,0,1-2.14-1.16,5.73,5.73,0,0,1-1.52-1.7,4.93,4.93,0,0,1-.58-2.51,5.74,5.74,0,0,1,.56-2.46,6.22,6.22,0,0,1,1.58-2.08,7.8,7.8,0,0,1,2.5-1.43,9.82,9.82,0,0,1,3.31-.53,11.25,11.25,0,0,1,3.91.63,9.2,9.2,0,0,1,3.1,1.93Z"/><path class="cls-1" d="M30.85.52l-.3-.05h-.43L34.76,9c8.22,3.38,13.31,11,13.31,20.48,0,13-9.88,22.38-23.5,22.38H7.07V7.07H18.85l3.3,6.07L15.53,24.46a12.29,12.29,0,1,0,20.87.05L23.05,0H0V58.92H24.57c17.72,0,30.57-12.39,30.57-29.46C55.14,14.71,45.38,3.08,30.85.52ZM26.1,20.39,30.24,28l.12.2a5.22,5.22,0,1,1-8.82,0Z"/>
</svg>
