<?xml version="1.0" encoding="UTF-8" standalone="no"?>
<!-- Created with Inkscape (http://www.inkscape.org/) -->

<svg
   xmlns:dc="http://purl.org/dc/elements/1.1/"
   xmlns:cc="http://creativecommons.org/ns#"
   xmlns:rdf="http://www.w3.org/1999/02/22-rdf-syntax-ns#"
   xmlns:svg="http://www.w3.org/2000/svg"
   xmlns="http://www.w3.org/2000/svg"
   xmlns:sodipodi="http://sodipodi.sourceforge.net/DTD/sodipodi-0.dtd"
   xmlns:inkscape="http://www.inkscape.org/namespaces/inkscape"
   width="26.722916mm"
   height="26.722916mm"
   viewBox="0 0 26.722916 26.722916"
   version="1.1"
   id="svg8"
   sodipodi:docname="bagel.svg"
   inkscape:version="0.92.3 (2405546, 2018-03-11)">
  <defs
     id="defs2" />
  <sodipodi:namedview
     id="base"
     pagecolor="#ffffff"
     bordercolor="#666666"
     borderopacity="1.0"
     inkscape:pageopacity="0.0"
     inkscape:pageshadow="2"
     inkscape:zoom="0.7"
     inkscape:cx="-160.81366"
     inkscape:cy="41.319735"
     inkscape:document-units="mm"
     inkscape:current-layer="layer1"
     showgrid="false"
     inkscape:window-width="1920"
     inkscape:window-height="995"
     inkscape:window-x="0"
     inkscape:window-y="0"
     inkscape:window-maximized="1"
     fit-margin-top="0"
     fit-margin-left="0"
     fit-margin-right="0"
     fit-margin-bottom="0" />
  <metadata
     id="metadata5">
    <rdf:RDF>
      <cc:Work
         rdf:about="">
        <dc:format>image/svg+xml</dc:format>
        <dc:type
           rdf:resource="http://purl.org/dc/dcmitype/StillImage" />
        <dc:title></dc:title>
      </cc:Work>
    </rdf:RDF>
  </metadata>
  <g
     inkscape:label="Layer 1"
     inkscape:groupmode="layer"
     id="layer1"
     transform="translate(-53.691295,-186.34728)">
    <path
       style="fill:none;stroke:#ff6600;stroke-width:2;stroke-miterlimit:4;stroke-dasharray:none"
       d="m 253.42773,705.30469 a 49.500001,49.500001 0 0 0 -49.5,49.5 49.500001,49.500001 0 0 0 49.5,49.5 49.500001,49.500001 0 0 0 49.5,-49.5 49.500001,49.500001 0 0 0 -5.10351,-21.82617 18.071428,18.071428 0 0 1 -11.53906,4.18359 18.071428,18.071428 0 0 1 -18.07032,-18.07031 18.071428,18.071428 0 0 1 3.25196,-10.33008 49.500001,49.500001 0 0 0 -18.03907,-3.45703 z"
       transform="scale(0.26458333)"
       id="path10"
       inkscape:connector-curvature="0" />
    <circle
       r="3.458482"
       cy="199.70892"
       cx="67.052971"
       id="circle983"
       style="fill:none;stroke:#ff6600;stroke-width:0.5291667;stroke-miterlimit:4;stroke-dasharray:none" />
  </g>
</svg>
