<?xml version="1.0" encoding="UTF-8" standalone="no"?>
<!-- Creator: CorelDRAW -->

<svg
   xmlns:dc="http://purl.org/dc/elements/1.1/"
   xmlns:cc="http://creativecommons.org/ns#"
   xmlns:rdf="http://www.w3.org/1999/02/22-rdf-syntax-ns#"
   xmlns:svg="http://www.w3.org/2000/svg"
   xmlns="http://www.w3.org/2000/svg"
   xmlns:xlink="http://www.w3.org/1999/xlink"
   xmlns:sodipodi="http://sodipodi.sourceforge.net/DTD/sodipodi-0.dtd"
   xmlns:inkscape="http://www.inkscape.org/namespaces/inkscape"
   height="52.916668mm"
   id="svg2"
   inkscape:version="0.92.3 (2405546, 2018-03-11)"
   sodipodi:docname="demo_logo3.svg"
   sodipodi:version="0.32"
   space="preserve"
   style="clip-rule:evenodd;fill-rule:evenodd;image-rendering:optimizeQuality;shape-rendering:geometricPrecision;text-rendering:geometricPrecision"
   viewBox="0 0 58.692688 52.916668"
   width="58.692688mm"
   version="1.1">
  <metadata
     id="metadata2">
    <rdf:RDF>
      <cc:Work
         rdf:about="">
        <dc:title>plane in the sky</dc:title>
        <dc:description />
        <dc:subject>
          <rdf:Bag>
            <rdf:li>747</rdf:li>
            <rdf:li>plane</rdf:li>
            <rdf:li>cloud</rdf:li>
            <rdf:li>737</rdf:li>
            <rdf:li>airlines</rdf:li>
            <rdf:li>airbus</rdf:li>
            <rdf:li>transportation</rdf:li>
          </rdf:Bag>
        </dc:subject>
        <dc:publisher>
          <cc:Agent
             rdf:about="http://www.openclipart.org/">
            <dc:title>Open Clip Art Library</dc:title>
          </cc:Agent>
        </dc:publisher>
        <dc:creator>
          <cc:Agent>
            <dc:title>mo</dc:title>
          </cc:Agent>
        </dc:creator>
        <dc:rights>
          <cc:Agent>
            <dc:title>mo</dc:title>
          </cc:Agent>
        </dc:rights>
        <dc:date>14 09 2005</dc:date>
        <dc:format>image/svg+xml</dc:format>
        <dc:type
           rdf:resource="http://purl.org/dc/dcmitype/StillImage" />
        <cc:license
           rdf:resource="http://web.resource.org/cc/PublicDomain" />
        <dc:language>en</dc:language>
      </cc:Work>
      <cc:License
         rdf:about="http://web.resource.org/cc/PublicDomain">
        <cc:permits
           rdf:resource="http://web.resource.org/cc/Reproduction" />
        <cc:permits
           rdf:resource="http://web.resource.org/cc/Distribution" />
        <cc:permits
           rdf:resource="http://web.resource.org/cc/DerivativeWorks" />
      </cc:License>
    </rdf:RDF>
  </metadata>
  <sodipodi:namedview
     bordercolor="#666666"
     borderopacity="1.0"
     id="namedview15"
     inkscape:current-layer="svg2"
     inkscape:cx="223.89251"
     inkscape:cy="-92.468153"
     inkscape:pageopacity="0.0"
     inkscape:pageshadow="2"
     inkscape:window-height="915"
     inkscape:window-width="1267"
     inkscape:window-x="110"
     inkscape:window-y="60"
     inkscape:zoom="0.91422302"
     pagecolor="#ffffff"
     showgrid="false"
     fit-margin-top="0"
     fit-margin-left="0"
     fit-margin-right="0"
     fit-margin-bottom="0"
     inkscape:window-maximized="0" />
  <defs
     id="defs4">
    <linearGradient
       id="linearGradient2245">
      <stop
         id="stop2247"
         offset="0"
         style="stop-color:#0dadff;stop-opacity:1;" />
      <stop
         id="stop2249"
         offset="1"
         style="stop-color:#006ba3;stop-opacity:1;" />
    </linearGradient>
    <style
       id="style6"
       type="text/css">
   
    .fil0 {fill:#EF7900}
    .fil1 {fill:white}
   
  </style>
    <sodipodi:namedview
       bordercolor="#666666"
       borderopacity="1.0"
       id="base"
       inkscape:current-layer="layer1"
       inkscape:cx="453.20171"
       inkscape:cy="610.9946"
       inkscape:document-units="px"
       inkscape:pageopacity="0.0"
       inkscape:pageshadow="2"
       inkscape:zoom="1.2732944"
       pagecolor="#ffffff" />
    <linearGradient
       gradientUnits="userSpaceOnUse"
       id="linearGradient2251"
       inkscape:collect="always"
       x1="162.99451"
       x2="1.8522106"
       xlink:href="#linearGradient2245"
       y1="139.56212"
       y2="111.16156" />
  </defs>
  <g
     id="g838"
     transform="matrix(0.31339239,0,0,0.31339239,-3.793292,-6.7099329)">
    <path
       style="fill:url(#linearGradient2251);fill-opacity:1"
       id="path10"
       d="m 57.1067,83.3441 c 0.9927,0.4487 1.9253,0.9734 2.7939,1.5632 1.0691,-5.6818 4.6217,-10.2375 9.2285,-12.6172 0.0093,-1.048 0.1071,-2.1105 0.3006,-3.179 1.7303,-9.523 10.4241,-15.9222 19.4126,-14.2882 8.99,1.6327 14.8772,10.6799 13.1468,20.2034 -0.1524,0.833 -0.3563,1.6411 -0.61,2.4232 2.2751,2.8367 3.6609,6.4442 3.8267,10.3126 0.4254,0.1562 0.8489,0.3289 1.2689,0.5188 4.936,2.2312 8.3922,6.3417 9.8201,10.9883 0.6491,0.0124 1.302,0.0596 1.9556,0.1436 3.769,-8.3148 13.967,-11.826 22.7819,-7.8407 5.3131,2.4016 8.9122,6.9808 10.1121,12.0621 1.0145,0.2627 2.0217,0.6153 3.0115,1.0625 4.5085,2.0384 7.7826,5.6445 9.4044,9.7947 5.1107,2.4442 8.5717,6.9277 9.7439,11.8904 1.0138,0.2622 2.0214,0.6147 3.0108,1.0622 8.8199,3.988 12.9203,13.9732 9.1561,22.2982 -3.7636,8.3251 -13.9688,11.8431 -22.7887,7.8553 -0.7712,-0.3486 -1.5061,-0.7439 -2.2035,-1.1786 -4.4536,2.0479 -9.8753,2.1901 -14.8552,-0.0614 -0.8344,-0.3775 -1.6264,-0.8091 -2.374,-1.2873 -0.5206,0.11 -1.0486,0.1962 -1.5813,0.2589 0.0204,2.2344 -0.4258,4.4896 -1.3956,6.6344 -3.7635,8.3257 -13.9684,11.8434 -22.7881,7.8558 -0.771,-0.3493 -1.5061,-0.7438 -2.2032,-1.179 -2.5387,1.1675 -5.392,1.7149 -8.2982,1.5536 -3.1508,4.3981 -8.4831,7.29 -14.53,7.29 -1.6436,0 -3.2339,-0.2143 -4.7429,-0.6135 -1.5606,7.6279 -8.6727,13.3914 -17.2088,13.3914 -9.6795,0 -17.5292,-7.4094 -17.5292,-16.5457 0,-7.3713 5.1101,-13.6175 12.1679,-15.7564 -2.6288,-1.7988 -4.7083,-4.2701 -5.9549,-7.1455 -1.9716,-0.1843 -3.958,-0.6963 -5.8791,-1.5649 -0.771,-0.3493 -1.5061,-0.7438 -2.2032,-1.179 -4.4543,2.0484 -9.8755,2.1901 -14.8554,-0.0613 -0.8346,-0.3774 -1.6268,-0.8088 -2.3742,-1.2868 -3.5993,0.7594 -7.5287,0.405 -11.2161,-1.2618 -8.8198,-3.9875 -12.9197,-13.9729 -9.1557,-22.2987 1.1685,-2.5842 2.9585,-4.7048 5.1344,-6.2817 -3.3995,-4.7257 -4.3088,-10.8914 -1.8432,-16.3453 3.0304,-6.7016 10.2356,-10.2875 17.5319,-9.3499 3.769,-8.3148 13.967,-11.826 22.7819,-7.8407 z"
       class="fil0"
       inkscape:connector-curvature="0" />
    <path
       style="fill:#ffffff"
       sodipodi:nodetypes="csssssssssssssssssscccssssssccccccscccccssssssscccsssssssssssscccssssssssssssssssssssssssssssssssssssccssssssssc"
       id="path1368"
       d="m 72.8279,178.33 c -0.0989,-0.2578 -0.6074,-0.3182 -2.6834,-0.3182 -1.4088,0 -2.5614,-0.0492 -2.5614,-0.1094 0,-0.0603 0.6905,-0.9944 1.5343,-2.0757 2.764,-3.5424 5.704,-7.6785 5.704,-8.025 0,-0.1868 0.479,-1.005 1.0645,-1.8181 1.1471,-1.5934 1.2361,-1.8096 0.7451,-1.8096 -0.5436,0 -0.3533,-0.3307 0.396,-0.6881 0.5593,-0.2667 1.186,-1.0858 2.874,-3.7562 1.1873,-1.8784 2.1587,-3.4671 2.1587,-3.5304 0,-0.0633 -0.1973,-0.1151 -0.4384,-0.1151 -0.6033,0 -0.3404,-0.3429 0.3807,-0.4966 0.4619,-0.0984 0.9112,-0.6173 2.07,-2.3912 1.447,-2.2151 2.3617,-3.1668 3.1884,-3.3177 0.6646,-0.1212 0.4993,-0.495 -0.2511,-0.5673 -0.7429,-0.0717 -0.8456,-0.2266 -0.4274,-0.6447 0.2104,-0.2105 0.1998,-0.3042 -0.0523,-0.46 -0.27,-0.1668 -0.2541,-0.2427 0.1083,-0.5165 0.2995,-0.2264 0.3346,-0.323 0.1191,-0.3278 -0.1681,-0.004 -0.5157,0.1906 -0.7724,0.4317 l -0.4668,0.4386 0.4901,-2.7271 c 1.0539,-5.8644 1.1657,-6.2542 2.0772,-7.2432 0.5751,-0.6238 0.7454,-0.9353 0.5456,-0.9974 -0.1599,-0.0496 -1.2487,-0.3023 -2.4196,-0.5615 -1.1709,-0.2593 -2.9911,-0.7807 -4.045,-1.1589 -1.0538,-0.3782 -2.3471,-0.8413 -2.874,-1.029 -0.5481,-0.1953 -3.645,-0.6145 -7.2382,-0.9799 -7.4691,-0.7594 -9.9411,-1.2733 -20.0973,-4.178 l -7.0044,-2.0032 -7.7126,6.1685 c -8.7034,6.9611 -7.7772,6.4785 -11.1046,5.7863 l -1.744,-0.3628 4.3507,-7.7611 c 2.393,-4.2686 4.2795,-7.8273 4.1923,-7.9083 -0.0871,-0.081 -1.3604,-0.6386 -2.8295,-1.239 l -2.6709,-1.0916 0.0834,-0.7152 0.0835,-0.7152 2.8546,-0.1529 c 1.57,-0.084 2.9056,-0.2354 2.968,-0.3364 0.0624,-0.101 -1.3352,-4.7453 -3.1057,-10.321 -1.7705,-5.5756 -3.1784,-10.1782 -3.1286,-10.228 0.0498,-0.0497 0.9919,0.0044 2.0935,0.1205 1.1017,0.116 2.2026,0.2125 2.4465,0.2146 0.3398,0.0029 1.504,1.5334 4.982,6.5501 2.4961,3.6004 4.7648,6.853 5.0413,7.2278 0.2765,0.3748 2.1386,1.8447 4.1379,3.2663 l 3.6351,2.5848 5.4631,0.1963 c 6.0915,0.2189 9.445,0.4976 19.0927,1.5869 6.2731,0.7082 14.8419,1.56 14.9462,1.4857 0.0267,-0.0191 0.1394,-1.639 0.2506,-3.6 0.1178,-2.0809 0.3042,-3.6887 0.4475,-3.8614 0.2378,-0.2865 0.9695,-0.5666 2.1807,-0.8348 0.7314,-0.1619 0.7689,-0.5473 0.0532,-0.5473 -0.5307,0 -0.5322,-0.006 -0.5322,-2.0423 0,-1.8273 -0.0426,-2.0535 -0.4043,-2.1482 -0.3155,-0.0824 -0.5284,-0.6046 -0.9686,-2.3751 -1.0226,-4.1128 -0.8881,-3.8034 -1.7218,-3.9598 -0.834,-0.1565 -0.803,-0.5448 0.0434,-0.5448 0.4542,0 0.5244,-0.0782 0.4304,-0.479 -0.0618,-0.2635 -0.6699,-2.915 -1.3515,-5.8922 l -1.239,-5.413 -0.7984,-0.335 C 84.4526,89.2733 84.39,89.0236 85.253,89.0236 c 0.3513,0 0.6387,-0.0599 0.6387,-0.1331 0,-0.0733 -0.3976,-1.8124 -0.8835,-3.8647 -0.8096,-3.4188 -0.8541,-3.7531 -0.5323,-3.9885 0.3929,-0.2872 0.4655,-0.8594 0.135,-1.0637 -0.119,-0.0735 -0.1667,-0.214 -0.1061,-0.3121 0.1065,-0.1724 -1.4158,-5.2908 -3.8543,-12.9592 -0.6461,-2.0312 -1.144,-3.7204 -1.1068,-3.7535 0.1436,-0.1277 5.1754,1.8001 5.2452,2.0096 0.0406,0.1218 0.1905,0.2215 0.333,0.2215 0.1425,0 0.4633,0.4201 0.7128,0.9335 0.5602,1.1531 8.562,15.8421 17.873,32.8096 3.8552,7.0254 7.073,12.9411 7.1506,13.146 0.1851,0.4888 1.4829,0.5047 1.8827,0.0231 0.2524,-0.3042 0.6372,-0.332 2.9623,-0.2144 3.889,0.1969 6.0844,0.5233 7.7136,1.1469 1.0802,0.4135 1.415,0.6357 1.3391,0.8889 -0.0557,0.1857 -0.3004,1.5352 -0.544,2.9988 -0.2435,1.4636 -0.4934,2.8288 -0.5551,3.0336 -0.1925,0.6392 -3.1539,0.4819 -7.515,-0.399 -0.6763,-0.1367 -0.717,-0.114 -0.5997,0.3344 0.2422,0.9262 2.8183,5.1796 3.2405,5.3506 0.2345,0.0949 4.8811,0.6614 10.3258,1.2587 16.8295,1.8465 19.8536,2.3378 25.5502,4.1516 4.8965,1.5591 10.4838,4.6006 12.2572,6.6725 0.6164,0.7201 0.667,0.8712 0.4446,1.3286 -0.5406,1.1112 -4.2773,2.4942 -8.6602,3.2051 -2.0852,0.3382 -12.7899,0.3354 -15.7539,-0.004 -1.2294,-0.1408 -6.2111,-0.7398 -11.0703,-1.3311 -9.332,-1.1355 -12.0428,-1.243 -14.1964,-0.5633 -1.1371,0.3589 -1.2214,0.455 -0.8804,1.0035 0.2528,0.4066 0.217,0.502 -0.3578,0.9536 -1.7616,1.3841 -8.1118,6.8236 -8.2601,7.0755 -0.1395,0.2369 0.2955,0.4601 2.3723,0.2892 2.1218,-0.1747 6.3571,0.4583 7.0124,0.6465 1.8035,0.518 1.9585,0.3872 1.6314,2.8709 -0.1538,1.1683 -0.3869,2.6139 -0.518,3.2125 -0.214,0.9508 -0.9722,1.132 -2.077,1.2031 -1.8003,0.1123 -5.226,-0.2383 -6.5477,-0.6702 -0.3513,-0.1147 -1.1933,-0.3626 -1.8712,-0.5508 -0.9341,-0.2593 -1.2796,-0.4656 -1.4264,-0.8517 -0.1412,-0.3714 -0.5142,-0.6106 -1.3754,-0.882 -0.6498,-0.2049 -1.1815,-0.487 -1.1815,-0.6269 0,-0.14 -0.1372,-0.3683 -0.305,-0.5075 -0.2491,-0.2068 -0.8237,0.2097 -3.1401,2.2757 -3.8659,3.4481 -26.6685,22.5669 -27.5614,23.1089 -0.1341,0.0813 -0.2987,0.005 -0.3659,-0.1702 z"
       class="fil1"
       inkscape:connector-curvature="0" />
    <g
       aria-label="Atlantic Jetlines"
       style="font-style:normal;font-weight:normal;font-size:30.22674751px;line-height:100%;font-family:sans-serif;letter-spacing:0px;word-spacing:0px;fill:#0688cc;fill-opacity:1;stroke:none;stroke-width:0.7556687px;stroke-linecap:butt;stroke-linejoin:miter;stroke-opacity:1"
       id="text822">
      <path
         d="m 121.28221,23.919464 q 0.72544,2.267006 1.42065,4.594466 0.72544,2.297232 1.39043,4.836279 0.69522,2.539047 1.36021,5.380361 0.69521,2.841315 1.39043,6.13603 h -2.72041 q -0.24181,-1.360204 -0.51386,-2.69018 -0.24181,-1.329977 -0.51385,-2.659954 h -6.58943 q -0.30227,1.329977 -0.54408,2.659954 -0.24182,1.329976 -0.48363,2.69018 h -2.62973 q 0.66499,-3.294715 1.36021,-6.13603 0.69521,-2.841314 1.3602,-5.380361 0.69522,-2.539047 1.39043,-4.836279 0.72544,-2.32746 1.45088,-4.594466 z m -1.48112,3.083128 q -0.75566,2.50882 -1.45088,5.047867 -0.69521,2.539047 -1.32998,5.199001 h 5.5315 q -0.60454,-2.659954 -1.29975,-5.199001 -0.69522,-2.539047 -1.45089,-5.047867 z"
         style="font-style:normal;font-variant:normal;font-weight:normal;font-stretch:normal;line-height:100%;font-family:'Ubuntu Condensed';-inkscape-font-specification:'Ubuntu Condensed, ';fill:#0688cc;fill-opacity:1;stroke-width:0.7556687px"
         id="path840"
         inkscape:connector-curvature="0" />
      <path
         d="m 132.25168,28.997558 h 3.98993 v 2.236779 h -3.98993 v 8.73553 q 0,1.632244 0.57431,2.297233 0.60453,0.634761 1.60202,0.634761 0.51385,0 0.96725,-0.151133 0.48363,-0.151134 0.81612,-0.362721 l 0.51386,2.085645 q -1.2393,0.725442 -2.62973,0.725442 -2.23678,0 -3.35517,-1.239296 -1.08816,-1.269524 -1.08816,-4.171292 v -15.05292 l 2.5995,-0.453401 z"
         style="font-style:normal;font-variant:normal;font-weight:normal;font-stretch:normal;line-height:100%;font-family:'Ubuntu Condensed';-inkscape-font-specification:'Ubuntu Condensed, ';fill:#0688cc;fill-opacity:1;stroke-width:0.7556687px"
         id="path842"
         inkscape:connector-curvature="0" />
      <path
         d="m 143.62638,45.168868 q -2.23678,-0.06045 -3.20403,-1.088163 -0.96726,-1.057937 -0.96726,-3.324943 V 21.864045 l 2.5995,-0.453401 v 19.405572 q 0,1.057936 0.42318,1.541564 0.42317,0.453401 1.48111,0.634762 z"
         style="font-style:normal;font-variant:normal;font-weight:normal;font-stretch:normal;line-height:100%;font-family:'Ubuntu Condensed';-inkscape-font-specification:'Ubuntu Condensed, ';fill:#0688cc;fill-opacity:1;stroke-width:0.7556687px"
         id="path844"
         inkscape:connector-curvature="0" />
      <path
         d="m 147.0779,29.330052 q 0.7859,-0.332494 1.66247,-0.513855 0.87658,-0.211587 1.90429,-0.211587 2.11587,0 3.44585,1.329977 1.32997,1.29975 1.32997,4.080611 v 10.518908 q -1.08816,0.302267 -2.23678,0.483628 -1.11839,0.18136 -2.20655,0.18136 -1.08816,0 -2.05542,-0.27204 -0.93703,-0.272041 -1.66247,-0.876576 -0.69521,-0.604535 -1.11839,-1.511338 -0.42317,-0.937029 -0.42317,-2.267006 0,-1.239296 0.36272,-2.146099 0.39295,-0.937029 1.05793,-1.541564 0.66499,-0.634761 1.5718,-0.937029 0.9068,-0.332494 1.96473,-0.332494 0.99749,0 2.20656,0.241814 v -1.450884 q 0,-1.753151 -0.69522,-2.448367 -0.66499,-0.695215 -1.93451,-0.695215 -0.69522,0 -1.32998,0.151134 -0.60453,0.120907 -1.29975,0.423174 z m 1.2393,10.911856 q 0,1.39043 0.72544,2.055418 0.72544,0.664989 2.05542,0.664989 0.81612,0 1.78338,-0.211587 v -5.047867 q -0.90681,-0.241814 -1.78338,-0.241814 -0.57431,0 -1.08816,0.151134 -0.51386,0.120907 -0.90681,0.453401 -0.36272,0.302267 -0.5743,0.846349 -0.21159,0.513854 -0.21159,1.329977 z"
         style="font-style:normal;font-variant:normal;font-weight:normal;font-stretch:normal;line-height:100%;font-family:'Ubuntu Condensed';-inkscape-font-specification:'Ubuntu Condensed, ';fill:#0688cc;fill-opacity:1;stroke-width:0.7556687px"
         id="path846"
         inkscape:connector-curvature="0" />
      <path
         d="m 159.94222,29.450959 q 1.11839,-0.332494 2.41814,-0.544082 1.29975,-0.241814 2.38791,-0.241814 1.17884,0 2.1461,0.332495 0.96725,0.302267 1.63224,1.057936 0.69522,0.755668 1.05794,2.055419 0.39295,1.269523 0.39295,3.173808 V 44.8666 h -2.5995 v -9.370292 q 0,-2.357686 -0.60454,-3.445849 -0.60453,-1.088163 -2.267,-1.088163 -0.87658,0 -1.96474,0.302268 V 44.8666 h -2.5995 z"
         style="font-style:normal;font-variant:normal;font-weight:normal;font-stretch:normal;line-height:100%;font-family:'Ubuntu Condensed';-inkscape-font-specification:'Ubuntu Condensed, ';fill:#0688cc;fill-opacity:1;stroke-width:0.7556687px"
         id="path848"
         inkscape:connector-curvature="0" />
      <path
         d="m 176.9424,28.997558 h 3.98993 v 2.236779 h -3.98993 v 8.73553 q 0,1.632244 0.57431,2.297233 0.60453,0.634761 1.60201,0.634761 0.51386,0 0.96726,-0.151133 0.48363,-0.151134 0.81612,-0.362721 l 0.51386,2.085645 q -1.2393,0.725442 -2.62973,0.725442 -2.23678,0 -3.35517,-1.239296 -1.08816,-1.269524 -1.08816,-4.171292 v -15.05292 l 2.5995,-0.453401 z"
         style="font-style:normal;font-variant:normal;font-weight:normal;font-stretch:normal;line-height:100%;font-family:'Ubuntu Condensed';-inkscape-font-specification:'Ubuntu Condensed, ';fill:#0688cc;fill-opacity:1;stroke-width:0.7556687px"
         id="path850"
         inkscape:connector-curvature="0" />
      <path
         d="m 186.80577,44.8666 h -2.5995 V 28.997558 h 2.5995 z m -1.29975,-18.68013 q -0.69522,0 -1.20907,-0.453401 -0.48363,-0.483628 -0.48363,-1.269524 0,-0.785895 0.48363,-1.239296 0.51385,-0.483628 1.20907,-0.483628 0.69521,0 1.17884,0.483628 0.51385,0.453401 0.51385,1.239296 0,0.785896 -0.51385,1.269524 -0.48363,0.453401 -1.17884,0.453401 z"
         style="font-style:normal;font-variant:normal;font-weight:normal;font-stretch:normal;line-height:100%;font-family:'Ubuntu Condensed';-inkscape-font-specification:'Ubuntu Condensed, ';fill:#0688cc;fill-opacity:1;stroke-width:0.7556687px"
         id="path852"
         inkscape:connector-curvature="0" />
      <path
         d="m 196.36309,45.259548 q -1.63225,0 -2.72041,-0.634762 -1.08816,-0.634762 -1.78338,-1.722925 -0.66499,-1.118389 -0.96725,-2.629727 -0.27205,-1.511337 -0.27205,-3.294715 0,-3.929477 1.42066,-6.13603 1.45089,-2.236779 4.35265,-2.236779 0.87658,0 1.57179,0.211587 0.69522,0.211587 1.29975,0.544082 l -0.66498,2.146099 q -0.93703,-0.604535 -2.08565,-0.604535 -1.63224,0 -2.41814,1.48111 -0.75567,1.481111 -0.75567,4.594466 0,1.29975 0.15114,2.41814 0.15113,1.088163 0.51385,1.874058 0.39295,0.785896 0.99748,1.239297 0.63476,0.453401 1.60202,0.453401 0.66499,0 1.17884,-0.151134 0.54409,-0.18136 1.02771,-0.453401 l 0.57431,2.025192 q -0.48363,0.332494 -1.29975,0.604535 -0.78589,0.272041 -1.72292,0.272041 z"
         style="font-style:normal;font-variant:normal;font-weight:normal;font-stretch:normal;line-height:100%;font-family:'Ubuntu Condensed';-inkscape-font-specification:'Ubuntu Condensed, ';fill:#0688cc;fill-opacity:1;stroke-width:0.7556687px"
         id="path854"
         inkscape:connector-curvature="0" />
      <path
         d="m 121.79606,70.974245 q 0,1.39043 -0.30227,2.50882 -0.27204,1.088163 -0.9068,1.874058 -0.60453,0.785896 -1.63224,1.20907 -0.99749,0.423175 -2.44837,0.423175 -1.14862,0 -2.20655,-0.362721 -1.05794,-0.332494 -1.90429,-0.967256 l 0.9068,-2.146099 q 0.51386,0.392948 1.36021,0.755668 0.87657,0.332495 1.6927,0.332495 0.63476,0 1.11838,-0.151134 0.51386,-0.151134 0.87658,-0.544081 0.36272,-0.423175 0.54408,-1.11839 0.18136,-0.725442 0.18136,-1.813605 V 55.588831 h 2.72041 z"
         style="font-weight:bold;fill:#000000;fill-opacity:1"
         id="path856"
         inkscape:connector-curvature="0" />
      <path
         d="m 128.31087,69.372227 q 0.0302,1.148617 0.21159,2.115873 0.18136,0.937029 0.5743,1.662471 0.42318,0.695215 1.08817,1.088163 0.69521,0.392947 1.75315,0.392947 0.87657,0 1.60202,-0.241814 0.75566,-0.27204 1.08816,-0.453401 l 0.48363,2.085646 q -0.39295,0.272041 -1.32998,0.574308 -0.9068,0.332494 -2.17633,0.332494 -1.66247,0 -2.81108,-0.604535 -1.11839,-0.604535 -1.84383,-1.692698 -0.69522,-1.088162 -0.99749,-2.5995 -0.30226,-1.511337 -0.30226,-3.324942 0,-4.382878 1.45088,-6.408071 1.45088,-2.025192 3.8388,-2.025192 2.69018,0 3.80857,2.025192 1.11839,2.025193 1.11839,5.682629 0,0.332494 0,0.695215 0,0.332494 -0.0302,0.695215 z m 2.62973,-6.891698 q -1.29975,0 -1.90429,1.29975 -0.57431,1.29975 -0.69521,3.476076 h 4.80605 q 0,-2.206553 -0.4534,-3.476076 -0.4534,-1.29975 -1.75315,-1.29975 z"
         style="font-weight:bold;fill:#000000;fill-opacity:1"
         id="path858"
         inkscape:connector-curvature="0" />
      <path
         d="m 142.11079,60.666924 h 3.98994 v 2.236779 h -3.98994 v 8.73553 q 0,1.632245 0.57431,2.297233 0.60454,0.634762 1.60202,0.634762 0.51386,0 0.96726,-0.151134 0.48362,-0.151134 0.81612,-0.362721 l 0.51385,2.085646 q -1.23929,0.725442 -2.62972,0.725442 -2.23678,0 -3.35517,-1.239297 -1.08817,-1.269523 -1.08817,-4.171291 v -15.05292 l 2.5995,-0.453402 z"
         style="font-weight:bold;fill:#000000;fill-opacity:1"
         id="path860"
         inkscape:connector-curvature="0" />
      <path
         d="m 153.4855,76.838234 q -2.23678,-0.06045 -3.20404,-1.088163 -0.96725,-1.057936 -0.96725,-3.324942 V 53.533412 l 2.5995,-0.453402 v 19.405572 q 0,1.057937 0.42317,1.541565 0.42318,0.453401 1.48111,0.634761 z"
         style="font-style:normal;font-variant:normal;font-weight:normal;font-stretch:normal;line-height:100%;font-family:'Ubuntu Condensed';-inkscape-font-specification:'Ubuntu Condensed, ';fill:#000000;fill-opacity:1;stroke-width:0.7556687px"
         id="path862"
         inkscape:connector-curvature="0" />
      <path
         d="m 159.2947,76.535967 h -2.5995 V 60.666924 h 2.5995 z m -1.29975,-18.68013 q -0.69521,0 -1.20907,-0.453402 -0.48362,-0.483628 -0.48362,-1.269523 0,-0.785895 0.48362,-1.239297 0.51386,-0.483628 1.20907,-0.483628 0.69522,0 1.17885,0.483628 0.51385,0.453402 0.51385,1.239297 0,0.785895 -0.51385,1.269523 -0.48363,0.453402 -1.17885,0.453402 z"
         style="font-style:normal;font-variant:normal;font-weight:normal;font-stretch:normal;line-height:100%;font-family:'Ubuntu Condensed';-inkscape-font-specification:'Ubuntu Condensed, ';fill:#000000;fill-opacity:1;stroke-width:0.7556687px"
         id="path864"
         inkscape:connector-curvature="0" />
      <path
         d="m 164.01574,61.120325 q 1.11839,-0.332494 2.41814,-0.544081 1.29975,-0.241814 2.38791,-0.241814 1.17885,0 2.1461,0.332494 0.96726,0.302268 1.63225,1.057936 0.69521,0.755669 1.05793,2.055419 0.39295,1.269523 0.39295,3.173809 v 9.581879 h -2.5995 v -9.370292 q 0,-2.357686 -0.60453,-3.445849 -0.60454,-1.088163 -2.26701,-1.088163 -0.87658,0 -1.96474,0.302267 v 13.602037 h -2.5995 z"
         style="font-style:normal;font-variant:normal;font-weight:normal;font-stretch:normal;line-height:100%;font-family:'Ubuntu Condensed';-inkscape-font-specification:'Ubuntu Condensed, ';fill:#000000;fill-opacity:1;stroke-width:0.7556687px"
         id="path866"
         inkscape:connector-curvature="0" />
      <path
         d="m 180.38117,69.372227 q 0.0302,1.148617 0.21158,2.115873 0.18136,0.937029 0.57431,1.662471 0.42318,0.695215 1.08816,1.088163 0.69522,0.392947 1.75315,0.392947 0.87658,0 1.60202,-0.241814 0.75567,-0.27204 1.08817,-0.453401 l 0.48362,2.085646 q -0.39294,0.272041 -1.32997,0.574308 -0.90681,0.332494 -2.17633,0.332494 -1.66247,0 -2.81109,-0.604535 -1.11839,-0.604535 -1.84383,-1.692698 -0.69521,-1.088162 -0.99748,-2.5995 -0.30227,-1.511337 -0.30227,-3.324942 0,-4.382878 1.45089,-6.408071 1.45088,-2.025192 3.83879,-2.025192 2.69018,0 3.80857,2.025192 1.11839,2.025193 1.11839,5.682629 0,0.332494 0,0.695215 0,0.332494 -0.0302,0.695215 z m 2.62972,-6.891698 q -1.29975,0 -1.90428,1.29975 -0.57431,1.29975 -0.69522,3.476076 h 4.80605 q 0,-2.206553 -0.4534,-3.476076 -0.4534,-1.29975 -1.75315,-1.29975 z"
         style="font-style:normal;font-variant:normal;font-weight:normal;font-stretch:normal;line-height:100%;font-family:'Ubuntu Condensed';-inkscape-font-specification:'Ubuntu Condensed, ';fill:#000000;fill-opacity:1;stroke-width:0.7556687px"
         id="path868"
         inkscape:connector-curvature="0" />
      <path
         d="m 193.9695,74.692135 q 1.14862,0 1.72293,-0.634762 0.60453,-0.664988 0.60453,-1.722924 0,-0.664989 -0.24181,-1.11839 -0.24181,-0.483628 -0.63476,-0.846349 -0.39295,-0.362721 -0.9068,-0.634762 -0.51386,-0.302267 -1.02771,-0.634761 -0.51386,-0.302268 -0.99749,-0.695216 -0.48362,-0.423174 -0.87657,-0.937029 -0.36272,-0.544081 -0.60454,-1.20907 -0.21158,-0.695215 -0.21158,-1.602017 0,-1.964739 1.20907,-3.173809 1.23929,-1.20907 3.32494,-1.20907 0.87657,0 1.66247,0.241814 0.78589,0.211588 1.29975,0.483628 l -0.57431,2.085646 q -0.54408,-0.302268 -1.08816,-0.453401 -0.54408,-0.151134 -1.17884,-0.151134 -0.96726,0 -1.54157,0.574308 -0.57431,0.544082 -0.57431,1.602018 0,0.604535 0.21159,1.057936 0.21159,0.423174 0.54408,0.785895 0.36272,0.332495 0.7859,0.634762 0.4534,0.302268 0.93703,0.574308 0.5743,0.332494 1.11839,0.725442 0.5743,0.392948 0.99748,0.937029 0.4534,0.513855 0.72544,1.239297 0.27204,0.695215 0.27204,1.692698 0,2.085645 -1.2393,3.355169 -1.20907,1.269523 -3.56675,1.269523 -1.20907,0 -2.17633,-0.332494 -0.96725,-0.332494 -1.45088,-0.604535 l 0.54408,-2.146099 q 0.4534,0.241814 1.20907,0.544081 0.7859,0.302268 1.72292,0.302268 z"
         style="font-style:normal;font-variant:normal;font-weight:normal;font-stretch:normal;line-height:100%;font-family:'Ubuntu Condensed';-inkscape-font-specification:'Ubuntu Condensed, ';fill:#000000;fill-opacity:1;stroke-width:0.7556687px"
         id="path870"
         inkscape:connector-curvature="0" />
    </g>
  </g>
</svg>
