<?xml version="1.0" encoding="UTF-8" standalone="no"?>
<svg
   xmlns:dc="http://purl.org/dc/elements/1.1/"
   xmlns:cc="http://creativecommons.org/ns#"
   xmlns:rdf="http://www.w3.org/1999/02/22-rdf-syntax-ns#"
   xmlns:svg="http://www.w3.org/2000/svg"
   xmlns="http://www.w3.org/2000/svg"
   height="106"
   width="99.199593"
   version="1.1"
   viewBox="0 0 99.199594 106"
   data-name="Layer 1"
   id="Layer_1">
  <metadata
     id="metadata39">
    <rdf:RDF>
      <cc:Work
         rdf:about="">
        <dc:format>image/svg+xml</dc:format>
        <dc:type
           rdf:resource="http://purl.org/dc/dcmitype/StillImage" />
        <dc:title>g</dc:title>
      </cc:Work>
    </rdf:RDF>
  </metadata>
  <defs
     id="defs4">
    <style
       id="style2">.cls-1{fill:red;}</style>
  </defs>
  <title
     id="title6">g</title>
  <path
     style="fill:#fb8500;stroke-width:1.79904962"
     id="path34"
     d="m 55.500679,0.935506 -0.539715,-0.08995 h -0.773591 l 8.34759,15.345893 c 14.788187,6.080788 23.945349,19.789545 23.945349,36.844535 0,23.387644 -17.774609,40.262729 -42.277664,40.262729 H 12.71928 V 12.719283 H 33.912084 L 39.848948,23.639514 27.93924,44.004755 a 22.110319,22.110319 0 1 0 37.546164,0.08995 L 41.468092,0 H 0 v 106 h 44.202648 c 31.879158,0 54.996945,-22.290224 54.996945,-53 0,-26.535981 -17.558724,-47.458927 -43.698914,-52.064494 z m -8.545486,35.747115 7.448066,13.690767 0.215886,0.35981 a 9.3910387,9.3910387 0 1 1 -15.867618,0 z"
     class="cls-1" />
</svg>
