<?xml version="1.0" encoding="UTF-8" standalone="no"?>
<svg
   xmlns:dc="http://purl.org/dc/elements/1.1/"
   xmlns:cc="http://creativecommons.org/ns#"
   xmlns:rdf="http://www.w3.org/1999/02/22-rdf-syntax-ns#"
   xmlns:svg="http://www.w3.org/2000/svg"
   xmlns="http://www.w3.org/2000/svg"
   xmlns:sodipodi="http://sodipodi.sourceforge.net/DTD/sodipodi-0.dtd"
   xmlns:inkscape="http://www.inkscape.org/namespaces/inkscape"
   id="Layer_1"
   data-name="Layer 1"
   viewBox="0 0 100.00001 106.84892"
   version="1.1"
   sodipodi:docname="droopler-ikona-100.svg"
   width="100.00001"
   height="106.84892"
   inkscape:version="0.92.3 (2405546, 2018-03-11)">
  <metadata
     id="metadata29">
    <rdf:RDF>
      <cc:Work
         rdf:about="">
        <dc:format>image/svg+xml</dc:format>
        <dc:type
           rdf:resource="http://purl.org/dc/dcmitype/StillImage" />
        <dc:title>logo droopler</dc:title>
      </cc:Work>
    </rdf:RDF>
  </metadata>
  <defs
     id="defs27" />
  <sodipodi:namedview
     pagecolor="#ffffff"
     bordercolor="#666666"
     borderopacity="1"
     objecttolerance="10"
     gridtolerance="10"
     guidetolerance="10"
     inkscape:pageopacity="0"
     inkscape:pageshadow="2"
     inkscape:window-width="1920"
     inkscape:window-height="995"
     id="namedview25"
     showgrid="false"
     fit-margin-top="0"
     fit-margin-left="0"
     fit-margin-right="0"
     fit-margin-bottom="0"
     inkscape:zoom="1.0556103"
     inkscape:cx="14.291906"
     inkscape:cy="74.557904"
     inkscape:window-x="0"
     inkscape:window-y="0"
     inkscape:window-maximized="1"
     inkscape:current-layer="Layer_1" />
  <title
     id="title2">logo droopler</title>
  <path
     d="m 34.099935,12.822258 v 0 L 40.07224,23.825 28.149036,44.289241 a 22.305167,22.305167 0 1 0 37.846003,0 L 41.806135,0 H 0 Z m 13.228976,24.146095 7.599171,13.95678 0.128419,0.192662 a 9.3758764,9.3758764 0 0 1 1.455616,5.051844 9.4615025,9.4615025 0 1 1 -18.923004,0 9.3758764,9.3758764 0 0 1 1.455635,-5.051844 z"
     id="path20"
     inkscape:connector-curvature="0"
     style="fill:#196dba;stroke-width:0.32054397" />
  <path
     d="m 55.955574,0.941867 h -0.556549 -0.770621 l 8.36979,15.390993 c 14.984273,6.12215 24.167498,19.907685 24.167498,37.182411 0,23.546726 -17.916916,40.671617 -42.619568,40.671617 H 12.843667 V 12.822258 H 34.121341 L 0,0 V 0 106.83789 H 44.546117 A 56.576351,56.576351 0 0 0 84.190236,91.703779 52.423565,52.423565 0 0 0 99.987948,53.408242 51.952631,51.952631 0 0 0 55.955574,0.941867 Z"
     id="path22"
     inkscape:connector-curvature="0"
     style="fill:#15a6ff;stroke-width:0.32054397" />
</svg>
