<?xml version="1.0" encoding="UTF-8" standalone="no"?>
<svg
   xmlns:dc="http://purl.org/dc/elements/1.1/"
   xmlns:cc="http://creativecommons.org/ns#"
   xmlns:rdf="http://www.w3.org/1999/02/22-rdf-syntax-ns#"
   xmlns:svg="http://www.w3.org/2000/svg"
   xmlns="http://www.w3.org/2000/svg"
   xmlns:sodipodi="http://sodipodi.sourceforge.net/DTD/sodipodi-0.dtd"
   xmlns:inkscape="http://www.inkscape.org/namespaces/inkscape"
   width="100"
   height="97.964867"
   version="1.1"
   id="svg21"
   sodipodi:docname="demo_muffin.svg"
   inkscape:version="0.92.3 (2405546, 2018-03-11)">
  <defs
     id="defs25" />
  <sodipodi:namedview
     pagecolor="#ffffff"
     bordercolor="#666666"
     borderopacity="1"
     objecttolerance="10"
     gridtolerance="10"
     guidetolerance="10"
     inkscape:pageopacity="0"
     inkscape:pageshadow="2"
     inkscape:window-width="1680"
     inkscape:window-height="965"
     id="namedview23"
     showgrid="false"
     inkscape:zoom="3.2551723"
     inkscape:cx="29.638854"
     inkscape:cy="34.353225"
     inkscape:window-x="0"
     inkscape:window-y="0"
     inkscape:window-maximized="1"
     inkscape:current-layer="svg21"
     fit-margin-top="0"
     fit-margin-left="0"
     fit-margin-right="0"
     fit-margin-bottom="0" />
  <title
     id="title2">Pink cupcake</title>
  <metadata
     id="metadata16">image/svg+xml<rdf:RDF>
  <cc:Work
     rdf:about="">
    <dc:format>image/svg+xml</dc:format>
    <dc:type
       rdf:resource="http://purl.org/dc/dcmitype/StillImage" />
    <dc:title>Pink cupcake</dc:title>
  </cc:Work>
</rdf:RDF>
</metadata>
  <path
     style="fill:none;fill-rule:evenodd;stroke:#ff6600;stroke-width:1.99355483;stroke-miterlimit:4;stroke-dasharray:none"
     d="M 50.003906 0.99609375 C 43.49801 0.99609375 38.15842 4.8571077 37.681641 9.7519531 C 26.251256 12.232145 16.870062 17.961963 11.765625 25.388672 C 5.6921506 26.102335 0.99609375 30.855635 0.99609375 36.617188 C 0.99609375 42.871437 6.5288807 47.941406 13.351562 47.941406 C 14.245005 47.941406 15.111876 47.847078 15.951172 47.681641 L 29.564453 96.574219 L 69.941406 96.962891 L 82.75 48.326172 C 83.976318 48.70082 85.284611 48.908203 86.648438 48.908203 C 93.471418 48.908203 99.003906 43.838224 99.003906 37.583984 C 99.003906 32.353942 95.133947 27.95558 89.876953 26.654297 C 84.885231 18.431771 74.754309 12.089087 62.298828 9.5820312 C 61.715115 4.7690516 56.433131 0.99609375 50.003906 0.99609375 z "
     id="path2422" />
  <path
     style="fill:none;fill-rule:evenodd;stroke:#ff6600;stroke-width:1.99355483;stroke-linecap:round;stroke-linejoin:round;stroke-miterlimit:4;stroke-dasharray:none;stroke-dashoffset:0"
     d="m 50.003937,0.99677742 c -6.505896,0 -11.846091,3.86087778 -12.32287,8.75572318 C 26.250682,12.232692 16.86965,17.962458 11.765213,25.389167 5.6917386,26.10283 0.99677742,30.855465 0.99677742,36.617018 c 0,6.25425 5.53114778,11.324109 12.35382958,11.324109 2.715571,0 5.22428,-0.805137 7.263228,-2.166416 2.090023,1.485577 4.711588,2.37247 7.561046,2.37247 2.701047,0 5.198004,-0.796904 7.231121,-2.145016 2.108234,1.535058 4.774385,2.454106 7.675894,2.454106 2.715411,0 5.22434,-0.805276 7.263218,-2.166416 2.089924,1.485358 4.711887,2.371902 7.561045,2.371902 2.567779,0 4.952439,-0.718338 6.928241,-1.947404 1.988133,1.253348 4.394912,1.989069 6.990161,1.989069 2.715282,0 5.22439,-0.805396 7.263218,-2.166406 2.089983,1.485508 4.712275,2.371902 7.561614,2.371902 6.822981,0 12.35383,-5.069869 12.35383,-11.324109 0,-5.230042 -3.869181,-9.629867 -9.126175,-10.93115 C 84.885326,18.431133 74.755266,12.088409 62.299785,9.5813535 61.716072,4.7683739 56.433162,0.99677742 50.003937,0.99677742 Z"
     id="path2387"
     inkscape:connector-curvature="0" />
  <path
     style="fill:none;stroke:#ff6600;stroke-width:2;stroke-linecap:butt;stroke-linejoin:miter;stroke-miterlimit:4;stroke-dasharray:none;stroke-opacity:1"
     d="m 60.317283,90.964867 5.222458,-34.472"
     id="path814"
     inkscape:connector-curvature="0"
     sodipodi:nodetypes="cc" />
  <path
     inkscape:connector-curvature="0"
     id="path816"
     d="m 39.4498,90.964867 -5.222458,-34.472"
     style="fill:none;stroke:#ff6600;stroke-width:2;stroke-linecap:butt;stroke-linejoin:miter;stroke-miterlimit:4;stroke-dasharray:none;stroke-opacity:1"
     sodipodi:nodetypes="cc" />
  <path
     inkscape:connector-curvature="0"
     id="path818"
     d="m 49.853196,90.964867 v -34.472"
     style="fill:none;stroke:#ff6600;stroke-width:2;stroke-linecap:butt;stroke-linejoin:miter;stroke-miterlimit:4;stroke-dasharray:none;stroke-opacity:1"
     sodipodi:nodetypes="cc" />
</svg>
