<?xml version="1.0" encoding="UTF-8" standalone="no"?>
<svg
   xmlns:dc="http://purl.org/dc/elements/1.1/"
   xmlns:cc="http://creativecommons.org/ns#"
   xmlns:rdf="http://www.w3.org/1999/02/22-rdf-syntax-ns#"
   xmlns:svg="http://www.w3.org/2000/svg"
   xmlns="http://www.w3.org/2000/svg"
   xmlns:sodipodi="http://sodipodi.sourceforge.net/DTD/sodipodi-0.dtd"
   xmlns:inkscape="http://www.inkscape.org/namespaces/inkscape"
   id="Layer_1"
   data-name="Layer 1"
   viewBox="0 0 100 100"
   version="1.1"
   sodipodi:docname="droopler-ikona-white.svg"
   width="100"
   height="100"
   inkscape:version="0.92.3 (2405546, 2018-03-11)">
  <metadata
     id="metadata29">
    <rdf:RDF>
      <cc:Work
         rdf:about="">
        <dc:format>image/svg+xml</dc:format>
        <dc:type
           rdf:resource="http://purl.org/dc/dcmitype/StillImage" />
        <dc:title>logo droopler</dc:title>
      </cc:Work>
    </rdf:RDF>
  </metadata>
  <defs
     id="defs27" />
  <sodipodi:namedview
     pagecolor="#ffffff"
     bordercolor="#666666"
     borderopacity="1"
     objecttolerance="10"
     gridtolerance="10"
     guidetolerance="10"
     inkscape:pageopacity="0"
     inkscape:pageshadow="2"
     inkscape:window-width="1920"
     inkscape:window-height="1043"
     id="namedview25"
     showgrid="false"
     fit-margin-top="0"
     fit-margin-left="0"
     fit-margin-right="0"
     fit-margin-bottom="0"
     inkscape:zoom="1.0556103"
     inkscape:cx="481.86536"
     inkscape:cy="182.60125"
     inkscape:window-x="3840"
     inkscape:window-y="0"
     inkscape:window-maximized="1"
     inkscape:current-layer="Layer_1" />
  <title
     id="title2">logo droopler</title>
  <path
     id="path22"
     style="fill:#ffffff;stroke-width:2.00339985"
     d="m 55.658381,0.881494 h -0.520875 -0.721225 l 7.833294,14.404444 c 14.023795,5.729726 22.618382,18.63162 22.618382,34.799052 0,22.037401 -16.768457,38.064602 -39.887691,38.064602 H 15.309909 V 12.000363 H 35.223703 L 3.2895106,0 V 0 99.989679 H 44.98026 A 52.949857,52.949857 0 0 0 82.083226,85.825648 49.063261,49.063261 0 0 0 96.868314,49.984821 48.622513,48.622513 0 0 0 55.658381,0.881494 Z M 35.203669,12.000363 v 0 L 40.793154,22.297839 29.634218,41.45034 a 20.875426,20.875426 0 1 0 35.420107,0 L 42.415908,0 H 3.2895106 Z m 12.381011,22.598351 7.11207,13.062163 0.120187,0.180313 a 8.774891,8.774891 0 0 1 1.362313,4.728025 8.8550285,8.8550285 0 1 1 -17.710056,0 8.774891,8.774891 0 0 1 1.36233,-4.728025 z" />
</svg>
